<?xml version="1.0" standalone="no"?>
 <!DOCTYPE svg PUBLIC "-//W3C//DTD SVG 1.1//EN" 
 "http://www.w3.org/Graphics/SVG/1.1/DTD/svg11.dtd"> 
<svg
  xmlns:svg="http://www.w3.org/2000/svg"
  xmlns="http://www.w3.org/2000/svg"
  xmlns:xlink="http://www.w3.org/1999/xlink"
  version="1.1"
  width="297.0022mm" height="210.0072mm" viewBox="0.0000 0.0000 297.0022 210.0072">
<title>SVG Image created as dc-labubu-protype-ver-2.0-F_Fab.svg date 2025/07/29 20:52:50 </title>
  <desc>Image generated by PCBNEW </desc>
<g style="fill:#000000; fill-opacity:1.0000;stroke:#000000; stroke-opacity:1.0000;
stroke-linecap:round; stroke-linejoin:round;"
 transform="translate(0 0) scale(1 1)">
</g>
<g style="fill:none; 
stroke:#000000; stroke-width:0.1500; stroke-opacity:1; 
stroke-linecap:round; stroke-linejoin:round;">
<g transform="rotate(69.000000 148.2800 130.5234)">
<text x="148.2800" y="131.0234"
textLength="2.9643" font-size="1.3333" lengthAdjust="spacingAndGlyphs"
text-anchor="middle" opacity="0" stroke-opacity="0">LED</text>
</g>
<g class="stroked-text"><desc>LED</desc>
<path d="M147.6250 130.0863
L147.4544 129.6417
" />
<path d="M147.4544 129.6417
L148.3880 129.2833
" />
<path d="M148.2335 130.2098
L148.3530 130.5209
" />
<path d="M147.9151 130.8420
L147.7445 130.3975
" />
<path d="M147.7445 130.3975
L148.6781 130.0391
" />
<path d="M148.6781 130.0391
L148.8487 130.4837
" />
<path d="M148.0687 131.2421
L149.0023 130.8838
" />
<path d="M149.0023 130.8838
L149.0876 131.1061
" />
<path d="M149.0876 131.1061
L149.0944 131.2565
" />
<path d="M149.0944 131.2565
L149.0396 131.3795
" />
<path d="M149.0396 131.3795
L148.9677 131.4581
" />
<path d="M148.9677 131.4581
L148.8070 131.5708
" />
<path d="M148.8070 131.5708
L148.6736 131.6220
" />
<path d="M148.6736 131.6220
L148.4787 131.6458
" />
<path d="M148.4787 131.6458
L148.3727 131.6355
" />
<path d="M148.3727 131.6355
L148.2497 131.5807
" />
<path d="M148.2497 131.5807
L148.1541 131.4644
" />
<path d="M148.1541 131.4644
L148.0687 131.2421
" />
</g></g>
<g style="fill:none; 
stroke:#000000; stroke-width:0.1200; stroke-opacity:1; 
stroke-linecap:round; stroke-linejoin:round;">
<g transform="rotate(69.000000 149.9791 129.8712)">
<text x="149.9791" y="130.2712"
textLength="2.5238" font-size="1.0667" lengthAdjust="spacingAndGlyphs"
text-anchor="middle" opacity="0" stroke-opacity="0">D10</text>
</g>
<g class="stroked-text"><desc>D10</desc>
<path d="M149.2913 129.0947
L150.0382 128.8080
" />
<path d="M150.0382 128.8080
L150.1064 128.9858
" />
<path d="M150.1064 128.9858
L150.1118 129.1062
" />
<path d="M150.1118 129.1062
L150.0680 129.2046
" />
<path d="M150.0680 129.2046
L150.0105 129.2675
" />
<path d="M150.0105 129.2675
L149.8819 129.3577
" />
<path d="M149.8819 129.3577
L149.7752 129.3986
" />
<path d="M149.7752 129.3986
L149.6193 129.4177
" />
<path d="M149.6193 129.4177
L149.5345 129.4094
" />
<path d="M149.5345 129.4094
L149.4361 129.3656
" />
<path d="M149.4361 129.3656
L149.3596 129.2725
" />
<path d="M149.3596 129.2725
L149.2913 129.0947
" />
<path d="M149.7282 130.2328
L149.5644 129.8060
" />
<path d="M149.6463 130.0194
L150.3931 129.7327
" />
<path d="M150.3931 129.7327
L150.2591 129.7025
" />
<path d="M150.2591 129.7025
L150.1607 129.6587
" />
<path d="M150.1607 129.6587
L150.0978 129.6012
" />
<path d="M150.6525 130.4084
L150.6798 130.4796
" />
<path d="M150.6798 130.4796
L150.6716 130.5643
" />
<path d="M150.6716 130.5643
L150.6497 130.6136
" />
<path d="M150.6497 130.6136
L150.5922 130.6764
" />
<path d="M150.5922 130.6764
L150.4636 130.7666
" />
<path d="M150.4636 130.7666
L150.2858 130.8349
" />
<path d="M150.2858 130.8349
L150.1298 130.8539
" />
<path d="M150.1298 130.8539
L150.0451 130.8456
" />
<path d="M150.0451 130.8456
L149.9958 130.8237
" />
<path d="M149.9958 130.8237
L149.9330 130.7663
" />
<path d="M149.9330 130.7663
L149.9057 130.6951
" />
<path d="M149.9057 130.6951
L149.9139 130.6103
" />
<path d="M149.9139 130.6103
L149.9358 130.5611
" />
<path d="M149.9358 130.5611
L149.9933 130.4983
" />
<path d="M149.9933 130.4983
L150.1219 130.4081
" />
<path d="M150.1219 130.4081
L150.2998 130.3398
" />
<path d="M150.2998 130.3398
L150.4557 130.3208
" />
<path d="M150.4557 130.3208
L150.5404 130.3290
" />
<path d="M150.5404 130.3290
L150.5897 130.3510
" />
<path d="M150.5897 130.3510
L150.6525 130.4084
" />
</g></g>
<g style="fill:none; 
stroke:#000000; stroke-width:0.1500; stroke-opacity:1; 
stroke-linecap:round; stroke-linejoin:round;">
<text x="147.2299" y="91.3712"
textLength="25.3452" font-size="1.3333" lengthAdjust="spacingAndGlyphs"
text-anchor="middle" opacity="0" stroke-opacity="0">Badgelife_sao_connector_v169bis</text>
<g class="stroked-text"><desc>Badgelife_sao_connector_v169bis</desc>
<path d="M135.2538 90.8022
L135.3966 90.8498
" />
<path d="M135.3966 90.8498
L135.4442 90.8974
" />
<path d="M135.4442 90.8974
L135.4918 90.9926
" />
<path d="M135.4918 90.9926
L135.4918 91.1355
" />
<path d="M135.4918 91.1355
L135.4442 91.2307
" />
<path d="M135.4442 91.2307
L135.3966 91.2784
" />
<path d="M135.3966 91.2784
L135.3014 91.3260
" />
<path d="M135.3014 91.3260
L134.9204 91.3260
" />
<path d="M134.9204 91.3260
L134.9204 90.3260
" />
<path d="M134.9204 90.3260
L135.2538 90.3260
" />
<path d="M135.2538 90.3260
L135.3490 90.3736
" />
<path d="M135.3490 90.3736
L135.3966 90.4212
" />
<path d="M135.3966 90.4212
L135.4442 90.5165
" />
<path d="M135.4442 90.5165
L135.4442 90.6117
" />
<path d="M135.4442 90.6117
L135.3966 90.7069
" />
<path d="M135.3966 90.7069
L135.3490 90.7546
" />
<path d="M135.3490 90.7546
L135.2538 90.8022
" />
<path d="M135.2538 90.8022
L134.9204 90.8022
" />
<path d="M136.3490 91.3260
L136.3490 90.8022
" />
<path d="M136.3490 90.8022
L136.3014 90.7069
" />
<path d="M136.3014 90.7069
L136.2061 90.6593
" />
<path d="M136.2061 90.6593
L136.0157 90.6593
" />
<path d="M136.0157 90.6593
L135.9204 90.7069
" />
<path d="M136.3490 91.2784
L136.2538 91.3260
" />
<path d="M136.2538 91.3260
L136.0157 91.3260
" />
<path d="M136.0157 91.3260
L135.9204 91.2784
" />
<path d="M135.9204 91.2784
L135.8728 91.1831
" />
<path d="M135.8728 91.1831
L135.8728 91.0879
" />
<path d="M135.8728 91.0879
L135.9204 90.9926
" />
<path d="M135.9204 90.9926
L136.0157 90.9450
" />
<path d="M136.0157 90.9450
L136.2538 90.9450
" />
<path d="M136.2538 90.9450
L136.3490 90.8974
" />
<path d="M137.2538 91.3260
L137.2538 90.3260
" />
<path d="M137.2538 91.2784
L137.1585 91.3260
" />
<path d="M137.1585 91.3260
L136.9680 91.3260
" />
<path d="M136.9680 91.3260
L136.8728 91.2784
" />
<path d="M136.8728 91.2784
L136.8252 91.2307
" />
<path d="M136.8252 91.2307
L136.7776 91.1355
" />
<path d="M136.7776 91.1355
L136.7776 90.8498
" />
<path d="M136.7776 90.8498
L136.8252 90.7546
" />
<path d="M136.8252 90.7546
L136.8728 90.7069
" />
<path d="M136.8728 90.7069
L136.9680 90.6593
" />
<path d="M136.9680 90.6593
L137.1585 90.6593
" />
<path d="M137.1585 90.6593
L137.2538 90.7069
" />
<path d="M138.1585 90.6593
L138.1585 91.4688
" />
<path d="M138.1585 91.4688
L138.1109 91.5641
" />
<path d="M138.1109 91.5641
L138.0633 91.6117
" />
<path d="M138.0633 91.6117
L137.9680 91.6593
" />
<path d="M137.9680 91.6593
L137.8252 91.6593
" />
<path d="M137.8252 91.6593
L137.7299 91.6117
" />
<path d="M138.1585 91.2784
L138.0633 91.3260
" />
<path d="M138.0633 91.3260
L137.8728 91.3260
" />
<path d="M137.8728 91.3260
L137.7776 91.2784
" />
<path d="M137.7776 91.2784
L137.7299 91.2307
" />
<path d="M137.7299 91.2307
L137.6823 91.1355
" />
<path d="M137.6823 91.1355
L137.6823 90.8498
" />
<path d="M137.6823 90.8498
L137.7299 90.7546
" />
<path d="M137.7299 90.7546
L137.7776 90.7069
" />
<path d="M137.7776 90.7069
L137.8728 90.6593
" />
<path d="M137.8728 90.6593
L138.0633 90.6593
" />
<path d="M138.0633 90.6593
L138.1585 90.7069
" />
<path d="M139.0157 91.2784
L138.9204 91.3260
" />
<path d="M138.9204 91.3260
L138.7299 91.3260
" />
<path d="M138.7299 91.3260
L138.6347 91.2784
" />
<path d="M138.6347 91.2784
L138.5871 91.1831
" />
<path d="M138.5871 91.1831
L138.5871 90.8022
" />
<path d="M138.5871 90.8022
L138.6347 90.7069
" />
<path d="M138.6347 90.7069
L138.7299 90.6593
" />
<path d="M138.7299 90.6593
L138.9204 90.6593
" />
<path d="M138.9204 90.6593
L139.0157 90.7069
" />
<path d="M139.0157 90.7069
L139.0633 90.8022
" />
<path d="M139.0633 90.8022
L139.0633 90.8974
" />
<path d="M139.0633 90.8974
L138.5871 90.9926
" />
<path d="M139.6347 91.3260
L139.5395 91.2784
" />
<path d="M139.5395 91.2784
L139.4918 91.1831
" />
<path d="M139.4918 91.1831
L139.4918 90.3260
" />
<path d="M140.0157 91.3260
L140.0157 90.6593
" />
<path d="M140.0157 90.3260
L139.9680 90.3736
" />
<path d="M139.9680 90.3736
L140.0157 90.4212
" />
<path d="M140.0157 90.4212
L140.0633 90.3736
" />
<path d="M140.0633 90.3736
L140.0157 90.3260
" />
<path d="M140.0157 90.3260
L140.0157 90.4212
" />
<path d="M140.3490 90.6593
L140.7299 90.6593
" />
<path d="M140.4918 91.3260
L140.4918 90.4688
" />
<path d="M140.4918 90.4688
L140.5395 90.3736
" />
<path d="M140.5395 90.3736
L140.6347 90.3260
" />
<path d="M140.6347 90.3260
L140.7299 90.3260
" />
<path d="M141.4442 91.2784
L141.3490 91.3260
" />
<path d="M141.3490 91.3260
L141.1585 91.3260
" />
<path d="M141.1585 91.3260
L141.0633 91.2784
" />
<path d="M141.0633 91.2784
L141.0157 91.1831
" />
<path d="M141.0157 91.1831
L141.0157 90.8022
" />
<path d="M141.0157 90.8022
L141.0633 90.7069
" />
<path d="M141.0633 90.7069
L141.1585 90.6593
" />
<path d="M141.1585 90.6593
L141.3490 90.6593
" />
<path d="M141.3490 90.6593
L141.4442 90.7069
" />
<path d="M141.4442 90.7069
L141.4918 90.8022
" />
<path d="M141.4918 90.8022
L141.4918 90.8974
" />
<path d="M141.4918 90.8974
L141.0157 90.9926
" />
<path d="M141.6823 91.4212
L142.4442 91.4212
" />
<path d="M142.6347 91.2784
L142.7299 91.3260
" />
<path d="M142.7299 91.3260
L142.9204 91.3260
" />
<path d="M142.9204 91.3260
L143.0157 91.2784
" />
<path d="M143.0157 91.2784
L143.0633 91.1831
" />
<path d="M143.0633 91.1831
L143.0633 91.1355
" />
<path d="M143.0633 91.1355
L143.0157 91.0403
" />
<path d="M143.0157 91.0403
L142.9204 90.9926
" />
<path d="M142.9204 90.9926
L142.7776 90.9926
" />
<path d="M142.7776 90.9926
L142.6823 90.9450
" />
<path d="M142.6823 90.9450
L142.6347 90.8498
" />
<path d="M142.6347 90.8498
L142.6347 90.8022
" />
<path d="M142.6347 90.8022
L142.6823 90.7069
" />
<path d="M142.6823 90.7069
L142.7776 90.6593
" />
<path d="M142.7776 90.6593
L142.9204 90.6593
" />
<path d="M142.9204 90.6593
L143.0157 90.7069
" />
<path d="M143.9204 91.3260
L143.9204 90.8022
" />
<path d="M143.9204 90.8022
L143.8728 90.7069
" />
<path d="M143.8728 90.7069
L143.7776 90.6593
" />
<path d="M143.7776 90.6593
L143.5871 90.6593
" />
<path d="M143.5871 90.6593
L143.4918 90.7069
" />
<path d="M143.9204 91.2784
L143.8252 91.3260
" />
<path d="M143.8252 91.3260
L143.5871 91.3260
" />
<path d="M143.5871 91.3260
L143.4918 91.2784
" />
<path d="M143.4918 91.2784
L143.4442 91.1831
" />
<path d="M143.4442 91.1831
L143.4442 91.0879
" />
<path d="M143.4442 91.0879
L143.4918 90.9926
" />
<path d="M143.4918 90.9926
L143.5871 90.9450
" />
<path d="M143.5871 90.9450
L143.8252 90.9450
" />
<path d="M143.8252 90.9450
L143.9204 90.8974
" />
<path d="M144.5395 91.3260
L144.4442 91.2784
" />
<path d="M144.4442 91.2784
L144.3966 91.2307
" />
<path d="M144.3966 91.2307
L144.3490 91.1355
" />
<path d="M144.3490 91.1355
L144.3490 90.8498
" />
<path d="M144.3490 90.8498
L144.3966 90.7546
" />
<path d="M144.3966 90.7546
L144.4442 90.7069
" />
<path d="M144.4442 90.7069
L144.5395 90.6593
" />
<path d="M144.5395 90.6593
L144.6823 90.6593
" />
<path d="M144.6823 90.6593
L144.7776 90.7069
" />
<path d="M144.7776 90.7069
L144.8252 90.7546
" />
<path d="M144.8252 90.7546
L144.8728 90.8498
" />
<path d="M144.8728 90.8498
L144.8728 91.1355
" />
<path d="M144.8728 91.1355
L144.8252 91.2307
" />
<path d="M144.8252 91.2307
L144.7776 91.2784
" />
<path d="M144.7776 91.2784
L144.6823 91.3260
" />
<path d="M144.6823 91.3260
L144.5395 91.3260
" />
<path d="M145.0633 91.4212
L145.8252 91.4212
" />
<path d="M146.4918 91.2784
L146.3966 91.3260
" />
<path d="M146.3966 91.3260
L146.2061 91.3260
" />
<path d="M146.2061 91.3260
L146.1109 91.2784
" />
<path d="M146.1109 91.2784
L146.0633 91.2307
" />
<path d="M146.0633 91.2307
L146.0157 91.1355
" />
<path d="M146.0157 91.1355
L146.0157 90.8498
" />
<path d="M146.0157 90.8498
L146.0633 90.7546
" />
<path d="M146.0633 90.7546
L146.1109 90.7069
" />
<path d="M146.1109 90.7069
L146.2061 90.6593
" />
<path d="M146.2061 90.6593
L146.3966 90.6593
" />
<path d="M146.3966 90.6593
L146.4918 90.7069
" />
<path d="M147.0633 91.3260
L146.9680 91.2784
" />
<path d="M146.9680 91.2784
L146.9204 91.2307
" />
<path d="M146.9204 91.2307
L146.8728 91.1355
" />
<path d="M146.8728 91.1355
L146.8728 90.8498
" />
<path d="M146.8728 90.8498
L146.9204 90.7546
" />
<path d="M146.9204 90.7546
L146.9680 90.7069
" />
<path d="M146.9680 90.7069
L147.0633 90.6593
" />
<path d="M147.0633 90.6593
L147.2061 90.6593
" />
<path d="M147.2061 90.6593
L147.3014 90.7069
" />
<path d="M147.3014 90.7069
L147.3490 90.7546
" />
<path d="M147.3490 90.7546
L147.3966 90.8498
" />
<path d="M147.3966 90.8498
L147.3966 91.1355
" />
<path d="M147.3966 91.1355
L147.3490 91.2307
" />
<path d="M147.3490 91.2307
L147.3014 91.2784
" />
<path d="M147.3014 91.2784
L147.2061 91.3260
" />
<path d="M147.2061 91.3260
L147.0633 91.3260
" />
<path d="M147.8252 90.6593
L147.8252 91.3260
" />
<path d="M147.8252 90.7546
L147.8728 90.7069
" />
<path d="M147.8728 90.7069
L147.9680 90.6593
" />
<path d="M147.9680 90.6593
L148.1109 90.6593
" />
<path d="M148.1109 90.6593
L148.2061 90.7069
" />
<path d="M148.2061 90.7069
L148.2538 90.8022
" />
<path d="M148.2538 90.8022
L148.2538 91.3260
" />
<path d="M148.7299 90.6593
L148.7299 91.3260
" />
<path d="M148.7299 90.7546
L148.7776 90.7069
" />
<path d="M148.7776 90.7069
L148.8728 90.6593
" />
<path d="M148.8728 90.6593
L149.0157 90.6593
" />
<path d="M149.0157 90.6593
L149.1109 90.7069
" />
<path d="M149.1109 90.7069
L149.1585 90.8022
" />
<path d="M149.1585 90.8022
L149.1585 91.3260
" />
<path d="M150.0157 91.2784
L149.9204 91.3260
" />
<path d="M149.9204 91.3260
L149.7299 91.3260
" />
<path d="M149.7299 91.3260
L149.6347 91.2784
" />
<path d="M149.6347 91.2784
L149.5871 91.1831
" />
<path d="M149.5871 91.1831
L149.5871 90.8022
" />
<path d="M149.5871 90.8022
L149.6347 90.7069
" />
<path d="M149.6347 90.7069
L149.7299 90.6593
" />
<path d="M149.7299 90.6593
L149.9204 90.6593
" />
<path d="M149.9204 90.6593
L150.0157 90.7069
" />
<path d="M150.0157 90.7069
L150.0633 90.8022
" />
<path d="M150.0633 90.8022
L150.0633 90.8974
" />
<path d="M150.0633 90.8974
L149.5871 90.9926
" />
<path d="M150.9204 91.2784
L150.8252 91.3260
" />
<path d="M150.8252 91.3260
L150.6347 91.3260
" />
<path d="M150.6347 91.3260
L150.5395 91.2784
" />
<path d="M150.5395 91.2784
L150.4918 91.2307
" />
<path d="M150.4918 91.2307
L150.4442 91.1355
" />
<path d="M150.4442 91.1355
L150.4442 90.8498
" />
<path d="M150.4442 90.8498
L150.4918 90.7546
" />
<path d="M150.4918 90.7546
L150.5395 90.7069
" />
<path d="M150.5395 90.7069
L150.6347 90.6593
" />
<path d="M150.6347 90.6593
L150.8252 90.6593
" />
<path d="M150.8252 90.6593
L150.9204 90.7069
" />
<path d="M151.2061 90.6593
L151.5871 90.6593
" />
<path d="M151.3490 90.3260
L151.3490 91.1831
" />
<path d="M151.3490 91.1831
L151.3966 91.2784
" />
<path d="M151.3966 91.2784
L151.4918 91.3260
" />
<path d="M151.4918 91.3260
L151.5871 91.3260
" />
<path d="M152.0633 91.3260
L151.9680 91.2784
" />
<path d="M151.9680 91.2784
L151.9204 91.2307
" />
<path d="M151.9204 91.2307
L151.8728 91.1355
" />
<path d="M151.8728 91.1355
L151.8728 90.8498
" />
<path d="M151.8728 90.8498
L151.9204 90.7546
" />
<path d="M151.9204 90.7546
L151.9680 90.7069
" />
<path d="M151.9680 90.7069
L152.0633 90.6593
" />
<path d="M152.0633 90.6593
L152.2061 90.6593
" />
<path d="M152.2061 90.6593
L152.3014 90.7069
" />
<path d="M152.3014 90.7069
L152.3490 90.7546
" />
<path d="M152.3490 90.7546
L152.3966 90.8498
" />
<path d="M152.3966 90.8498
L152.3966 91.1355
" />
<path d="M152.3966 91.1355
L152.3490 91.2307
" />
<path d="M152.3490 91.2307
L152.3014 91.2784
" />
<path d="M152.3014 91.2784
L152.2061 91.3260
" />
<path d="M152.2061 91.3260
L152.0633 91.3260
" />
<path d="M152.8252 91.3260
L152.8252 90.6593
" />
<path d="M152.8252 90.8498
L152.8728 90.7546
" />
<path d="M152.8728 90.7546
L152.9204 90.7069
" />
<path d="M152.9204 90.7069
L153.0157 90.6593
" />
<path d="M153.0157 90.6593
L153.1109 90.6593
" />
<path d="M153.2061 91.4212
L153.9680 91.4212
" />
<path d="M154.1109 90.6593
L154.3490 91.3260
" />
<path d="M154.3490 91.3260
L154.5871 90.6593
" />
<path d="M155.4918 91.3260
L154.9204 91.3260
" />
<path d="M155.2061 91.3260
L155.2061 90.3260
" />
<path d="M155.2061 90.3260
L155.1109 90.4688
" />
<path d="M155.1109 90.4688
L155.0157 90.5641
" />
<path d="M155.0157 90.5641
L154.9204 90.6117
" />
<path d="M156.3490 90.3260
L156.1585 90.3260
" />
<path d="M156.1585 90.3260
L156.0633 90.3736
" />
<path d="M156.0633 90.3736
L156.0157 90.4212
" />
<path d="M156.0157 90.4212
L155.9204 90.5641
" />
<path d="M155.9204 90.5641
L155.8728 90.7546
" />
<path d="M155.8728 90.7546
L155.8728 91.1355
" />
<path d="M155.8728 91.1355
L155.9204 91.2307
" />
<path d="M155.9204 91.2307
L155.9680 91.2784
" />
<path d="M155.9680 91.2784
L156.0633 91.3260
" />
<path d="M156.0633 91.3260
L156.2538 91.3260
" />
<path d="M156.2538 91.3260
L156.3490 91.2784
" />
<path d="M156.3490 91.2784
L156.3966 91.2307
" />
<path d="M156.3966 91.2307
L156.4442 91.1355
" />
<path d="M156.4442 91.1355
L156.4442 90.8974
" />
<path d="M156.4442 90.8974
L156.3966 90.8022
" />
<path d="M156.3966 90.8022
L156.3490 90.7546
" />
<path d="M156.3490 90.7546
L156.2538 90.7069
" />
<path d="M156.2538 90.7069
L156.0633 90.7069
" />
<path d="M156.0633 90.7069
L155.9680 90.7546
" />
<path d="M155.9680 90.7546
L155.9204 90.8022
" />
<path d="M155.9204 90.8022
L155.8728 90.8974
" />
<path d="M156.9204 91.3260
L157.1109 91.3260
" />
<path d="M157.1109 91.3260
L157.2061 91.2784
" />
<path d="M157.2061 91.2784
L157.2538 91.2307
" />
<path d="M157.2538 91.2307
L157.3490 91.0879
" />
<path d="M157.3490 91.0879
L157.3966 90.8974
" />
<path d="M157.3966 90.8974
L157.3966 90.5165
" />
<path d="M157.3966 90.5165
L157.3490 90.4212
" />
<path d="M157.3490 90.4212
L157.3014 90.3736
" />
<path d="M157.3014 90.3736
L157.2061 90.3260
" />
<path d="M157.2061 90.3260
L157.0157 90.3260
" />
<path d="M157.0157 90.3260
L156.9204 90.3736
" />
<path d="M156.9204 90.3736
L156.8728 90.4212
" />
<path d="M156.8728 90.4212
L156.8252 90.5165
" />
<path d="M156.8252 90.5165
L156.8252 90.7546
" />
<path d="M156.8252 90.7546
L156.8728 90.8498
" />
<path d="M156.8728 90.8498
L156.9204 90.8974
" />
<path d="M156.9204 90.8974
L157.0157 90.9450
" />
<path d="M157.0157 90.9450
L157.2061 90.9450
" />
<path d="M157.2061 90.9450
L157.3014 90.8974
" />
<path d="M157.3014 90.8974
L157.3490 90.8498
" />
<path d="M157.3490 90.8498
L157.3966 90.7546
" />
<path d="M157.8252 91.3260
L157.8252 90.3260
" />
<path d="M157.8252 90.7069
L157.9204 90.6593
" />
<path d="M157.9204 90.6593
L158.1109 90.6593
" />
<path d="M158.1109 90.6593
L158.2061 90.7069
" />
<path d="M158.2061 90.7069
L158.2538 90.7546
" />
<path d="M158.2538 90.7546
L158.3014 90.8498
" />
<path d="M158.3014 90.8498
L158.3014 91.1355
" />
<path d="M158.3014 91.1355
L158.2538 91.2307
" />
<path d="M158.2538 91.2307
L158.2061 91.2784
" />
<path d="M158.2061 91.2784
L158.1109 91.3260
" />
<path d="M158.1109 91.3260
L157.9204 91.3260
" />
<path d="M157.9204 91.3260
L157.8252 91.2784
" />
<path d="M158.7299 91.3260
L158.7299 90.6593
" />
<path d="M158.7299 90.3260
L158.6823 90.3736
" />
<path d="M158.6823 90.3736
L158.7299 90.4212
" />
<path d="M158.7299 90.4212
L158.7776 90.3736
" />
<path d="M158.7776 90.3736
L158.7299 90.3260
" />
<path d="M158.7299 90.3260
L158.7299 90.4212
" />
<path d="M159.1585 91.2784
L159.2538 91.3260
" />
<path d="M159.2538 91.3260
L159.4442 91.3260
" />
<path d="M159.4442 91.3260
L159.5395 91.2784
" />
<path d="M159.5395 91.2784
L159.5871 91.1831
" />
<path d="M159.5871 91.1831
L159.5871 91.1355
" />
<path d="M159.5871 91.1355
L159.5395 91.0403
" />
<path d="M159.5395 91.0403
L159.4442 90.9926
" />
<path d="M159.4442 90.9926
L159.3014 90.9926
" />
<path d="M159.3014 90.9926
L159.2061 90.9450
" />
<path d="M159.2061 90.9450
L159.1585 90.8498
" />
<path d="M159.1585 90.8498
L159.1585 90.8022
" />
<path d="M159.1585 90.8022
L159.2061 90.7069
" />
<path d="M159.2061 90.7069
L159.3014 90.6593
" />
<path d="M159.3014 90.6593
L159.4442 90.6593
" />
<path d="M159.4442 90.6593
L159.5395 90.7069
" />
</g><g transform="rotate(-90.000000 147.2899 98.5912)">
<text x="147.2899" y="99.0912"
textLength="2.1548" font-size="1.3333" lengthAdjust="spacingAndGlyphs"
text-anchor="middle" opacity="0" stroke-opacity="0">X1</text>
</g>
<g class="stroked-text"><desc>X1</desc>
<path d="M146.7448 99.4007
L147.7448 98.7340
" />
<path d="M146.7448 98.7340
L147.7448 99.4007
" />
<path d="M147.7448 97.8293
L147.7448 98.4007
" />
<path d="M147.7448 98.1150
L146.7448 98.1150
" />
<path d="M146.7448 98.1150
L146.8876 98.2102
" />
<path d="M146.8876 98.2102
L146.9829 98.3054
" />
<path d="M146.9829 98.3054
L147.0305 98.4007
" />
</g><g transform="rotate(-35.000000 166.3313 97.9155)">
<text x="166.3313" y="98.4155"
textLength="2.9643" font-size="1.3333" lengthAdjust="spacingAndGlyphs"
text-anchor="middle" opacity="0" stroke-opacity="0">LED</text>
</g>
<g class="stroked-text"><desc>LED</desc>
<path d="M166.0655 98.6568
L165.6755 98.9300
" />
<path d="M165.6755 98.9300
L165.1019 98.1108
" />
<path d="M166.0381 98.0365
L166.3112 97.8454
" />
<path d="M166.7287 98.1925
L166.3386 98.4656
" />
<path d="M166.3386 98.4656
L165.7650 97.6465
" />
<path d="M165.7650 97.6465
L166.1551 97.3733
" />
<path d="M167.0797 97.9467
L166.5061 97.1275
" />
<path d="M166.5061 97.1275
L166.7012 96.9910
" />
<path d="M166.7012 96.9910
L166.8455 96.9480
" />
<path d="M166.8455 96.9480
L166.9782 96.9714
" />
<path d="M166.9782 96.9714
L167.0718 97.0221
" />
<path d="M167.0718 97.0221
L167.2201 97.1508
" />
<path d="M167.2201 97.1508
L167.3020 97.2679
" />
<path d="M167.3020 97.2679
L167.3722 97.4512
" />
<path d="M167.3722 97.4512
L167.3879 97.5565
" />
<path d="M167.3879 97.5565
L167.3645 97.6892
" />
<path d="M167.3645 97.6892
L167.2748 97.8101
" />
<path d="M167.2748 97.8101
L167.0797 97.9467
" />
</g></g>
<g style="fill:none; 
stroke:#000000; stroke-width:0.1200; stroke-opacity:1; 
stroke-linecap:round; stroke-linejoin:round;">
<g transform="rotate(-35.000000 165.2873 96.4247)">
<text x="165.2873" y="96.8247"
textLength="2.5238" font-size="1.0667" lengthAdjust="spacingAndGlyphs"
text-anchor="middle" opacity="0" stroke-opacity="0">D16</text>
</g>
<g class="stroked-text"><desc>D16</desc>
<path d="M164.7003 97.2799
L164.2414 96.6246
" />
<path d="M164.2414 96.6246
L164.3975 96.5153
" />
<path d="M164.3975 96.5153
L164.5129 96.4810
" />
<path d="M164.5129 96.4810
L164.6190 96.4997
" />
<path d="M164.6190 96.4997
L164.6940 96.5403
" />
<path d="M164.6940 96.5403
L164.8126 96.6432
" />
<path d="M164.8126 96.6432
L164.8781 96.7369
" />
<path d="M164.8781 96.7369
L164.9343 96.8835
" />
<path d="M164.9343 96.8835
L164.9468 96.9678
" />
<path d="M164.9468 96.9678
L164.9281 97.0739
" />
<path d="M164.9281 97.0739
L164.8563 97.1707
" />
<path d="M164.8563 97.1707
L164.7003 97.2799
" />
<path d="M165.6989 96.5807
L165.3244 96.8429
" />
<path d="M165.5117 96.7118
L165.0528 96.0565
" />
<path d="M165.0528 96.0565
L165.0559 96.1938
" />
<path d="M165.0559 96.1938
L165.0372 96.2999
" />
<path d="M165.0372 96.2999
L164.9967 96.3748
" />
<path d="M165.8017 95.5321
L165.6769 95.6195
" />
<path d="M165.6769 95.6195
L165.6363 95.6944
" />
<path d="M165.6363 95.6944
L165.6270 95.7474
" />
<path d="M165.6270 95.7474
L165.6301 95.8847
" />
<path d="M165.6301 95.8847
L165.6863 96.0314
" />
<path d="M165.6863 96.0314
L165.8611 96.2811
" />
<path d="M165.8611 96.2811
L165.9360 96.3216
" />
<path d="M165.9360 96.3216
L165.9891 96.3310
" />
<path d="M165.9891 96.3310
L166.0734 96.3185
" />
<path d="M166.0734 96.3185
L166.1982 96.2311
" />
<path d="M166.1982 96.2311
L166.2387 96.1562
" />
<path d="M166.2387 96.1562
L166.2481 96.1031
" />
<path d="M166.2481 96.1031
L166.2356 96.0189
" />
<path d="M166.2356 96.0189
L166.1263 95.8628
" />
<path d="M166.1263 95.8628
L166.0514 95.8223
" />
<path d="M166.0514 95.8223
L165.9984 95.8129
" />
<path d="M165.9984 95.8129
L165.9141 95.8254
" />
<path d="M165.9141 95.8254
L165.7893 95.9128
" />
<path d="M165.7893 95.9128
L165.7487 95.9877
" />
<path d="M165.7487 95.9877
L165.7394 96.0408
" />
<path d="M165.7394 96.0408
L165.7519 96.1250
" />
</g></g>
<g style="fill:none; 
stroke:#000000; stroke-width:0.1500; stroke-opacity:1; 
stroke-linecap:round; stroke-linejoin:round;">
<g transform="rotate(-90.000000 125.0044 85.2597)">
<text x="125.0044" y="85.7597"
textLength="2.9643" font-size="1.3333" lengthAdjust="spacingAndGlyphs"
text-anchor="middle" opacity="0" stroke-opacity="0">LED</text>
</g>
<g class="stroked-text"><desc>LED</desc>
<path d="M125.4592 85.9026
L125.4592 86.3788
" />
<path d="M125.4592 86.3788
L124.4592 86.3788
" />
<path d="M124.9354 85.5693
L124.9354 85.2359
" />
<path d="M125.4592 85.0931
L125.4592 85.5693
" />
<path d="M125.4592 85.5693
L124.4592 85.5693
" />
<path d="M124.4592 85.5693
L124.4592 85.0931
" />
<path d="M125.4592 84.6645
L124.4592 84.6645
" />
<path d="M124.4592 84.6645
L124.4592 84.4264
" />
<path d="M124.4592 84.4264
L124.5068 84.2835
" />
<path d="M124.5068 84.2835
L124.6021 84.1883
" />
<path d="M124.6021 84.1883
L124.6973 84.1407
" />
<path d="M124.6973 84.1407
L124.8878 84.0931
" />
<path d="M124.8878 84.0931
L125.0307 84.0931
" />
<path d="M125.0307 84.0931
L125.2211 84.1407
" />
<path d="M125.2211 84.1407
L125.3164 84.1883
" />
<path d="M125.3164 84.1883
L125.4116 84.2835
" />
<path d="M125.4116 84.2835
L125.4592 84.4264
" />
<path d="M125.4592 84.4264
L125.4592 84.6645
" />
</g></g>
<g style="fill:none; 
stroke:#000000; stroke-width:0.1200; stroke-opacity:1; 
stroke-linecap:round; stroke-linejoin:round;">
<g transform="rotate(-90.000000 123.1844 85.2597)">
<text x="123.1844" y="85.6597"
textLength="2.5238" font-size="1.0667" lengthAdjust="spacingAndGlyphs"
text-anchor="middle" opacity="0" stroke-opacity="0">D15</text>
</g>
<g class="stroked-text"><desc>D15</desc>
<path d="M123.5483 86.2312
L122.7483 86.2312
" />
<path d="M122.7483 86.2312
L122.7483 86.0407
" />
<path d="M122.7483 86.0407
L122.7864 85.9264
" />
<path d="M122.7864 85.9264
L122.8625 85.8502
" />
<path d="M122.8625 85.8502
L122.9387 85.8121
" />
<path d="M122.9387 85.8121
L123.0911 85.7740
" />
<path d="M123.0911 85.7740
L123.2054 85.7740
" />
<path d="M123.2054 85.7740
L123.3578 85.8121
" />
<path d="M123.3578 85.8121
L123.4340 85.8502
" />
<path d="M123.4340 85.8502
L123.5102 85.9264
" />
<path d="M123.5102 85.9264
L123.5483 86.0407
" />
<path d="M123.5483 86.0407
L123.5483 86.2312
" />
<path d="M123.5483 85.0121
L123.5483 85.4693
" />
<path d="M123.5483 85.2407
L122.7483 85.2407
" />
<path d="M122.7483 85.2407
L122.8625 85.3169
" />
<path d="M122.8625 85.3169
L122.9387 85.3931
" />
<path d="M122.9387 85.3931
L122.9768 85.4693
" />
<path d="M122.7483 84.2883
L122.7483 84.6693
" />
<path d="M122.7483 84.6693
L123.1292 84.7073
" />
<path d="M123.1292 84.7073
L123.0911 84.6693
" />
<path d="M123.0911 84.6693
L123.0530 84.5931
" />
<path d="M123.0530 84.5931
L123.0530 84.4026
" />
<path d="M123.0530 84.4026
L123.0911 84.3264
" />
<path d="M123.0911 84.3264
L123.1292 84.2883
" />
<path d="M123.1292 84.2883
L123.2054 84.2502
" />
<path d="M123.2054 84.2502
L123.3959 84.2502
" />
<path d="M123.3959 84.2502
L123.4721 84.2883
" />
<path d="M123.4721 84.2883
L123.5102 84.3264
" />
<path d="M123.5102 84.3264
L123.5483 84.4026
" />
<path d="M123.5483 84.4026
L123.5483 84.5931
" />
<path d="M123.5483 84.5931
L123.5102 84.6693
" />
<path d="M123.5102 84.6693
L123.4721 84.7073
" />
</g></g>
<g style="fill:none; 
stroke:#000000; stroke-width:0.1500; stroke-opacity:1; 
stroke-linecap:round; stroke-linejoin:round;">
<g transform="rotate(-27.000000 166.8891 114.3689)">
<text x="166.8891" y="114.8689"
textLength="2.9643" font-size="1.3333" lengthAdjust="spacingAndGlyphs"
text-anchor="middle" opacity="0" stroke-opacity="0">LED</text>
</g>
<g class="stroked-text"><desc>LED</desc>
<path d="M166.5228 115.0660
L166.0985 115.2822
" />
<path d="M166.0985 115.2822
L165.6445 114.3912
" />
<path d="M166.5820 114.4480
L166.8790 114.2967
" />
<path d="M167.2441 114.6985
L166.8198 114.9147
" />
<path d="M166.8198 114.9147
L166.3658 114.0237
" />
<path d="M166.3658 114.0237
L166.7901 113.8075
" />
<path d="M167.6260 114.5040
L167.1720 113.6130
" />
<path d="M167.1720 113.6130
L167.3841 113.5049
" />
<path d="M167.3841 113.5049
L167.5330 113.4824
" />
<path d="M167.5330 113.4824
L167.6611 113.5241
" />
<path d="M167.6611 113.5241
L167.7468 113.5873
" />
<path d="M167.7468 113.5873
L167.8757 113.7354
" />
<path d="M167.8757 113.7354
L167.9406 113.8627
" />
<path d="M167.9406 113.8627
L167.9846 114.0540
" />
<path d="M167.9846 114.0540
L167.9854 114.1605
" />
<path d="M167.9854 114.1605
L167.9438 114.2886
" />
<path d="M167.9438 114.2886
L167.8381 114.3959
" />
<path d="M167.8381 114.3959
L167.6260 114.5040
" />
</g></g>
<g style="fill:none; 
stroke:#000000; stroke-width:0.1200; stroke-opacity:1; 
stroke-linecap:round; stroke-linejoin:round;">
<g transform="rotate(-27.000000 166.0629 112.7473)">
<text x="166.0629" y="113.1473"
textLength="2.5238" font-size="1.0667" lengthAdjust="spacingAndGlyphs"
text-anchor="middle" opacity="0" stroke-opacity="0">D14</text>
</g>
<g class="stroked-text"><desc>D14</desc>
<path d="M165.3625 113.5125
L164.9993 112.7997
" />
<path d="M164.9993 112.7997
L165.1690 112.7133
" />
<path d="M165.1690 112.7133
L165.2882 112.6953
" />
<path d="M165.2882 112.6953
L165.3906 112.7286
" />
<path d="M165.3906 112.7286
L165.4592 112.7792
" />
<path d="M165.4592 112.7792
L165.5623 112.8977
" />
<path d="M165.5623 112.8977
L165.6142 112.9995
" />
<path d="M165.6142 112.9995
L165.6494 113.1526
" />
<path d="M165.6494 113.1526
L165.6501 113.2378
" />
<path d="M165.6501 113.2378
L165.6168 113.3402
" />
<path d="M165.6168 113.3402
L165.5322 113.4261
" />
<path d="M165.5322 113.4261
L165.3625 113.5125
" />
<path d="M166.4487 112.9591
L166.0414 113.1666
" />
<path d="M166.2450 113.0629
L165.8818 112.3501
" />
<path d="M165.8818 112.3501
L165.8658 112.4865
" />
<path d="M165.8658 112.4865
L165.8325 112.5890
" />
<path d="M165.8325 112.5890
L165.7819 112.6575
" />
<path d="M166.8175 112.1726
L167.0597 112.6478
" />
<path d="M166.5095 111.9875
L166.5992 112.5831
" />
<path d="M166.5992 112.5831
L167.0404 112.3583
" />
</g></g>
<g style="fill:none; 
stroke:#000000; stroke-width:0.1500; stroke-opacity:1; 
stroke-linecap:round; stroke-linejoin:round;">
<g transform="rotate(-65.000000 127.7538 74.1260)">
<text x="127.7538" y="74.6260"
textLength="2.9643" font-size="1.3333" lengthAdjust="spacingAndGlyphs"
text-anchor="middle" opacity="0" stroke-opacity="0">LED</text>
</g>
<g class="stroked-text"><desc>LED</desc>
<path d="M127.8943 74.9008
L127.6931 75.3324
" />
<path d="M127.6931 75.3324
L126.7868 74.9098
" />
<path d="M127.5604 74.3773
L127.7013 74.0752
" />
<path d="M128.2364 74.1671
L128.0352 74.5987
" />
<path d="M128.0352 74.5987
L127.1289 74.1761
" />
<path d="M127.1289 74.1761
L127.3301 73.7445
" />
<path d="M128.4176 73.7787
L127.5112 73.3561
" />
<path d="M127.5112 73.3561
L127.6119 73.1403
" />
<path d="M127.6119 73.1403
L127.7154 73.0310
" />
<path d="M127.7154 73.0310
L127.8420 72.9849
" />
<path d="M127.8420 72.9849
L127.9484 72.9820
" />
<path d="M127.9484 72.9820
L128.1412 73.0193
" />
<path d="M128.1412 73.0193
L128.2706 73.0797
" />
<path d="M128.2706 73.0797
L128.4231 73.2034
" />
<path d="M128.4231 73.2034
L128.4893 73.2868
" />
<path d="M128.4893 73.2868
L128.5354 73.4133
" />
<path d="M128.5354 73.4133
L128.5182 73.5629
" />
<path d="M128.5182 73.5629
L128.4176 73.7787
" />
</g></g>
<g style="fill:none; 
stroke:#000000; stroke-width:0.1200; stroke-opacity:1; 
stroke-linecap:round; stroke-linejoin:round;">
<g transform="rotate(-65.000000 126.1043 73.3568)">
<text x="126.1043" y="73.7568"
textLength="2.5238" font-size="1.0667" lengthAdjust="spacingAndGlyphs"
text-anchor="middle" opacity="0" stroke-opacity="0">D13</text>
</g>
<g class="stroked-text"><desc>D13</desc>
<path d="M126.0235 74.3910
L125.2985 74.0529
" />
<path d="M125.2985 74.0529
L125.3790 73.8803
" />
<path d="M125.3790 73.8803
L125.4618 73.7928
" />
<path d="M125.4618 73.7928
L125.5631 73.7559
" />
<path d="M125.5631 73.7559
L125.6482 73.7536
" />
<path d="M125.6482 73.7536
L125.8024 73.7835
" />
<path d="M125.8024 73.7835
L125.9060 73.8318
" />
<path d="M125.9060 73.8318
L126.0280 73.9307
" />
<path d="M126.0280 73.9307
L126.0809 73.9974
" />
<path d="M126.0809 73.9974
L126.1178 74.0987
" />
<path d="M126.1178 74.0987
L126.1040 74.2184
" />
<path d="M126.1040 74.2184
L126.0235 74.3910
" />
<path d="M126.5387 73.2862
L126.3455 73.7005
" />
<path d="M126.4421 73.4933
L125.7171 73.1552
" />
<path d="M125.7171 73.1552
L125.7885 73.2726
" />
<path d="M125.7885 73.2726
L125.8253 73.3738
" />
<path d="M125.8253 73.3738
L125.8276 73.4590
" />
<path d="M125.9264 72.7064
L126.1357 72.2575
" />
<path d="M126.1357 72.2575
L126.2992 72.6280
" />
<path d="M126.2992 72.6280
L126.3475 72.5244
" />
<path d="M126.3475 72.5244
L126.4142 72.4715
" />
<path d="M126.4142 72.4715
L126.4648 72.4531
" />
<path d="M126.4648 72.4531
L126.5500 72.4507
" />
<path d="M126.5500 72.4507
L126.7226 72.5312
" />
<path d="M126.7226 72.5312
L126.7756 72.5980
" />
<path d="M126.7756 72.5980
L126.7940 72.6486
" />
<path d="M126.7940 72.6486
L126.7963 72.7337
" />
<path d="M126.7963 72.7337
L126.6997 72.9409
" />
<path d="M126.6997 72.9409
L126.6330 72.9938
" />
<path d="M126.6330 72.9938
L126.5824 73.0123
" />
</g></g>
<g style="fill:none; 
stroke:#000000; stroke-width:0.1500; stroke-opacity:1; 
stroke-linecap:round; stroke-linejoin:round;">
<g transform="rotate(-90.000000 158.9143 121.8005)">
<text x="158.9143" y="122.3005"
textLength="2.9643" font-size="1.3333" lengthAdjust="spacingAndGlyphs"
text-anchor="middle" opacity="0" stroke-opacity="0">LED</text>
</g>
<g class="stroked-text"><desc>LED</desc>
<path d="M159.3691 122.4433
L159.3691 122.9195
" />
<path d="M159.3691 122.9195
L158.3691 122.9195
" />
<path d="M158.8453 122.1100
L158.8453 121.7767
" />
<path d="M159.3691 121.6338
L159.3691 122.1100
" />
<path d="M159.3691 122.1100
L158.3691 122.1100
" />
<path d="M158.3691 122.1100
L158.3691 121.6338
" />
<path d="M159.3691 121.2053
L158.3691 121.2053
" />
<path d="M158.3691 121.2053
L158.3691 120.9672
" />
<path d="M158.3691 120.9672
L158.4167 120.8243
" />
<path d="M158.4167 120.8243
L158.5120 120.7291
" />
<path d="M158.5120 120.7291
L158.6072 120.6814
" />
<path d="M158.6072 120.6814
L158.7977 120.6338
" />
<path d="M158.7977 120.6338
L158.9406 120.6338
" />
<path d="M158.9406 120.6338
L159.1310 120.6814
" />
<path d="M159.1310 120.6814
L159.2263 120.7291
" />
<path d="M159.2263 120.7291
L159.3215 120.8243
" />
<path d="M159.3215 120.8243
L159.3691 120.9672
" />
<path d="M159.3691 120.9672
L159.3691 121.2053
" />
</g></g>
<g style="fill:none; 
stroke:#000000; stroke-width:0.1200; stroke-opacity:1; 
stroke-linecap:round; stroke-linejoin:round;">
<g transform="rotate(-90.000000 160.7343 121.8005)">
<text x="160.7343" y="122.2005"
textLength="2.5238" font-size="1.0667" lengthAdjust="spacingAndGlyphs"
text-anchor="middle" opacity="0" stroke-opacity="0">D12</text>
</g>
<g class="stroked-text"><desc>D12</desc>
<path d="M161.0982 122.7719
L160.2982 122.7719
" />
<path d="M160.2982 122.7719
L160.2982 122.5814
" />
<path d="M160.2982 122.5814
L160.3363 122.4672
" />
<path d="M160.3363 122.4672
L160.4125 122.3910
" />
<path d="M160.4125 122.3910
L160.4886 122.3529
" />
<path d="M160.4886 122.3529
L160.6410 122.3148
" />
<path d="M160.6410 122.3148
L160.7553 122.3148
" />
<path d="M160.7553 122.3148
L160.9077 122.3529
" />
<path d="M160.9077 122.3529
L160.9839 122.3910
" />
<path d="M160.9839 122.3910
L161.0601 122.4672
" />
<path d="M161.0601 122.4672
L161.0982 122.5814
" />
<path d="M161.0982 122.5814
L161.0982 122.7719
" />
<path d="M161.0982 121.5529
L161.0982 122.0100
" />
<path d="M161.0982 121.7814
L160.2982 121.7814
" />
<path d="M160.2982 121.7814
L160.4125 121.8576
" />
<path d="M160.4125 121.8576
L160.4886 121.9338
" />
<path d="M160.4886 121.9338
L160.5267 122.0100
" />
<path d="M160.3744 121.2481
L160.3363 121.2100
" />
<path d="M160.3363 121.2100
L160.2982 121.1338
" />
<path d="M160.2982 121.1338
L160.2982 120.9433
" />
<path d="M160.2982 120.9433
L160.3363 120.8672
" />
<path d="M160.3363 120.8672
L160.3744 120.8291
" />
<path d="M160.3744 120.8291
L160.4505 120.7910
" />
<path d="M160.4505 120.7910
L160.5267 120.7910
" />
<path d="M160.5267 120.7910
L160.6410 120.8291
" />
<path d="M160.6410 120.8291
L161.0982 121.2862
" />
<path d="M161.0982 121.2862
L161.0982 120.7910
" />
</g></g>
<g style="fill:none; 
stroke:#000000; stroke-width:0.1500; stroke-opacity:1; 
stroke-linecap:round; stroke-linejoin:round;">
<g transform="rotate(-90.000000 131.2347 64.2561)">
<text x="131.2347" y="64.7561"
textLength="2.9643" font-size="1.3333" lengthAdjust="spacingAndGlyphs"
text-anchor="middle" opacity="0" stroke-opacity="0">LED</text>
</g>
<g class="stroked-text"><desc>LED</desc>
<path d="M131.6895 64.8990
L131.6895 65.3751
" />
<path d="M131.6895 65.3751
L130.6895 65.3751
" />
<path d="M131.1657 64.5656
L131.1657 64.2323
" />
<path d="M131.6895 64.0894
L131.6895 64.5656
" />
<path d="M131.6895 64.5656
L130.6895 64.5656
" />
<path d="M130.6895 64.5656
L130.6895 64.0894
" />
<path d="M131.6895 63.6609
L130.6895 63.6609
" />
<path d="M130.6895 63.6609
L130.6895 63.4228
" />
<path d="M130.6895 63.4228
L130.7372 63.2799
" />
<path d="M130.7372 63.2799
L130.8324 63.1847
" />
<path d="M130.8324 63.1847
L130.9276 63.1371
" />
<path d="M130.9276 63.1371
L131.1181 63.0894
" />
<path d="M131.1181 63.0894
L131.2610 63.0894
" />
<path d="M131.2610 63.0894
L131.4515 63.1371
" />
<path d="M131.4515 63.1371
L131.5467 63.1847
" />
<path d="M131.5467 63.1847
L131.6419 63.2799
" />
<path d="M131.6419 63.2799
L131.6895 63.4228
" />
<path d="M131.6895 63.4228
L131.6895 63.6609
" />
</g></g>
<g style="fill:none; 
stroke:#000000; stroke-width:0.1200; stroke-opacity:1; 
stroke-linecap:round; stroke-linejoin:round;">
<g transform="rotate(-90.000000 129.4147 64.2561)">
<text x="129.4147" y="64.6561"
textLength="2.5238" font-size="1.0667" lengthAdjust="spacingAndGlyphs"
text-anchor="middle" opacity="0" stroke-opacity="0">D11</text>
</g>
<g class="stroked-text"><desc>D11</desc>
<path d="M129.7786 65.2275
L128.9786 65.2275
" />
<path d="M128.9786 65.2275
L128.9786 65.0371
" />
<path d="M128.9786 65.0371
L129.0167 64.9228
" />
<path d="M129.0167 64.9228
L129.0929 64.8466
" />
<path d="M129.0929 64.8466
L129.1691 64.8085
" />
<path d="M129.1691 64.8085
L129.3214 64.7704
" />
<path d="M129.3214 64.7704
L129.4357 64.7704
" />
<path d="M129.4357 64.7704
L129.5881 64.8085
" />
<path d="M129.5881 64.8085
L129.6643 64.8466
" />
<path d="M129.6643 64.8466
L129.7405 64.9228
" />
<path d="M129.7405 64.9228
L129.7786 65.0371
" />
<path d="M129.7786 65.0371
L129.7786 65.2275
" />
<path d="M129.7786 64.0085
L129.7786 64.4656
" />
<path d="M129.7786 64.2371
L128.9786 64.2371
" />
<path d="M128.9786 64.2371
L129.0929 64.3132
" />
<path d="M129.0929 64.3132
L129.1691 64.3894
" />
<path d="M129.1691 64.3894
L129.2072 64.4656
" />
<path d="M129.7786 63.2466
L129.7786 63.7037
" />
<path d="M129.7786 63.4751
L128.9786 63.4751
" />
<path d="M128.9786 63.4751
L129.0929 63.5513
" />
<path d="M129.0929 63.5513
L129.1691 63.6275
" />
<path d="M129.1691 63.6275
L129.2072 63.7037
" />
</g></g>
<g style="fill:none; 
stroke:#000000; stroke-width:0.1500; stroke-opacity:1; 
stroke-linecap:round; stroke-linejoin:round;">
<text x="136.8289" y="44.2931"
textLength="2.9643" font-size="1.3333" lengthAdjust="spacingAndGlyphs"
text-anchor="middle" opacity="0" stroke-opacity="0">LED</text>
<g class="stroked-text"><desc>LED</desc>
<path d="M136.1860 44.2479
L135.7098 44.2479
" />
<path d="M135.7098 44.2479
L135.7098 43.2479
" />
<path d="M136.5194 43.7241
L136.8527 43.7241
" />
<path d="M136.9956 44.2479
L136.5194 44.2479
" />
<path d="M136.5194 44.2479
L136.5194 43.2479
" />
<path d="M136.5194 43.2479
L136.9956 43.2479
" />
<path d="M137.4241 44.2479
L137.4241 43.2479
" />
<path d="M137.4241 43.2479
L137.6622 43.2479
" />
<path d="M137.6622 43.2479
L137.8051 43.2955
" />
<path d="M137.8051 43.2955
L137.9003 43.3907
" />
<path d="M137.9003 43.3907
L137.9479 43.4860
" />
<path d="M137.9479 43.4860
L137.9956 43.6765
" />
<path d="M137.9956 43.6765
L137.9956 43.8193
" />
<path d="M137.9956 43.8193
L137.9479 44.0098
" />
<path d="M137.9479 44.0098
L137.9003 44.1050
" />
<path d="M137.9003 44.1050
L137.8051 44.2003
" />
<path d="M137.8051 44.2003
L137.6622 44.2479
" />
<path d="M137.6622 44.2479
L137.4241 44.2479
" />
</g></g>
<g style="fill:none; 
stroke:#000000; stroke-width:0.1200; stroke-opacity:1; 
stroke-linecap:round; stroke-linejoin:round;">
<text x="136.8289" y="46.0131"
textLength="1.7619" font-size="1.0667" lengthAdjust="spacingAndGlyphs"
text-anchor="middle" opacity="0" stroke-opacity="0">D9</text>
<g class="stroked-text"><desc>D9</desc>
<path d="M136.2384 45.9769
L136.2384 45.1769
" />
<path d="M136.2384 45.1769
L136.4289 45.1769
" />
<path d="M136.4289 45.1769
L136.5432 45.2150
" />
<path d="M136.5432 45.2150
L136.6194 45.2912
" />
<path d="M136.6194 45.2912
L136.6575 45.3674
" />
<path d="M136.6575 45.3674
L136.6956 45.5198
" />
<path d="M136.6956 45.5198
L136.6956 45.6341
" />
<path d="M136.6956 45.6341
L136.6575 45.7864
" />
<path d="M136.6575 45.7864
L136.6194 45.8626
" />
<path d="M136.6194 45.8626
L136.5432 45.9388
" />
<path d="M136.5432 45.9388
L136.4289 45.9769
" />
<path d="M136.4289 45.9769
L136.2384 45.9769
" />
<path d="M137.0765 45.9769
L137.2289 45.9769
" />
<path d="M137.2289 45.9769
L137.3051 45.9388
" />
<path d="M137.3051 45.9388
L137.3432 45.9007
" />
<path d="M137.3432 45.9007
L137.4194 45.7864
" />
<path d="M137.4194 45.7864
L137.4575 45.6341
" />
<path d="M137.4575 45.6341
L137.4575 45.3293
" />
<path d="M137.4575 45.3293
L137.4194 45.2531
" />
<path d="M137.4194 45.2531
L137.3813 45.2150
" />
<path d="M137.3813 45.2150
L137.3051 45.1769
" />
<path d="M137.3051 45.1769
L137.1527 45.1769
" />
<path d="M137.1527 45.1769
L137.0765 45.2150
" />
<path d="M137.0765 45.2150
L137.0384 45.2531
" />
<path d="M137.0384 45.2531
L137.0003 45.3293
" />
<path d="M137.0003 45.3293
L137.0003 45.5198
" />
<path d="M137.0003 45.5198
L137.0384 45.5960
" />
<path d="M137.0384 45.5960
L137.0765 45.6341
" />
<path d="M137.0765 45.6341
L137.1527 45.6722
" />
<path d="M137.1527 45.6722
L137.3051 45.6722
" />
<path d="M137.3051 45.6722
L137.3813 45.6341
" />
<path d="M137.3813 45.6341
L137.4194 45.5960
" />
<path d="M137.4194 45.5960
L137.4575 45.5198
" />
</g></g>
<g style="fill:none; 
stroke:#000000; stroke-width:0.1500; stroke-opacity:1; 
stroke-linecap:round; stroke-linejoin:round;">
<g transform="rotate(-70.000000 141.0961 129.2943)">
<text x="141.0961" y="129.7943"
textLength="2.9643" font-size="1.3333" lengthAdjust="spacingAndGlyphs"
text-anchor="middle" opacity="0" stroke-opacity="0">LED</text>
</g>
<g class="stroked-text"><desc>LED</desc>
<path d="M141.3036 130.0540
L141.1407 130.5015
" />
<path d="M141.1407 130.5015
L140.2011 130.1594
" />
<path d="M140.9254 129.5616
L141.0394 129.2484
" />
<path d="M141.5805 129.2933
L141.4176 129.7408
" />
<path d="M141.4176 129.7408
L140.4779 129.3987
" />
<path d="M140.4779 129.3987
L140.6408 128.9513
" />
<path d="M141.7271 128.8906
L140.7874 128.5485
" />
<path d="M140.7874 128.5485
L140.8688 128.3248
" />
<path d="M140.8688 128.3248
L140.9624 128.2069
" />
<path d="M140.9624 128.2069
L141.0845 128.1499
" />
<path d="M141.0845 128.1499
L141.1903 128.1378
" />
<path d="M141.1903 128.1378
L141.3855 128.1582
" />
<path d="M141.3855 128.1582
L141.5198 128.2070
" />
<path d="M141.5198 128.2070
L141.6825 128.3169
" />
<path d="M141.6825 128.3169
L141.7557 128.3942
" />
<path d="M141.7557 128.3942
L141.8126 128.5163
" />
<path d="M141.8126 128.5163
L141.8085 128.6668
" />
<path d="M141.8085 128.6668
L141.7271 128.8906
" />
</g></g>
<g style="fill:none; 
stroke:#000000; stroke-width:0.1200; stroke-opacity:1; 
stroke-linecap:round; stroke-linejoin:round;">
<g transform="rotate(-70.000000 142.8063 129.9168)">
<text x="142.8063" y="130.3168"
textLength="1.7619" font-size="1.0667" lengthAdjust="spacingAndGlyphs"
text-anchor="middle" opacity="0" stroke-opacity="0">D8</text>
</g>
<g class="stroked-text"><desc>D8</desc>
<path d="M142.9463 130.5961
L142.1945 130.3225
" />
<path d="M142.1945 130.3225
L142.2597 130.1435
" />
<path d="M142.2597 130.1435
L142.3346 130.0492
" />
<path d="M142.3346 130.0492
L142.4322 130.0036
" />
<path d="M142.4322 130.0036
L142.5169 129.9939
" />
<path d="M142.5169 129.9939
L142.6731 130.0102
" />
<path d="M142.6731 130.0102
L142.7805 130.0493
" />
<path d="M142.7805 130.0493
L142.9106 130.1372
" />
<path d="M142.9106 130.1372
L142.9692 130.1991
" />
<path d="M142.9692 130.1991
L143.0147 130.2967
" />
<path d="M143.0147 130.2967
L143.0114 130.4171
" />
<path d="M143.0114 130.4171
L142.9463 130.5961
" />
<path d="M142.8294 129.5806
L142.7676 129.6392
" />
<path d="M142.7676 129.6392
L142.7187 129.6620
" />
<path d="M142.7187 129.6620
L142.6341 129.6717
" />
<path d="M142.6341 129.6717
L142.5983 129.6587
" />
<path d="M142.5983 129.6587
L142.5398 129.5968
" />
<path d="M142.5398 129.5968
L142.5170 129.5480
" />
<path d="M142.5170 129.5480
L142.5072 129.4634
" />
<path d="M142.5072 129.4634
L142.5594 129.3202
" />
<path d="M142.5594 129.3202
L142.6212 129.2616
" />
<path d="M142.6212 129.2616
L142.6700 129.2388
" />
<path d="M142.6700 129.2388
L142.7547 129.2291
" />
<path d="M142.7547 129.2291
L142.7905 129.2421
" />
<path d="M142.7905 129.2421
L142.8490 129.3040
" />
<path d="M142.8490 129.3040
L142.8718 129.3528
" />
<path d="M142.8718 129.3528
L142.8815 129.4374
" />
<path d="M142.8815 129.4374
L142.8294 129.5806
" />
<path d="M142.8294 129.5806
L142.8392 129.6653
" />
<path d="M142.8392 129.6653
L142.8619 129.7141
" />
<path d="M142.8619 129.7141
L142.9205 129.7759
" />
<path d="M142.9205 129.7759
L143.0637 129.8281
" />
<path d="M143.0637 129.8281
L143.1483 129.8183
" />
<path d="M143.1483 129.8183
L143.1971 129.7956
" />
<path d="M143.1971 129.7956
L143.2590 129.7370
" />
<path d="M143.2590 129.7370
L143.3111 129.5938
" />
<path d="M143.3111 129.5938
L143.3014 129.5092
" />
<path d="M143.3014 129.5092
L143.2786 129.4603
" />
<path d="M143.2786 129.4603
L143.2200 129.3985
" />
<path d="M143.2200 129.3985
L143.0769 129.3464
" />
<path d="M143.0769 129.3464
L142.9922 129.3561
" />
<path d="M142.9922 129.3561
L142.9434 129.3789
" />
<path d="M142.9434 129.3789
L142.8815 129.4374
" />
</g></g>
<g style="fill:none; 
stroke:#000000; stroke-width:0.1500; stroke-opacity:1; 
stroke-linecap:round; stroke-linejoin:round;">
<text x="156.6200" y="44.3123"
textLength="2.9643" font-size="1.3333" lengthAdjust="spacingAndGlyphs"
text-anchor="middle" opacity="0" stroke-opacity="0">LED</text>
<g class="stroked-text"><desc>LED</desc>
<path d="M155.9771 44.2671
L155.5009 44.2671
" />
<path d="M155.5009 44.2671
L155.5009 43.2671
" />
<path d="M156.3104 43.7433
L156.6438 43.7433
" />
<path d="M156.7866 44.2671
L156.3104 44.2671
" />
<path d="M156.3104 44.2671
L156.3104 43.2671
" />
<path d="M156.3104 43.2671
L156.7866 43.2671
" />
<path d="M157.2152 44.2671
L157.2152 43.2671
" />
<path d="M157.2152 43.2671
L157.4533 43.2671
" />
<path d="M157.4533 43.2671
L157.5962 43.3147
" />
<path d="M157.5962 43.3147
L157.6914 43.4099
" />
<path d="M157.6914 43.4099
L157.7390 43.5052
" />
<path d="M157.7390 43.5052
L157.7866 43.6957
" />
<path d="M157.7866 43.6957
L157.7866 43.8385
" />
<path d="M157.7866 43.8385
L157.7390 44.0290
" />
<path d="M157.7390 44.0290
L157.6914 44.1242
" />
<path d="M157.6914 44.1242
L157.5962 44.2195
" />
<path d="M157.5962 44.2195
L157.4533 44.2671
" />
<path d="M157.4533 44.2671
L157.2152 44.2671
" />
</g></g>
<g style="fill:none; 
stroke:#000000; stroke-width:0.1200; stroke-opacity:1; 
stroke-linecap:round; stroke-linejoin:round;">
<text x="156.6200" y="46.0323"
textLength="1.7619" font-size="1.0667" lengthAdjust="spacingAndGlyphs"
text-anchor="middle" opacity="0" stroke-opacity="0">D7</text>
<g class="stroked-text"><desc>D7</desc>
<path d="M156.0295 45.9961
L156.0295 45.1961
" />
<path d="M156.0295 45.1961
L156.2200 45.1961
" />
<path d="M156.2200 45.1961
L156.3343 45.2342
" />
<path d="M156.3343 45.2342
L156.4104 45.3104
" />
<path d="M156.4104 45.3104
L156.4485 45.3866
" />
<path d="M156.4485 45.3866
L156.4866 45.5390
" />
<path d="M156.4866 45.5390
L156.4866 45.6533
" />
<path d="M156.4866 45.6533
L156.4485 45.8056
" />
<path d="M156.4485 45.8056
L156.4104 45.8818
" />
<path d="M156.4104 45.8818
L156.3343 45.9580
" />
<path d="M156.3343 45.9580
L156.2200 45.9961
" />
<path d="M156.2200 45.9961
L156.0295 45.9961
" />
<path d="M156.7533 45.1961
L157.2866 45.1961
" />
<path d="M157.2866 45.1961
L156.9438 45.9961
" />
</g></g>
<g style="fill:none; 
stroke:#000000; stroke-width:0.1500; stroke-opacity:1; 
stroke-linecap:round; stroke-linejoin:round;">
<g transform="rotate(-90.000000 165.4390 64.2579)">
<text x="165.4390" y="64.7579"
textLength="2.9643" font-size="1.3333" lengthAdjust="spacingAndGlyphs"
text-anchor="middle" opacity="0" stroke-opacity="0">LED</text>
</g>
<g class="stroked-text"><desc>LED</desc>
<path d="M165.8939 64.9008
L165.8939 65.3769
" />
<path d="M165.8939 65.3769
L164.8939 65.3769
" />
<path d="M165.3701 64.5674
L165.3701 64.2341
" />
<path d="M165.8939 64.0912
L165.8939 64.5674
" />
<path d="M165.8939 64.5674
L164.8939 64.5674
" />
<path d="M164.8939 64.5674
L164.8939 64.0912
" />
<path d="M165.8939 63.6627
L164.8939 63.6627
" />
<path d="M164.8939 63.6627
L164.8939 63.4246
" />
<path d="M164.8939 63.4246
L164.9415 63.2817
" />
<path d="M164.9415 63.2817
L165.0367 63.1865
" />
<path d="M165.0367 63.1865
L165.1320 63.1388
" />
<path d="M165.1320 63.1388
L165.3224 63.0912
" />
<path d="M165.3224 63.0912
L165.4653 63.0912
" />
<path d="M165.4653 63.0912
L165.6558 63.1388
" />
<path d="M165.6558 63.1388
L165.7510 63.1865
" />
<path d="M165.7510 63.1865
L165.8462 63.2817
" />
<path d="M165.8462 63.2817
L165.8939 63.4246
" />
<path d="M165.8939 63.4246
L165.8939 63.6627
" />
</g></g>
<g style="fill:none; 
stroke:#000000; stroke-width:0.1200; stroke-opacity:1; 
stroke-linecap:round; stroke-linejoin:round;">
<g transform="rotate(-90.000000 163.6190 64.2579)">
<text x="163.6190" y="64.6579"
textLength="1.7619" font-size="1.0667" lengthAdjust="spacingAndGlyphs"
text-anchor="middle" opacity="0" stroke-opacity="0">D5</text>
</g>
<g class="stroked-text"><desc>D5</desc>
<path d="M163.9829 64.8484
L163.1829 64.8484
" />
<path d="M163.1829 64.8484
L163.1829 64.6579
" />
<path d="M163.1829 64.6579
L163.2210 64.5436
" />
<path d="M163.2210 64.5436
L163.2972 64.4674
" />
<path d="M163.2972 64.4674
L163.3734 64.4293
" />
<path d="M163.3734 64.4293
L163.5258 64.3912
" />
<path d="M163.5258 64.3912
L163.6400 64.3912
" />
<path d="M163.6400 64.3912
L163.7924 64.4293
" />
<path d="M163.7924 64.4293
L163.8686 64.4674
" />
<path d="M163.8686 64.4674
L163.9448 64.5436
" />
<path d="M163.9448 64.5436
L163.9829 64.6579
" />
<path d="M163.9829 64.6579
L163.9829 64.8484
" />
<path d="M163.1829 63.6674
L163.1829 64.0484
" />
<path d="M163.1829 64.0484
L163.5639 64.0865
" />
<path d="M163.5639 64.0865
L163.5258 64.0484
" />
<path d="M163.5258 64.0484
L163.4877 63.9722
" />
<path d="M163.4877 63.9722
L163.4877 63.7817
" />
<path d="M163.4877 63.7817
L163.5258 63.7055
" />
<path d="M163.5258 63.7055
L163.5639 63.6674
" />
<path d="M163.5639 63.6674
L163.6400 63.6293
" />
<path d="M163.6400 63.6293
L163.8305 63.6293
" />
<path d="M163.8305 63.6293
L163.9067 63.6674
" />
<path d="M163.9067 63.6674
L163.9448 63.7055
" />
<path d="M163.9448 63.7055
L163.9829 63.7817
" />
<path d="M163.9829 63.7817
L163.9829 63.9722
" />
<path d="M163.9829 63.9722
L163.9448 64.0484
" />
<path d="M163.9448 64.0484
L163.9067 64.0865
" />
</g></g>
<g style="fill:none; 
stroke:#000000; stroke-width:0.1500; stroke-opacity:1; 
stroke-linecap:round; stroke-linejoin:round;">
<g transform="rotate(26.000000 128.2503 111.1208)">
<text x="128.2503" y="111.6208"
textLength="2.9643" font-size="1.3333" lengthAdjust="spacingAndGlyphs"
text-anchor="middle" opacity="0" stroke-opacity="0">LED</text>
</g>
<g class="stroked-text"><desc>LED</desc>
<path d="M127.4731 111.2478
L127.0451 111.0390
" />
<path d="M127.0451 111.0390
L127.4835 110.1403
" />
<path d="M128.0024 110.9231
L128.3020 111.0692
" />
<path d="M128.2007 111.6027
L127.7727 111.3939
" />
<path d="M127.7727 111.3939
L128.2111 110.4951
" />
<path d="M128.2111 110.4951
L128.6391 110.7039
" />
<path d="M128.5859 111.7905
L129.0243 110.8917
" />
<path d="M129.0243 110.8917
L129.2383 110.9961
" />
<path d="M129.2383 110.9961
L129.3458 111.1015
" />
<path d="M129.3458 111.1015
L129.3897 111.2289
" />
<path d="M129.3897 111.2289
L129.3907 111.3354
" />
<path d="M129.3907 111.3354
L129.3500 111.5274
" />
<path d="M129.3500 111.5274
L129.2874 111.6558
" />
<path d="M129.2874 111.6558
L129.1611 111.8062
" />
<path d="M129.1611 111.8062
L129.0766 111.8709
" />
<path d="M129.0766 111.8709
L128.9492 111.9147
" />
<path d="M128.9492 111.9147
L128.7999 111.8949
" />
<path d="M128.7999 111.8949
L128.5859 111.7905
" />
</g></g>
<g style="fill:none; 
stroke:#000000; stroke-width:0.1200; stroke-opacity:1; 
stroke-linecap:round; stroke-linejoin:round;">
<g transform="rotate(26.000000 127.4525 112.7566)">
<text x="127.4525" y="113.1566"
textLength="1.7619" font-size="1.0667" lengthAdjust="spacingAndGlyphs"
text-anchor="middle" opacity="0" stroke-opacity="0">D4</text>
</g>
<g class="stroked-text"><desc>D4</desc>
<path d="M126.7623 112.8248
L127.1130 112.1058
" />
<path d="M127.1130 112.1058
L127.2842 112.1893
" />
<path d="M127.2842 112.1893
L127.3702 112.2736
" />
<path d="M127.3702 112.2736
L127.4053 112.3755
" />
<path d="M127.4053 112.3755
L127.4061 112.4607
" />
<path d="M127.4061 112.4607
L127.3735 112.6143
" />
<path d="M127.3735 112.6143
L127.3234 112.7170
" />
<path d="M127.3234 112.7170
L127.2224 112.8373
" />
<path d="M127.2224 112.8373
L127.1548 112.8891
" />
<path d="M127.1548 112.8891
L127.0529 112.9242
" />
<path d="M127.0529 112.9242
L126.9335 112.9083
" />
<path d="M126.9335 112.9083
L126.7623 112.8248
" />
<path d="M128.0232 112.8464
L127.7895 113.3258
" />
<path d="M127.9856 112.4890
L127.5640 112.9191
" />
<path d="M127.5640 112.9191
L128.0091 113.1362
" />
</g></g>
<g style="fill:none; 
stroke:#000000; stroke-width:0.1500; stroke-opacity:1; 
stroke-linecap:round; stroke-linejoin:round;">
<g transform="rotate(55.000000 169.1792 72.7044)">
<text x="169.1792" y="73.2044"
textLength="2.9643" font-size="1.3333" lengthAdjust="spacingAndGlyphs"
text-anchor="middle" opacity="0" stroke-opacity="0">LED</text>
</g>
<g class="stroked-text"><desc>LED</desc>
<path d="M168.4379 72.4387
L168.1648 72.0486
" />
<path d="M168.1648 72.0486
L168.9839 71.4751
" />
<path d="M169.0582 72.4113
L169.2494 72.6844
" />
<path d="M168.9022 73.1018
L168.6291 72.7118
" />
<path d="M168.6291 72.7118
L169.4482 72.1382
" />
<path d="M169.4482 72.1382
L169.7214 72.5283
" />
<path d="M169.1480 73.4529
L169.9672 72.8793
" />
<path d="M169.9672 72.8793
L170.1038 73.0744
" />
<path d="M170.1038 73.0744
L170.1467 73.2187
" />
<path d="M170.1467 73.2187
L170.1233 73.3513
" />
<path d="M170.1233 73.3513
L170.0726 73.4450
" />
<path d="M170.0726 73.4450
L169.9439 73.5932
" />
<path d="M169.9439 73.5932
L169.8269 73.6752
" />
<path d="M169.8269 73.6752
L169.6435 73.7454
" />
<path d="M169.6435 73.7454
L169.5382 73.7610
" />
<path d="M169.5382 73.7610
L169.4056 73.7376
" />
<path d="M169.4056 73.7376
L169.2846 73.6479
" />
<path d="M169.2846 73.6479
L169.1480 73.4529
" />
</g></g>
<g style="fill:none; 
stroke:#000000; stroke-width:0.1200; stroke-opacity:1; 
stroke-linecap:round; stroke-linejoin:round;">
<g transform="rotate(55.000000 167.6883 73.7483)">
<text x="167.6883" y="74.1483"
textLength="1.7619" font-size="1.0667" lengthAdjust="spacingAndGlyphs"
text-anchor="middle" opacity="0" stroke-opacity="0">D3</text>
</g>
<g class="stroked-text"><desc>D3</desc>
<path d="M167.0516 73.4733
L167.7069 73.0145
" />
<path d="M167.7069 73.0145
L167.8162 73.1705
" />
<path d="M167.8162 73.1705
L167.8505 73.2860
" />
<path d="M167.8505 73.2860
L167.8318 73.3921
" />
<path d="M167.8318 73.3921
L167.7913 73.4670
" />
<path d="M167.7913 73.4670
L167.6883 73.5856
" />
<path d="M167.6883 73.5856
L167.5947 73.6512
" />
<path d="M167.5947 73.6512
L167.4480 73.7074
" />
<path d="M167.4480 73.7074
L167.3637 73.7199
" />
<path d="M167.3637 73.7199
L167.2576 73.7011
" />
<path d="M167.2576 73.7011
L167.1609 73.6294
" />
<path d="M167.1609 73.6294
L167.0516 73.4733
" />
<path d="M168.1221 73.6074
L168.4061 74.0131
" />
<path d="M168.4061 74.0131
L168.0035 73.9694
" />
<path d="M168.0035 73.9694
L168.0691 74.0631
" />
<path d="M168.0691 74.0631
L168.0816 74.1473
" />
<path d="M168.0816 74.1473
L168.0722 74.2004
" />
<path d="M168.0722 74.2004
L168.0317 74.2753
" />
<path d="M168.0317 74.2753
L167.8756 74.3845
" />
<path d="M167.8756 74.3845
L167.7914 74.3970
" />
<path d="M167.7914 74.3970
L167.7383 74.3877
" />
<path d="M167.7383 74.3877
L167.6634 74.3471
" />
<path d="M167.6634 74.3471
L167.5323 74.1599
" />
<path d="M167.5323 74.1599
L167.5198 74.0756
" />
<path d="M167.5198 74.0756
L167.5292 74.0226
" />
</g></g>
<g style="fill:none; 
stroke:#000000; stroke-width:0.1500; stroke-opacity:1; 
stroke-linecap:round; stroke-linejoin:round;">
<g transform="rotate(-90.000000 130.1622 121.7349)">
<text x="130.1622" y="122.2349"
textLength="2.9643" font-size="1.3333" lengthAdjust="spacingAndGlyphs"
text-anchor="middle" opacity="0" stroke-opacity="0">LED</text>
</g>
<g class="stroked-text"><desc>LED</desc>
<path d="M130.6170 122.3778
L130.6170 122.8540
" />
<path d="M130.6170 122.8540
L129.6170 122.8540
" />
<path d="M130.0932 122.0444
L130.0932 121.7111
" />
<path d="M130.6170 121.5683
L130.6170 122.0444
" />
<path d="M130.6170 122.0444
L129.6170 122.0444
" />
<path d="M129.6170 122.0444
L129.6170 121.5683
" />
<path d="M130.6170 121.1397
L129.6170 121.1397
" />
<path d="M129.6170 121.1397
L129.6170 120.9016
" />
<path d="M129.6170 120.9016
L129.6646 120.7587
" />
<path d="M129.6646 120.7587
L129.7598 120.6635
" />
<path d="M129.7598 120.6635
L129.8551 120.6159
" />
<path d="M129.8551 120.6159
L130.0456 120.5683
" />
<path d="M130.0456 120.5683
L130.1884 120.5683
" />
<path d="M130.1884 120.5683
L130.3789 120.6159
" />
<path d="M130.3789 120.6159
L130.4741 120.6635
" />
<path d="M130.4741 120.6635
L130.5694 120.7587
" />
<path d="M130.5694 120.7587
L130.6170 120.9016
" />
<path d="M130.6170 120.9016
L130.6170 121.1397
" />
</g></g>
<g style="fill:none; 
stroke:#000000; stroke-width:0.1200; stroke-opacity:1; 
stroke-linecap:round; stroke-linejoin:round;">
<g transform="rotate(-90.000000 131.9822 121.7349)">
<text x="131.9822" y="122.1349"
textLength="1.7619" font-size="1.0667" lengthAdjust="spacingAndGlyphs"
text-anchor="middle" opacity="0" stroke-opacity="0">D2</text>
</g>
<g class="stroked-text"><desc>D2</desc>
<path d="M132.3460 122.3254
L131.5460 122.3254
" />
<path d="M131.5460 122.3254
L131.5460 122.1349
" />
<path d="M131.5460 122.1349
L131.5841 122.0206
" />
<path d="M131.5841 122.0206
L131.6603 121.9444
" />
<path d="M131.6603 121.9444
L131.7365 121.9064
" />
<path d="M131.7365 121.9064
L131.8889 121.8683
" />
<path d="M131.8889 121.8683
L132.0032 121.8683
" />
<path d="M132.0032 121.8683
L132.1556 121.9064
" />
<path d="M132.1556 121.9064
L132.2317 121.9444
" />
<path d="M132.2317 121.9444
L132.3079 122.0206
" />
<path d="M132.3079 122.0206
L132.3460 122.1349
" />
<path d="M132.3460 122.1349
L132.3460 122.3254
" />
<path d="M131.6222 121.5635
L131.5841 121.5254
" />
<path d="M131.5841 121.5254
L131.5460 121.4492
" />
<path d="M131.5460 121.4492
L131.5460 121.2587
" />
<path d="M131.5460 121.2587
L131.5841 121.1825
" />
<path d="M131.5841 121.1825
L131.6222 121.1444
" />
<path d="M131.6222 121.1444
L131.6984 121.1064
" />
<path d="M131.6984 121.1064
L131.7746 121.1064
" />
<path d="M131.7746 121.1064
L131.8889 121.1444
" />
<path d="M131.8889 121.1444
L132.3460 121.6016
" />
<path d="M132.3460 121.6016
L132.3460 121.1064
" />
</g></g>
<g style="fill:none; 
stroke:#000000; stroke-width:0.1500; stroke-opacity:1; 
stroke-linecap:round; stroke-linejoin:round;">
<g transform="rotate(-90.000000 172.3850 84.5229)">
<text x="172.3850" y="85.0229"
textLength="2.9643" font-size="1.3333" lengthAdjust="spacingAndGlyphs"
text-anchor="middle" opacity="0" stroke-opacity="0">LED</text>
</g>
<g class="stroked-text"><desc>LED</desc>
<path d="M172.8398 85.1658
L172.8398 85.6420
" />
<path d="M172.8398 85.6420
L171.8398 85.6420
" />
<path d="M172.3160 84.8325
L172.3160 84.4991
" />
<path d="M172.8398 84.3563
L172.8398 84.8325
" />
<path d="M172.8398 84.8325
L171.8398 84.8325
" />
<path d="M171.8398 84.8325
L171.8398 84.3563
" />
<path d="M172.8398 83.9277
L171.8398 83.9277
" />
<path d="M171.8398 83.9277
L171.8398 83.6896
" />
<path d="M171.8398 83.6896
L171.8874 83.5468
" />
<path d="M171.8874 83.5468
L171.9826 83.4515
" />
<path d="M171.9826 83.4515
L172.0779 83.4039
" />
<path d="M172.0779 83.4039
L172.2684 83.3563
" />
<path d="M172.2684 83.3563
L172.4112 83.3563
" />
<path d="M172.4112 83.3563
L172.6017 83.4039
" />
<path d="M172.6017 83.4039
L172.6969 83.4515
" />
<path d="M172.6969 83.4515
L172.7922 83.5468
" />
<path d="M172.7922 83.5468
L172.8398 83.6896
" />
<path d="M172.8398 83.6896
L172.8398 83.9277
" />
</g></g>
<g style="fill:none; 
stroke:#000000; stroke-width:0.1200; stroke-opacity:1; 
stroke-linecap:round; stroke-linejoin:round;">
<g transform="rotate(-90.000000 170.5650 84.5229)">
<text x="170.5650" y="84.9229"
textLength="1.7619" font-size="1.0667" lengthAdjust="spacingAndGlyphs"
text-anchor="middle" opacity="0" stroke-opacity="0">D1</text>
</g>
<g class="stroked-text"><desc>D1</desc>
<path d="M170.9288 85.1134
L170.1288 85.1134
" />
<path d="M170.1288 85.1134
L170.1288 84.9229
" />
<path d="M170.1288 84.9229
L170.1669 84.8087
" />
<path d="M170.1669 84.8087
L170.2431 84.7325
" />
<path d="M170.2431 84.7325
L170.3193 84.6944
" />
<path d="M170.3193 84.6944
L170.4717 84.6563
" />
<path d="M170.4717 84.6563
L170.5860 84.6563
" />
<path d="M170.5860 84.6563
L170.7384 84.6944
" />
<path d="M170.7384 84.6944
L170.8145 84.7325
" />
<path d="M170.8145 84.7325
L170.8907 84.8087
" />
<path d="M170.8907 84.8087
L170.9288 84.9229
" />
<path d="M170.9288 84.9229
L170.9288 85.1134
" />
<path d="M170.9288 83.8944
L170.9288 84.3515
" />
<path d="M170.9288 84.1229
L170.1288 84.1229
" />
<path d="M170.1288 84.1229
L170.2431 84.1991
" />
<path d="M170.2431 84.1991
L170.3193 84.2753
" />
<path d="M170.3193 84.2753
L170.3574 84.3515
" />
</g></g>
<g style="fill:none; 
stroke:#000000; stroke-width:0.1500; stroke-opacity:1; 
stroke-linecap:round; stroke-linejoin:round;">
<g transform="rotate(34.000000 130.1926 95.3208)">
<text x="130.1926" y="95.8208"
textLength="2.9643" font-size="1.3333" lengthAdjust="spacingAndGlyphs"
text-anchor="middle" opacity="0" stroke-opacity="0">LED</text>
</g>
<g class="stroked-text"><desc>LED</desc>
<path d="M129.4053 95.3384
L129.0105 95.0721
" />
<path d="M129.0105 95.0721
L129.5697 94.2431
" />
<path d="M129.9746 95.0906
L130.2509 95.2770
" />
<path d="M130.0765 95.7911
L129.6817 95.5248
" />
<path d="M129.6817 95.5248
L130.2409 94.6958
" />
<path d="M130.2409 94.6958
L130.6356 94.9621
" />
<path d="M130.4318 96.0308
L130.9909 95.2017
" />
<path d="M130.9909 95.2017
L131.1883 95.3349
" />
<path d="M131.1883 95.3349
L131.2801 95.4542
" />
<path d="M131.2801 95.4542
L131.3058 95.5864
" />
<path d="M131.3058 95.5864
L131.2921 95.6920
" />
<path d="M131.2921 95.6920
L131.2250 95.8766
" />
<path d="M131.2250 95.8766
L131.1451 95.9950
" />
<path d="M131.1451 95.9950
L130.9992 96.1263
" />
<path d="M130.9992 96.1263
L130.9064 96.1786
" />
<path d="M130.9064 96.1786
L130.7742 96.2043
" />
<path d="M130.7742 96.2043
L130.6291 96.1639
" />
<path d="M130.6291 96.1639
L130.4318 96.0308
" />
</g></g>
<g style="fill:none; 
stroke:#000000; stroke-width:0.1200; stroke-opacity:1; 
stroke-linecap:round; stroke-linejoin:round;">
<g transform="rotate(34.000000 129.1749 96.8297)">
<text x="129.1749" y="97.2297"
textLength="1.7619" font-size="1.0667" lengthAdjust="spacingAndGlyphs"
text-anchor="middle" opacity="0" stroke-opacity="0">D6</text>
</g>
<g class="stroked-text"><desc>D6</desc>
<path d="M128.4819 96.8012
L128.9292 96.1379
" />
<path d="M128.9292 96.1379
L129.0872 96.2444
" />
<path d="M129.0872 96.2444
L129.1606 96.3399
" />
<path d="M129.1606 96.3399
L129.1812 96.4457
" />
<path d="M129.1812 96.4457
L129.1701 96.5302
" />
<path d="M129.1701 96.5302
L129.1165 96.6778
" />
<path d="M129.1165 96.6778
L129.0526 96.7725
" />
<path d="M129.0526 96.7725
L128.9358 96.8776
" />
<path d="M128.9358 96.8776
L128.8616 96.9194
" />
<path d="M128.8616 96.9194
L128.7559 96.9400
" />
<path d="M128.7559 96.9400
L128.6398 96.9077
" />
<path d="M128.6398 96.9077
L128.4819 96.8012
" />
<path d="M129.8767 96.7770
L129.7504 96.6918
" />
<path d="M129.7504 96.6918
L129.6659 96.6808
" />
<path d="M129.6659 96.6808
L129.6130 96.6910
" />
<path d="M129.6130 96.6910
L129.4860 96.7432
" />
<path d="M129.4860 96.7432
L129.3692 96.8482
" />
<path d="M129.3692 96.8482
L129.1987 97.1009
" />
<path d="M129.1987 97.1009
L129.1877 97.1853
" />
<path d="M129.1877 97.1853
L129.1980 97.2382
" />
<path d="M129.1980 97.2382
L129.2399 97.3124
" />
<path d="M129.2399 97.3124
L129.3662 97.3976
" />
<path d="M129.3662 97.3976
L129.4507 97.4086
" />
<path d="M129.4507 97.4086
L129.5036 97.3984
" />
<path d="M129.5036 97.3984
L129.5777 97.3565
" />
<path d="M129.5777 97.3565
L129.6843 97.1986
" />
<path d="M129.6843 97.1986
L129.6953 97.1141
" />
<path d="M129.6953 97.1141
L129.6850 97.0612
" />
<path d="M129.6850 97.0612
L129.6431 96.9871
" />
<path d="M129.6431 96.9871
L129.5168 96.9018
" />
<path d="M129.5168 96.9018
L129.4323 96.8908
" />
<path d="M129.4323 96.8908
L129.3794 96.9011
" />
<path d="M129.3794 96.9011
L129.3053 96.9430
" />
</g></g>
<g style="fill:none; 
stroke:#000000; stroke-width:0.1000; stroke-opacity:1; 
stroke-linecap:round; stroke-linejoin:round;">
<path d="M149.8057 131.6516
L151.2994 131.0782
" />
<path d="M151.2994 131.0782
L150.2960 128.4642
" />
<path d="M150.2960 128.4642
L149.7792 128.2341
" />
<path d="M148.6589 128.6642
L149.8057 131.6516
" />
<path d="M149.7792 128.2341
L148.6589 128.6642
" />
<path d="M163.7473 97.0147
L164.4356 97.9977
" />
<path d="M164.4356 97.9977
L167.0569 96.1623
" />
<path d="M163.8455 96.4576
L163.7473 97.0147
" />
<path d="M166.1391 94.8516
L163.8455 96.4576
" />
<path d="M167.0569 96.1623
L166.1391 94.8516
" />
<path d="M122.7844 86.8597
L123.9844 86.8597
" />
<path d="M123.9844 86.8597
L123.9844 83.6597
" />
<path d="M122.3844 86.4597
L122.7844 86.8597
" />
<path d="M122.3844 83.6597
L122.3844 86.4597
" />
<path d="M123.9844 83.6597
L122.3844 83.6597
" />
<path d="M164.4557 113.1173
L165.0005 114.1865
" />
<path d="M165.0005 114.1865
L167.8517 112.7337
" />
<path d="M164.6305 112.5793
L164.4557 113.1173
" />
<path d="M167.1253 111.3081
L164.6305 112.5793
" />
<path d="M167.8517 112.7337
L167.1253 111.3081
" />
<path d="M127.5055 72.2448
L126.0555 71.5686
" />
<path d="M126.0555 71.5686
L124.8721 74.1063
" />
<path d="M124.8721 74.1063
L125.0656 74.6378
" />
<path d="M126.1532 75.1450
L127.5055 72.2448
" />
<path d="M125.0656 74.6378
L126.1532 75.1450
" />
<path d="M161.1343 120.2005
L159.9343 120.2005
" />
<path d="M159.9343 120.2005
L159.9343 123.4005
" />
<path d="M161.5343 120.6005
L161.1343 120.2005
" />
<path d="M161.5343 123.4005
L161.5343 120.6005
" />
<path d="M159.9343 123.4005
L161.5343 123.4005
" />
<path d="M129.0147 65.8561
L130.2147 65.8561
" />
<path d="M130.2147 65.8561
L130.2147 62.6561
" />
<path d="M128.6147 65.4561
L129.0147 65.8561
" />
<path d="M128.6147 62.6561
L128.6147 65.4561
" />
<path d="M130.2147 62.6561
L128.6147 62.6561
" />
<path d="M138.4289 46.0131
L138.4289 44.8131
" />
<path d="M138.4289 44.8131
L135.2289 44.8131
" />
<path d="M138.0289 46.4131
L138.4289 46.0131
" />
<path d="M135.2289 46.4131
L138.0289 46.4131
" />
<path d="M135.2289 44.8131
L135.2289 46.4131
" />
<path d="M143.7294 128.5501
L142.6018 128.1397
" />
<path d="M142.6018 128.1397
L141.5074 131.1467
" />
<path d="M143.9685 129.0628
L143.7294 128.5501
" />
<path d="M143.0109 131.6939
L143.9685 129.0628
" />
<path d="M141.5074 131.1467
L143.0109 131.6939
" />
<path d="M158.2200 46.0323
L158.2200 44.8323
" />
<path d="M158.2200 44.8323
L155.0200 44.8323
" />
<path d="M157.8200 46.4323
L158.2200 46.0323
" />
<path d="M155.0200 46.4323
L157.8200 46.4323
" />
<path d="M155.0200 44.8323
L155.0200 46.4323
" />
<path d="M163.2190 65.8579
L164.4190 65.8579
" />
<path d="M164.4190 65.8579
L164.4190 62.6579
" />
<path d="M162.8190 65.4579
L163.2190 65.8579
" />
<path d="M162.8190 62.6579
L162.8190 65.4579
" />
<path d="M164.4190 62.6579
L162.8190 62.6579
" />
<path d="M128.7152 113.8175
L129.2412 112.7390
" />
<path d="M129.2412 112.7390
L126.3651 111.3362
" />
<path d="M128.1803 114.0017
L128.7152 113.8175
" />
<path d="M125.6637 112.7743
L128.1803 114.0017
" />
<path d="M126.3651 111.3362
L125.6637 112.7743
" />
<path d="M168.2784 75.2884
L169.2614 74.6001
" />
<path d="M169.2614 74.6001
L167.4259 71.9788
" />
<path d="M167.7213 75.1902
L168.2784 75.2884
" />
<path d="M166.1153 72.8966
L167.7213 75.1902
" />
<path d="M167.4259 71.9788
L166.1153 72.8966
" />
<path d="M132.3822 120.1349
L131.1822 120.1349
" />
<path d="M131.1822 120.1349
L131.1822 123.3349
" />
<path d="M132.7822 120.5349
L132.3822 120.1349
" />
<path d="M132.7822 123.3349
L132.7822 120.5349
" />
<path d="M131.1822 123.3349
L132.7822 123.3349
" />
<path d="M171.3650 82.9229
L169.7650 82.9229
" />
<path d="M169.7650 82.9229
L169.7650 85.7229
" />
<path d="M169.7650 85.7229
L170.1650 86.1229
" />
<path d="M171.3650 86.1229
L171.3650 82.9229
" />
<path d="M170.1650 86.1229
L171.3650 86.1229
" />
<path d="M130.2777 98.0560
L130.9487 97.0612
" />
<path d="M130.9487 97.0612
L128.2958 95.2718
" />
<path d="M129.7224 98.1640
L130.2777 98.0560
" />
<path d="M127.4011 96.5982
L129.7224 98.1640
" />
<path d="M128.2958 95.2718
L127.4011 96.5982
" />
</g> 
</svg>
