<?xml version="1.0" standalone="no"?>
 <!DOCTYPE svg PUBLIC "-//W3C//DTD SVG 1.1//EN" 
 "http://www.w3.org/Graphics/SVG/1.1/DTD/svg11.dtd"> 
<svg
  xmlns:svg="http://www.w3.org/2000/svg"
  xmlns="http://www.w3.org/2000/svg"
  xmlns:xlink="http://www.w3.org/1999/xlink"
  version="1.1"
  width="297.0022mm" height="210.0072mm" viewBox="0.0000 0.0000 297.0022 210.0072">
<title>SVG Image created as dc-labubu-protype-ver-2.0-Edge_Cuts.svg date 2025/08/01 02:40:31 </title>
  <desc>Image generated by PCBNEW </desc>
<g style="fill:#000000; fill-opacity:1.0000;stroke:#000000; stroke-opacity:1.0000;
stroke-linecap:round; stroke-linejoin:round;"
 transform="translate(0 0) scale(1 1)">
</g>
<g style="fill:none; 
stroke:#000000; stroke-width:0.1500; stroke-opacity:1; 
stroke-linecap:round; stroke-linejoin:round;">
<circle cx="148.2925" cy="57.3036" r="2.5403" /> 
</g>
<g style="fill:none; 
stroke:#000000; stroke-width:0.1000; stroke-opacity:1; 
stroke-linecap:round; stroke-linejoin:round;">
<path d="M122.9109 76.9809
L123.2084 75.2963
" />
<path d="M123.0151 78.4199
L123.2964 77.3952
" />
<path d="M123.0558 79.9233
L123.0151 78.4199
" />
<path d="M123.2084 75.2963
L123.6849 74.1430
" />
<path d="M123.2530 81.6627
L123.3182 80.8962
" />
<path d="M123.2568 82.3233
L123.2530 81.6627
" />
<path d="M123.2964 77.3952
L123.4130 76.9930
" />
<path d="M123.3182 80.8962
L123.4394 80.3305
" />
<path d="M123.3554 82.8644
L123.2568 82.3233
" />
<path d="M123.4130 76.9930
L122.9109 76.9809
" />
<path d="M123.4394 80.3305
L123.5250 79.9368
" />
<path d="M123.5250 79.9368
L123.0558 79.9233
" />
<path d="M123.5669 72.8960
L123.8805 72.1192
" />
<path d="M123.5720 73.3841
L123.5669 72.8960
" />
<path d="M123.5744 83.1295
L123.3554 82.8644
" />
<path d="M123.6495 73.6178
L123.5720 73.3841
" />
<path d="M123.6849 74.1430
L123.9170 73.6006
" />
<path d="M123.7761 83.2687
L123.5744 83.1295
" />
<path d="M123.8805 72.1192
L124.2335 71.5358
" />
<path d="M123.9109 83.3806
L123.7761 83.2687
" />
<path d="M123.9170 73.6006
L123.6495 73.6178
" />
<path d="M123.9356 84.0608
L123.9109 83.3806
" />
<path d="M123.9617 85.0451
L123.9356 84.0608
" />
<path d="M123.9930 110.6771
L124.0636 109.6503
" />
<path d="M124.0531 111.2769
L123.9930 110.6771
" />
<path d="M124.0636 109.6503
L124.5157 108.2813
" />
<path d="M124.2335 71.5358
L124.5420 71.0378
" />
<path d="M124.2339 70.4592
L124.3101 70.0668
" />
<path d="M124.2956 86.1492
L123.9617 85.0451
" />
<path d="M124.3101 70.0668
L124.8143 69.1630
" />
<path d="M124.3259 111.8836
L124.0531 111.2769
" />
<path d="M124.3329 70.6531
L124.2339 70.4592
" />
<path d="M124.4767 70.7539
L124.3329 70.6531
" />
<path d="M124.5157 108.2813
L125.2082 107.2635
" />
<path d="M124.5420 71.0378
L124.6449 70.8716
" />
<path d="M124.6449 70.8716
L124.4767 70.7539
" />
<path d="M124.7885 86.1132
L124.2956 86.1492
" />
<path d="M124.8143 69.1630
L125.2937 68.5052
" />
<path d="M124.8378 112.5006
L124.3259 111.8836
" />
<path d="M125.0541 86.8599
L124.7885 86.1132
" />
<path d="M125.0926 112.5498
L124.8378 112.5006
" />
<path d="M125.2082 107.2635
L125.3401 106.8573
" />
<path d="M125.2926 104.0932
L126.7393 100.6886
" />
<path d="M125.2937 68.5052
L125.5136 68.1576
" />
<path d="M125.3401 106.8573
L125.3533 106.3901
" />
<path d="M125.3533 106.3901
L125.4331 105.8916
" />
<path d="M125.3685 112.7284
L125.0926 112.5498
" />
<path d="M125.3801 67.6951
L125.4492 67.3254
" />
<path d="M125.4153 67.9438
L125.3801 67.6951
" />
<path d="M125.4331 105.8916
L125.6021 105.4701
" />
<path d="M125.4492 67.3254
L126.3060 66.0443
" />
<path d="M125.4641 88.0177
L125.0541 86.8599
" />
<path d="M125.5136 68.1576
L125.4153 67.9438
" />
<path d="M125.6021 105.4701
L125.6623 105.1547
" />
<path d="M125.6623 105.1547
L125.2926 104.0932
" />
<path d="M125.7447 112.9922
L125.3685 112.7284
" />
<path d="M126.1985 113.0790
L125.7447 112.9922
" />
<path d="M126.3060 66.0443
L126.9389 65.3929
" />
<path d="M126.3475 89.3435
L125.4641 88.0177
" />
<path d="M126.6589 88.9662
L126.3475 89.3435
" />
<path d="M126.7393 100.6886
L128.7410 97.6260
" />
<path d="M126.8832 89.3604
L126.6589 88.9662
" />
<path d="M126.9389 65.3929
L127.1425 65.1384
" />
<path d="M127.1009 113.0165
L126.1985 113.0790
" />
<path d="M127.1258 64.6926
L127.7514 63.7806
" />
<path d="M127.1425 65.1384
L127.1258 64.6926
" />
<path d="M127.3364 90.1428
L126.8832 89.3604
" />
<path d="M127.7373 112.4339
L127.1009 113.0165
" />
<path d="M127.7514 63.7806
L128.5127 62.9545
" />
<path d="M128.2294 91.1660
L127.3364 90.1428
" />
<path d="M128.2521 111.6095
L127.7373 112.4339
" />
<path d="M128.5127 62.9545
L129.0745 62.2947
" />
<path d="M128.5334 91.2445
L128.2294 91.1660
" />
<path d="M128.7272 91.2025
L128.5334 91.2445
" />
<path d="M128.7410 97.6260
L130.3117 95.4697
" />
<path d="M128.8508 110.9245
L128.2521 111.6095
" />
<path d="M128.9564 91.1316
L128.7272 91.2025
" />
<path d="M129.0745 62.2947
L129.1366 61.7623
" />
<path d="M129.0852 111.0197
L128.8508 110.9245
" />
<path d="M129.1366 61.7623
L129.3513 61.3774
" />
<path d="M129.2458 111.3446
L129.0852 111.0197
" />
<path d="M129.3513 61.3774
L129.6022 61.1194
" />
<path d="M129.4071 91.5692
L128.9564 91.1316
" />
<path d="M129.4839 57.8452
L129.5139 56.8346
" />
<path d="M129.5139 56.8346
L129.7209 56.1177
" />
<path d="M129.5198 55.2569
L129.5429 54.7577
" />
<path d="M129.5429 54.7577
L129.6637 54.2256
" />
<path d="M129.5663 112.0296
L129.2458 111.3446
" />
<path d="M129.6022 61.1194
L129.9514 60.7767
" />
<path d="M129.6168 55.5445
L129.5198 55.2569
" />
<path d="M129.6637 54.2256
L129.7591 53.6766
" />
<path d="M129.6751 59.3985
L129.7199 58.8077
" />
<path d="M129.7020 58.3447
L129.4839 57.8452
" />
<path d="M129.7199 58.8077
L129.7020 58.3447
" />
<path d="M129.7209 56.1177
L129.7902 55.8424
" />
<path d="M129.7319 52.4863
L129.8901 51.8969
" />
<path d="M129.7334 55.7528
L129.6168 55.5445
" />
<path d="M129.7509 52.8935
L129.7319 52.4863
" />
<path d="M129.7591 53.6766
L129.7699 53.2966
" />
<path d="M129.7699 53.2966
L129.7509 52.8935
" />
<path d="M129.7715 59.9171
L129.6751 59.3985
" />
<path d="M129.7902 55.8424
L129.7334 55.7528
" />
<path d="M129.8901 51.8969
L130.1372 51.3449
" />
<path d="M129.9077 60.2598
L129.7715 59.9171
" />
<path d="M129.9514 60.7767
L130.0678 60.6624
" />
<path d="M130.0268 92.2066
L129.4071 91.5692
" />
<path d="M130.0678 60.6624
L129.9077 60.2598
" />
<path d="M130.1372 51.3449
L130.3278 50.8571
" />
<path d="M130.1895 50.5637
L130.2452 49.5386
" />
<path d="M130.2452 49.5386
L130.4827 48.7480
" />
<path d="M130.2849 112.4485
L129.5663 112.0296
" />
<path d="M130.3117 95.4697
L131.7753 93.7591
" />
<path d="M130.3278 50.8571
L130.1895 50.5637
" />
<path d="M130.4827 48.7480
L130.6204 47.9771
" />
<path d="M130.6204 47.9771
L130.6613 47.0510
" />
<path d="M130.6613 47.0510
L130.9439 45.8311
" />
<path d="M130.8278 92.6627
L130.0268 92.2066
" />
<path d="M130.9439 45.8311
L131.4174 45.3093
" />
<path d="M130.9778 112.4355
L130.2849 112.4485
" />
<path d="M131.2139 92.3238
L130.8278 92.6627
" />
<path d="M131.3259 112.2516
L130.9778 112.4355
" />
<path d="M131.4174 45.3093
L131.5349 45.1149
" />
<path d="M131.5145 92.4870
L131.2139 92.3238
" />
<path d="M131.5349 45.1149
L131.5535 44.6383
" />
<path d="M131.5535 44.6383
L132.0965 42.8997
" />
<path d="M131.5535 129.2524
L132.1944 128.2147
" />
<path d="M131.5634 129.8554
L131.5535 129.2524
" />
<path d="M131.5914 109.5928
L131.7200 109.8759
" />
<path d="M131.7043 130.1250
L131.5634 129.8554
" />
<path d="M131.7200 109.8759
L131.7993 110.5131
" />
<path d="M131.7649 111.8016
L131.3259 112.2516
" />
<path d="M131.7753 93.7591
L132.3039 93.0170
" />
<path d="M131.7829 109.3153
L131.5914 109.5928
" />
<path d="M131.7993 110.5131
L131.8128 111.2055
" />
<path d="M131.8128 111.2055
L131.7649 111.8016
" />
<path d="M131.9793 121.9161
L132.0227 121.4229
" />
<path d="M132.0227 121.4229
L132.1283 120.8516
" />
<path d="M132.0279 118.9226
L132.2820 118.1360
" />
<path d="M132.0292 122.3066
L131.9793 121.9161
" />
<path d="M132.0382 120.1725
L132.0279 118.9226
" />
<path d="M132.0752 108.9687
L131.7829 109.3153
" />
<path d="M132.0931 123.6734
L132.2673 122.8889
" />
<path d="M132.0965 42.8997
L132.5903 42.3014
" />
<path d="M132.1019 117.5364
L132.1285 116.5802
" />
<path d="M132.1283 120.8516
L132.2649 120.4553
" />
<path d="M132.1285 116.5802
L132.3631 115.7682
" />
<path d="M132.1944 128.2147
L132.9529 127.4697
" />
<path d="M132.2270 124.5862
L132.0931 123.6734
" />
<path d="M132.2649 120.4553
L132.3510 120.1994
" />
<path d="M132.2673 122.8889
L132.3351 122.5143
" />
<path d="M132.2677 130.4094
L131.7043 130.1250
" />
<path d="M132.2820 118.1360
L132.3328 117.8793
" />
<path d="M132.3039 93.0170
L131.5145 92.4870
" />
<path d="M132.3136 114.8289
L132.3808 114.0783
" />
<path d="M132.3151 108.5438
L132.0752 108.9687
" />
<path d="M132.3328 117.8793
L132.1019 117.5364
" />
<path d="M132.3351 122.5143
L132.0292 122.3066
" />
<path d="M132.3510 120.1994
L132.0382 120.1725
" />
<path d="M132.3631 115.7682
L132.4719 115.2901
" />
<path d="M132.3808 114.0783
L132.6312 113.5031
" />
<path d="M132.4654 108.0405
L132.3151 108.5438
" />
<path d="M132.4719 115.2901
L132.3136 114.8289
" />
<path d="M132.4797 111.0224
L132.4654 108.0405
" />
<path d="M132.4931 112.1955
L132.4797 111.0224
" />
<path d="M132.4987 125.8015
L132.5898 125.0588
" />
<path d="M132.5659 112.8575
L132.4931 112.1955
" />
<path d="M132.5898 125.0588
L132.6422 124.6172
" />
<path d="M132.5903 42.3014
L132.7580 42.0723
" />
<path d="M132.6312 113.5031
L132.6702 113.2086
" />
<path d="M132.6422 124.6172
L132.2270 124.5862
" />
<path d="M132.6702 113.2086
L132.5659 112.8575
" />
<path d="M132.6927 126.6405
L132.4987 125.8015
" />
<path d="M132.7580 42.0723
L132.9304 41.5821
" />
<path d="M132.9304 41.5821
L133.5349 40.4942
" />
<path d="M132.9529 127.4697
L133.3459 127.0635
" />
<path d="M133.0408 130.4489
L132.2677 130.4094
" />
<path d="M133.0571 126.7069
L132.6927 126.6405
" />
<path d="M133.2604 126.8265
L133.0571 126.7069
" />
<path d="M133.3459 127.0635
L133.2604 126.8265
" />
<path d="M133.4646 130.3063
L133.0408 130.4489
" />
<path d="M133.5349 40.4942
L133.9922 40.2651
" />
<path d="M133.6820 130.3499
L133.4646 130.3063
" />
<path d="M133.9922 40.2651
L134.1865 39.9328
" />
<path d="M134.1865 39.9328
L134.3887 39.4568
" />
<path d="M134.2274 130.8386
L133.6820 130.3499
" />
<path d="M134.3887 39.4568
L135.0478 38.5508
" />
<path d="M135.0478 38.5508
L135.5473 38.3659
" />
<path d="M135.1237 130.8764
L134.2274 130.8386
" />
<path d="M135.5473 38.3659
L135.6755 38.3207
" />
<path d="M135.6755 38.3207
L135.7478 38.1684
" />
<path d="M135.7478 38.1684
L135.9579 37.8076
" />
<path d="M135.7602 130.7084
L135.1237 130.8764
" />
<path d="M135.9579 37.8076
L136.2320 37.3963
" />
<path d="M136.0462 130.8172
L135.7602 130.7084
" />
<path d="M136.2320 37.3963
L136.7640 36.9319
" />
<path d="M136.4926 131.1624
L136.0462 130.8172
" />
<path d="M136.7640 36.9319
L137.2202 36.9942
" />
<path d="M137.1443 131.2064
L136.4926 131.1624
" />
<path d="M137.2202 36.9942
L137.4345 36.8267
" />
<path d="M137.4345 36.8267
L137.6882 36.4442
" />
<path d="M137.6882 36.4442
L138.0946 36.1915
" />
<path d="M138.0946 36.1915
L138.4322 36.4119
" />
<path d="M138.4322 36.4119
L138.6116 36.5805
" />
<path d="M138.6116 36.5805
L138.6714 36.6367
" />
<path d="M138.6714 36.6367
L138.7175 36.4064
" />
<path d="M138.7175 36.4064
L138.7521 36.2334
" />
<path d="M138.7521 36.2334
L138.8707 36.0121
" />
<path d="M138.8707 36.0121
L139.0125 35.9483
" />
<path d="M139.0125 35.9483
L139.1416 35.9221
" />
<path d="M139.1416 35.9221
L139.5176 36.2633
" />
<path d="M139.4871 130.9796
L137.1443 131.2064
" />
<path d="M139.5176 36.2633
L139.6636 36.5845
" />
<path d="M139.6636 36.5845
L139.7581 36.8461
" />
<path d="M139.7581 36.8461
L139.7896 36.9333
" />
<path d="M139.7896 36.9333
L139.9316 36.7000
" />
<path d="M139.9316 36.7000
L140.0179 36.5581
" />
<path d="M140.0179 36.5581
L140.1653 36.3658
" />
<path d="M140.1653 36.3658
L140.3558 36.3111
" />
<path d="M140.3558 36.3111
L140.8220 36.8302
" />
<path d="M140.8220 36.8302
L141.0614 37.2894
" />
<path d="M141.0614 37.2894
L141.1995 37.5493
" />
<path d="M141.1995 37.5493
L141.3450 37.1397
" />
<path d="M141.3450 37.1397
L141.8057 37.3061
" />
<path d="M141.8057 37.3061
L142.0816 37.7623
" />
<path d="M142.0816 37.7623
L142.2528 38.0395
" />
<path d="M142.2528 38.0395
L142.4478 37.8555
" />
<path d="M142.4478 37.8555
L142.5822 37.8455
" />
<path d="M142.5822 37.8455
L142.8352 38.0688
" />
<path d="M142.7677 129.7125
L139.4871 130.9796
" />
<path d="M142.8352 38.0688
L143.1767 39.0072
" />
<path d="M143.1767 39.0072
L143.3067 39.7614
" />
<path d="M143.3067 39.7614
L143.3688 40.0956
" />
<path d="M143.3688 40.0956
L143.6890 39.4855
" />
<path d="M143.6890 39.4855
L144.2015 39.9931
" />
<path d="M143.7234 128.7272
L142.7677 129.7125
" />
<path d="M144.1597 127.8869
L143.7234 128.7272
" />
<path d="M144.1777 127.4482
L144.1597 127.8869
" />
<path d="M144.2015 39.9931
L144.3933 40.7402
" />
<path d="M144.3145 127.1236
L144.1777 127.4482
" />
<path d="M144.3933 40.7402
L144.4642 41.2487
" />
<path d="M144.4642 41.2487
L144.4793 41.6605
" />
<path d="M144.4793 41.6605
L144.5065 41.8827
" />
<path d="M144.5065 41.8827
L144.7603 41.6594
" />
<path d="M144.7603 41.6594
L144.9124 41.6027
" />
<path d="M144.9124 41.6027
L145.1712 41.8517
" />
<path d="M144.9135 127.0598
L144.3145 127.1236
" />
<path d="M145.1712 41.8517
L145.4244 42.7121
" />
<path d="M145.3418 125.9607
L144.9135 127.0598
" />
<path d="M145.4204 125.3271
L145.3418 125.9607
" />
<path d="M145.4244 42.7121
L145.5159 43.4589
" />
<path d="M145.5159 43.4589
L145.6083 43.8875
" />
<path d="M145.5387 125.0064
L145.4204 125.3271
" />
<path d="M145.6083 43.8875
L145.8596 44.1400
" />
<path d="M145.8596 44.1400
L146.1231 45.2832
" />
<path d="M145.9411 124.7635
L145.5387 125.0064
" />
<path d="M146.1231 45.2832
L146.1610 46.0706
" />
<path d="M146.1610 46.0706
L146.2239 46.3476
" />
<path d="M146.2239 46.3476
L146.5647 46.5270
" />
<path d="M146.2451 123.7766
L145.9411 124.7635
" />
<path d="M146.4139 123.0014
L146.2451 123.7766
" />
<path d="M146.5647 46.5270
L146.8468 47.4991
" />
<path d="M146.6163 122.4833
L146.4139 123.0014
" />
<path d="M146.8468 47.4991
L146.8886 48.2565
" />
<path d="M146.8886 48.2565
L146.9447 48.6341
" />
<path d="M146.9227 122.7447
L146.6163 122.4833
" />
<path d="M146.9447 48.6341
L147.1172 48.8889
" />
<path d="M147.1106 122.7482
L146.9227 122.7447
" />
<path d="M147.1172 48.8889
L147.4053 51.1615
" />
<path d="M147.4053 51.1615
L147.5006 52.6413
" />
<path d="M147.4662 122.4534
L147.1106 122.7482
" />
<path d="M147.5006 52.6413
L147.5545 53.3832
" />
<path d="M147.5545 53.3832
L147.8099 53.2658
" />
<path d="M147.7371 121.8451
L147.4662 122.4534
" />
<path d="M147.7863 121.4001
L147.7371 121.8451
" />
<path d="M147.8099 53.2658
L148.1181 53.2562
" />
<path d="M147.9956 121.6118
L147.7863 121.4001
" />
<path d="M148.1181 53.2562
L148.3406 53.3049
" />
<path d="M148.3406 53.3049
L148.6568 53.3851
" />
<path d="M148.3411 122.0682
L147.9956 121.6118
" />
<path d="M148.6568 53.3851
L148.7624 53.4118
" />
<path d="M148.7624 53.4118
L148.7970 52.3216
" />
<path d="M148.7658 121.9333
L148.3411 122.0682
" />
<path d="M148.7970 52.3216
L148.8200 51.6082
" />
<path d="M148.8200 51.6082
L148.8809 50.6107
" />
<path d="M148.8809 50.6107
L149.0931 50.2411
" />
<path d="M149.0013 121.5480
L148.7658 121.9333
" />
<path d="M149.0931 50.2411
L149.1965 49.8912
" />
<path d="M149.1037 121.4686
L149.0013 121.5480
" />
<path d="M149.1812 122.0240
L149.1037 121.4686
" />
<path d="M149.1965 49.8912
L149.2111 49.3781
" />
<path d="M149.2111 49.3781
L149.4217 48.2786
" />
<path d="M149.4217 48.2786
L149.7149 47.7814
" />
<path d="M149.5238 122.7998
L149.1812 122.0240
" />
<path d="M149.6675 122.7717
L149.5238 122.7998
" />
<path d="M149.7149 47.7814
L149.8464 47.2921
" />
<path d="M149.8114 122.6669
L149.6675 122.7717
" />
<path d="M149.8464 47.2921
L149.9186 46.6886
" />
<path d="M149.9186 46.6886
L150.0734 45.9101
" />
<path d="M149.9874 122.5130
L149.8114 122.6669
" />
<path d="M150.0668 122.5939
L149.9874 122.5130
" />
<path d="M150.0734 45.9101
L150.3578 45.5683
" />
<path d="M150.1305 122.9540
L150.0668 122.5939
" />
<path d="M150.1895 123.4419
L150.1305 122.9540
" />
<path d="M150.2461 123.9324
L150.1895 123.4419
" />
<path d="M150.3514 124.4997
L150.2461 123.9324
" />
<path d="M150.3578 45.5683
L150.5115 45.0138
" />
<path d="M150.5115 45.0138
L150.6076 44.3841
" />
<path d="M150.5126 124.9196
L150.3514 124.4997
" />
<path d="M150.6076 44.3841
L150.7891 43.5889
" />
<path d="M150.7891 43.5889
L151.2489 43.4574
" />
<path d="M150.8814 125.2345
L150.5126 124.9196
" />
<path d="M151.0700 125.1879
L150.8814 125.2345
" />
<path d="M151.0999 125.3980
L151.0700 125.1879
" />
<path d="M151.1597 126.2055
L151.0999 125.3980
" />
<path d="M151.2489 43.4574
L151.4127 42.9900
" />
<path d="M151.4127 42.9900
L151.5024 42.4234
" />
<path d="M151.5024 42.4234
L151.7172 41.7729
" />
<path d="M151.6027 127.4234
L151.1597 126.2055
" />
<path d="M151.7172 41.7729
L151.9477 41.5656
" />
<path d="M151.8918 127.4683
L151.6027 127.4234
" />
<path d="M151.9477 41.5656
L152.0606 41.6290
" />
<path d="M151.9908 127.6472
L151.8918 127.4683
" />
<path d="M152.0606 41.6290
L152.1816 41.7431
" />
<path d="M152.1816 41.7431
L152.3139 41.4094
" />
<path d="M152.3139 41.4094
L152.4427 40.7994
" />
<path d="M152.4427 40.7994
L152.8150 39.7333
" />
<path d="M152.7038 129.1278
L151.9908 127.6472
" />
<path d="M152.8150 39.7333
L153.3344 40.0300
" />
<path d="M153.3344 40.0300
L153.5119 39.6360
" />
<path d="M153.5119 39.6360
L153.6569 39.1408
" />
<path d="M153.6569 39.1408
L153.8794 38.5631
" />
<path d="M153.8794 38.5631
L154.1247 38.1964
" />
<path d="M154.1247 38.1964
L154.2779 38.0829
" />
<path d="M154.2779 38.0829
L154.4948 38.3583
" />
<path d="M154.4948 38.3583
L154.6004 38.3377
" />
<path d="M154.6004 38.3377
L154.6925 38.0995
" />
<path d="M154.6925 38.0995
L154.7597 37.9011
" />
<path d="M154.7597 37.9011
L154.7784 37.7900
" />
<path d="M154.7784 37.7900
L154.9428 37.5375
" />
<path d="M154.9428 37.5375
L155.1698 37.2361
" />
<path d="M155.0864 130.4049
L152.7038 129.1278
" />
<path d="M155.1698 37.2361
L155.5344 37.0204
" />
<path d="M155.5344 37.0204
L155.8159 37.2676
" />
<path d="M155.8159 37.2676
L155.9037 37.3455
" />
<path d="M155.9037 37.3455
L155.9331 37.1902
" />
<path d="M155.9331 37.1902
L156.5228 36.5109
" />
<path d="M156.5228 36.5109
L156.8832 36.3111
" />
<path d="M156.8832 36.3111
L157.0409 36.4237
" />
<path d="M157.0409 36.4237
L157.1687 36.6078
" />
<path d="M157.1687 36.6078
L157.3478 36.7554
" />
<path d="M157.3478 36.7554
L157.4058 36.5553
" />
<path d="M157.4058 36.5553
L157.5595 36.3102
" />
<path d="M157.5595 36.3102
L157.7561 36.0884
" />
<path d="M157.5666 131.1791
L155.0864 130.4049
" />
<path d="M157.7561 36.0884
L157.9691 35.9362
" />
<path d="M157.9691 35.9362
L158.1929 36.0237
" />
<path d="M158.1929 36.0237
L158.3448 36.1851
" />
<path d="M158.3448 36.1851
L158.4424 36.4331
" />
<path d="M158.4424 36.4331
L158.5480 36.4294
" />
<path d="M158.5480 36.4294
L158.8935 36.0840
" />
<path d="M158.8935 36.0840
L159.5203 36.3488
" />
<path d="M159.5203 36.3488
L159.8807 36.9180
" />
<path d="M159.8772 131.4090
L157.5666 131.1791
" />
<path d="M159.8807 36.9180
L160.0709 37.0740
" />
<path d="M160.0709 37.0740
L160.3416 37.0992
" />
<path d="M160.3416 37.0992
L160.6054 37.2791
" />
<path d="M160.6054 37.2791
L160.8117 37.5613
" />
<path d="M160.6704 131.0410
L159.8772 131.4090
" />
<path d="M160.8117 37.5613
L161.0321 37.7790
" />
<path d="M161.0321 37.7790
L161.3430 37.7914
" />
<path d="M161.1612 131.0415
L160.6704 131.0410
" />
<path d="M161.3430 37.7914
L161.9500 38.6489
" />
<path d="M161.9500 38.6489
L162.2439 39.3353
" />
<path d="M162.0106 131.1394
L161.1612 131.0415
" />
<path d="M162.2439 39.3353
L162.3889 39.6150
" />
<path d="M162.3889 39.6150
L162.7352 39.4725
" />
<path d="M162.7352 39.4725
L163.0530 40.0106
" />
<path d="M162.7800 130.9624
L162.0106 131.1394
" />
<path d="M163.0530 40.0106
L163.2565 40.6469
" />
<path d="M163.2096 130.6603
L162.7800 130.9624
" />
<path d="M163.2565 40.6469
L163.4618 41.1456
" />
<path d="M163.4618 41.1456
L163.7806 41.3694
" />
<path d="M163.5777 130.5761
L163.2096 130.6603
" />
<path d="M163.7544 127.2336
L163.9843 127.5795
" />
<path d="M163.7806 41.3694
L164.1367 42.2624
" />
<path d="M163.8092 126.1748
L163.9878 126.3745
" />
<path d="M163.9036 113.3692
L163.9489 113.8357
" />
<path d="M163.9174 126.1848
L163.8092 126.1748
" />
<path d="M163.9489 113.8357
L164.2124 114.5728
" />
<path d="M163.9555 130.5600
L163.5777 130.5761
" />
<path d="M163.9798 123.7748
L164.0248 123.9822
" />
<path d="M163.9843 127.5795
L164.6701 128.2674
" />
<path d="M163.9878 126.3745
L164.0108 126.8534
" />
<path d="M164.0108 126.8534
L163.7544 127.2336
" />
<path d="M164.0248 123.9822
L164.1476 124.2605
" />
<path d="M164.0582 109.5135
L164.0830 110.9319
" />
<path d="M164.0796 107.9821
L164.0582 109.5135
" />
<path d="M164.0830 110.9319
L164.0865 112.5551
" />
<path d="M164.0865 112.5551
L163.9036 113.3692
" />
<path d="M164.1367 42.2624
L164.2939 42.9096
" />
<path d="M164.1436 121.6009
L164.2540 122.0079
" />
<path d="M164.1476 124.2605
L164.3095 124.8648
" />
<path d="M164.1648 116.4336
L164.2360 116.8673
" />
<path d="M164.2124 114.5728
L164.4056 115.8428
" />
<path d="M164.2360 116.8673
L164.4270 117.4668
" />
<path d="M164.2540 122.0079
L164.4918 122.8979
" />
<path d="M164.2545 121.5382
L164.1436 121.6009
" />
<path d="M164.2939 42.9096
L164.3595 43.0837
" />
<path d="M164.3095 124.8648
L164.4185 125.5117
" />
<path d="M164.3339 108.0993
L164.0796 107.9821
" />
<path d="M164.3362 123.8102
L163.9798 123.7748
" />
<path d="M164.3466 119.1723
L164.3667 119.4740
" />
<path d="M164.3579 130.4642
L163.9555 130.5600
" />
<path d="M164.3595 43.0837
L164.5749 43.1053
" />
<path d="M164.3667 119.4740
L164.4582 119.8264
" />
<path d="M164.3847 126.1864
L163.9174 126.1848
" />
<path d="M164.4056 115.8428
L164.1648 116.4336
" />
<path d="M164.4185 125.5117
L164.3847 126.1864
" />
<path d="M164.4270 117.4668
L164.5791 118.6702
" />
<path d="M164.4582 119.8264
L164.5384 120.4688
" />
<path d="M164.4918 122.8979
L164.5511 123.4824
" />
<path d="M164.5167 108.6149
L164.3339 108.0993
" />
<path d="M164.5259 121.5089
L164.2545 121.5382
" />
<path d="M164.5384 120.4688
L164.5513 121.0345
" />
<path d="M164.5511 123.4824
L164.3362 123.8102
" />
<path d="M164.5513 121.0345
L164.5259 121.5089
" />
<path d="M164.5749 43.1053
L164.8061 43.3543
" />
<path d="M164.5791 118.6702
L164.3466 119.1723
" />
<path d="M164.6498 109.1404
L164.5167 108.6149
" />
<path d="M164.6701 128.2674
L165.1710 129.6734
" />
<path d="M164.8061 43.3543
L164.9564 43.7708
" />
<path d="M164.8935 109.5846
L164.6498 109.1404
" />
<path d="M164.9564 43.7708
L165.0588 44.3415
" />
<path d="M165.0588 44.3415
L165.0771 44.8093
" />
<path d="M165.0771 44.8093
L165.1083 45.1676
" />
<path d="M165.1083 45.1676
L165.3676 45.2439
" />
<path d="M165.1710 129.6734
L164.3579 130.4642
" />
<path d="M165.2160 92.7931
L165.3866 93.1061
" />
<path d="M165.2565 109.9926
L164.8935 109.5846
" />
<path d="M165.3469 110.4482
L165.2565 109.9926
" />
<path d="M165.3676 45.2439
L165.6094 46.0610
" />
<path d="M165.3866 93.1061
L166.8741 94.8077
" />
<path d="M165.3996 111.2978
L165.3469 110.4482
" />
<path d="M165.4615 92.6241
L165.2160 92.7931
" />
<path d="M165.6094 46.0610
L165.6840 46.8100
" />
<path d="M165.6602 92.5839
L165.4615 92.6241
" />
<path d="M165.6840 46.8100
L165.7631 47.3754
" />
<path d="M165.7631 47.3754
L166.0904 47.5581
" />
<path d="M165.7967 111.9045
L165.3996 111.2978
" />
<path d="M166.0904 47.5581
L166.3513 48.4277
" />
<path d="M166.1719 92.7524
L165.6602 92.5839
" />
<path d="M166.3513 48.4277
L166.4257 49.2192
" />
<path d="M166.4257 49.2192
L166.5159 49.7677
" />
<path d="M166.5159 49.7677
L166.7260 50.1076
" />
<path d="M166.7260 50.1076
L166.8260 50.8087
" />
<path d="M166.7572 92.3780
L166.1719 92.7524
" />
<path d="M166.8260 50.8087
L166.8545 51.5403
" />
<path d="M166.8545 51.5403
L166.9114 52.2629
" />
<path d="M166.8741 94.8077
L170.5325 99.9012
" />
<path d="M166.9114 52.2629
L167.1403 52.5941
" />
<path d="M166.9276 112.2347
L165.7967 111.9045
" />
<path d="M166.9485 57.8317
L167.3128 57.9203
" />
<path d="M166.9890 54.7181
L167.2398 55.0372
" />
<path d="M166.9903 60.4770
L167.1792 60.7471
" />
<path d="M167.0284 54.3407
L166.9890 54.7181
" />
<path d="M167.0726 57.3626
L166.9485 57.8317
" />
<path d="M167.0763 60.0603
L166.9903 60.4770
" />
<path d="M167.1403 52.5941
L167.1623 53.5896
" />
<path d="M167.1623 53.5896
L167.0284 54.3407
" />
<path d="M167.1792 60.7471
L168.0391 61.4480
" />
<path d="M167.1956 59.5155
L167.0763 60.0603
" />
<path d="M167.2398 55.0372
L167.2739 56.4391
" />
<path d="M167.2739 56.4391
L167.0726 57.3626
" />
<path d="M167.3088 58.7905
L167.1956 59.5155
" />
<path d="M167.3128 57.9203
L167.3528 58.2987
" />
<path d="M167.3528 58.2987
L167.3088 58.7905
" />
<path d="M167.3800 91.8563
L166.7572 92.3780
" />
<path d="M167.8346 111.6479
L166.9276 112.2347
" />
<path d="M167.8959 91.5581
L167.3800 91.8563
" />
<path d="M168.0391 61.4480
L168.5219 61.9811
" />
<path d="M168.1812 110.9763
L167.8346 111.6479
" />
<path d="M168.3666 91.5589
L167.8959 91.5581
" />
<path d="M168.4370 110.6096
L168.1812 110.9763
" />
<path d="M168.4489 62.6399
L168.5561 62.8183
" />
<path d="M168.5219 61.9811
L168.6683 62.3431
" />
<path d="M168.5561 62.8183
L168.9773 63.1244
" />
<path d="M168.6683 62.3431
L168.4489 62.6399
" />
<path d="M168.7188 91.3356
L168.3666 91.5589
" />
<path d="M168.8839 110.7792
L168.4370 110.6096
" />
<path d="M168.9773 63.1244
L170.1904 64.2981
" />
<path d="M169.3443 90.6744
L168.7188 91.3356
" />
<path d="M169.7451 111.5894
L168.8839 110.7792
" />
<path d="M170.1904 64.2981
L170.7034 65.0320
" />
<path d="M170.2267 89.4131
L169.3443 90.6744
" />
<path d="M170.2859 89.1385
L170.2267 89.4131
" />
<path d="M170.4703 65.4720
L170.7526 65.8930
" />
<path d="M170.4854 112.3395
L169.7451 111.5894
" />
<path d="M170.5325 99.9012
L171.9414 103.1516
" />
<path d="M170.5492 88.9929
L170.2859 89.1385
" />
<path d="M170.7034 65.0320
L170.7410 65.2559
" />
<path d="M170.7410 65.2559
L170.4703 65.4720
" />
<path d="M170.7526 65.8930
L171.3464 66.5510
" />
<path d="M170.8283 89.1199
L170.5492 88.9929
" />
<path d="M171.1432 112.8464
L170.4854 112.3395
" />
<path d="M171.2117 88.6797
L170.8283 89.1199
" />
<path d="M171.3464 66.5510
L172.2616 68.1488
" />
<path d="M171.6147 87.9285
L171.2117 88.6797
" />
<path d="M171.7258 112.9959
L171.1432 112.8464
" />
<path d="M171.8451 104.8415
L171.9401 105.2360
" />
<path d="M171.9401 105.2360
L172.1753 105.7281
" />
<path d="M171.9414 103.1516
L172.0211 104.2070
" />
<path d="M172.0129 86.8445
L171.6147 87.9285
" />
<path d="M172.0211 104.2070
L171.8451 104.8415
" />
<path d="M172.0213 86.5315
L172.0129 86.8445
" />
<path d="M172.0695 68.7836
L172.2825 69.1474
" />
<path d="M172.0925 112.9483
L171.7258 112.9959
" />
<path d="M172.1213 86.4590
L172.0213 86.5315
" />
<path d="M172.1753 105.7281
L172.3169 106.1951
" />
<path d="M172.2433 106.8150
L172.3491 107.1928
" />
<path d="M172.2616 68.1488
L172.0695 68.7836
" />
<path d="M172.2825 69.1474
L172.6254 69.6130
" />
<path d="M172.3169 106.1951
L172.2433 106.8150
" />
<path d="M172.3491 107.1928
L173.0487 107.9945
" />
<path d="M172.4642 112.7599
L172.0925 112.9483
" />
<path d="M172.6254 69.6130
L173.2209 70.6475
" />
<path d="M172.7457 112.5437
L172.4642 112.7599
" />
<path d="M172.8063 86.2034
L172.1213 86.4590
" />
<path d="M172.8463 112.3974
L172.7457 112.5437
" />
<path d="M172.9812 112.2908
L172.8463 112.3974
" />
<path d="M173.0318 71.5212
L173.2376 72.0422
" />
<path d="M173.0487 107.9945
L173.8964 110.1329
" />
<path d="M173.1963 84.6972
L172.8063 86.2034
" />
<path d="M173.2209 70.6475
L173.3789 71.2728
" />
<path d="M173.2376 72.0422
L173.5345 72.6036
" />
<path d="M173.2659 83.8105
L173.1963 84.6972
" />
<path d="M173.2879 71.4310
L173.0318 71.5212
" />
<path d="M173.3014 112.1246
L172.9812 112.2908
" />
<path d="M173.3752 83.3274
L173.2659 83.8105
" />
<path d="M173.3789 71.2728
L173.2879 71.4310
" />
<path d="M173.5345 72.6036
L173.8718 73.3479
" />
<path d="M173.6898 74.6533
L173.8745 75.0727
" />
<path d="M173.7366 111.5658
L173.3014 112.1246
" />
<path d="M173.7475 74.6068
L173.6898 74.6533
" />
<path d="M173.8718 73.3479
L174.0607 73.9413
" />
<path d="M173.8745 75.0727
L174.0922 75.5685
" />
<path d="M173.8964 110.1329
L173.7366 111.5658
" />
<path d="M173.9200 83.1504
L173.3752 83.3274
" />
<path d="M173.9205 74.4668
L173.7475 74.6068
" />
<path d="M173.9226 77.7151
L174.0607 78.1850
" />
<path d="M173.9485 81.2605
L173.9901 82.1521
" />
<path d="M173.9901 82.1521
L173.9200 83.1504
" />
<path d="M174.0126 80.6652
L173.9485 81.2605
" />
<path d="M174.0369 77.6511
L173.9226 77.7151
" />
<path d="M174.0607 73.9413
L174.1121 74.2980
" />
<path d="M174.0607 78.1850
L174.3015 79.1057
" />
<path d="M174.0922 75.5685
L174.3928 76.5607
" />
<path d="M174.1121 74.2980
L173.9205 74.4668
" />
<path d="M174.3015 79.1057
L174.4163 79.8812
" />
<path d="M174.3372 77.6389
L174.0369 77.6511
" />
<path d="M174.3928 76.5607
L174.4007 77.3370
" />
<path d="M174.3944 80.2620
L174.0126 80.6652
" />
<path d="M174.4007 77.3370
L174.3372 77.6389
" />
<path d="M174.4163 79.8812
L174.3944 80.2620
" />
</g> 
</svg>
