<?xml version="1.0" standalone="no"?>
 <!DOCTYPE svg PUBLIC "-//W3C//DTD SVG 1.1//EN" 
 "http://www.w3.org/Graphics/SVG/1.1/DTD/svg11.dtd"> 
<svg
  xmlns:svg="http://www.w3.org/2000/svg"
  xmlns="http://www.w3.org/2000/svg"
  xmlns:xlink="http://www.w3.org/1999/xlink"
  version="1.1"
  width="297.0022mm" height="210.0072mm" viewBox="0.0000 0.0000 297.0022 210.0072">
<title>SVG Image created as dc-labubu-protype-ver-2.0-B_Cu.svg date 2025/08/01 02:40:31 </title>
  <desc>Image generated by PCBNEW </desc>
<g style="fill:#000000; fill-opacity:1.0000;stroke:#000000; stroke-opacity:1.0000;
stroke-linecap:round; stroke-linejoin:round;"
 transform="translate(0 0) scale(1 1)">
<path style="fill:#000000; fill-opacity:1.0000; 
stroke:#000000; stroke-width:0.0100; stroke-opacity:1; 
stroke-linecap:round; stroke-linejoin:round;fill-rule:evenodd;"
d="M 146.9082,72.2989
147.0633,72.3199
147.2245,72.3491
147.3869,72.3849
147.5457,72.4260
147.6960,72.4708
147.8329,72.5179
147.9515,72.5658
148.0471,72.6130
148.1146,72.6582
148.1225,72.6651
148.1549,72.6867
148.2080,72.7138
148.2708,72.7409
148.2749,72.7425
148.3169,72.7600
148.3580,72.7801
148.4022,72.8055
148.4533,72.8388
148.5152,72.8827
148.5918,72.9399
148.6869,73.0129
148.8044,73.1046
148.8072,73.1067
148.9838,73.2450
149.1289,73.1053
149.3329,72.9322
149.5617,72.7814
149.8139,72.6532
150.0886,72.5481
150.3845,72.4665
150.7006,72.4086
151.0356,72.3750
151.3398,72.3657
151.6308,72.3724
151.8950,72.3928
152.1373,72.4277
152.3621,72.4775
152.5270,72.5268
152.8360,72.6414
153.1147,72.7693
153.3645,72.9115
153.5869,73.0690
153.7831,73.2430
153.9546,73.4345
154.1027,73.6446
154.2183,73.8526
154.3052,74.0493
154.3651,74.2353
154.3998,74.4178
154.4108,74.6043
154.4081,74.6985
154.3964,74.8352
154.3757,74.9533
154.3423,75.0663
154.2930,75.1878
154.2708,75.2358
154.1737,75.4088
154.0574,75.5595
153.9247,75.6854
153.7786,75.7837
153.6343,75.8474
153.5537,75.8657
153.4499,75.8760
153.3322,75.8787
153.2104,75.8737
153.0939,75.8611
152.9924,75.8411
152.9879,75.8399
152.7904,75.7754
152.6064,75.6923
152.4718,75.6129
152.3940,75.5583
152.3433,75.5132
152.3191,75.4712
152.3207,75.4264
152.3475,75.3724
152.3987,75.3033
152.4331,75.2612
152.5252,75.1405
152.5948,75.0239
152.6488,74.8983
152.6887,74.7701
152.7035,74.7112
152.7142,74.6558
152.7212,74.5963
152.7255,74.5251
152.7275,74.4345
152.7281,74.3299
152.7266,74.1909
152.7212,74.0783
152.7104,73.9843
152.6930,73.9015
152.6679,73.8223
152.6337,73.7393
152.6267,73.7240
152.5806,73.6461
152.5126,73.5606
152.4307,73.4761
152.3427,73.4011
152.2990,73.3699
152.1451,73.2859
151.9714,73.2223
151.7860,73.1807
151.5970,73.1625
151.4126,73.1691
151.2924,73.1890
151.2182,73.2096
151.1300,73.2396
151.0441,73.2735
151.0243,73.2821
150.9541,73.3112
150.8895,73.3337
150.8408,73.3462
150.8266,73.3477
150.7966,73.3515
150.7715,73.3669
150.7442,73.4006
150.7139,73.4484
150.6257,73.6093
150.5483,73.7816
150.4879,73.9506
150.4724,74.0046
150.4456,74.1393
150.4296,74.2946
150.4247,74.4589
150.4312,74.6206
150.4491,74.7682
150.4560,74.8040
150.5182,75.0576
150.5956,75.2914
150.6910,75.5101
150.8070,75.7182
150.9464,75.9206
151.1119,76.1218
151.3061,76.3266
151.3795,76.3982
151.5018,76.5107
151.6260,76.6150
151.7569,76.7143
151.8992,76.8117
152.0575,76.9103
152.2367,77.0135
152.4414,77.1242
152.5117,77.1611
152.5994,77.2074
152.6787,77.2503
152.7436,77.2866
152.7885,77.3130
152.8054,77.3244
152.8302,77.3520
152.8300,77.3768
152.8026,77.4008
152.7460,77.4258
152.6581,77.4535
152.6557,77.4542
152.5845,77.4759
152.5253,77.4968
152.4858,77.5141
152.4747,77.5217
152.4559,77.5382
152.4145,77.5710
152.3554,77.6162
152.2835,77.6702
152.2204,77.7168
152.0135,77.8795
151.8349,78.0441
151.6792,78.2169
151.5413,78.4043
151.4157,78.6123
151.3483,78.7410
151.2508,78.9517
151.1766,79.1479
151.1229,79.3368
151.1036,79.4277
151.0687,79.6419
151.0408,79.8748
151.0216,80.1119
151.0156,80.2311
151.0119,80.3288
151.0103,80.3990
151.0114,80.4480
151.0158,80.4821
151.0243,80.5077
151.0375,80.5310
151.0500,80.5494
151.0769,80.5940
151.0926,80.6311
151.0943,80.6410
151.0965,80.6472
151.1049,80.6522
151.1223,80.6562
151.1512,80.6593
151.1944,80.6615
151.2545,80.6628
151.3343,80.6633
151.4364,80.6630
151.5636,80.6620
151.7185,80.6604
151.9038,80.6581
151.9630,80.6574
152.1342,80.6550
152.2972,80.6524
152.4485,80.6496
152.5846,80.6467
152.7019,80.6438
152.7968,80.6410
152.8659,80.6384
152.9055,80.6360
152.9102,80.6355
152.9548,80.6278
152.9823,80.6143
153.0024,80.5868
153.0244,80.5367
153.0263,80.5320
153.0579,80.4656
153.0982,80.3974
153.1421,80.3341
153.1847,80.2823
153.2211,80.2488
153.2425,80.2396
153.2778,80.2497
153.3172,80.2735
153.3570,80.2990
153.3863,80.3074
153.3972,80.2971
153.3873,80.2787
153.3627,80.2460
153.3549,80.2365
153.3271,80.1957
153.3130,80.1596
153.3126,80.1545
153.3202,80.1219
153.3399,80.0736
153.3549,80.0432
153.3838,79.9737
153.3961,79.9096
153.3908,79.8594
153.3761,79.8367
153.3511,79.8246
153.3020,79.8068
153.2374,79.7864
153.2044,79.7768
153.1331,79.7540
153.0713,79.7294
153.0286,79.7071
153.0188,79.6993
152.9984,79.6753
152.9920,79.6504
152.9970,79.6182
153.1263,79.6182
153.1413,79.6255
153.1809,79.6385
153.2366,79.6543
153.2406,79.6553
153.3489,79.6890
153.4308,79.7250
153.4833,79.7620
153.4983,79.7813
153.5124,79.8321
153.5158,79.9018
153.5091,79.9776
153.4931,80.0466
153.4825,80.0730
153.4492,80.1418
153.4910,80.1965
153.5239,80.2592
153.5327,80.3093
153.5348,80.3358
153.5441,80.3595
153.5652,80.3858
153.6026,80.4197
153.6607,80.4663
153.6922,80.4907
153.8159,80.5920
153.9208,80.6915
154.0110,80.7952
154.0902,80.9086
154.1624,81.0375
154.2317,81.1876
154.3018,81.3646
154.3117,81.3912
154.3922,81.5858
154.4795,81.7490
154.5754,81.8829
154.6819,81.9898
154.8007,82.0716
154.9338,82.1307
154.9758,82.1440
155.0597,82.1642
155.1558,82.1807
155.2567,82.1930
155.3550,82.2006
155.4433,82.2027
155.5101,82.1993
155.7217,82.1993
155.7263,82.2153
155.7546,82.2161
155.8010,82.2034
155.8598,82.1785
155.9181,82.1473
155.9973,82.0916
156.0842,82.0160
156.1693,81.9299
156.2433,81.8427
156.2898,81.7755
156.3691,81.6144
156.4221,81.4425
156.4488,81.2653
156.4492,81.0881
156.4230,80.9165
156.3702,80.7558
156.3079,80.6373
156.2497,80.5580
156.1725,80.4699
156.0855,80.3825
155.9980,80.3052
155.9313,80.2552
155.8664,80.2161
155.8156,80.1938
155.7827,80.1892
155.7716,80.2033
155.7745,80.2154
155.7822,80.2424
155.7950,80.2943
155.8108,80.3625
155.8223,80.4143
155.8334,80.4676
155.8421,80.5178
155.8487,80.5701
155.8535,80.6295
155.8568,80.7010
155.8588,80.7897
155.8600,80.9007
155.8605,81.0390
155.8605,81.0863
155.8591,81.2961
155.8539,81.4771
155.8444,81.6340
155.8300,81.7717
155.8101,81.8950
155.7840,82.0087
155.7511,82.1177
155.7217,82.1993
155.5101,82.1993
155.5142,82.1991
155.5604,82.1890
155.5644,82.1871
155.5953,82.1540
155.6246,82.0909
155.6519,82.0020
155.6767,81.8912
155.6986,81.7624
155.7172,81.6196
155.7320,81.4667
155.7426,81.3078
155.7485,81.1469
155.7493,80.9878
155.7445,80.8346
155.7338,80.6912
155.7322,80.6763
155.6907,80.4245
155.6229,80.1892
155.5299,79.9721
155.4131,79.7748
155.2737,79.5992
155.1131,79.4469
154.9323,79.3198
154.7329,79.2196
154.6503,79.1882
154.6088,79.1747
154.5686,79.1648
154.5237,79.1578
154.4680,79.1533
154.3952,79.1508
154.2992,79.1496
154.2100,79.1493
154.0774,79.1503
153.9590,79.1539
153.8606,79.1595
153.7881,79.1671
153.7698,79.1702
153.6519,79.2040
153.5260,79.2583
153.4042,79.3268
153.2991,79.4032
153.2757,79.4239
153.2156,79.4840
153.1675,79.5411
153.1361,79.5888
153.1263,79.6182
152.9970,79.6182
152.9979,79.6121
153.0053,79.5836
153.0457,79.4901
153.1146,79.3961
153.2066,79.3053
153.3167,79.2220
153.4397,79.1500
153.5703,79.0933
153.6834,79.0603
153.7413,79.0509
153.8259,79.0420
153.9302,79.0343
154.0471,79.0281
154.1211,79.0255
154.2342,79.0218
154.3178,79.0184
154.3763,79.0145
154.4141,79.0097
154.4356,79.0034
154.4451,78.9952
154.4471,78.9857
154.4572,78.9660
154.4901,78.9438
154.5500,78.9167
154.5868,78.9021
154.7209,78.8540
154.8400,78.8194
154.9549,78.7966
155.0767,78.7834
155.2162,78.7780
155.2853,78.7776
155.5043,78.7844
155.7018,78.8058
155.8877,78.8440
156.0720,78.9012
156.2649,78.9798
156.3494,79.0191
156.6065,79.1593
156.8410,79.3224
157.0516,79.5069
157.2369,79.7111
157.3953,79.9336
157.5255,80.1726
157.6220,80.4147
157.6621,80.5404
157.6923,80.6499
157.7137,80.7519
157.7279,80.8553
157.7360,80.9688
157.7394,81.1015
157.7397,81.2048
157.7389,81.3251
157.7369,81.4192
157.7329,81.4947
157.7264,81.5593
157.7167,81.6207
157.7030,81.6865
157.6946,81.7229
157.6127,82.0002
157.5015,82.2618
157.3627,82.5059
157.1977,82.7309
157.0081,82.9351
156.7955,83.1169
156.5615,83.2745
156.3075,83.4065
156.0352,83.5109
156.0233,83.5147
155.8603,83.5598
155.7018,83.5892
155.5366,83.6042
155.3539,83.6063
155.2938,83.6046
155.1410,83.5966
155.0070,83.5830
154.8799,83.5620
154.7474,83.5313
154.5975,83.4890
154.5792,83.4835
154.5017,83.4617
154.4388,83.4471
154.3968,83.4412
154.3828,83.4433
154.3617,83.4526
154.3142,83.4679
154.2466,83.4873
154.1655,83.5088
154.1409,83.5150
153.9121,83.5701
153.7089,83.6137
153.5251,83.6465
153.3546,83.6693
153.1915,83.6826
153.0296,83.6874
152.8628,83.6842
152.7457,83.6780
152.3807,83.6444
152.0393,83.5913
151.7161,83.5169
151.4059,83.4194
151.1035,83.2970
150.8035,83.1479
150.5007,82.9703
150.3408,82.8664
150.2982,82.8376
150.4888,82.8376
150.4987,82.8493
150.5333,82.8741
150.5876,82.9090
150.6564,82.9508
150.7348,82.9964
150.8178,83.0429
150.8807,83.0768
151.0964,83.1847
151.3078,83.2770
151.5207,83.3554
151.7408,83.4213
151.9736,83.4765
152.2248,83.5224
152.5002,83.5606
152.6945,83.5821
152.7647,83.5862
152.8596,83.5876
152.9712,83.5866
153.0917,83.5834
153.2134,83.5783
153.3283,83.5717
153.4286,83.5639
153.5065,83.5550
153.5327,83.5507
153.6217,83.5328
153.7205,83.5119
153.8233,83.4892
153.9247,83.4661
154.0191,83.4438
154.1008,83.4237
154.1644,83.4070
154.2041,83.3952
154.2147,83.3905
154.2086,83.3765
154.1792,83.3534
154.1470,83.3341
154.0643,83.2835
153.9644,83.2131
153.8532,83.1277
153.7371,83.0318
153.6343,82.9415
153.5706,82.8854
153.5130,82.8378
153.4676,82.8034
153.4403,82.7871
153.4389,82.7867
153.4064,82.7866
153.3524,82.7947
153.2877,82.8092
153.2781,82.8118
153.1572,82.8417
153.0101,82.8740
152.8442,82.9074
152.6670,82.9404
152.4861,82.9717
152.3087,83.0002
152.1425,83.0244
151.9948,83.0430
151.9231,83.0506
151.7707,83.0601
151.6260,83.0576
151.5336,83.0503
151.4257,83.0373
151.2971,83.0177
151.1565,82.9932
151.0127,82.9654
150.8743,82.9361
150.7500,82.9071
150.6487,82.8799
150.6293,82.8740
150.5671,82.8554
150.5186,82.8424
150.4916,82.8372
150.4888,82.8376
150.2982,82.8376
150.2751,82.8219
150.4508,82.8219
150.4593,82.8304
150.4678,82.8219
150.4593,82.8135
150.4508,82.8219
150.2751,82.8219
150.2491,82.8043
150.1634,82.7449
150.0891,82.6919
150.0315,82.6494
149.9961,82.6212
149.9936,82.6190
149.8933,82.5237
149.7853,82.4162
149.6756,82.3029
149.5702,82.1901
149.4752,82.0843
149.3965,81.9917
149.3670,81.9547
149.3473,81.9293
149.5073,81.9293
149.5093,81.9354
149.5104,81.9371
149.5385,81.9729
149.5838,82.0254
149.6416,82.0898
149.7072,82.1611
149.7760,82.2344
149.8433,82.3047
149.9044,82.3671
149.9546,82.4165
149.9894,82.4482
149.9996,82.4559
150.0439,82.4780
150.1150,82.5078
150.2073,82.5433
150.3153,82.5827
150.4332,82.6239
150.5555,82.6650
150.6765,82.7041
150.7906,82.7393
150.8921,82.7686
150.9588,82.7861
151.1466,82.8294
151.3141,82.8613
151.4694,82.8820
151.6205,82.8920
151.7755,82.8916
151.9424,82.8811
152.1291,82.8610
152.2511,82.8449
152.6375,82.7911
152.5156,82.7601
152.3804,82.7158
152.2412,82.6498
152.0956,82.5605
151.9412,82.4461
151.7754,82.3052
151.6108,82.1506
151.3737,81.9191
150.4317,81.9133
150.2292,81.9121
150.0581,81.9113
149.9158,81.9108
149.7997,81.9108
149.7073,81.9113
149.6360,81.9124
149.5832,81.9142
149.5466,81.9167
149.5234,81.9201
149.5111,81.9242
149.5073,81.9293
149.3473,81.9293
149.3248,81.9003
149.3107,81.9001
151.5261,81.9001
151.7208,82.0903
151.9041,82.2598
152.0760,82.3990
152.2377,82.5088
152.3908,82.5900
152.5366,82.6437
152.5775,82.6542
152.6756,82.6776
152.7457,82.6965
152.7930,82.7130
152.8227,82.7291
152.8400,82.7468
152.8469,82.7596
152.8575,82.7770
152.8744,82.7876
152.9021,82.7911
152.9451,82.7870
153.0079,82.7751
153.0951,82.7548
153.1927,82.7306
153.2683,82.7109
153.3314,82.6931
153.3750,82.6794
153.3916,82.6723
153.3890,82.6536
153.3728,82.6127
153.3461,82.5571
153.3319,82.5300
153.2982,82.4664
153.2542,82.3821
153.2050,82.2867
153.1555,82.1899
153.1400,82.1593
153.0188,81.9200
152.9328,81.9097
152.8968,81.9074
152.8312,81.9053
152.7402,81.9034
152.6283,81.9019
152.4997,81.9007
152.3586,81.9000
152.2094,81.8997
152.1865,81.8997
151.5261,81.9001
149.3107,81.9001
148.9692,81.8955
148.8375,81.8939
148.7341,81.8947
148.6533,81.9000
148.5893,81.9120
148.5366,81.9328
148.4895,81.9646
148.4423,82.0094
148.3894,82.0695
148.3336,82.1368
148.0935,82.4029
147.8309,82.6476
147.5497,82.8682
147.2534,83.0615
146.9541,83.2209
146.5882,83.3777
146.2138,83.5049
145.8340,83.6019
145.4520,83.6682
145.0708,83.7030
144.6936,83.7057
144.5665,83.6992
144.3387,83.6751
144.1049,83.6339
143.8739,83.5777
143.6548,83.5090
143.4564,83.4299
143.3876,83.3973
143.3270,83.3659
143.2548,83.3267
143.1764,83.2828
143.0973,83.2375
143.0231,83.1940
143.0222,83.1934
143.2241,83.1934
143.2342,83.2041
143.2702,83.2251
143.3264,83.2538
143.3976,83.2879
143.4780,83.3247
143.5623,83.3619
143.6449,83.3968
143.7204,83.4270
143.7831,83.4499
143.7993,83.4552
143.9541,83.4988
144.1271,83.5388
144.3030,83.5720
144.4395,83.5918
144.5272,83.5989
144.6412,83.6028
144.7742,83.6036
144.9188,83.6016
145.0676,83.5970
145.2133,83.5900
145.3484,83.5808
145.4658,83.5696
145.5317,83.5609
145.8524,83.4997
146.1753,83.4144
146.4938,83.3075
146.8014,83.1816
147.0916,83.0392
147.3577,82.8826
147.4113,82.8472
147.6426,82.6756
147.8752,82.4719
148.1076,82.2377
148.2240,82.1085
148.2932,82.0311
148.3583,81.9617
148.4147,81.9049
148.4581,81.8651
148.4829,81.8472
148.5081,81.8310
148.5334,81.8022
148.5624,81.7555
148.5987,81.6855
148.6218,81.6378
148.7103,81.4500
148.7843,81.2886
148.8454,81.1502
148.8949,81.0314
148.9345,80.9287
148.9383,80.9183
148.9655,80.8450
148.9912,80.7795
149.0116,80.7311
149.0192,80.7151
149.0343,80.6693
149.0483,80.5945
149.0607,80.4956
149.0714,80.3775
149.0801,80.2450
149.0866,80.1030
149.0906,79.9564
149.0919,79.8100
149.0902,79.6688
149.0853,79.5375
149.0816,79.4776
149.0707,79.3537
149.0566,79.2394
149.0405,79.1433
149.0278,79.0881
148.9922,78.9816
148.9404,78.8567
148.8766,78.7222
148.8173,78.6100
149.0284,78.6100
149.0340,78.6304
149.0493,78.6762
149.0721,78.7409
149.1002,78.8183
149.1062,78.8347
149.1386,78.9265
149.1687,79.0196
149.1931,79.1029
149.2082,79.1640
149.2193,79.2382
149.2282,79.3379
149.2351,79.4576
149.2399,79.5919
149.2426,79.7354
149.2433,79.8826
149.2419,80.0282
149.2385,80.1666
149.2330,80.2925
149.2256,80.4005
149.2161,80.4851
149.2055,80.5378
149.2030,80.5607
149.2137,80.5777
149.2422,80.5901
149.2929,80.5995
149.3702,80.6072
149.4348,80.6118
149.4930,80.6147
149.5755,80.6173
149.6783,80.6196
149.7970,80.6216
149.9273,80.6234
150.0650,80.6248
150.2058,80.6258
150.3454,80.6265
150.4795,80.6267
150.6039,80.6266
150.7143,80.6260
150.8064,80.6249
150.8759,80.6233
150.9185,80.6213
150.9297,80.6197
150.9436,80.6096
150.9444,80.5887
150.9321,80.5474
150.9292,80.5392
150.9179,80.4831
150.9123,80.3986
150.9119,80.2909
150.9165,80.1650
150.9256,80.0260
150.9390,79.8788
150.9562,79.7286
150.9768,79.5804
151.0006,79.4392
151.0112,79.3845
151.0799,79.1200
151.1785,78.8548
151.3037,78.5959
151.4472,78.3587
151.5853,78.1688
151.7328,77.9984
151.8969,77.8402
152.0846,77.6869
152.1588,77.6319
152.3341,77.5049
151.7184,77.4943
151.5411,77.4909
151.3932,77.4874
151.2703,77.4831
151.1679,77.4778
151.0817,77.4709
151.0072,77.4622
150.9399,77.4511
150.8754,77.4373
150.8093,77.4203
150.7528,77.4044
150.6819,77.3849
150.6357,77.3755
150.6071,77.3755
150.5886,77.3841
150.5863,77.3861
150.5626,77.4010
150.5142,77.4271
150.4473,77.4611
150.3679,77.5000
150.3287,77.5188
150.0334,77.6749
149.7631,77.8511
149.5190,78.0464
149.3025,78.2599
149.1825,78.4011
149.1281,78.4708
149.0821,78.5315
149.0482,78.5780
149.0303,78.6054
149.0284,78.6100
148.8173,78.6100
148.8050,78.5866
148.7298,78.4587
148.6937,78.4025
148.6035,78.2768
148.5062,78.1627
148.3977,78.0565
148.2734,77.9546
148.1289,77.8532
147.9600,77.7488
147.8019,77.6593
147.6151,77.5615
147.4460,77.4835
147.2868,77.4225
147.1428,77.3799
147.4698,77.3799
147.6522,77.4695
147.8615,77.5782
148.0564,77.6907
148.2327,77.8046
148.3866,77.9172
148.5140,78.0257
148.5785,78.0903
148.6195,78.1382
148.6686,78.2007
148.7218,78.2722
148.7751,78.3470
148.8245,78.4192
148.8660,78.4831
148.8956,78.5330
148.9094,78.5632
148.9099,78.5667
148.9195,78.5604
148.9458,78.5314
148.9852,78.4841
149.0340,78.4226
149.0516,78.4000
149.1166,78.3183
149.1876,78.2337
149.2557,78.1564
149.3098,78.0991
149.5006,77.9249
149.7166,77.7581
149.9490,77.6049
150.1893,77.4712
150.2519,77.4404
150.3294,77.4021
150.3946,77.3675
150.4419,77.3397
150.4659,77.3217
150.4678,77.3184
150.4534,77.3021
150.4162,77.2798
150.3786,77.2625
150.2993,77.2250
150.2005,77.1711
150.0897,77.1055
149.9741,77.0325
149.8612,76.9567
149.7648,76.8874
149.6846,76.8233
149.5892,76.7404
149.4845,76.6444
149.3765,76.5413
149.2711,76.4366
149.1742,76.3363
149.0918,76.2461
149.0318,76.1742
148.9452,76.0628
148.6439,76.3614
148.5056,76.4970
148.3831,76.6134
148.2697,76.7164
148.1585,76.8121
148.0427,76.9063
147.9154,77.0050
147.8077,77.0859
147.7266,77.1475
147.6511,77.2072
147.5872,77.2600
147.5411,77.3009
147.5237,77.3185
147.4698,77.3799
147.1428,77.3799
147.1298,77.3761
146.9673,77.3414
146.8263,77.3200
146.7429,77.3111
146.6364,77.3026
146.5125,77.2946
146.3767,77.2874
146.2347,77.2812
146.0920,77.2761
145.9541,77.2723
145.8266,77.2701
145.7152,77.2696
145.6253,77.2710
145.5626,77.2745
145.5542,77.2755
145.4955,77.2850
145.4302,77.2990
145.3666,77.3151
145.3132,77.3312
145.2783,77.3449
145.2692,77.3524
145.2829,77.3626
145.3192,77.3846
145.3709,77.4142
145.3835,77.4212
145.6297,77.5705
145.8562,77.7346
146.0583,77.9096
146.2097,78.0671
146.3699,78.2679
146.5163,78.4862
146.6459,78.7159
146.7555,78.9509
146.8423,79.1850
146.9031,79.4121
146.9187,79.4945
146.9314,79.5878
146.9435,79.7075
146.9546,79.8460
146.9642,79.9959
146.9718,80.1496
146.9770,80.2997
146.9792,80.4386
146.9793,80.4566
146.9790,80.5446
146.9771,80.6060
146.9725,80.6480
146.9638,80.6780
146.9498,80.7032
146.9345,80.7241
146.8987,80.7664
146.8622,80.7950
146.8169,80.8133
146.7546,80.8243
146.6673,80.8313
146.6592,80.8317
146.4998,80.8407
146.4516,80.9847
146.4275,81.0487
146.3916,81.1342
146.3477,81.2329
146.2994,81.3362
146.2644,81.4080
146.2202,81.4976
146.1818,81.5772
146.1515,81.6416
146.1318,81.6857
146.1249,81.7043
146.1401,81.7139
146.1808,81.7236
146.2386,81.7314
146.2468,81.7322
146.3542,81.7501
146.4330,81.7817
146.4824,81.8261
146.5014,81.8825
146.4890,81.9500
146.4880,81.9525
146.4667,81.9863
146.4247,82.0378
146.3670,82.1021
146.2981,82.1743
146.2231,82.2498
146.1466,82.3238
146.0734,82.3913
146.0083,82.4477
145.9562,82.4882
145.9466,82.4947
145.8012,82.5835
145.6364,82.6746
145.4612,82.7636
145.2844,82.8461
145.1152,82.9177
144.9623,82.9743
144.9362,82.9828
144.7251,83.0451
144.5079,83.0991
144.2900,83.1441
144.0764,83.1794
143.8724,83.2042
143.6830,83.2179
143.5136,83.2196
143.3692,83.2087
143.3481,83.2057
143.2892,83.1973
143.2449,83.1929
143.2244,83.1932
143.2241,83.1934
143.0222,83.1934
142.9593,83.1555
142.9114,83.1253
142.8850,83.1066
142.8816,83.1026
142.8688,83.0879
142.8350,83.0599
142.7874,83.0246
142.7834,83.0218
142.6779,82.9337
142.5693,82.8180
142.4612,82.6802
142.3573,82.5258
142.2612,82.3602
142.1767,82.1892
142.1075,82.0180
142.1007,81.9988
142.0821,81.9448
142.1869,81.9448
142.2566,82.1124
142.3633,82.3385
142.4873,82.5421
142.6348,82.7331
142.7095,82.8162
142.8140,82.9132
142.9270,82.9868
143.0556,83.0408
143.2072,83.0788
143.2457,83.0856
143.3174,83.0925
143.4146,83.0951
143.5295,83.0935
143.6541,83.0883
143.7805,83.0796
143.9007,83.0680
144.0067,83.0537
144.0231,83.0510
144.1094,83.0345
144.2200,83.0108
144.3467,82.9820
144.4812,82.9500
144.6152,82.9169
144.7404,82.8845
144.8487,82.8550
144.8964,82.8411
144.9723,82.8184
144.7970,82.8059
144.6724,82.7938
144.5686,82.7749
144.4728,82.7456
144.3722,82.7023
144.3125,82.6726
144.2512,82.6385
144.1940,82.6002
144.1342,82.5524
144.0651,82.4897
143.9808,82.4076
143.8858,82.3099
143.8153,82.2303
143.7672,82.1660
143.7438,82.1248
143.7029,82.0373
143.5928,82.0193
143.4643,82.0012
143.3154,81.9862
143.1431,81.9739
142.9443,81.9641
142.7157,81.9567
142.6401,81.9549
142.1869,81.9448
142.0821,81.9448
142.0663,81.8989
143.4671,81.8989
143.4735,81.9020
143.4936,81.9055
143.5166,81.9084
143.6135,81.9201
143.6829,81.9308
143.7311,81.9435
143.7644,81.9612
143.7888,81.9871
143.8107,82.0241
143.8297,82.0622
143.8793,82.1428
143.9512,82.2336
144.0386,82.3276
144.1348,82.4178
144.2328,82.4973
144.3040,82.5460
144.3953,82.5990
144.4797,82.6389
144.5650,82.6678
144.6595,82.6879
144.7712,82.7012
144.9081,82.7100
144.9183,82.7105
145.0288,82.7168
145.1154,82.7244
145.1749,82.7328
145.2040,82.7417
145.2053,82.7427
145.2258,82.7601
145.2314,82.7627
145.2478,82.7554
145.2892,82.7353
145.3507,82.7048
145.4271,82.6665
145.4914,82.6341
145.5887,82.5834
145.6870,82.5299
145.7771,82.4787
145.8500,82.4348
145.8756,82.4184
145.9348,82.3747
146.0070,82.3152
146.0862,82.2454
146.1668,82.1709
146.2426,82.0972
146.3080,82.0298
146.3569,81.9743
146.3781,81.9455
146.3954,81.9056
146.3873,81.8755
146.3510,81.8522
146.2839,81.8329
146.2725,81.8304
146.2177,81.8217
146.1589,81.8186
146.0888,81.8215
146.0003,81.8306
145.8862,81.8463
145.8788,81.8474
145.8437,81.8503
145.7778,81.8534
145.6840,81.8565
145.5654,81.8598
145.4250,81.8630
145.2658,81.8662
145.0908,81.8692
144.9031,81.8720
144.7056,81.8745
144.5580,81.8761
144.3269,81.8786
144.1277,81.8808
143.9588,81.8829
143.8182,81.8850
143.7041,81.8870
143.6147,81.8891
143.5482,81.8912
143.5026,81.8935
143.4762,81.8961
143.4671,81.8989
142.0663,81.8989
142.0621,81.8868
141.9004,81.8761
141.8477,81.8737
141.7658,81.8715
141.6593,81.8696
141.5331,81.8679
141.3917,81.8666
141.2398,81.8657
141.0820,81.8653
141.0344,81.8653
140.8693,81.8650
140.7030,81.8642
140.5413,81.8629
140.3899,81.8613
140.2543,81.8593
140.1404,81.8571
140.0538,81.8546
140.0438,81.8543
139.7574,81.8433
139.6982,81.7818
139.6454,81.7096
139.6065,81.6157
139.5807,81.4968
139.5669,81.3494
139.5663,81.3359
139.5667,81.1682
139.5845,81.0237
139.6205,80.8958
139.6343,80.8613
139.6638,80.8034
139.6999,80.7599
139.7501,80.7252
139.8215,80.6935
139.8811,80.6724
139.9825,80.6361
140.0563,80.6007
140.1079,80.5599
140.1426,80.5070
140.1658,80.4356
140.1828,80.3391
140.1882,80.2989
140.2029,80.1946
140.2173,80.1178
140.2334,80.0622
140.2530,80.0216
140.2782,79.9896
140.2863,79.9815
140.3332,79.9492
140.3925,79.9239
140.4094,79.9193
140.4527,79.9135
140.5240,79.9090
140.6175,79.9055
140.7274,79.9032
140.8479,79.9020
140.9732,79.9019
141.0974,79.9030
141.2148,79.9052
141.3195,79.9086
141.4056,79.9130
141.4675,79.9187
141.4707,79.9191
141.5681,79.9365
141.6414,79.9617
141.6946,79.9994
141.7318,80.0544
141.7568,80.1315
141.7736,80.2354
141.7796,80.2916
141.7904,80.3926
141.8019,80.4650
141.8160,80.5146
141.8346,80.5465
141.8596,80.5664
141.8769,80.5742
141.9421,80.5976
141.9833,80.6050
142.0077,80.5933
142.0178,80.5702
142.1239,80.5702
142.1241,80.5713
142.1414,80.5737
142.1865,80.5779
142.2534,80.5835
142.3364,80.5900
142.4293,80.5970
142.5262,80.6040
142.6213,80.6106
142.7085,80.6163
142.7546,80.6191
142.8108,80.6211
142.8889,80.6222
142.9834,80.6224
143.0888,80.6219
143.1995,80.6206
143.3099,80.6188
143.4144,80.6165
143.5076,80.6138
143.5837,80.6108
143.6373,80.6075
143.6628,80.6042
143.6631,80.6041
143.6846,80.5812
143.7009,80.5394
143.7026,80.5314
143.7336,80.4357
143.7936,80.3259
143.8830,80.2014
143.8962,80.1849
144.0038,80.0632
144.1167,79.9623
144.2420,79.8773
144.3866,79.8033
144.5579,79.7356
144.5620,79.7341
144.6723,79.6933
144.7503,79.6599
144.7967,79.6337
144.8120,79.6144
144.8120,79.6143
144.8008,79.5876
144.7709,79.5438
144.7277,79.4897
144.6768,79.4318
144.6238,79.3768
144.5789,79.3352
144.5128,79.2852
144.4326,79.2336
144.3555,79.1916
144.3548,79.1913
144.2278,79.1305
143.8553,79.1248
143.7201,79.1233
143.6132,79.1236
143.5294,79.1259
143.4630,79.1305
143.4088,79.1376
143.3687,79.1456
143.2605,79.1794
143.1378,79.2318
143.0089,79.2980
142.8825,79.3730
142.7670,79.4520
142.6709,79.5301
142.6278,79.5726
142.5529,79.6645
142.4730,79.7809
142.3926,79.9138
142.3161,80.0551
142.2477,80.1968
142.1918,80.3307
142.1547,80.4425
142.1388,80.5023
142.1278,80.5476
142.1239,80.5702
142.0178,80.5702
142.0226,80.5593
142.0342,80.5061
142.0669,80.3798
142.1169,80.2398
142.1808,80.0924
142.2553,79.9437
142.3368,79.8000
142.4219,79.6677
142.5073,79.5528
142.5895,79.4618
142.6245,79.4302
142.7517,79.3341
142.8909,79.2446
143.0342,79.1659
143.1738,79.1022
143.3018,79.0575
143.3508,79.0453
143.4212,79.0351
143.5174,79.0275
143.6318,79.0226
143.7564,79.0204
143.8834,79.0209
144.0050,79.0241
144.1134,79.0300
144.2007,79.0386
144.2409,79.0453
144.3849,79.0907
144.5236,79.1658
144.6607,79.2723
144.6837,79.2933
144.7833,79.3929
144.8545,79.4796
144.8991,79.5558
144.9124,79.5919
144.9173,79.6388
144.9013,79.6802
144.8616,79.7184
144.7953,79.7556
144.6998,79.7940
144.6342,79.8163
144.4371,79.8931
144.2677,79.9862
144.1235,80.0974
144.0832,80.1360
143.9740,80.2557
143.8885,80.3699
143.8289,80.4749
143.8019,80.5484
143.7880,80.5983
143.7763,80.6343
143.7723,80.6434
143.7873,80.6458
143.8336,80.6485
143.9085,80.6512
144.0094,80.6541
144.1337,80.6570
144.2787,80.6599
144.4418,80.6627
144.6205,80.6653
144.8119,80.6678
145.0032,80.6699
145.2082,80.6722
145.4057,80.6748
145.5925,80.6777
145.7659,80.6808
145.9227,80.6840
146.0601,80.6873
146.1750,80.6906
146.2646,80.6939
146.3257,80.6970
146.3530,80.6995
146.4223,80.7083
146.5096,80.7167
146.5991,80.7233
146.6239,80.7246
146.7848,80.7327
146.8373,80.6766
146.8898,80.6206
146.8757,80.2142
146.8664,79.9969
146.8542,79.8083
146.8382,79.6434
146.8175,79.4970
146.7911,79.3642
146.7581,79.2397
146.7177,79.1187
146.6689,78.9959
146.6483,78.9486
146.5120,78.6734
146.3577,78.4237
146.1821,78.1946
146.0498,78.0491
145.9617,77.9609
145.8768,77.8824
145.7899,77.8095
145.6955,77.7383
145.5883,77.6648
145.4629,77.5849
145.3138,77.4946
145.2748,77.4714
145.1926,77.4186
145.1422,77.3744
145.1238,77.3367
145.1378,77.3033
145.1847,77.2722
145.2647,77.2413
145.3176,77.2251
145.3987,77.1983
145.4465,77.1741
145.4604,77.1576
145.4775,77.1396
145.5003,77.1234
145.7010,77.1234
146.0415,77.1236
146.3459,77.1287
146.6191,77.1436
146.8619,77.1684
147.0757,77.2032
147.2614,77.2481
147.2669,77.2497
147.3944,77.2873
147.4621,77.2247
147.5000,77.1922
147.5584,77.1451
147.6305,77.0889
147.7093,77.0290
147.7415,77.0049
147.8606,76.9158
147.9630,76.8371
148.0544,76.7638
148.1408,76.6910
148.2278,76.6136
148.3213,76.5265
148.4273,76.4248
148.5403,76.3142
148.8734,75.9865
148.7804,75.8438
148.6896,75.6933
148.6158,75.5442
148.5575,75.3911
148.5135,75.2288
148.4824,75.0519
148.4631,74.8552
148.4541,74.6335
148.4530,74.5218
148.4536,74.4273
148.6079,74.4273
148.6099,74.6083
148.6105,74.6234
148.6273,74.8861
148.6582,75.1232
148.7053,75.3395
148.7708,75.5401
148.8569,75.7299
148.9659,75.9138
149.0998,76.0967
149.2609,76.2838
149.4177,76.4465
149.6615,76.6715
149.9130,76.8688
150.1700,77.0370
150.4305,77.1750
150.6925,77.2816
150.9504,77.3549
151.0189,77.3662
151.1136,77.3762
151.2298,77.3849
151.3629,77.3921
151.5081,77.3979
151.6607,77.4022
151.8162,77.4048
151.9697,77.4058
152.1167,77.4051
152.2525,77.4026
152.3723,77.3983
152.4715,77.3921
152.5455,77.3839
152.5842,77.3757
152.6601,77.3511
152.4148,77.2227
152.2579,77.1383
152.1025,77.0509
151.9554,76.9642
151.8229,76.8822
151.7115,76.8087
151.6680,76.7779
151.5178,76.6602
151.3638,76.5242
151.2108,76.3752
151.0639,76.2187
150.9279,76.0600
150.8078,75.9045
150.7084,75.7577
150.6563,75.6676
150.5520,75.4455
150.4631,75.2036
150.3930,74.9532
150.3450,74.7056
150.3296,74.5776
150.3224,74.3671
150.3413,74.1608
150.3874,73.9497
150.4159,73.8551
150.5094,73.6197
150.6327,73.3942
150.7501,73.2279
150.8930,73.2279
150.9894,73.1840
151.0897,73.1408
151.1777,73.1099
151.2631,73.0894
151.3557,73.0774
151.4652,73.0719
151.5600,73.0709
151.7096,73.0741
151.8360,73.0855
151.9494,73.1072
152.0599,73.1416
152.1777,73.1909
152.2441,73.2226
152.3794,73.3018
152.5031,73.3987
152.6088,73.5070
152.6900,73.6208
152.7156,73.6695
152.7543,73.7579
152.7834,73.8402
152.8041,73.9236
152.8177,74.0152
152.8255,74.1223
152.8286,74.2523
152.8288,74.3299
152.8282,74.4449
152.8263,74.5336
152.8226,74.6034
152.8161,74.6617
152.8064,74.7160
152.7926,74.7739
152.7835,74.8080
152.7200,74.9951
152.6347,75.1618
152.5231,75.3171
152.5151,75.3268
152.4142,75.4466
152.4866,75.4994
152.6295,75.5895
152.7878,75.6644
152.9547,75.7224
153.1238,75.7621
153.2884,75.7817
153.4418,75.7798
153.5575,75.7602
153.6841,75.7161
153.7990,75.6511
153.9109,75.5599
153.9406,75.5312
154.0685,75.3805
154.1743,75.2053
154.2498,75.0275
154.2697,74.9691
154.2838,74.9202
154.2929,74.8729
154.2983,74.8190
154.3008,74.7505
154.3016,74.6592
154.3016,74.6177
154.3011,74.5144
154.2991,74.4367
154.2946,74.3764
154.2865,74.3254
154.2741,74.2754
154.2563,74.2182
154.2540,74.2113
154.1512,73.9510
154.0214,73.7109
153.8644,73.4910
153.6802,73.2911
153.4687,73.1112
153.2298,72.9511
153.0423,72.8488
152.8982,72.7808
152.7471,72.7168
152.5948,72.6586
152.4466,72.6081
152.3082,72.5671
152.1852,72.5374
152.0830,72.5209
152.0336,72.5180
151.9596,72.5262
151.8644,72.5492
151.7560,72.5843
151.6425,72.6290
151.5346,72.6793
151.4334,72.7362
151.3268,72.8059
151.2208,72.8837
151.1214,72.9645
151.0347,73.0436
150.9666,73.1160
150.9271,73.1701
150.8930,73.2279
150.7501,73.2279
150.7823,73.1824
150.9551,72.9881
151.1475,72.8153
151.3562,72.6679
151.5334,72.5703
151.5990,72.5396
151.6570,72.5142
151.6977,72.4982
151.7058,72.4957
151.7323,72.4868
151.7355,72.4797
151.7135,72.4743
151.6646,72.4704
151.5868,72.4679
151.4785,72.4666
151.3633,72.4663
151.1179,72.4704
150.8982,72.4829
150.6970,72.5050
150.5069,72.5376
150.3207,72.5817
150.1310,72.6385
150.1291,72.6391
149.8544,72.7446
149.6042,72.8728
149.3787,73.0237
149.1784,73.1968
149.0035,73.3920
148.8544,73.6090
148.7932,73.7187
148.7246,73.8613
148.6735,73.9953
148.6381,74.1289
148.6167,74.2702
148.6079,74.4273
148.4536,74.4273
148.4540,74.3712
148.4580,74.2475
148.4666,74.1438
148.4812,74.0532
148.5031,73.9687
148.5338,73.8835
148.5747,73.7905
148.6212,73.6949
148.6676,73.6049
148.7149,73.5184
148.7584,73.4434
148.7936,73.3879
148.8042,73.3733
148.8688,73.2887
148.6480,73.1138
148.5669,73.0505
148.4878,72.9908
148.4178,72.9397
148.3634,72.9021
148.3426,72.8890
148.2413,72.8404
148.1061,72.7940
147.9373,72.7498
147.7346,72.7078
147.6145,72.6866
147.4974,72.6674
147.4041,72.6536
147.3252,72.6445
147.2511,72.6394
147.1723,72.6376
147.0795,72.6385
146.9880,72.6405
146.8778,72.6436
146.7938,72.6471
146.7284,72.6521
146.6739,72.6598
146.6226,72.6711
146.5670,72.6871
146.4993,72.7090
146.4969,72.7098
146.2782,72.7930
146.0805,72.8907
145.9079,73.0005
145.7808,73.1048
145.7010,73.1793
145.7659,73.1537
145.8973,73.1147
146.0548,73.0899
146.2336,73.0799
146.3530,73.0815
146.5512,73.0968
146.7235,73.1281
146.8751,73.1770
147.0107,73.2454
147.1354,73.3350
147.1830,73.3768
147.3132,73.5181
147.4164,73.6763
147.4930,73.8528
147.5437,74.0490
147.5689,74.2663
147.5722,74.3862
147.5623,74.6080
147.5314,74.8242
147.4780,75.0422
147.4004,75.2695
147.3451,75.4051
147.2686,75.5725
147.1884,75.7239
147.1001,75.8658
146.9992,76.0048
146.8812,76.1473
146.7416,76.2997
146.6769,76.3667
146.5126,76.5304
146.3629,76.6700
146.2230,76.7890
146.0884,76.8912
145.9544,76.9805
145.8242,77.0562
145.7010,77.1234
145.5003,77.1234
145.5190,77.1101
145.5791,77.0730
145.6519,77.0319
145.6691,77.0228
145.7519,76.9781
145.8312,76.9339
145.8982,76.8950
145.9444,76.8664
145.9466,76.8649
146.0706,76.7749
146.2082,76.6639
146.3525,76.5382
146.4970,76.4039
146.6349,76.2672
146.7596,76.1344
146.8549,76.0232
147.0323,75.7775
147.1841,75.5102
147.3098,75.2223
147.4088,74.9149
147.4223,74.8633
147.4400,74.7768
147.4529,74.6731
147.4618,74.5458
147.4655,74.4569
147.4684,74.3478
147.4688,74.2641
147.4660,74.1975
147.4596,74.1396
147.4489,74.0819
147.4391,74.0384
147.3776,73.8415
147.2935,73.6697
147.1868,73.5231
147.0573,73.4015
146.9050,73.3051
146.7301,73.2337
146.6832,73.2199
146.6060,73.2045
146.5051,73.1927
146.3904,73.1848
146.2719,73.1812
146.1595,73.1823
146.0632,73.1885
146.0208,73.1942
145.9482,73.2109
145.8562,73.2381
145.7563,73.2717
145.6597,73.3079
145.5780,73.3429
145.5575,73.3528
145.5193,73.3836
145.4715,73.4398
145.4180,73.5157
145.3629,73.6058
145.3100,73.7044
145.3063,73.7118
145.2230,73.9070
145.1643,74.1035
145.1313,74.2957
145.1251,74.4781
145.1320,74.5598
145.1617,74.7251
145.2087,74.8727
145.2769,75.0109
145.3700,75.1480
145.4478,75.2429
145.5010,75.3063
145.5342,75.3527
145.5515,75.3890
145.5570,75.4222
145.5571,75.4269
145.5439,75.4803
145.5029,75.5343
145.4326,75.5907
145.3310,75.6510
145.3044,75.6649
145.0995,75.7588
144.9059,75.8236
144.7200,75.8604
144.5631,75.8705
144.4355,75.8656
144.3247,75.8483
144.2164,75.8152
144.1008,75.7653
143.9546,75.6794
143.8301,75.5703
143.7247,75.4354
143.6536,75.3095
143.6076,75.2089
143.5728,75.1135
143.5478,75.0161
143.5311,74.9093
143.5215,74.7859
143.5175,74.6385
143.5172,74.5839
143.5174,74.5246
143.6133,74.5246
143.6146,74.7337
143.6314,74.9163
143.6651,75.0767
143.7168,75.2191
143.7880,75.3478
143.8798,75.4670
143.9065,75.4962
144.0223,75.6030
144.1435,75.6812
144.2759,75.7331
144.4254,75.7612
144.5604,75.7683
144.6609,75.7666
144.7429,75.7593
144.8212,75.7443
144.8897,75.7259
144.9959,75.6908
145.1065,75.6468
145.2131,75.5978
145.3075,75.5476
145.3817,75.5003
145.4090,75.4786
145.4725,75.4221
145.3537,75.2866
145.2512,75.1526
145.1636,75.0041
145.0963,74.8513
145.0589,74.7244
145.0403,74.5994
145.0333,74.4551
145.0378,74.3043
145.0536,74.1596
145.0641,74.1009
145.1280,73.8735
145.2230,73.6529
145.3467,73.4427
145.4967,73.2464
145.5618,73.1793
145.6703,73.0676
145.8652,72.9100
145.9212,72.8715
146.0757,72.7807
146.2488,72.6989
146.4299,72.6302
146.4374,72.6281
147.8262,72.6281
147.8346,72.6365
147.8431,72.6281
147.8346,72.6196
147.8262,72.6281
146.4374,72.6281
146.6081,72.5788
146.7547,72.5510
146.8795,72.5404
147.0273,72.5376
147.1882,72.5421
147.3522,72.5536
147.5096,72.5717
147.5954,72.5853
147.6737,72.5985
147.7391,72.6082
147.7849,72.6134
147.8044,72.6132
147.8044,72.6131
147.7950,72.6036
147.7572,72.5883
147.6962,72.5687
147.6166,72.5458
147.5235,72.5211
147.4217,72.4956
147.3161,72.4707
147.2117,72.4476
147.1133,72.4275
147.0258,72.4117
146.9934,72.4067
146.8813,72.3948
146.7453,72.3877
146.5945,72.3853
146.4380,72.3873
146.2850,72.3935
146.1444,72.4040
146.0253,72.4184
145.9921,72.4240
145.6553,72.5017
145.3337,72.6062
145.0293,72.7365
144.7442,72.8915
144.4805,73.0700
144.2403,73.2711
144.1247,73.3849
143.9614,73.5744
143.8288,73.7718
143.7240,73.9819
143.6753,74.1097
143.6534,74.1763
143.6379,74.2327
143.6274,74.2878
143.6207,74.3506
143.6164,74.4301
143.6133,74.5246
143.5174,74.5246
143.5176,74.4700
143.5195,74.3828
143.5236,74.3149
143.5305,74.2591
143.5408,74.2082
143.5540,74.1589
143.6378,73.9288
143.7530,73.7056
143.8971,73.4931
144.0678,73.2948
144.2024,73.1660
144.4559,72.9638
144.7302,72.7855
145.0219,72.6322
145.3272,72.5050
145.6426,72.4051
145.9645,72.3337
146.2892,72.2919
146.6133,72.2808
Z" /> 
</g>
<g style="fill:#000000; fill-opacity:1.0000; stroke:none;">
<circle cx="146.6857" cy="91.1389" r="0.8636" /> 
<path style="fill:#000000; fill-opacity:1.0000; stroke:none;fill-rule:evenodd;"
d="M 145.8221,92.8153
147.5493,92.8153
147.5493,94.5425
145.8221,94.5425
Z" /> 
<circle cx="149.2257" cy="91.1389" r="0.8636" /> 
<circle cx="149.2257" cy="93.6790" r="0.8636" /> 
<circle cx="151.7657" cy="91.1389" r="0.8636" /> 
</g>
<g style="fill:#000000; fill-opacity:1.0000; stroke:none;">
<circle cx="151.7657" cy="93.6790" r="0.8636" /> 
<path style="fill:#000000; fill-opacity:1.0000; stroke:none;fill-rule:evenodd;"
d="M 168.8665,65.3960
168.9558,65.3567
169.0533,65.3546
169.1443,65.3900
169.2147,65.4574
169.6736,66.1127
169.7129,66.2020
169.7150,66.2995
169.6796,66.3904
169.6122,66.4609
168.5883,67.1779
168.4990,67.2172
168.4014,67.2193
168.3105,67.1839
168.2401,67.1165
167.7812,66.4612
167.7419,66.3719
167.7398,66.2744
167.7751,66.1834
167.8426,66.1130
Z" /> 
<path style="fill:#000000; fill-opacity:1.0000; stroke:none;fill-rule:evenodd;"
d="M 170.6446,67.9354
170.7339,67.8961
170.8314,67.8940
170.9223,67.9293
170.9928,67.9968
171.4517,68.6521
171.4910,68.7414
171.4931,68.8389
171.4577,68.9298
171.3903,69.0003
170.3663,69.7173
170.2771,69.7565
170.1795,69.7587
170.0886,69.7233
170.0182,69.6559
169.5593,69.0005
169.5200,68.9113
169.5179,68.8137
169.5532,68.7228
169.6207,68.6524
Z" /> 
<path style="fill:#000000; fill-opacity:1.0000; stroke:none;fill-rule:evenodd;"
d="M 144.2849,112.6570
144.3039,112.5614
144.3581,112.4803
144.4392,112.4261
144.5349,112.4070
145.3599,112.4070
145.4556,112.4261
145.5367,112.4803
145.5909,112.5614
145.6099,112.6570
145.6099,113.9570
145.5909,114.0527
145.5367,114.1338
145.4556,114.1880
145.3599,114.2070
144.5349,114.2070
144.4392,114.1880
144.3581,114.1338
144.3039,114.0527
144.2849,113.9570
Z" /> 
<path style="fill:#000000; fill-opacity:1.0000; stroke:none;fill-rule:evenodd;"
d="M 147.4099,112.6570
147.4289,112.5614
147.4831,112.4803
147.5642,112.4261
147.6599,112.4070
148.4849,112.4070
148.5806,112.4261
148.6617,112.4803
148.7159,112.5614
148.7349,112.6570
148.7349,113.9570
148.7159,114.0527
148.6617,114.1338
148.5806,114.1880
148.4849,114.2070
147.6599,114.2070
147.5642,114.1880
147.4831,114.1338
147.4289,114.0527
147.4099,113.9570
Z" /> 
<path style="fill:#000000; fill-opacity:1.0000; stroke:none;fill-rule:evenodd;"
d="M 165.7379,107.0159
165.7115,106.9220
165.7229,106.8252
165.7706,106.7400
165.8472,106.6797
166.5600,106.3165
166.6539,106.2900
166.7507,106.3014
166.8359,106.3491
166.8962,106.4257
167.4637,107.5395
167.4902,107.6334
167.4787,107.7302
167.4311,107.8153
167.3545,107.8757
166.6417,108.2389
166.5478,108.2654
166.4509,108.2539
166.3658,108.2063
166.3054,108.1297
Z" /> 
<path style="fill:#000000; fill-opacity:1.0000; stroke:none;fill-rule:evenodd;"
d="M 168.5001,105.6085
168.4736,105.5147
168.4850,105.4178
168.5327,105.3327
168.6093,105.2723
169.3221,104.9091
169.4160,104.8826
169.5129,104.8941
169.5980,104.9417
169.6584,105.0183
170.2259,106.1321
170.2523,106.2260
170.2409,106.3229
170.1932,106.4080
170.1166,106.4684
169.4038,106.8315
169.3099,106.8580
169.2130,106.8466
169.1279,106.7989
169.0675,106.7223
Z" /> 
</g>
<g style="fill:#000000; fill-opacity:1.0000; stroke:none;">
<circle cx="134.8544" cy="121.6976" r="1.0000" /> 
<path style="fill:#000000; fill-opacity:1.0000; stroke:none;fill-rule:evenodd;"
d="M 152.1113,125.9623
152.0152,125.9788
151.9201,125.9573
151.8404,125.9010
151.7883,125.8185
151.5017,125.0716
151.4851,124.9755
151.5067,124.8804
151.5630,124.8007
151.6455,124.7487
152.8124,124.3007
152.9086,124.2842
153.0037,124.3057
153.0834,124.3620
153.1354,124.4445
153.4221,125.1914
153.4386,125.2875
153.4171,125.3826
153.3608,125.4623
153.2783,125.5144
Z" /> 
<path style="fill:#000000; fill-opacity:1.0000; stroke:none;fill-rule:evenodd;"
d="M 151.0004,123.0682
150.9043,123.0847
150.8091,123.0632
150.7295,123.0069
150.6774,122.9244
150.3907,122.1775
150.3742,122.0814
150.3957,121.9863
150.4520,121.9066
150.5345,121.8546
151.7015,121.4066
151.7976,121.3901
151.8928,121.4116
151.9724,121.4679
152.0245,121.5504
152.3112,122.2973
152.3277,122.3934
152.3062,122.4885
152.2499,122.5682
152.1674,122.6203
Z" /> 
<path style="fill:#000000; fill-opacity:1.0000; stroke:none;fill-rule:evenodd;"
d="M 143.3899,125.5887
143.3065,125.5381
143.2488,125.4594
143.2256,125.3646
143.2405,125.2682
143.5141,124.5165
143.5647,124.4331
143.6433,124.3754
143.7381,124.3522
143.8345,124.3671
145.0091,124.7946
145.0925,124.8452
145.1502,124.9238
145.1734,125.0186
145.1585,125.1150
144.8849,125.8668
144.8343,125.9502
144.7556,126.0078
144.6609,126.0310
144.5645,126.0162
Z" /> 
<path style="fill:#000000; fill-opacity:1.0000; stroke:none;fill-rule:evenodd;"
d="M 144.4501,122.6756
144.3667,122.6250
144.3091,122.5463
144.2859,122.4516
144.3007,122.3552
144.5743,121.6034
144.6249,121.5200
144.7036,121.4624
144.7983,121.4392
144.8948,121.4540
146.0694,121.8815
146.1528,121.9321
146.2104,122.0108
146.2336,122.1056
146.2188,122.2020
145.9452,122.9537
145.8946,123.0371
145.8159,123.0948
145.7212,123.1180
145.6248,123.1031
Z" /> 
<path style="fill:#000000; fill-opacity:1.0000; stroke:none;fill-rule:evenodd;"
d="M 157.1097,111.7085
157.0523,111.6971
157.0036,111.6646
156.9711,111.6159
156.9597,111.5585
156.9597,109.8085
156.9711,109.7511
157.0036,109.7024
157.0523,109.6699
157.1097,109.6585
157.4097,109.6585
157.4671,109.6699
157.5157,109.7024
157.5483,109.7511
157.5597,109.8085
157.5597,111.5585
157.5483,111.6159
157.5157,111.6646
157.4671,111.6971
157.4097,111.7085
Z" /> 
<path style="fill:#000000; fill-opacity:1.0000; stroke:none;fill-rule:evenodd;"
d="M 155.8397,111.7085
155.7823,111.6971
155.7336,111.6646
155.7011,111.6159
155.6897,111.5585
155.6897,109.8085
155.7011,109.7511
155.7336,109.7024
155.7823,109.6699
155.8397,109.6585
156.1397,109.6585
156.1971,109.6699
156.2457,109.7024
156.2783,109.7511
156.2897,109.8085
156.2897,111.5585
156.2783,111.6159
156.2457,111.6646
156.1971,111.6971
156.1397,111.7085
Z" /> 
<path style="fill:#000000; fill-opacity:1.0000; stroke:none;fill-rule:evenodd;"
d="M 154.5697,111.7085
154.5123,111.6971
154.4636,111.6646
154.4311,111.6159
154.4197,111.5585
154.4197,109.8085
154.4311,109.7511
154.4636,109.7024
154.5123,109.6699
154.5697,109.6585
154.8697,109.6585
154.9271,109.6699
154.9757,109.7024
155.0083,109.7511
155.0197,109.8085
155.0197,111.5585
155.0083,111.6159
154.9757,111.6646
154.9271,111.6971
154.8697,111.7085
Z" /> 
<path style="fill:#000000; fill-opacity:1.0000; stroke:none;fill-rule:evenodd;"
d="M 153.2997,111.7085
153.2423,111.6971
153.1936,111.6646
153.1611,111.6159
153.1497,111.5585
153.1497,109.8085
153.1611,109.7511
153.1936,109.7024
153.2423,109.6699
153.2997,109.6585
153.5997,109.6585
153.6571,109.6699
153.7057,109.7024
153.7383,109.7511
153.7497,109.8085
153.7497,111.5585
153.7383,111.6159
153.7057,111.6646
153.6571,111.6971
153.5997,111.7085
Z" /> 
<path style="fill:#000000; fill-opacity:1.0000; stroke:none;fill-rule:evenodd;"
d="M 152.0297,111.7085
151.9723,111.6971
151.9236,111.6646
151.8911,111.6159
151.8797,111.5585
151.8797,109.8085
151.8911,109.7511
151.9236,109.7024
151.9723,109.6699
152.0297,109.6585
152.3297,109.6585
152.3871,109.6699
152.4357,109.7024
152.4683,109.7511
152.4797,109.8085
152.4797,111.5585
152.4683,111.6159
152.4357,111.6646
152.3871,111.6971
152.3297,111.7085
Z" /> 
<path style="fill:#000000; fill-opacity:1.0000; stroke:none;fill-rule:evenodd;"
d="M 150.7597,111.7085
150.7023,111.6971
150.6536,111.6646
150.6211,111.6159
150.6097,111.5585
150.6097,109.8085
150.6211,109.7511
150.6536,109.7024
150.7023,109.6699
150.7597,109.6585
151.0597,109.6585
151.1171,109.6699
151.1657,109.7024
151.1983,109.7511
151.2097,109.8085
151.2097,111.5585
151.1983,111.6159
151.1657,111.6646
151.1171,111.6971
151.0597,111.7085
Z" /> 
<path style="fill:#000000; fill-opacity:1.0000; stroke:none;fill-rule:evenodd;"
d="M 149.4897,111.7085
149.4323,111.6971
149.3836,111.6646
149.3511,111.6159
149.3397,111.5585
149.3397,109.8085
149.3511,109.7511
149.3836,109.7024
149.4323,109.6699
149.4897,109.6585
149.7897,109.6585
149.8471,109.6699
149.8957,109.7024
149.9283,109.7511
149.9397,109.8085
149.9397,111.5585
149.9283,111.6159
149.8957,111.6646
149.8471,111.6971
149.7897,111.7085
Z" /> 
<path style="fill:#000000; fill-opacity:1.0000; stroke:none;fill-rule:evenodd;"
d="M 148.2197,111.7085
148.1623,111.6971
148.1136,111.6646
148.0811,111.6159
148.0697,111.5585
148.0697,109.8085
148.0811,109.7511
148.1136,109.7024
148.1623,109.6699
148.2197,109.6585
148.5197,109.6585
148.5771,109.6699
148.6257,109.7024
148.6583,109.7511
148.6697,109.8085
148.6697,111.5585
148.6583,111.6159
148.6257,111.6646
148.5771,111.6971
148.5197,111.7085
Z" /> 
<path style="fill:#000000; fill-opacity:1.0000; stroke:none;fill-rule:evenodd;"
d="M 146.9497,111.7085
146.8923,111.6971
146.8436,111.6646
146.8111,111.6159
146.7997,111.5585
146.7997,109.8085
146.8111,109.7511
146.8436,109.7024
146.8923,109.6699
146.9497,109.6585
147.2497,109.6585
147.3071,109.6699
147.3557,109.7024
147.3883,109.7511
147.3997,109.8085
147.3997,111.5585
147.3883,111.6159
147.3557,111.6646
147.3071,111.6971
147.2497,111.7085
Z" /> 
<path style="fill:#000000; fill-opacity:1.0000; stroke:none;fill-rule:evenodd;"
d="M 145.6797,111.7085
145.6223,111.6971
145.5736,111.6646
145.5411,111.6159
145.5297,111.5585
145.5297,109.8085
145.5411,109.7511
145.5736,109.7024
145.6223,109.6699
145.6797,109.6585
145.9797,109.6585
146.0371,109.6699
146.0857,109.7024
146.1183,109.7511
146.1297,109.8085
146.1297,111.5585
146.1183,111.6159
146.0857,111.6646
146.0371,111.6971
145.9797,111.7085
Z" /> 
<path style="fill:#000000; fill-opacity:1.0000; stroke:none;fill-rule:evenodd;"
d="M 144.4097,111.7085
144.3523,111.6971
144.3036,111.6646
144.2711,111.6159
144.2597,111.5585
144.2597,109.8085
144.2711,109.7511
144.3036,109.7024
144.3523,109.6699
144.4097,109.6585
144.7097,109.6585
144.7671,109.6699
144.8157,109.7024
144.8483,109.7511
144.8597,109.8085
144.8597,111.5585
144.8483,111.6159
144.8157,111.6646
144.7671,111.6971
144.7097,111.7085
Z" /> 
<path style="fill:#000000; fill-opacity:1.0000; stroke:none;fill-rule:evenodd;"
d="M 143.1397,111.7085
143.0823,111.6971
143.0336,111.6646
143.0011,111.6159
142.9897,111.5585
142.9897,109.8085
143.0011,109.7511
143.0336,109.7024
143.0823,109.6699
143.1397,109.6585
143.4397,109.6585
143.4971,109.6699
143.5457,109.7024
143.5783,109.7511
143.5897,109.8085
143.5897,111.5585
143.5783,111.6159
143.5457,111.6646
143.4971,111.6971
143.4397,111.7085
Z" /> 
<path style="fill:#000000; fill-opacity:1.0000; stroke:none;fill-rule:evenodd;"
d="M 141.8697,111.7085
141.8123,111.6971
141.7636,111.6646
141.7311,111.6159
141.7197,111.5585
141.7197,109.8085
141.7311,109.7511
141.7636,109.7024
141.8123,109.6699
141.8697,109.6585
142.1697,109.6585
142.2271,109.6699
142.2757,109.7024
142.3083,109.7511
142.3197,109.8085
142.3197,111.5585
142.3083,111.6159
142.2757,111.6646
142.2271,111.6971
142.1697,111.7085
Z" /> 
<path style="fill:#000000; fill-opacity:1.0000; stroke:none;fill-rule:evenodd;"
d="M 140.5997,111.7085
140.5423,111.6971
140.4936,111.6646
140.4611,111.6159
140.4497,111.5585
140.4497,109.8085
140.4611,109.7511
140.4936,109.7024
140.5423,109.6699
140.5997,109.6585
140.8997,109.6585
140.9571,109.6699
141.0057,109.7024
141.0383,109.7511
141.0497,109.8085
141.0497,111.5585
141.0383,111.6159
141.0057,111.6646
140.9571,111.6971
140.8997,111.7085
Z" /> 
<path style="fill:#000000; fill-opacity:1.0000; stroke:none;fill-rule:evenodd;"
d="M 140.5997,102.4085
140.5423,102.3971
140.4936,102.3646
140.4611,102.3159
140.4497,102.2585
140.4497,100.5085
140.4611,100.4511
140.4936,100.4024
140.5423,100.3699
140.5997,100.3585
140.8997,100.3585
140.9571,100.3699
141.0057,100.4024
141.0383,100.4511
141.0497,100.5085
141.0497,102.2585
141.0383,102.3159
141.0057,102.3646
140.9571,102.3971
140.8997,102.4085
Z" /> 
<path style="fill:#000000; fill-opacity:1.0000; stroke:none;fill-rule:evenodd;"
d="M 141.8697,102.4085
141.8123,102.3971
141.7636,102.3646
141.7311,102.3159
141.7197,102.2585
141.7197,100.5085
141.7311,100.4511
141.7636,100.4024
141.8123,100.3699
141.8697,100.3585
142.1697,100.3585
142.2271,100.3699
142.2757,100.4024
142.3083,100.4511
142.3197,100.5085
142.3197,102.2585
142.3083,102.3159
142.2757,102.3646
142.2271,102.3971
142.1697,102.4085
Z" /> 
<path style="fill:#000000; fill-opacity:1.0000; stroke:none;fill-rule:evenodd;"
d="M 143.1397,102.4085
143.0823,102.3971
143.0336,102.3646
143.0011,102.3159
142.9897,102.2585
142.9897,100.5085
143.0011,100.4511
143.0336,100.4024
143.0823,100.3699
143.1397,100.3585
143.4397,100.3585
143.4971,100.3699
143.5457,100.4024
143.5783,100.4511
143.5897,100.5085
143.5897,102.2585
143.5783,102.3159
143.5457,102.3646
143.4971,102.3971
143.4397,102.4085
Z" /> 
<path style="fill:#000000; fill-opacity:1.0000; stroke:none;fill-rule:evenodd;"
d="M 144.4097,102.4085
144.3523,102.3971
144.3036,102.3646
144.2711,102.3159
144.2597,102.2585
144.2597,100.5085
144.2711,100.4511
144.3036,100.4024
144.3523,100.3699
144.4097,100.3585
144.7097,100.3585
144.7671,100.3699
144.8157,100.4024
144.8483,100.4511
144.8597,100.5085
144.8597,102.2585
144.8483,102.3159
144.8157,102.3646
144.7671,102.3971
144.7097,102.4085
Z" /> 
<path style="fill:#000000; fill-opacity:1.0000; stroke:none;fill-rule:evenodd;"
d="M 145.6797,102.4085
145.6223,102.3971
145.5736,102.3646
145.5411,102.3159
145.5297,102.2585
145.5297,100.5085
145.5411,100.4511
145.5736,100.4024
145.6223,100.3699
145.6797,100.3585
145.9797,100.3585
146.0371,100.3699
146.0857,100.4024
146.1183,100.4511
146.1297,100.5085
146.1297,102.2585
146.1183,102.3159
146.0857,102.3646
146.0371,102.3971
145.9797,102.4085
Z" /> 
<path style="fill:#000000; fill-opacity:1.0000; stroke:none;fill-rule:evenodd;"
d="M 146.9497,102.4085
146.8923,102.3971
146.8436,102.3646
146.8111,102.3159
146.7997,102.2585
146.7997,100.5085
146.8111,100.4511
146.8436,100.4024
146.8923,100.3699
146.9497,100.3585
147.2497,100.3585
147.3071,100.3699
147.3557,100.4024
147.3883,100.4511
147.3997,100.5085
147.3997,102.2585
147.3883,102.3159
147.3557,102.3646
147.3071,102.3971
147.2497,102.4085
Z" /> 
<path style="fill:#000000; fill-opacity:1.0000; stroke:none;fill-rule:evenodd;"
d="M 148.2197,102.4085
148.1623,102.3971
148.1136,102.3646
148.0811,102.3159
148.0697,102.2585
148.0697,100.5085
148.0811,100.4511
148.1136,100.4024
148.1623,100.3699
148.2197,100.3585
148.5197,100.3585
148.5771,100.3699
148.6257,100.4024
148.6583,100.4511
148.6697,100.5085
148.6697,102.2585
148.6583,102.3159
148.6257,102.3646
148.5771,102.3971
148.5197,102.4085
Z" /> 
<path style="fill:#000000; fill-opacity:1.0000; stroke:none;fill-rule:evenodd;"
d="M 149.4897,102.4085
149.4323,102.3971
149.3836,102.3646
149.3511,102.3159
149.3397,102.2585
149.3397,100.5085
149.3511,100.4511
149.3836,100.4024
149.4323,100.3699
149.4897,100.3585
149.7897,100.3585
149.8471,100.3699
149.8957,100.4024
149.9283,100.4511
149.9397,100.5085
149.9397,102.2585
149.9283,102.3159
149.8957,102.3646
149.8471,102.3971
149.7897,102.4085
Z" /> 
<path style="fill:#000000; fill-opacity:1.0000; stroke:none;fill-rule:evenodd;"
d="M 150.7597,102.4085
150.7023,102.3971
150.6536,102.3646
150.6211,102.3159
150.6097,102.2585
150.6097,100.5085
150.6211,100.4511
150.6536,100.4024
150.7023,100.3699
150.7597,100.3585
151.0597,100.3585
151.1171,100.3699
151.1657,100.4024
151.1983,100.4511
151.2097,100.5085
151.2097,102.2585
151.1983,102.3159
151.1657,102.3646
151.1171,102.3971
151.0597,102.4085
Z" /> 
<path style="fill:#000000; fill-opacity:1.0000; stroke:none;fill-rule:evenodd;"
d="M 152.0297,102.4085
151.9723,102.3971
151.9236,102.3646
151.8911,102.3159
151.8797,102.2585
151.8797,100.5085
151.8911,100.4511
151.9236,100.4024
151.9723,100.3699
152.0297,100.3585
152.3297,100.3585
152.3871,100.3699
152.4357,100.4024
152.4683,100.4511
152.4797,100.5085
152.4797,102.2585
152.4683,102.3159
152.4357,102.3646
152.3871,102.3971
152.3297,102.4085
Z" /> 
<path style="fill:#000000; fill-opacity:1.0000; stroke:none;fill-rule:evenodd;"
d="M 153.2997,102.4085
153.2423,102.3971
153.1936,102.3646
153.1611,102.3159
153.1497,102.2585
153.1497,100.5085
153.1611,100.4511
153.1936,100.4024
153.2423,100.3699
153.2997,100.3585
153.5997,100.3585
153.6571,100.3699
153.7057,100.4024
153.7383,100.4511
153.7497,100.5085
153.7497,102.2585
153.7383,102.3159
153.7057,102.3646
153.6571,102.3971
153.5997,102.4085
Z" /> 
<path style="fill:#000000; fill-opacity:1.0000; stroke:none;fill-rule:evenodd;"
d="M 154.5697,102.4085
154.5123,102.3971
154.4636,102.3646
154.4311,102.3159
154.4197,102.2585
154.4197,100.5085
154.4311,100.4511
154.4636,100.4024
154.5123,100.3699
154.5697,100.3585
154.8697,100.3585
154.9271,100.3699
154.9757,100.4024
155.0083,100.4511
155.0197,100.5085
155.0197,102.2585
155.0083,102.3159
154.9757,102.3646
154.9271,102.3971
154.8697,102.4085
Z" /> 
<path style="fill:#000000; fill-opacity:1.0000; stroke:none;fill-rule:evenodd;"
d="M 155.8397,102.4085
155.7823,102.3971
155.7336,102.3646
155.7011,102.3159
155.6897,102.2585
155.6897,100.5085
155.7011,100.4511
155.7336,100.4024
155.7823,100.3699
155.8397,100.3585
156.1397,100.3585
156.1971,100.3699
156.2457,100.4024
156.2783,100.4511
156.2897,100.5085
156.2897,102.2585
156.2783,102.3159
156.2457,102.3646
156.1971,102.3971
156.1397,102.4085
Z" /> 
<path style="fill:#000000; fill-opacity:1.0000; stroke:none;fill-rule:evenodd;"
d="M 157.1097,102.4085
157.0523,102.3971
157.0036,102.3646
156.9711,102.3159
156.9597,102.2585
156.9597,100.5085
156.9711,100.4511
157.0036,100.4024
157.0523,100.3699
157.1097,100.3585
157.4097,100.3585
157.4671,100.3699
157.5157,100.4024
157.5483,100.4511
157.5597,100.5085
157.5597,102.2585
157.5483,102.3159
157.5157,102.3646
157.4671,102.3971
157.4097,102.4085
Z" /> 
<path style="fill:#000000; fill-opacity:1.0000; stroke:none;fill-rule:evenodd;"
d="M 144.2941,97.8312
144.3131,97.7355
144.3673,97.6544
144.4484,97.6002
144.5441,97.5812
145.3441,97.5812
145.4397,97.6002
145.5208,97.6544
145.5750,97.7355
145.5941,97.8312
145.5941,99.0812
145.5750,99.1768
145.5208,99.2579
145.4397,99.3121
145.3441,99.3312
144.5441,99.3312
144.4484,99.3121
144.3673,99.2579
144.3131,99.1768
144.2941,99.0812
Z" /> 
<path style="fill:#000000; fill-opacity:1.0000; stroke:none;fill-rule:evenodd;"
d="M 147.3941,97.8312
147.4131,97.7355
147.4673,97.6544
147.5484,97.6002
147.6441,97.5812
148.4441,97.5812
148.5397,97.6002
148.6208,97.6544
148.6750,97.7355
148.6941,97.8312
148.6941,99.0812
148.6750,99.1768
148.6208,99.2579
148.5397,99.3121
148.4441,99.3312
147.6441,99.3312
147.5484,99.3121
147.4673,99.2579
147.4131,99.1768
147.3941,99.0812
Z" /> 
<path style="fill:#000000; fill-opacity:1.0000; stroke:none;fill-rule:evenodd;"
d="M 160.3977,48.1667
160.4933,48.1857
160.5744,48.2399
160.6286,48.3210
160.6477,48.4167
160.6477,49.1667
160.6286,49.2623
160.5744,49.3434
160.4933,49.3976
160.3977,49.4167
158.3977,49.4167
158.3020,49.3976
158.2209,49.3434
158.1667,49.2623
158.1477,49.1667
158.1477,48.4167
158.1667,48.3210
158.2209,48.2399
158.3020,48.1857
158.3977,48.1667
Z" /> 
<path style="fill:#000000; fill-opacity:1.0000; stroke:none;fill-rule:evenodd;"
d="M 160.3977,50.6667
160.4933,50.6857
160.5744,50.7399
160.6286,50.8210
160.6477,50.9167
160.6477,51.6667
160.6286,51.7623
160.5744,51.8434
160.4933,51.8976
160.3977,51.9167
158.3977,51.9167
158.3020,51.8976
158.2209,51.8434
158.1667,51.7623
158.1477,51.6667
158.1477,50.9167
158.1667,50.8210
158.2209,50.7399
158.3020,50.6857
158.3977,50.6667
Z" /> 
<path style="fill:#000000; fill-opacity:1.0000; stroke:none;fill-rule:evenodd;"
d="M 160.3977,53.1667
160.4933,53.1857
160.5744,53.2399
160.6286,53.3210
160.6477,53.4167
160.6477,54.1667
160.6286,54.2623
160.5744,54.3434
160.4933,54.3976
160.3977,54.4167
158.3977,54.4167
158.3020,54.3976
158.2209,54.3434
158.1667,54.2623
158.1477,54.1667
158.1477,53.4167
158.1667,53.3210
158.2209,53.2399
158.3020,53.1857
158.3977,53.1667
Z" /> 
</g>
<g style="fill:#000000; fill-opacity:1.0000; stroke:none;">
<circle cx="138.5654" cy="121.6976" r="1.0000" /> 
<path style="fill:#000000; fill-opacity:1.0000; stroke:none;fill-rule:evenodd;"
d="M 138.6673,100.3614
138.7630,100.3804
138.8441,100.4346
138.8983,100.5157
138.9173,100.6114
138.9173,101.4114
138.8983,101.5071
138.8441,101.5882
138.7630,101.6424
138.6673,101.6614
137.4173,101.6614
137.3217,101.6424
137.2405,101.5882
137.1864,101.5071
137.1673,101.4114
137.1673,100.6114
137.1864,100.5157
137.2405,100.4346
137.3217,100.3804
137.4173,100.3614
Z" /> 
<path style="fill:#000000; fill-opacity:1.0000; stroke:none;fill-rule:evenodd;"
d="M 138.6673,103.4614
138.7630,103.4804
138.8441,103.5346
138.8983,103.6157
138.9173,103.7114
138.9173,104.5114
138.8983,104.6071
138.8441,104.6882
138.7630,104.7424
138.6673,104.7614
137.4173,104.7614
137.3217,104.7424
137.2405,104.6882
137.1864,104.6071
137.1673,104.5114
137.1673,103.7114
137.1864,103.6157
137.2405,103.5346
137.3217,103.4804
137.4173,103.4614
Z" /> 
<path style="fill:#000000; fill-opacity:1.0000; stroke:none;fill-rule:evenodd;"
d="M 129.6193,88.8928
129.6886,88.8241
129.7789,88.7872
129.8764,88.7876
129.9664,88.8253
130.6296,89.2727
130.6983,89.3420
130.7352,89.4323
130.7348,89.5298
130.6971,89.6198
129.9981,90.6560
129.9288,90.7247
129.8385,90.7617
129.7410,90.7612
129.6510,90.7235
128.9878,90.2762
128.9191,90.2069
128.8822,90.1166
128.8826,90.0191
128.9203,89.9291
Z" /> 
<path style="fill:#000000; fill-opacity:1.0000; stroke:none;fill-rule:evenodd;"
d="M 132.1894,90.6263
132.2586,90.5576
132.3489,90.5207
132.4465,90.5211
132.5364,90.5588
133.1996,91.0062
133.2683,91.0755
133.3053,91.1657
133.3048,91.2633
133.2671,91.3533
132.5681,92.3895
132.4988,92.4582
132.4086,92.4952
132.3110,92.4947
132.2211,92.4570
131.5578,92.0097
131.4892,91.9404
131.4522,91.8501
131.4526,91.7526
131.4904,91.6626
Z" /> 
</g>
<g style="fill:#000000; fill-opacity:1.0000; stroke:none;">
<circle cx="142.3250" cy="121.6809" r="1.0000" /> 
<path style="fill:#000000; fill-opacity:1.0000; stroke:none;fill-rule:evenodd;"
d="M 129.5351,65.4539
129.6138,65.5116
129.6644,65.5950
129.6792,65.6914
129.6560,65.7861
129.3179,66.5112
129.2603,66.5898
129.1769,66.6404
129.0805,66.6553
128.9857,66.6321
127.8528,66.1038
127.7742,66.0461
127.7236,65.9627
127.7087,65.8663
127.7319,65.7716
128.0700,65.0465
128.1277,64.9679
128.2111,64.9173
128.3075,64.9024
128.4022,64.9256
Z" /> 
<path style="fill:#000000; fill-opacity:1.0000; stroke:none;fill-rule:evenodd;"
d="M 128.2250,68.2634
128.3037,68.3211
128.3543,68.4045
128.3691,68.5009
128.3459,68.5957
128.0078,69.3207
127.9502,69.3994
127.8668,69.4500
127.7704,69.4648
127.6756,69.4416
126.5427,68.9134
126.4641,68.8557
126.4134,68.7723
126.3986,68.6759
126.4218,68.5811
126.7599,67.8561
126.8176,67.7774
126.9010,67.7268
126.9974,67.7120
127.0921,67.7352
Z" /> 
<path style="fill:#000000; fill-opacity:1.0000; stroke:none;fill-rule:evenodd;"
d="M 162.0441,117.7957
161.9485,117.7766
161.8674,117.7224
161.8132,117.6413
161.7941,117.5457
161.7941,116.7457
161.8132,116.6500
161.8674,116.5689
161.9485,116.5147
162.0441,116.4957
163.2941,116.4957
163.3898,116.5147
163.4709,116.5689
163.5251,116.6500
163.5441,116.7457
163.5441,117.5457
163.5251,117.6413
163.4709,117.7224
163.3898,117.7766
163.2941,117.7957
Z" /> 
<path style="fill:#000000; fill-opacity:1.0000; stroke:none;fill-rule:evenodd;"
d="M 162.0441,114.6957
161.9485,114.6766
161.8674,114.6224
161.8132,114.5413
161.7941,114.4457
161.7941,113.6457
161.8132,113.5500
161.8674,113.4689
161.9485,113.4147
162.0441,113.3957
163.2941,113.3957
163.3898,113.4147
163.4709,113.4689
163.5251,113.5500
163.5441,113.6457
163.5441,114.4457
163.5251,114.5413
163.4709,114.6224
163.3898,114.6766
163.2941,114.6957
Z" /> 
<path style="fill:#000000; fill-opacity:1.0000; stroke:none;fill-rule:evenodd;"
d="M 140.9606,40.0552
140.9416,40.1509
140.8874,40.2320
140.8063,40.2862
140.7106,40.3052
139.9106,40.3052
139.8149,40.2862
139.7338,40.2320
139.6796,40.1509
139.6606,40.0552
139.6606,38.8052
139.6796,38.7096
139.7338,38.6285
139.8149,38.5743
139.9106,38.5552
140.7106,38.5552
140.8063,38.5743
140.8874,38.6285
140.9416,38.7096
140.9606,38.8052
Z" /> 
<path style="fill:#000000; fill-opacity:1.0000; stroke:none;fill-rule:evenodd;"
d="M 137.8606,40.0552
137.8416,40.1509
137.7874,40.2320
137.7063,40.2862
137.6106,40.3052
136.8106,40.3052
136.7149,40.2862
136.6338,40.2320
136.5796,40.1509
136.5606,40.0552
136.5606,38.8052
136.5796,38.7096
136.6338,38.6285
136.7149,38.5743
136.8106,38.5552
137.6106,38.5552
137.7063,38.5743
137.7874,38.6285
137.8416,38.7096
137.8606,38.8052
Z" /> 
<path style="fill:#000000; fill-opacity:1.0000; stroke:none;fill-rule:evenodd;"
d="M 173.3062,76.1181
173.4019,76.1371
173.4830,76.1913
173.5372,76.2724
173.5562,76.3681
173.5562,77.1681
173.5372,77.2638
173.4830,77.3449
173.4019,77.3991
173.3062,77.4181
172.0562,77.4181
171.9605,77.3991
171.8794,77.3449
171.8252,77.2638
171.8062,77.1681
171.8062,76.3681
171.8252,76.2724
171.8794,76.1913
171.9605,76.1371
172.0562,76.1181
Z" /> 
<path style="fill:#000000; fill-opacity:1.0000; stroke:none;fill-rule:evenodd;"
d="M 173.3062,79.2181
173.4019,79.2371
173.4830,79.2913
173.5372,79.3724
173.5562,79.4681
173.5562,80.2681
173.5372,80.3638
173.4830,80.4449
173.4019,80.4991
173.3062,80.5181
172.0562,80.5181
171.9605,80.4991
171.8794,80.4449
171.8252,80.3638
171.8062,80.2681
171.8062,79.4681
171.8252,79.3724
171.8794,79.2913
171.9605,79.2371
172.0562,79.2181
Z" /> 
<path style="fill:#000000; fill-opacity:1.0000; stroke:none;fill-rule:evenodd;"
d="M 160.7303,40.0509
160.7112,40.1465
160.6570,40.2276
160.5759,40.2818
160.4803,40.3009
159.6803,40.3009
159.5846,40.2818
159.5035,40.2276
159.4493,40.1465
159.4303,40.0509
159.4303,38.8009
159.4493,38.7052
159.5035,38.6241
159.5846,38.5699
159.6803,38.5509
160.4803,38.5509
160.5759,38.5699
160.6570,38.6241
160.7112,38.7052
160.7303,38.8009
Z" /> 
<path style="fill:#000000; fill-opacity:1.0000; stroke:none;fill-rule:evenodd;"
d="M 157.6303,40.0509
157.6112,40.1465
157.5570,40.2276
157.4759,40.2818
157.3803,40.3009
156.5803,40.3009
156.4846,40.2818
156.4035,40.2276
156.3493,40.1465
156.3303,40.0509
156.3303,38.8009
156.3493,38.7052
156.4035,38.6241
156.4846,38.5699
156.5803,38.5509
157.3803,38.5509
157.4759,38.5699
157.5570,38.6241
157.6112,38.7052
157.6303,38.8009
Z" /> 
<path style="fill:#000000; fill-opacity:1.0000; stroke:none;fill-rule:evenodd;"
d="M 159.0009,119.3584
158.9053,119.3394
158.8242,119.2852
158.7700,119.2041
158.7509,119.1084
158.7509,118.3084
158.7700,118.2127
158.8242,118.1316
158.9053,118.0774
159.0009,118.0584
160.2509,118.0584
160.3466,118.0774
160.4277,118.1316
160.4819,118.2127
160.5009,118.3084
160.5009,119.1084
160.4819,119.2041
160.4277,119.2852
160.3466,119.3394
160.2509,119.3584
Z" /> 
<path style="fill:#000000; fill-opacity:1.0000; stroke:none;fill-rule:evenodd;"
d="M 159.0009,116.2584
158.9053,116.2394
158.8242,116.1852
158.7700,116.1041
158.7509,116.0084
158.7509,115.2084
158.7700,115.1127
158.8242,115.0316
158.9053,114.9774
159.0009,114.9584
160.2509,114.9584
160.3466,114.9774
160.4277,115.0316
160.4819,115.1127
160.5009,115.2084
160.5009,116.0084
160.4819,116.1041
160.4277,116.1852
160.3466,116.2394
160.2509,116.2584
Z" /> 
</g>
<g style="fill:#000000; fill-opacity:1.0000; stroke:none;">
<circle cx="155.0560" cy="121.6809" r="1.0000" /> 
<path style="fill:#000000; fill-opacity:1.0000; stroke:none;fill-rule:evenodd;"
d="M 131.9656,55.8728
132.0613,55.8919
132.1424,55.9461
132.1966,56.0272
132.2156,56.1228
132.2156,56.9228
132.1966,57.0185
132.1424,57.0996
132.0613,57.1538
131.9656,57.1728
130.7156,57.1728
130.6199,57.1538
130.5388,57.0996
130.4846,57.0185
130.4656,56.9228
130.4656,56.1228
130.4846,56.0272
130.5388,55.9461
130.6199,55.8919
130.7156,55.8728
Z" /> 
<path style="fill:#000000; fill-opacity:1.0000; stroke:none;fill-rule:evenodd;"
d="M 131.9656,58.9728
132.0613,58.9919
132.1424,59.0461
132.1966,59.1272
132.2156,59.2228
132.2156,60.0228
132.1966,60.1185
132.1424,60.1996
132.0613,60.2538
131.9656,60.2728
130.7156,60.2728
130.6199,60.2538
130.5388,60.1996
130.4846,60.1185
130.4656,60.0228
130.4656,59.2228
130.4846,59.1272
130.5388,59.0461
130.6199,58.9919
130.7156,58.9728
Z" /> 
<path style="fill:#000000; fill-opacity:1.0000; stroke:none;fill-rule:evenodd;"
d="M 127.6690,105.0365
127.7281,104.9588
127.8123,104.9097
127.9090,104.8965
128.0033,104.9214
128.7223,105.2721
128.8000,105.3311
128.8491,105.4154
128.8623,105.5120
128.8375,105.6064
128.2895,106.7298
128.2304,106.8075
128.1462,106.8566
128.0495,106.8698
127.9552,106.8450
127.2362,106.4943
127.1585,106.4352
127.1094,106.3509
127.0962,106.2543
127.1211,106.1600
Z" /> 
<path style="fill:#000000; fill-opacity:1.0000; stroke:none;fill-rule:evenodd;"
d="M 130.4553,106.3954
130.5143,106.3178
130.5986,106.2686
130.6952,106.2555
130.7896,106.2803
131.5086,106.6310
131.5863,106.6901
131.6354,106.7743
131.6486,106.8710
131.6237,106.9653
131.0758,108.0888
131.0167,108.1664
130.9324,108.2156
130.8358,108.2287
130.7415,108.2039
130.0224,107.8532
129.9448,107.7942
129.8956,107.7099
129.8825,107.6132
129.9073,107.5189
Z" /> 
</g>
<g style="fill:#000000; fill-opacity:1.0000; stroke:none;">
<circle cx="158.4175" cy="121.6809" r="1.0000" /> 
<path style="fill:#000000; fill-opacity:1.0000; stroke:none;fill-rule:evenodd;"
d="M 152.6895,115.7941
152.6771,115.8563
152.6419,115.9090
152.5892,115.9442
152.5270,115.9566
151.2270,115.9566
151.1648,115.9442
151.1121,115.9090
151.0768,115.8563
151.0645,115.7941
151.0645,115.4691
151.0768,115.4069
151.1121,115.3542
151.1648,115.3190
151.2270,115.3066
152.5270,115.3066
152.5892,115.3190
152.6419,115.3542
152.6771,115.4069
152.6895,115.4691
Z" /> 
<path style="fill:#000000; fill-opacity:1.0000; stroke:none;fill-rule:evenodd;"
d="M 152.6895,117.0641
152.6771,117.1263
152.6419,117.1790
152.5892,117.2142
152.5270,117.2266
151.2270,117.2266
151.1648,117.2142
151.1121,117.1790
151.0768,117.1263
151.0645,117.0641
151.0645,116.7391
151.0768,116.6769
151.1121,116.6242
151.1648,116.5890
151.2270,116.5766
152.5270,116.5766
152.5892,116.5890
152.6419,116.6242
152.6771,116.6769
152.6895,116.7391
Z" /> 
<path style="fill:#000000; fill-opacity:1.0000; stroke:none;fill-rule:evenodd;"
d="M 152.6895,118.3341
152.6771,118.3963
152.6419,118.4490
152.5892,118.4842
152.5270,118.4966
151.2270,118.4966
151.1648,118.4842
151.1121,118.4490
151.0768,118.3963
151.0645,118.3341
151.0645,118.0091
151.0768,117.9469
151.1121,117.8942
151.1648,117.8590
151.2270,117.8466
152.5270,117.8466
152.5892,117.8590
152.6419,117.8942
152.6771,117.9469
152.6895,118.0091
Z" /> 
<path style="fill:#000000; fill-opacity:1.0000; stroke:none;fill-rule:evenodd;"
d="M 152.6895,119.6041
152.6771,119.6663
152.6419,119.7190
152.5892,119.7542
152.5270,119.7666
151.2270,119.7666
151.1648,119.7542
151.1121,119.7190
151.0768,119.6663
151.0645,119.6041
151.0645,119.2791
151.0768,119.2169
151.1121,119.1642
151.1648,119.1290
151.2270,119.1166
152.5270,119.1166
152.5892,119.1290
152.6419,119.1642
152.6771,119.2169
152.6895,119.2791
Z" /> 
<path style="fill:#000000; fill-opacity:1.0000; stroke:none;fill-rule:evenodd;"
d="M 145.5145,119.6041
145.5021,119.6663
145.4669,119.7190
145.4142,119.7542
145.3520,119.7666
144.0520,119.7666
143.9898,119.7542
143.9371,119.7190
143.9018,119.6663
143.8895,119.6041
143.8895,119.2791
143.9018,119.2169
143.9371,119.1642
143.9898,119.1290
144.0520,119.1166
145.3520,119.1166
145.4142,119.1290
145.4669,119.1642
145.5021,119.2169
145.5145,119.2791
Z" /> 
<path style="fill:#000000; fill-opacity:1.0000; stroke:none;fill-rule:evenodd;"
d="M 145.5145,118.3341
145.5021,118.3963
145.4669,118.4490
145.4142,118.4842
145.3520,118.4966
144.0520,118.4966
143.9898,118.4842
143.9371,118.4490
143.9018,118.3963
143.8895,118.3341
143.8895,118.0091
143.9018,117.9469
143.9371,117.8942
143.9898,117.8590
144.0520,117.8466
145.3520,117.8466
145.4142,117.8590
145.4669,117.8942
145.5021,117.9469
145.5145,118.0091
Z" /> 
<path style="fill:#000000; fill-opacity:1.0000; stroke:none;fill-rule:evenodd;"
d="M 145.5145,117.0641
145.5021,117.1263
145.4669,117.1790
145.4142,117.2142
145.3520,117.2266
144.0520,117.2266
143.9898,117.2142
143.9371,117.1790
143.9018,117.1263
143.8895,117.0641
143.8895,116.7391
143.9018,116.6769
143.9371,116.6242
143.9898,116.5890
144.0520,116.5766
145.3520,116.5766
145.4142,116.5890
145.4669,116.6242
145.5021,116.6769
145.5145,116.7391
Z" /> 
<path style="fill:#000000; fill-opacity:1.0000; stroke:none;fill-rule:evenodd;"
d="M 145.5145,115.7941
145.5021,115.8563
145.4669,115.9090
145.4142,115.9442
145.3520,115.9566
144.0520,115.9566
143.9898,115.9442
143.9371,115.9090
143.9018,115.8563
143.8895,115.7941
143.8895,115.4691
143.9018,115.4069
143.9371,115.3542
143.9898,115.3190
144.0520,115.3066
145.3520,115.3066
145.4142,115.3190
145.4669,115.3542
145.5021,115.4069
145.5145,115.4691
Z" /> 
</g>
<g style="fill:#000000; fill-opacity:1.0000; stroke:none;">
<circle cx="161.6859" cy="121.6809" r="1.0000" /> 
<path style="fill:#000000; fill-opacity:1.0000; stroke:none;fill-rule:evenodd;"
d="M 133.0262,77.6094
133.0262,74.0994
135.5662,74.0994
135.5662,77.6094
Z" /> 
<path style="fill:#000000; fill-opacity:1.0000; stroke:none;fill-rule:evenodd;"
d="M 162.3862,77.6094
162.3862,74.0994
164.9262,74.0994
164.9262,77.6094
Z" /> 
<path style="fill:#000000; fill-opacity:1.0000; stroke:none;fill-rule:evenodd;"
d="M 169.3930,89.4826
169.4322,89.5719
169.4344,89.6694
169.3990,89.7603
169.3316,89.8308
168.6762,90.2896
168.5870,90.3289
168.4894,90.3310
168.3985,90.2957
168.3281,90.2282
167.6111,89.2043
167.5718,89.1150
167.5697,89.0175
167.6050,88.9266
167.6725,88.8561
168.3278,88.3972
168.4171,88.3580
168.5146,88.3558
168.6055,88.3912
168.6760,88.4586
Z" /> 
<path style="fill:#000000; fill-opacity:1.0000; stroke:none;fill-rule:evenodd;"
d="M 166.8536,91.2607
166.8929,91.3500
166.8950,91.4475
166.8596,91.5384
166.7922,91.6088
166.1369,92.0677
166.0476,92.1070
165.9501,92.1091
165.8591,92.0738
165.7887,92.0063
165.0717,90.9824
165.0324,90.8931
165.0303,90.7956
165.0657,90.7047
165.1331,90.6342
165.7884,90.1753
165.8777,90.1360
165.9752,90.1339
166.0661,90.1693
166.1366,90.2367
Z" /> 
<path style="fill:#000000; fill-opacity:1.0000; stroke:none;fill-rule:evenodd;"
d="M 139.4591,114.9662
139.5548,114.9852
139.6359,115.0394
139.6901,115.1205
139.7091,115.2162
139.7091,116.0162
139.6901,116.1119
139.6359,116.1930
139.5548,116.2472
139.4591,116.2662
138.2091,116.2662
138.1134,116.2472
138.0323,116.1930
137.9781,116.1119
137.9591,116.0162
137.9591,115.2162
137.9781,115.1205
138.0323,115.0394
138.1134,114.9852
138.2091,114.9662
Z" /> 
<path style="fill:#000000; fill-opacity:1.0000; stroke:none;fill-rule:evenodd;"
d="M 139.4591,118.0662
139.5548,118.0852
139.6359,118.1394
139.6901,118.2205
139.7091,118.3162
139.7091,119.1162
139.6901,119.2119
139.6359,119.2930
139.5548,119.3472
139.4591,119.3662
138.2091,119.3662
138.1134,119.3472
138.0323,119.2930
137.9781,119.2119
137.9591,119.1162
137.9591,118.3162
137.9781,118.2205
138.0323,118.1394
138.1134,118.0852
138.2091,118.0662
Z" /> 
<path style="fill:#000000; fill-opacity:1.0000; stroke:none;fill-rule:evenodd;"
d="M 133.2848,117.7542
133.1891,117.7352
133.1080,117.6810
133.0538,117.5999
133.0348,117.5042
133.0348,116.7042
133.0538,116.6086
133.1080,116.5275
133.1891,116.4733
133.2848,116.4542
134.5348,116.4542
134.6305,116.4733
134.7116,116.5275
134.7658,116.6086
134.7848,116.7042
134.7848,117.5042
134.7658,117.5999
134.7116,117.6810
134.6305,117.7352
134.5348,117.7542
Z" /> 
<path style="fill:#000000; fill-opacity:1.0000; stroke:none;fill-rule:evenodd;"
d="M 133.2848,114.6542
133.1891,114.6352
133.1080,114.5810
133.0538,114.4999
133.0348,114.4042
133.0348,113.6042
133.0538,113.5086
133.1080,113.4275
133.1891,113.3733
133.2848,113.3542
134.5348,113.3542
134.6305,113.3733
134.7116,113.4275
134.7658,113.5086
134.7848,113.6042
134.7848,114.4042
134.7658,114.4999
134.7116,114.5810
134.6305,114.6352
134.5348,114.6542
Z" /> 
<path style="fill:#000000; fill-opacity:1.0000; stroke:none;fill-rule:evenodd;"
d="M 166.1668,55.8643
166.2625,55.8833
166.3436,55.9375
166.3978,56.0186
166.4168,56.1143
166.4168,56.9143
166.3978,57.0100
166.3436,57.0911
166.2625,57.1453
166.1668,57.1643
164.9168,57.1643
164.8212,57.1453
164.7401,57.0911
164.6859,57.0100
164.6668,56.9143
164.6668,56.1143
164.6859,56.0186
164.7401,55.9375
164.8212,55.8833
164.9168,55.8643
Z" /> 
<path style="fill:#000000; fill-opacity:1.0000; stroke:none;fill-rule:evenodd;"
d="M 166.1668,58.9643
166.2625,58.9833
166.3436,59.0375
166.3978,59.1186
166.4168,59.2143
166.4168,60.0143
166.3978,60.1100
166.3436,60.1911
166.2625,60.2453
166.1668,60.2643
164.9168,60.2643
164.8212,60.2453
164.7401,60.1911
164.6859,60.1100
164.6668,60.0143
164.6668,59.2143
164.6859,59.1186
164.7401,59.0375
164.8212,58.9833
164.9168,58.9643
Z" /> 
<path style="fill:#000000; fill-opacity:1.0000; stroke:none;fill-rule:evenodd;"
d="M 125.7245,76.8773
125.8202,76.8963
125.9013,76.9505
125.9555,77.0316
125.9745,77.1273
125.9745,77.9273
125.9555,78.0230
125.9013,78.1041
125.8202,78.1583
125.7245,78.1773
124.4745,78.1773
124.3788,78.1583
124.2977,78.1041
124.2435,78.0230
124.2245,77.9273
124.2245,77.1273
124.2435,77.0316
124.2977,76.9505
124.3788,76.8963
124.4745,76.8773
Z" /> 
<path style="fill:#000000; fill-opacity:1.0000; stroke:none;fill-rule:evenodd;"
d="M 125.7245,79.9773
125.8202,79.9963
125.9013,80.0505
125.9555,80.1316
125.9745,80.2273
125.9745,81.0273
125.9555,81.1230
125.9013,81.2041
125.8202,81.2583
125.7245,81.2773
124.4745,81.2773
124.3788,81.2583
124.2977,81.2041
124.2435,81.1230
124.2245,81.0273
124.2245,80.2273
124.2435,80.1316
124.2977,80.0505
124.3788,79.9963
124.4745,79.9773
Z" /> 
</g>
<g style="fill:#000000; fill-opacity:1.0000; stroke:none;">
<circle cx="167.9988" cy="106.5620" r="0.3000" /> 
</g>
<g style="fill:#000000; fill-opacity:1.0000; stroke:none;">
<circle cx="144.6516" cy="123.7235" r="0.3000" /> 
</g>
<g style="fill:#000000; fill-opacity:1.0000; stroke:none;">
<circle cx="128.7984" cy="67.5799" r="0.3000" /> 
</g>
<g style="fill:#000000; fill-opacity:1.0000; stroke:none;">
<circle cx="151.9444" cy="123.6219" r="0.3000" /> 
</g>
<g style="fill:#000000; fill-opacity:1.0000; stroke:none;">
<circle cx="144.9540" cy="113.3004" r="0.3000" /> 
</g>
<g style="fill:#000000; fill-opacity:1.0000; stroke:none;">
<circle cx="131.5418" cy="90.1445" r="0.3000" /> 
</g>
<g style="fill:#000000; fill-opacity:1.0000; stroke:none;">
<circle cx="165.1259" cy="58.0899" r="0.3000" /> 
</g>
<g style="fill:#000000; fill-opacity:1.0000; stroke:none;">
<circle cx="142.0089" cy="101.3835" r="0.3000" /> 
</g>
<g style="fill:#000000; fill-opacity:1.0000; stroke:none;">
<circle cx="161.1875" cy="114.2186" r="0.3000" /> 
</g>
<g style="fill:#000000; fill-opacity:1.0000; stroke:none;">
<circle cx="134.5608" cy="115.5361" r="0.3000" /> 
</g>
<g style="fill:#000000; fill-opacity:1.0000; stroke:none;">
<circle cx="171.2957" cy="79.6313" r="0.3000" /> 
</g>
<g style="fill:#000000; fill-opacity:1.0000; stroke:none;">
<circle cx="151.8770" cy="119.4416" r="0.3000" /> 
</g>
<g style="fill:#000000; fill-opacity:1.0000; stroke:none;">
<circle cx="161.6859" cy="121.6809" r="0.3000" /> 
</g>
<g style="fill:#000000; fill-opacity:1.0000; stroke:none;">
<circle cx="129.3242" cy="106.5886" r="0.3000" /> 
</g>
<g style="fill:#000000; fill-opacity:1.0000; stroke:none;">
<circle cx="125.4761" cy="79.4408" r="0.3000" /> 
</g>
<g style="fill:#000000; fill-opacity:1.0000; stroke:none;">
<circle cx="158.5403" cy="40.3161" r="0.3000" /> 
</g>
<g style="fill:#000000; fill-opacity:1.0000; stroke:none;">
<circle cx="169.1499" cy="67.9554" r="0.3000" /> 
</g>
<g style="fill:#000000; fill-opacity:1.0000; stroke:none;">
<circle cx="164.9522" cy="74.0658" r="0.3000" /> 
</g>
<g style="fill:#000000; fill-opacity:1.0000; stroke:none;">
<circle cx="166.9675" cy="89.6954" r="0.3000" /> 
</g>
<g style="fill:#000000; fill-opacity:1.0000; stroke:none;">
<circle cx="132.5095" cy="58.2944" r="0.3000" /> 
</g>
<g style="fill:#000000; fill-opacity:1.0000; stroke:none;">
<circle cx="138.8215" cy="39.9807" r="0.3000" /> 
</g>
<g style="fill:#000000; fill-opacity:1.0000; stroke:none;">
<circle cx="131.9331" cy="73.2831" r="0.3000" /> 
</g>
<g style="fill:#000000; fill-opacity:1.0000; stroke:none;">
<circle cx="159.3746" cy="47.3589" r="0.3000" /> 
</g>
<g style="fill:#000000; fill-opacity:1.0000; stroke:none;">
<circle cx="148.0724" cy="113.3070" r="0.3000" /> 
</g>
<g style="fill:#000000; fill-opacity:1.0000; stroke:none;">
<circle cx="144.7020" cy="115.6316" r="0.3000" /> 
</g>
<g style="fill:#000000; fill-opacity:1.0000; stroke:none;">
<circle cx="159.6259" cy="118.7084" r="0.3000" /> 
</g>
<g style="fill:#000000; fill-opacity:1.0000; stroke:none;">
<circle cx="158.4175" cy="121.7719" r="0.3000" /> 
</g>
<g style="fill:#000000; fill-opacity:1.0000; stroke:none;">
<circle cx="157.1231" cy="53.6348" r="0.3000" /> 
</g>
<g style="fill:#000000; fill-opacity:1.0000; stroke:none;">
<circle cx="138.8341" cy="115.6162" r="0.3000" /> 
</g>
<g style="fill:#000000; fill-opacity:1.0000; stroke:none;">
<circle cx="138.0423" cy="101.0114" r="0.3000" /> 
</g>
<g style="fill:#000000; fill-opacity:1.0000; stroke:none;">
<circle cx="146.5398" cy="98.0923" r="0.3000" /> 
</g>
<g style="fill:#000000; fill-opacity:1.0000; stroke:none;">
<circle cx="172.6829" cy="76.8311" r="0.3000" /> 
</g>
<g style="fill:#000000; fill-opacity:1.0000; stroke:none;">
<circle cx="128.0327" cy="105.9097" r="0.3000" /> 
</g>
<g style="fill:#000000; fill-opacity:1.0000; stroke:none;">
<circle cx="168.7664" cy="66.3375" r="0.3000" /> 
</g>
<g style="fill:#000000; fill-opacity:1.0000; stroke:none;">
<circle cx="129.8663" cy="89.8101" r="0.3000" /> 
</g>
<g style="fill:#000000; fill-opacity:1.0000; stroke:none;">
<circle cx="165.5409" cy="56.5744" r="0.3000" /> 
</g>
<g style="fill:#000000; fill-opacity:1.0000; stroke:none;">
<circle cx="133.9095" cy="117.0330" r="0.3000" /> 
</g>
<g style="fill:#000000; fill-opacity:1.0000; stroke:none;">
<circle cx="160.0133" cy="39.4292" r="0.3000" /> 
</g>
<g style="fill:#000000; fill-opacity:1.0000; stroke:none;">
<circle cx="144.2213" cy="125.1294" r="0.3000" /> 
</g>
<g style="fill:#000000; fill-opacity:1.0000; stroke:none;">
<circle cx="140.2504" cy="39.4309" r="0.3000" /> 
</g>
<g style="fill:#000000; fill-opacity:1.0000; stroke:none;">
<circle cx="152.4328" cy="125.0595" r="0.3000" /> 
</g>
<g style="fill:#000000; fill-opacity:1.0000; stroke:none;">
<circle cx="131.3466" cy="56.5857" r="0.3000" /> 
</g>
<g style="fill:#000000; fill-opacity:1.0000; stroke:none;">
<circle cx="162.6657" cy="117.0820" r="0.3000" /> 
</g>
<g style="fill:#000000; fill-opacity:1.0000; stroke:none;">
<circle cx="128.6685" cy="65.8329" r="0.3000" /> 
</g>
<g style="fill:#000000; fill-opacity:1.0000; stroke:none;">
<circle cx="166.6535" cy="107.2464" r="0.3000" /> 
</g>
<g style="fill:#000000; fill-opacity:1.0000; stroke:none;">
<circle cx="125.0981" cy="77.5877" r="0.3000" /> 
</g>
<g style="fill:#000000; fill-opacity:1.0000; stroke:none;">
<circle cx="168.4508" cy="89.3793" r="0.3000" /> 
</g>
<g style="fill:#000000; fill-opacity:1.0000; stroke:none;">
<circle cx="142.0197" cy="110.6835" r="0.3000" /> 
</g>
<g style="fill:#000000; fill-opacity:1.0000; stroke:none;">
<circle cx="138.8341" cy="118.7162" r="0.3000" /> 
</g>
<g style="fill:#000000; fill-opacity:1.0000; stroke:none;">
<circle cx="142.0282" cy="114.0188" r="0.3000" /> 
</g>
<g style="fill:#000000; fill-opacity:1.0000; stroke:none;">
<circle cx="144.7020" cy="119.4416" r="0.3000" /> 
</g>
<g style="fill:#000000; fill-opacity:1.0000; stroke:none;">
<circle cx="142.7888" cy="90.7468" r="0.3000" /> 
</g>
<g style="fill:#000000; fill-opacity:1.0000; stroke:none;">
<circle cx="143.2897" cy="110.6835" r="0.3000" /> 
</g>
<g style="fill:#000000; fill-opacity:1.0000; stroke:none;">
<circle cx="144.7020" cy="116.9016" r="0.3000" /> 
</g>
<g style="fill:#000000; fill-opacity:1.0000; stroke:none;">
<circle cx="135.0097" cy="121.6976" r="0.3000" /> 
</g>
<g style="fill:#000000; fill-opacity:1.0000; stroke:none;">
<circle cx="136.3339" cy="112.9318" r="0.3000" /> 
</g>
<g style="fill:#000000; fill-opacity:1.0000; stroke:none;">
<circle cx="138.0423" cy="104.1114" r="0.3000" /> 
</g>
<g style="fill:#000000; fill-opacity:1.0000; stroke:none;">
<circle cx="152.5369" cy="115.6316" r="0.3000" /> 
</g>
<g style="fill:#000000; fill-opacity:1.0000; stroke:none;">
<circle cx="159.6259" cy="115.6084" r="0.3000" /> 
</g>
<g style="fill:#000000; fill-opacity:1.0000; stroke:none;">
<circle cx="155.0560" cy="121.7005" r="0.3000" /> 
</g>
<g style="fill:#000000; fill-opacity:1.0000; stroke:none;">
<circle cx="171.2226" cy="80.6339" r="0.3000" /> 
</g>
<g style="fill:#000000; fill-opacity:1.0000; stroke:none;">
<circle cx="157.2597" cy="101.3835" r="0.3000" /> 
</g>
<g style="fill:#000000; fill-opacity:1.0000; stroke:none;">
<circle cx="160.9998" cy="93.3359" r="0.3000" /> 
</g>
<g style="fill:#000000; fill-opacity:1.0000; stroke:none;">
<circle cx="131.9400" cy="107.8096" r="0.3000" /> 
</g>
<g style="fill:#000000; fill-opacity:1.0000; stroke:none;">
<circle cx="148.3832" cy="111.6102" r="0.3000" /> 
</g>
<g style="fill:#000000; fill-opacity:1.0000; stroke:none;">
<circle cx="172.3009" cy="71.0222" r="0.3000" /> 
</g>
<g style="fill:#000000; fill-opacity:1.0000; stroke:none;">
<circle cx="155.9897" cy="101.3835" r="0.3000" /> 
</g>
<g style="fill:#000000; fill-opacity:1.0000; stroke:none;">
<circle cx="157.6384" cy="93.4144" r="0.3000" /> 
</g>
<g style="fill:#000000; fill-opacity:1.0000; stroke:none;">
<circle cx="149.6389" cy="111.6024" r="0.3000" /> 
</g>
<g style="fill:#000000; fill-opacity:1.0000; stroke:none;">
<circle cx="133.5515" cy="92.1238" r="0.3000" /> 
</g>
<g style="fill:#000000; fill-opacity:1.0000; stroke:none;">
<circle cx="154.7197" cy="101.3835" r="0.3000" /> 
</g>
<g style="fill:#000000; fill-opacity:1.0000; stroke:none;">
<circle cx="166.5934" cy="60.9328" r="0.3000" /> 
</g>
<g style="fill:#000000; fill-opacity:1.0000; stroke:none;">
<circle cx="160.4817" cy="68.6567" r="0.3000" /> 
</g>
<g style="fill:#000000; fill-opacity:1.0000; stroke:none;">
<circle cx="134.2429" cy="112.6100" r="0.3000" /> 
</g>
<g style="fill:#000000; fill-opacity:1.0000; stroke:none;">
<circle cx="150.9340" cy="111.6110" r="0.3000" /> 
</g>
<g style="fill:#000000; fill-opacity:1.0000; stroke:none;">
<circle cx="153.4497" cy="101.3835" r="0.3000" /> 
</g>
<g style="fill:#000000; fill-opacity:1.0000; stroke:none;">
<circle cx="157.0366" cy="40.8042" r="0.3000" /> 
</g>
<g style="fill:#000000; fill-opacity:1.0000; stroke:none;">
<circle cx="152.1682" cy="111.6089" r="0.3000" /> 
</g>
<g style="fill:#000000; fill-opacity:1.0000; stroke:none;">
<circle cx="146.0201" cy="121.1009" r="0.3000" /> 
</g>
<g style="fill:#000000; fill-opacity:1.0000; stroke:none;">
<circle cx="137.2491" cy="40.8059" r="0.3000" /> 
</g>
<g style="fill:#000000; fill-opacity:1.0000; stroke:none;">
<circle cx="152.2082" cy="101.3618" r="0.3000" /> 
</g>
<g style="fill:#000000; fill-opacity:1.0000; stroke:none;">
<circle cx="150.4788" cy="121.1501" r="0.3000" /> 
</g>
<g style="fill:#000000; fill-opacity:1.0000; stroke:none;">
<circle cx="153.4571" cy="111.6175" r="0.3000" /> 
</g>
<g style="fill:#000000; fill-opacity:1.0000; stroke:none;">
<circle cx="129.5768" cy="80.2693" r="0.3000" /> 
</g>
<g style="fill:#000000; fill-opacity:1.0000; stroke:none;">
<circle cx="150.9193" cy="101.3837" r="0.3000" /> 
</g>
<g style="fill:#000000; fill-opacity:1.0000; stroke:none;">
<circle cx="130.6581" cy="60.8105" r="0.3000" /> 
</g>
<g style="fill:#000000; fill-opacity:1.0000; stroke:none;">
<circle cx="162.6268" cy="112.5738" r="0.3000" /> 
</g>
<g style="fill:#000000; fill-opacity:1.0000; stroke:none;">
<circle cx="154.7381" cy="111.6054" r="0.3000" /> 
</g>
<g style="fill:#000000; fill-opacity:1.0000; stroke:none;">
<circle cx="149.6414" cy="101.3837" r="0.3000" /> 
</g>
<g style="fill:#000000; fill-opacity:1.0000; stroke:none;">
<circle cx="128.1709" cy="69.9031" r="0.3000" /> 
</g>
<g style="fill:#000000; fill-opacity:1.0000; stroke:none;">
<circle cx="155.9939" cy="111.6054" r="0.3000" /> 
</g>
<g style="fill:#000000; fill-opacity:1.0000; stroke:none;">
<circle cx="169.3199" cy="104.1083" r="0.3000" /> 
</g>
<g style="fill:#000000; fill-opacity:1.0000; stroke:none;">
<circle cx="148.3697" cy="101.3835" r="0.3000" /> 
</g>
<g style="fill:#000000; fill-opacity:1.0000; stroke:none;">
<circle cx="123.8759" cy="81.7471" r="0.3000" /> 
</g>
<g style="fill:#000000; fill-opacity:1.0000; stroke:none;">
<circle cx="167.5787" cy="91.0536" r="0.3000" /> 
</g>
<g style="fill:#000000; fill-opacity:1.0000; stroke:none;">
<circle cx="157.3108" cy="111.6151" r="0.3000" /> 
</g>
<g style="fill:#000000; fill-opacity:1.0000; stroke:none;">
<circle cx="145.8620" cy="101.3837" r="0.3000" /> 
</g>
<g style="fill:#000000; fill-opacity:1.0000; stroke:none;">
<circle cx="147.0963" cy="101.3837" r="0.3000" /> 
</g>
<g style="fill:none; 
stroke:#000000; stroke-width:0.2500; stroke-opacity:1; 
stroke-linecap:round; stroke-linejoin:round;">
<path d="M142.0089 101.3835
L142.0197 101.3835
" />
<path d="M143.2897 101.3835
L142.0197 101.3835
" />
<path d="M145.8297 112.4248
L145.8297 110.6835
" />
</g>
<g style="fill:none; 
stroke:#000000; stroke-width:1.0000; stroke-opacity:1; 
stroke-linecap:round; stroke-linejoin:round;">
<path d="M142.0197 98.3450
L142.0197 101.3835
" />
</g>
<g style="fill:none; 
stroke:#000000; stroke-width:0.2500; stroke-opacity:1; 
stroke-linecap:round; stroke-linejoin:round;">
<path d="M144.9474 113.3070
L144.9540 113.3004
" />
<path d="M140.7497 101.3835
L142.0089 101.3835
" />
<path d="M144.9540 113.3004
L145.8297 112.4248
" />
<path d="M142.0197 101.3835
L142.0197 101.3835
" />
</g>
<g style="fill:none; 
stroke:#000000; stroke-width:1.0000; stroke-opacity:1; 
stroke-linecap:round; stroke-linejoin:round;">
<path d="M146.6857 93.6790
L142.0197 98.3450
" />
</g>
<g style="fill:none; 
stroke:#000000; stroke-width:0.8000; stroke-opacity:1; 
stroke-linecap:round; stroke-linejoin:round;">
<path d="M134.2962 75.8544
L132.8625 75.8544
" />
<path d="M159.3746 47.3589
L159.3977 47.3820
" />
<path d="M132.8625 75.8544
L131.9331 74.9250
" />
<path d="M131.9331 74.9250
L131.9331 73.2831
" />
<path d="M159.3977 47.3820
L159.3977 48.7917
" />
</g>
<g style="fill:none; 
stroke:#000000; stroke-width:0.5000; stroke-opacity:1; 
stroke-linecap:round; stroke-linejoin:round;">
<path d="M157.1231 52.3896
L158.2211 51.2917
" />
</g>
<g style="fill:none; 
stroke:#000000; stroke-width:0.2500; stroke-opacity:1; 
stroke-linecap:round; stroke-linejoin:round;">
<path d="M148.0441 98.4562
L146.8709 98.4562
" />
<path d="M147.0997 112.3343
L147.0997 110.6835
" />
</g>
<g style="fill:none; 
stroke:#000000; stroke-width:0.5000; stroke-opacity:1; 
stroke-linecap:round; stroke-linejoin:round;">
<path d="M158.2211 51.2917
L159.3977 51.2917
" />
</g>
<g style="fill:none; 
stroke:#000000; stroke-width:0.2500; stroke-opacity:1; 
stroke-linecap:round; stroke-linejoin:round;">
<path d="M146.8709 98.4562
L146.5398 98.1251
" />
</g>
<g style="fill:none; 
stroke:#000000; stroke-width:0.5000; stroke-opacity:1; 
stroke-linecap:round; stroke-linejoin:round;">
<path d="M157.1231 53.6348
L157.1231 52.3896
" />
</g>
<g style="fill:none; 
stroke:#000000; stroke-width:0.2500; stroke-opacity:1; 
stroke-linecap:round; stroke-linejoin:round;">
<path d="M148.0724 113.3070
L147.0997 112.3343
" />
<path d="M138.5820 121.6810
L138.5654 121.6976
" />
<path d="M138.8341 118.7162
L138.5820 118.9683
" />
<path d="M138.5820 118.9683
L138.5820 121.6810
" />
<path d="M136.3339 112.9318
L136.4512 112.8145
" />
<path d="M136.3339 112.9318
L136.3339 105.8198
" />
<path d="M136.3358 112.9336
L136.3339 112.9318
" />
<path d="M136.3339 105.8198
L138.0423 104.1114
" />
<path d="M159.6027 115.6316
L159.6259 115.6084
" />
<path d="M151.8770 115.6316
L152.5369 115.6316
" />
<path d="M171.2226 80.6339
L171.9154 80.6339
" />
<path d="M171.9154 80.6339
L172.6812 79.8681
" />
<path d="M131.3330 107.8096
L130.7655 107.2421
" />
<path d="M131.9400 107.8096
L131.3330 107.8096
" />
<path d="M170.5055 68.8263
L172.3009 70.6217
" />
<path d="M172.3009 70.6217
L172.3009 71.0222
" />
<path d="M132.3787 91.5079
L132.9357 91.5079
" />
<path d="M132.9357 91.5079
L133.5515 92.1238
" />
<path d="M165.5418 59.6143
L165.5418 59.8813
" />
<path d="M165.5418 59.8813
L166.5934 60.9328
" />
<path d="M133.9098 114.0042
L133.9098 112.9432
" />
<path d="M133.9098 112.9432
L134.2429 112.6100
" />
<path d="M156.9803 39.4259
L156.9803 40.7479
" />
<path d="M156.9803 40.7479
L157.0366 40.8042
" />
<path d="M145.2598 122.2786
L146.0201 121.5182
" />
<path d="M146.0201 121.5182
L146.0201 121.1009
" />
<path d="M144.5687 101.3744
L144.5597 101.3835
" />
<path d="M144.9441 98.4562
L144.5687 98.8315
" />
<path d="M144.5687 98.8315
L144.5687 101.3744
" />
<path d="M137.2106 40.7674
L137.2491 40.8059
" />
<path d="M137.2106 39.4302
L137.2106 40.7674
" />
<path d="M151.3509 122.0222
L150.4788 121.1501
" />
<path d="M151.3509 122.2374
L151.3509 122.0222
" />
<path d="M150.9097 101.3835
L150.9097 99.2567
" />
<path d="M131.3406 59.6228
L131.3406 60.1280
" />
<path d="M131.3406 60.1280
L130.6581 60.8105
" />
<path d="M162.6691 112.6162
L162.6268 112.5738
" />
<path d="M162.6691 114.0457
L162.6691 112.6162
" />
<path d="M127.3839 68.5884
L127.3839 69.1160
" />
<path d="M127.3839 69.1160
L128.1709 69.9031
" />
<path d="M169.3630 104.1514
L169.3199 104.1083
" />
<path d="M169.3630 105.8703
L169.3630 104.1514
" />
<path d="M125.0995 80.6273
L124.9956 80.6273
" />
<path d="M124.9956 80.6273
L123.8759 81.7471
" />
<path d="M166.0306 91.0536
L165.9626 91.1215
" />
<path d="M167.5787 91.0536
L166.0306 91.0536
" />
<path d="M144.4201 118.1716
L144.7020 118.1716
" />
<path d="M142.3250 120.2667
L144.4201 118.1716
" />
<path d="M142.3250 121.6809
L142.3250 120.2667
" />
</g> 
</svg>
