M48
; DRILL file {KiCad 9.0.3} date 2025-07-31T13:16:01-0700
; FORMAT={-:-/ absolute / inch / decimal}
; #@! TF.CreationDate,2025-07-31T13:16:01-07:00
; #@! TF.GenerationSoftware,Kicad,Pcbnew,9.0.3
; #@! TF.FileFunction,Plated,1,4,PTH
FMAT,2
INCH
; #@! TA.AperFunction,Plated,PTH,ViaDrill
T1C0.0157
; #@! TA.AperFunction,Plated,PTH,ComponentDrill
T2C0.0400
%
G90
G05
T1
X4.877Y-3.2184
X4.9251Y-3.0546
X4.94Y-3.1276
X5.0407Y-4.1697
X5.0461Y-2.7521
X5.0657Y-2.5918
X5.0708Y-2.6606
X5.0915Y-4.1964
X5.1014Y-3.1602
X5.1128Y-3.5358
X5.144Y-2.3941
X5.1711Y-2.2278
X5.1788Y-3.549
X5.1945Y-4.2445
X5.2169Y-2.2951
X5.2579Y-3.6269
X5.272Y-4.6076
X5.2852Y-4.4335
X5.2873Y-2.9864
X5.2977Y-4.5487
X5.3153Y-4.7912
X5.3675Y-4.4461
X5.4035Y-1.6065
X5.4347Y-3.9768
X5.4347Y-4.0989
X5.4654Y-1.574
X5.4659Y-4.6739
X5.4659Y-4.5518
X5.5217Y-1.5524
X5.5909Y-3.9915
X5.5913Y-4.3576
X5.5917Y-4.4889
X5.6216Y-3.5727
X5.6413Y-4.3576
X5.678Y-4.9264
X5.6949Y-4.871
X5.6969Y-4.5524
X5.6969Y-4.7024
X5.6969Y-4.6024
X5.7069Y-4.4606
X5.7413Y-3.9915
X5.7488Y-4.7767
X5.7913Y-3.9915
X5.8208Y-3.8685
X5.8296Y-4.4609
X5.8413Y-3.9915
X5.8413Y-4.3576
X5.8913Y-3.9915
X5.8913Y-4.3576
X5.9244Y-4.7697
X5.9413Y-3.9915
X5.9413Y-4.3576
X5.9794Y-4.7024
X5.9821Y-4.867
X5.9913Y-4.3576
X5.9913Y-3.9915
X6.0013Y-4.9236
X6.0054Y-4.5524
X6.0413Y-4.3576
X6.0413Y-3.9915
X6.0913Y-3.9915
X6.0913Y-4.3576
X6.1046Y-4.7914
X6.1413Y-3.9915
X6.1413Y-4.3576
X6.1467Y-2.8472
X6.1825Y-1.6065
X6.1913Y-3.9915
X6.1913Y-4.3576
X6.2062Y-3.6777
X6.2369Y-4.7942
X6.2417Y-1.5872
X6.2755Y-1.9209
X6.2755Y-2.0194
X6.2845Y-4.6736
X6.2845Y-4.5515
X6.2997Y-1.5523
X6.3386Y-3.6746
X6.346Y-4.4968
X6.3656Y-4.7946
X6.4026Y-4.432
X6.4042Y-4.6095
X6.4432Y-2.9864
X6.501Y-2.287
X6.5174Y-2.2273
X6.5588Y-2.3989
X6.5612Y-4.2223
X6.5735Y-3.5313
X6.5976Y-3.5848
X6.6141Y-4.1954
X6.6319Y-3.5189
X6.6443Y-2.6117
X6.6594Y-2.6754
X6.6661Y-4.0988
X6.741Y-3.1746
X6.7439Y-3.1351
X6.7835Y-2.7961
X6.7985Y-3.0248
T2
X5.775Y-3.5881
X5.775Y-3.6881
X5.875Y-3.5881
X5.875Y-3.6881
X5.975Y-3.5881
X5.975Y-3.6881
M30
