%TF.GenerationSoftware,KiCad,Pcbnew,9.0.3*%
%TF.CreationDate,2025-07-31T13:15:59-07:00*%
%TF.ProjectId,dc-labubu-protype-ver-2.0,64632d6c-6162-4756-9275-2d70726f7479,rev?*%
%TF.SameCoordinates,Original*%
%TF.FileFunction,Soldermask,Bot*%
%TF.FilePolarity,Negative*%
%FSLAX46Y46*%
G04 Gerber Fmt 4.6, Leading zero omitted, Abs format (unit mm)*
G04 Created by KiCad (PCBNEW 9.0.3) date 2025-07-31 13:15:59*
%MOMM*%
%LPD*%
G01*
G04 APERTURE LIST*
G04 Aperture macros list*
%AMRoundRect*
0 Rectangle with rounded corners*
0 $1 Rounding radius*
0 $2 $3 $4 $5 $6 $7 $8 $9 X,Y pos of 4 corners*
0 Add a 4 corners polygon primitive as box body*
4,1,4,$2,$3,$4,$5,$6,$7,$8,$9,$2,$3,0*
0 Add four circle primitives for the rounded corners*
1,1,$1+$1,$2,$3*
1,1,$1+$1,$4,$5*
1,1,$1+$1,$6,$7*
1,1,$1+$1,$8,$9*
0 Add four rect primitives between the rounded corners*
20,1,$1+$1,$2,$3,$4,$5,0*
20,1,$1+$1,$4,$5,$6,$7,0*
20,1,$1+$1,$6,$7,$8,$9,0*
20,1,$1+$1,$8,$9,$2,$3,0*%
G04 Aperture macros list end*
%ADD10C,0.010000*%
%ADD11RoundRect,0.200000X-1.270000X-1.755000X1.270000X-1.755000X1.270000X1.755000X-1.270000X1.755000X0*%
%ADD12O,2.127200X2.127200*%
%ADD13RoundRect,0.200000X-0.863600X0.863600X-0.863600X-0.863600X0.863600X-0.863600X0.863600X0.863600X0*%
%ADD14C,2.127200*%
%ADD15RoundRect,0.326924X-0.912812X-0.000600X-0.312764X-0.857558X0.912812X0.000600X0.312764X0.857558X0*%
%ADD16RoundRect,0.325471X-0.537029X-0.774529X0.537029X-0.774529X0.537029X0.774529X-0.537029X0.774529X0*%
%ADD17RoundRect,0.326924X-0.126445X-0.904012X0.805684X-0.429069X0.126445X0.904012X-0.805684X0.429069X0*%
%ADD18C,2.400000*%
%ADD19RoundRect,0.326924X0.885843X-0.220247X0.510935X0.756420X-0.885843X0.220247X-0.510935X-0.756420X0*%
%ADD20RoundRect,0.326924X0.524059X-0.747388X0.881864X0.235674X-0.524059X0.747388X-0.881864X-0.235674X0*%
%ADD21RoundRect,0.250000X0.250000X-0.975000X0.250000X0.975000X-0.250000X0.975000X-0.250000X-0.975000X0*%
%ADD22RoundRect,0.326924X-0.523076X-0.748076X0.523076X-0.748076X0.523076X0.748076X-0.523076X0.748076X0*%
%ADD23C,1.300000*%
%ADD24RoundRect,0.330000X-1.120000X0.495000X-1.120000X-0.495000X1.120000X-0.495000X1.120000X0.495000X0*%
%ADD25RoundRect,0.326924X-0.748076X0.523076X-0.748076X-0.523076X0.748076X-0.523076X0.748076X0.523076X0*%
%ADD26RoundRect,0.326924X-0.851968X-0.327683X0.015331X-0.912683X0.851968X0.327683X-0.015331X0.912683X0*%
%ADD27RoundRect,0.326924X-0.456926X0.790218X-0.899049X-0.157917X0.456926X-0.790218X0.899049X0.157917X0*%
%ADD28RoundRect,0.326924X0.748076X-0.523076X0.748076X0.523076X-0.748076X0.523076X-0.748076X-0.523076X0*%
%ADD29RoundRect,0.326924X0.523076X0.748076X-0.523076X0.748076X-0.523076X-0.748076X0.523076X-0.748076X0*%
%ADD30RoundRect,0.326924X-0.798073X-0.443065X0.142203X-0.901668X0.798073X0.443065X-0.142203X0.901668X0*%
%ADD31RoundRect,0.262500X0.750000X0.262500X-0.750000X0.262500X-0.750000X-0.262500X0.750000X-0.262500X0*%
%ADD32RoundRect,0.326924X-0.000600X0.912812X-0.857558X0.312764X0.000600X-0.912812X0.857558X-0.312764X0*%
G04 APERTURE END LIST*
D10*
%TO.C,Ref\u002A\u002A*%
X142354800Y-84436986D02*
X142386270Y-84452520D01*
X142408261Y-84478260D01*
X142422024Y-84504847D01*
X142427257Y-84519008D01*
X142431830Y-84538460D01*
X142435798Y-84565515D01*
X142439218Y-84602487D01*
X142442147Y-84651686D01*
X142444642Y-84715427D01*
X142446759Y-84796021D01*
X142448555Y-84895782D01*
X142450088Y-85017022D01*
X142451412Y-85162054D01*
X142452586Y-85333190D01*
X142453666Y-85532743D01*
X142454709Y-85763026D01*
X142455082Y-85852987D01*
X142455787Y-86061141D01*
X142456186Y-86261183D01*
X142456290Y-86450267D01*
X142456111Y-86625548D01*
X142455660Y-86784180D01*
X142454948Y-86923319D01*
X142453987Y-87040118D01*
X142452788Y-87131733D01*
X142451362Y-87195319D01*
X142449720Y-87228029D01*
X142449630Y-87228820D01*
X142438932Y-87317720D01*
X142109950Y-87317720D01*
X141990352Y-87317198D01*
X141901214Y-87315484D01*
X141839142Y-87312363D01*
X141800743Y-87307615D01*
X141782624Y-87301024D01*
X141780075Y-87296554D01*
X141779558Y-87275544D01*
X141778454Y-87224343D01*
X141776837Y-87146621D01*
X141774782Y-87046047D01*
X141772364Y-86926292D01*
X141769658Y-86791023D01*
X141766737Y-86643912D01*
X141765392Y-86575750D01*
X141761622Y-86404445D01*
X141757476Y-86251944D01*
X141753060Y-86120756D01*
X141748481Y-86013393D01*
X141743847Y-85932364D01*
X141739264Y-85880180D01*
X141734839Y-85859351D01*
X141717441Y-85865623D01*
X141679654Y-85898574D01*
X141621671Y-85957986D01*
X141543685Y-86043645D01*
X141445887Y-86155332D01*
X141328471Y-86292831D01*
X141191628Y-86455925D01*
X141035552Y-86644398D01*
X141010980Y-86674254D01*
X140889886Y-86820990D01*
X140787828Y-86943426D01*
X140702789Y-87043790D01*
X140632749Y-87124306D01*
X140575690Y-87187203D01*
X140529593Y-87234705D01*
X140492440Y-87269040D01*
X140462211Y-87292433D01*
X140437385Y-87306877D01*
X140393336Y-87319072D01*
X140325985Y-87327820D01*
X140244882Y-87332959D01*
X140159574Y-87334327D01*
X140079609Y-87331761D01*
X140014537Y-87325100D01*
X139975022Y-87314740D01*
X139960319Y-87306664D01*
X139947482Y-87296139D01*
X139936386Y-87280949D01*
X139926903Y-87258883D01*
X139918908Y-87227725D01*
X139912273Y-87185263D01*
X139906872Y-87129283D01*
X139902578Y-87057571D01*
X139899266Y-86967914D01*
X139896808Y-86858099D01*
X139895077Y-86725911D01*
X139893948Y-86569138D01*
X139893294Y-86385566D01*
X139892988Y-86172980D01*
X139892903Y-85929169D01*
X139892902Y-85878387D01*
X139893005Y-85632307D01*
X139893341Y-85417950D01*
X139893945Y-85233171D01*
X139894856Y-85075828D01*
X139896110Y-84943776D01*
X139897744Y-84834873D01*
X139899796Y-84746974D01*
X139902304Y-84677936D01*
X139905303Y-84625616D01*
X139908832Y-84587869D01*
X139912928Y-84562552D01*
X139915923Y-84551715D01*
X139920749Y-84540654D01*
X139986035Y-84540654D01*
X139986035Y-87254912D01*
X140152850Y-87245720D01*
X140243555Y-87238023D01*
X140317353Y-87226434D01*
X140366304Y-87212245D01*
X140370534Y-87210223D01*
X140398019Y-87192383D01*
X140433752Y-87162413D01*
X140479289Y-87118594D01*
X140536185Y-87059207D01*
X140605996Y-86982534D01*
X140690278Y-86886856D01*
X140790585Y-86770453D01*
X140908472Y-86631607D01*
X141045496Y-86468599D01*
X141093026Y-86411787D01*
X141219988Y-86260234D01*
X141327420Y-86132876D01*
X141417197Y-86027666D01*
X141491193Y-85942552D01*
X141551284Y-85875488D01*
X141599345Y-85824423D01*
X141637250Y-85787309D01*
X141666874Y-85762097D01*
X141690092Y-85746737D01*
X141708374Y-85739285D01*
X141756761Y-85742391D01*
X141798439Y-85774962D01*
X141828271Y-85832636D01*
X141831615Y-85843951D01*
X141837999Y-85882777D01*
X141844738Y-85950370D01*
X141851591Y-86041635D01*
X141858313Y-86151478D01*
X141864662Y-86274803D01*
X141870393Y-86406517D01*
X141875264Y-86541524D01*
X141879032Y-86674731D01*
X141881453Y-86801042D01*
X141882279Y-86904970D01*
X141883154Y-86996532D01*
X141885350Y-87080331D01*
X141888559Y-87148344D01*
X141892473Y-87192551D01*
X141893544Y-87199031D01*
X141904519Y-87253909D01*
X142114793Y-87246908D01*
X142209524Y-87242740D01*
X142275067Y-87237182D01*
X142316095Y-87229580D01*
X142337277Y-87219283D01*
X142340625Y-87215314D01*
X142343320Y-87194336D01*
X142345832Y-87141570D01*
X142348137Y-87059092D01*
X142350212Y-86948981D01*
X142352031Y-86813313D01*
X142353570Y-86654167D01*
X142354806Y-86473621D01*
X142355713Y-86273751D01*
X142356267Y-86056635D01*
X142356443Y-85863243D01*
X142356702Y-84535766D01*
X142231102Y-84545265D01*
X142104559Y-84565200D01*
X141997194Y-84606551D01*
X141899168Y-84673268D01*
X141887502Y-84683222D01*
X141834102Y-84734222D01*
X141761786Y-84810384D01*
X141672125Y-84909904D01*
X141566690Y-85030976D01*
X141447051Y-85171795D01*
X141314781Y-85330556D01*
X141171448Y-85505454D01*
X141164239Y-85514320D01*
X141052239Y-85651569D01*
X140959143Y-85764362D01*
X140882991Y-85854925D01*
X140821827Y-85925483D01*
X140773694Y-85978260D01*
X140736632Y-86015481D01*
X140708685Y-86039370D01*
X140693349Y-86049433D01*
X140645045Y-86058571D01*
X140595333Y-86041570D01*
X140556783Y-86003138D01*
X140553338Y-85996990D01*
X140545757Y-85966400D01*
X140538002Y-85906149D01*
X140530277Y-85820437D01*
X140522791Y-85713468D01*
X140515748Y-85589442D01*
X140509354Y-85452564D01*
X140503817Y-85307033D01*
X140499341Y-85157054D01*
X140496134Y-85006828D01*
X140494400Y-84860557D01*
X140494151Y-84790420D01*
X140494035Y-84540654D01*
X139986035Y-84540654D01*
X139920749Y-84540654D01*
X139932335Y-84514102D01*
X139954392Y-84486174D01*
X139986745Y-84466770D01*
X140034047Y-84454732D01*
X140100948Y-84448899D01*
X140192102Y-84448111D01*
X140312160Y-84451209D01*
X140318189Y-84451417D01*
X140590657Y-84460872D01*
X140601905Y-85046863D01*
X140606043Y-85250380D01*
X140610103Y-85422314D01*
X140614221Y-85564948D01*
X140618534Y-85680565D01*
X140623181Y-85771448D01*
X140628299Y-85839879D01*
X140634026Y-85888143D01*
X140640497Y-85918521D01*
X140647852Y-85933297D01*
X140655387Y-85935125D01*
X140675299Y-85919540D01*
X140713077Y-85880975D01*
X140769177Y-85818903D01*
X140844051Y-85732795D01*
X140938155Y-85622124D01*
X141051943Y-85486361D01*
X141185868Y-85324978D01*
X141314153Y-85169361D01*
X141444082Y-85012031D01*
X141554950Y-84879335D01*
X141648566Y-84769237D01*
X141726741Y-84679699D01*
X141791286Y-84608686D01*
X141844011Y-84554161D01*
X141886728Y-84514087D01*
X141921245Y-84486429D01*
X141921460Y-84486276D01*
X141955512Y-84467577D01*
X142001419Y-84454060D01*
X142066919Y-84444001D01*
X142143242Y-84436927D01*
X142239313Y-84430658D01*
X142307823Y-84430188D01*
X142354800Y-84436986D01*
G36*
X142354800Y-84436986D02*
G01*
X142386270Y-84452520D01*
X142408261Y-84478260D01*
X142422024Y-84504847D01*
X142427257Y-84519008D01*
X142431830Y-84538460D01*
X142435798Y-84565515D01*
X142439218Y-84602487D01*
X142442147Y-84651686D01*
X142444642Y-84715427D01*
X142446759Y-84796021D01*
X142448555Y-84895782D01*
X142450088Y-85017022D01*
X142451412Y-85162054D01*
X142452586Y-85333190D01*
X142453666Y-85532743D01*
X142454709Y-85763026D01*
X142455082Y-85852987D01*
X142455787Y-86061141D01*
X142456186Y-86261183D01*
X142456290Y-86450267D01*
X142456111Y-86625548D01*
X142455660Y-86784180D01*
X142454948Y-86923319D01*
X142453987Y-87040118D01*
X142452788Y-87131733D01*
X142451362Y-87195319D01*
X142449720Y-87228029D01*
X142449630Y-87228820D01*
X142438932Y-87317720D01*
X142109950Y-87317720D01*
X141990352Y-87317198D01*
X141901214Y-87315484D01*
X141839142Y-87312363D01*
X141800743Y-87307615D01*
X141782624Y-87301024D01*
X141780075Y-87296554D01*
X141779558Y-87275544D01*
X141778454Y-87224343D01*
X141776837Y-87146621D01*
X141774782Y-87046047D01*
X141772364Y-86926292D01*
X141769658Y-86791023D01*
X141766737Y-86643912D01*
X141765392Y-86575750D01*
X141761622Y-86404445D01*
X141757476Y-86251944D01*
X141753060Y-86120756D01*
X141748481Y-86013393D01*
X141743847Y-85932364D01*
X141739264Y-85880180D01*
X141734839Y-85859351D01*
X141717441Y-85865623D01*
X141679654Y-85898574D01*
X141621671Y-85957986D01*
X141543685Y-86043645D01*
X141445887Y-86155332D01*
X141328471Y-86292831D01*
X141191628Y-86455925D01*
X141035552Y-86644398D01*
X141010980Y-86674254D01*
X140889886Y-86820990D01*
X140787828Y-86943426D01*
X140702789Y-87043790D01*
X140632749Y-87124306D01*
X140575690Y-87187203D01*
X140529593Y-87234705D01*
X140492440Y-87269040D01*
X140462211Y-87292433D01*
X140437385Y-87306877D01*
X140393336Y-87319072D01*
X140325985Y-87327820D01*
X140244882Y-87332959D01*
X140159574Y-87334327D01*
X140079609Y-87331761D01*
X140014537Y-87325100D01*
X139975022Y-87314740D01*
X139960319Y-87306664D01*
X139947482Y-87296139D01*
X139936386Y-87280949D01*
X139926903Y-87258883D01*
X139918908Y-87227725D01*
X139912273Y-87185263D01*
X139906872Y-87129283D01*
X139902578Y-87057571D01*
X139899266Y-86967914D01*
X139896808Y-86858099D01*
X139895077Y-86725911D01*
X139893948Y-86569138D01*
X139893294Y-86385566D01*
X139892988Y-86172980D01*
X139892903Y-85929169D01*
X139892902Y-85878387D01*
X139893005Y-85632307D01*
X139893341Y-85417950D01*
X139893945Y-85233171D01*
X139894856Y-85075828D01*
X139896110Y-84943776D01*
X139897744Y-84834873D01*
X139899796Y-84746974D01*
X139902304Y-84677936D01*
X139905303Y-84625616D01*
X139908832Y-84587869D01*
X139912928Y-84562552D01*
X139915923Y-84551715D01*
X139920749Y-84540654D01*
X139986035Y-84540654D01*
X139986035Y-87254912D01*
X140152850Y-87245720D01*
X140243555Y-87238023D01*
X140317353Y-87226434D01*
X140366304Y-87212245D01*
X140370534Y-87210223D01*
X140398019Y-87192383D01*
X140433752Y-87162413D01*
X140479289Y-87118594D01*
X140536185Y-87059207D01*
X140605996Y-86982534D01*
X140690278Y-86886856D01*
X140790585Y-86770453D01*
X140908472Y-86631607D01*
X141045496Y-86468599D01*
X141093026Y-86411787D01*
X141219988Y-86260234D01*
X141327420Y-86132876D01*
X141417197Y-86027666D01*
X141491193Y-85942552D01*
X141551284Y-85875488D01*
X141599345Y-85824423D01*
X141637250Y-85787309D01*
X141666874Y-85762097D01*
X141690092Y-85746737D01*
X141708374Y-85739285D01*
X141756761Y-85742391D01*
X141798439Y-85774962D01*
X141828271Y-85832636D01*
X141831615Y-85843951D01*
X141837999Y-85882777D01*
X141844738Y-85950370D01*
X141851591Y-86041635D01*
X141858313Y-86151478D01*
X141864662Y-86274803D01*
X141870393Y-86406517D01*
X141875264Y-86541524D01*
X141879032Y-86674731D01*
X141881453Y-86801042D01*
X141882279Y-86904970D01*
X141883154Y-86996532D01*
X141885350Y-87080331D01*
X141888559Y-87148344D01*
X141892473Y-87192551D01*
X141893544Y-87199031D01*
X141904519Y-87253909D01*
X142114793Y-87246908D01*
X142209524Y-87242740D01*
X142275067Y-87237182D01*
X142316095Y-87229580D01*
X142337277Y-87219283D01*
X142340625Y-87215314D01*
X142343320Y-87194336D01*
X142345832Y-87141570D01*
X142348137Y-87059092D01*
X142350212Y-86948981D01*
X142352031Y-86813313D01*
X142353570Y-86654167D01*
X142354806Y-86473621D01*
X142355713Y-86273751D01*
X142356267Y-86056635D01*
X142356443Y-85863243D01*
X142356702Y-84535766D01*
X142231102Y-84545265D01*
X142104559Y-84565200D01*
X141997194Y-84606551D01*
X141899168Y-84673268D01*
X141887502Y-84683222D01*
X141834102Y-84734222D01*
X141761786Y-84810384D01*
X141672125Y-84909904D01*
X141566690Y-85030976D01*
X141447051Y-85171795D01*
X141314781Y-85330556D01*
X141171448Y-85505454D01*
X141164239Y-85514320D01*
X141052239Y-85651569D01*
X140959143Y-85764362D01*
X140882991Y-85854925D01*
X140821827Y-85925483D01*
X140773694Y-85978260D01*
X140736632Y-86015481D01*
X140708685Y-86039370D01*
X140693349Y-86049433D01*
X140645045Y-86058571D01*
X140595333Y-86041570D01*
X140556783Y-86003138D01*
X140553338Y-85996990D01*
X140545757Y-85966400D01*
X140538002Y-85906149D01*
X140530277Y-85820437D01*
X140522791Y-85713468D01*
X140515748Y-85589442D01*
X140509354Y-85452564D01*
X140503817Y-85307033D01*
X140499341Y-85157054D01*
X140496134Y-85006828D01*
X140494400Y-84860557D01*
X140494151Y-84790420D01*
X140494035Y-84540654D01*
X139986035Y-84540654D01*
X139920749Y-84540654D01*
X139932335Y-84514102D01*
X139954392Y-84486174D01*
X139986745Y-84466770D01*
X140034047Y-84454732D01*
X140100948Y-84448899D01*
X140192102Y-84448111D01*
X140312160Y-84451209D01*
X140318189Y-84451417D01*
X140590657Y-84460872D01*
X140601905Y-85046863D01*
X140606043Y-85250380D01*
X140610103Y-85422314D01*
X140614221Y-85564948D01*
X140618534Y-85680565D01*
X140623181Y-85771448D01*
X140628299Y-85839879D01*
X140634026Y-85888143D01*
X140640497Y-85918521D01*
X140647852Y-85933297D01*
X140655387Y-85935125D01*
X140675299Y-85919540D01*
X140713077Y-85880975D01*
X140769177Y-85818903D01*
X140844051Y-85732795D01*
X140938155Y-85622124D01*
X141051943Y-85486361D01*
X141185868Y-85324978D01*
X141314153Y-85169361D01*
X141444082Y-85012031D01*
X141554950Y-84879335D01*
X141648566Y-84769237D01*
X141726741Y-84679699D01*
X141791286Y-84608686D01*
X141844011Y-84554161D01*
X141886728Y-84514087D01*
X141921245Y-84486429D01*
X141921460Y-84486276D01*
X141955512Y-84467577D01*
X142001419Y-84454060D01*
X142066919Y-84444001D01*
X142143242Y-84436927D01*
X142239313Y-84430658D01*
X142307823Y-84430188D01*
X142354800Y-84436986D01*
G37*
X144603398Y-84449894D02*
X144683637Y-84452809D01*
X144748917Y-84459351D01*
X144808669Y-84470460D01*
X144871302Y-84486784D01*
X145077564Y-84562518D01*
X145266017Y-84665340D01*
X145434756Y-84792568D01*
X145581873Y-84941519D01*
X145705462Y-85109509D01*
X145803617Y-85293857D01*
X145874431Y-85491881D01*
X145915997Y-85700896D01*
X145926410Y-85918221D01*
X145924243Y-85968334D01*
X145909542Y-86121182D01*
X145883041Y-86255756D01*
X145841037Y-86386665D01*
X145785092Y-86517335D01*
X145677830Y-86708573D01*
X145546197Y-86877643D01*
X145392218Y-87022708D01*
X145217922Y-87141926D01*
X145025336Y-87233458D01*
X144976785Y-87251045D01*
X144794264Y-87300310D01*
X144606161Y-87327074D01*
X144423766Y-87330043D01*
X144346369Y-87323248D01*
X144130917Y-87279825D01*
X143926919Y-87206031D01*
X143737138Y-87104232D01*
X143564339Y-86976789D01*
X143411287Y-86826067D01*
X143280747Y-86654429D01*
X143175483Y-86464238D01*
X143098260Y-86257858D01*
X143097648Y-86255754D01*
X143081344Y-86193791D01*
X143070457Y-86135008D01*
X143064066Y-86070116D01*
X143061248Y-85989827D01*
X143061070Y-85886854D01*
X143061197Y-85878387D01*
X143203369Y-85878387D01*
X143218838Y-86095597D01*
X143264564Y-86299023D01*
X143339521Y-86487015D01*
X143442684Y-86657919D01*
X143573029Y-86810083D01*
X143729530Y-86941857D01*
X143911164Y-87051587D01*
X143939969Y-87065783D01*
X144030636Y-87107496D01*
X144108434Y-87137876D01*
X144181748Y-87158480D01*
X144258964Y-87170865D01*
X144348467Y-87176591D01*
X144458642Y-87177215D01*
X144532635Y-87175914D01*
X144643902Y-87172663D01*
X144728319Y-87168061D01*
X144792898Y-87161321D01*
X144844652Y-87151656D01*
X144890594Y-87138277D01*
X144901364Y-87134488D01*
X144993070Y-87097042D01*
X145087677Y-87051229D01*
X145173630Y-87003086D01*
X145239372Y-86958646D01*
X145241924Y-86956628D01*
X145290813Y-86917579D01*
X145228844Y-86924813D01*
X145158518Y-86923464D01*
X145098498Y-86898897D01*
X145042682Y-86847483D01*
X144999391Y-86788333D01*
X144932977Y-86704388D01*
X144841785Y-86615631D01*
X144792595Y-86574497D01*
X144729880Y-86522141D01*
X144673982Y-86471340D01*
X144632550Y-86429257D01*
X144617179Y-86410238D01*
X144581961Y-86357888D01*
X144375755Y-86486438D01*
X144253247Y-86564861D01*
X144157018Y-86631519D01*
X144083015Y-86689705D01*
X144027187Y-86742718D01*
X143985479Y-86793852D01*
X143971321Y-86815362D01*
X143930058Y-86875536D01*
X143893089Y-86910308D01*
X143852148Y-86925731D01*
X143817085Y-86928254D01*
X143773802Y-86925222D01*
X143738241Y-86912986D01*
X143705139Y-86886839D01*
X143669231Y-86842072D01*
X143625255Y-86773975D01*
X143602560Y-86736359D01*
X143545486Y-86630633D01*
X143514288Y-86545524D01*
X143509905Y-86478732D01*
X143533279Y-86427956D01*
X143585350Y-86390896D01*
X143667058Y-86365251D01*
X143760215Y-86350744D01*
X143856662Y-86333893D01*
X143951111Y-86303156D01*
X144028140Y-86269063D01*
X144089638Y-86237988D01*
X144137453Y-86210846D01*
X144164749Y-86191667D01*
X144168569Y-86186268D01*
X144154105Y-86172043D01*
X144117124Y-86152566D01*
X144088135Y-86140632D01*
X144040455Y-86120804D01*
X143972202Y-86089969D01*
X143892953Y-86052548D01*
X143821696Y-86017664D01*
X143729475Y-85973497D01*
X143656286Y-85943469D01*
X143592203Y-85924160D01*
X143527301Y-85912149D01*
X143508429Y-85909724D01*
X143439162Y-85899706D01*
X143377243Y-85887719D01*
X143335485Y-85876263D01*
X143333955Y-85875669D01*
X143281250Y-85839788D01*
X143256660Y-85787087D01*
X143260510Y-85720101D01*
X143293126Y-85641364D01*
X143302003Y-85626260D01*
X143334168Y-85568811D01*
X143361309Y-85511956D01*
X143370077Y-85489649D01*
X143409162Y-85414550D01*
X143461879Y-85368561D01*
X143524377Y-85351784D01*
X143592807Y-85364323D01*
X143663321Y-85406281D01*
X143732068Y-85477760D01*
X143733726Y-85479921D01*
X143791417Y-85555476D01*
X143791869Y-85454220D01*
X144007966Y-85454220D01*
X144007968Y-85503050D01*
X144029923Y-85566260D01*
X144069203Y-85637245D01*
X144121181Y-85709398D01*
X144181231Y-85776113D01*
X144244723Y-85830784D01*
X144292301Y-85860149D01*
X144373869Y-85886020D01*
X144471837Y-85895133D01*
X144572984Y-85887140D01*
X144643919Y-85869386D01*
X144742331Y-85823159D01*
X144831166Y-85758637D01*
X144904164Y-85682142D01*
X144955062Y-85599997D01*
X144975677Y-85534367D01*
X144979992Y-85470789D01*
X144970576Y-85436075D01*
X144951826Y-85430482D01*
X144928136Y-85454267D01*
X144903903Y-85507688D01*
X144897116Y-85529776D01*
X144852778Y-85628289D01*
X144782285Y-85708765D01*
X144690081Y-85767677D01*
X144580608Y-85801499D01*
X144549171Y-85805821D01*
X144417482Y-85806863D01*
X144305212Y-85780973D01*
X144240925Y-85748403D01*
X144174579Y-85693029D01*
X144128307Y-85622673D01*
X144096802Y-85528961D01*
X144093900Y-85516373D01*
X144075631Y-85460678D01*
X144053025Y-85428442D01*
X144030112Y-85422582D01*
X144010924Y-85446013D01*
X144007966Y-85454220D01*
X143791869Y-85454220D01*
X143792114Y-85399431D01*
X143806129Y-85231212D01*
X143816360Y-85194181D01*
X144126213Y-85194181D01*
X144137526Y-85245324D01*
X144169712Y-85284258D01*
X144216360Y-85306587D01*
X144271059Y-85307914D01*
X144327399Y-85283844D01*
X144342135Y-85272355D01*
X144364261Y-85235394D01*
X144368130Y-85211980D01*
X144621745Y-85211980D01*
X144642491Y-85260075D01*
X144687207Y-85296328D01*
X144699841Y-85301685D01*
X144757989Y-85307981D01*
X144811703Y-85288289D01*
X144837923Y-85262952D01*
X144860773Y-85206438D01*
X144856784Y-85150020D01*
X144829963Y-85102317D01*
X144784316Y-85071948D01*
X144746178Y-85065587D01*
X144687183Y-85078847D01*
X144645704Y-85113146D01*
X144623353Y-85160263D01*
X144621745Y-85211980D01*
X144368130Y-85211980D01*
X144371769Y-85189963D01*
X144358388Y-85129539D01*
X144323739Y-85087699D01*
X144276067Y-85066406D01*
X144223611Y-85067626D01*
X144174616Y-85093325D01*
X144142183Y-85135226D01*
X144126213Y-85194181D01*
X143816360Y-85194181D01*
X143846965Y-85083408D01*
X143915200Y-84955029D01*
X144011411Y-84845081D01*
X144136179Y-84752573D01*
X144185502Y-84724762D01*
X144221171Y-84707702D01*
X144256545Y-84696261D01*
X144299500Y-84689341D01*
X144357913Y-84685847D01*
X144439659Y-84684681D01*
X144473725Y-84684620D01*
X144562874Y-84684989D01*
X144626878Y-84687135D01*
X144674459Y-84692570D01*
X144714338Y-84702806D01*
X144755235Y-84719354D01*
X144801056Y-84741354D01*
X144918065Y-84813818D01*
X145023388Y-84907461D01*
X145108363Y-85013829D01*
X145143853Y-85075845D01*
X145166485Y-85126578D01*
X145181699Y-85175073D01*
X145191528Y-85231443D01*
X145198002Y-85305800D01*
X145200972Y-85360137D01*
X145209969Y-85546069D01*
X145256503Y-85475573D01*
X145308846Y-85408638D01*
X145361715Y-85370324D01*
X145422730Y-85356137D01*
X145458121Y-85356646D01*
X145509131Y-85364642D01*
X145541547Y-85384905D01*
X145565337Y-85417515D01*
X145591382Y-85459375D01*
X145628185Y-85517791D01*
X145668216Y-85580814D01*
X145672068Y-85586848D01*
X145710868Y-85651438D01*
X145732351Y-85699243D01*
X145740201Y-85740046D01*
X145739801Y-85766628D01*
X145729850Y-85814955D01*
X145705028Y-85851453D01*
X145660585Y-85879071D01*
X145591777Y-85900757D01*
X145493854Y-85919459D01*
X145493710Y-85919482D01*
X145414400Y-85933688D01*
X145345059Y-85950605D01*
X145278300Y-85973186D01*
X145206736Y-86004382D01*
X145122979Y-86047143D01*
X145019642Y-86104423D01*
X144993287Y-86119414D01*
X144810471Y-86223725D01*
X144942487Y-86272783D01*
X145019866Y-86298031D01*
X145114886Y-86323963D01*
X145211674Y-86346394D01*
X145250976Y-86354121D01*
X145330786Y-86370822D01*
X145397809Y-86388815D01*
X145444047Y-86405776D01*
X145458410Y-86414419D01*
X145484520Y-86460119D01*
X145484995Y-86524511D01*
X145460070Y-86604427D01*
X145441535Y-86642901D01*
X145411347Y-86700275D01*
X145387873Y-86745569D01*
X145364037Y-86792608D01*
X145332760Y-86855217D01*
X145330119Y-86860520D01*
X145315990Y-86890013D01*
X145313851Y-86901245D01*
X145327124Y-86892718D01*
X145359231Y-86862930D01*
X145388038Y-86835120D01*
X145524056Y-86682105D01*
X145635503Y-86512244D01*
X145720769Y-86330036D01*
X145778246Y-86139980D01*
X145806326Y-85946576D01*
X145803398Y-85754322D01*
X145795806Y-85694774D01*
X145749358Y-85503741D01*
X145672710Y-85321800D01*
X145569026Y-85152229D01*
X145441468Y-84998308D01*
X145293202Y-84863314D01*
X145127390Y-84750525D01*
X144947197Y-84663221D01*
X144755786Y-84604679D01*
X144740747Y-84601473D01*
X144536588Y-84575851D01*
X144336315Y-84583427D01*
X144142025Y-84623576D01*
X143955814Y-84695677D01*
X143779778Y-84799107D01*
X143616013Y-84933244D01*
X143612567Y-84936532D01*
X143470051Y-85090105D01*
X143359737Y-85248577D01*
X143279978Y-85415737D01*
X143229129Y-85595374D01*
X143205542Y-85791280D01*
X143203369Y-85878387D01*
X143061197Y-85878387D01*
X143062618Y-85784067D01*
X143066420Y-85705373D01*
X143073658Y-85641017D01*
X143085511Y-85581243D01*
X143103161Y-85516294D01*
X143107791Y-85500832D01*
X143189657Y-85284183D01*
X143297065Y-85089596D01*
X143429243Y-84917844D01*
X143585417Y-84769699D01*
X143764815Y-84645935D01*
X143966663Y-84547325D01*
X144112886Y-84496070D01*
X144180334Y-84477115D01*
X144240671Y-84464190D01*
X144303670Y-84456119D01*
X144379104Y-84451728D01*
X144476744Y-84449842D01*
X144498769Y-84449668D01*
X144603398Y-84449894D01*
G36*
X144603398Y-84449894D02*
G01*
X144683637Y-84452809D01*
X144748917Y-84459351D01*
X144808669Y-84470460D01*
X144871302Y-84486784D01*
X145077564Y-84562518D01*
X145266017Y-84665340D01*
X145434756Y-84792568D01*
X145581873Y-84941519D01*
X145705462Y-85109509D01*
X145803617Y-85293857D01*
X145874431Y-85491881D01*
X145915997Y-85700896D01*
X145926410Y-85918221D01*
X145924243Y-85968334D01*
X145909542Y-86121182D01*
X145883041Y-86255756D01*
X145841037Y-86386665D01*
X145785092Y-86517335D01*
X145677830Y-86708573D01*
X145546197Y-86877643D01*
X145392218Y-87022708D01*
X145217922Y-87141926D01*
X145025336Y-87233458D01*
X144976785Y-87251045D01*
X144794264Y-87300310D01*
X144606161Y-87327074D01*
X144423766Y-87330043D01*
X144346369Y-87323248D01*
X144130917Y-87279825D01*
X143926919Y-87206031D01*
X143737138Y-87104232D01*
X143564339Y-86976789D01*
X143411287Y-86826067D01*
X143280747Y-86654429D01*
X143175483Y-86464238D01*
X143098260Y-86257858D01*
X143097648Y-86255754D01*
X143081344Y-86193791D01*
X143070457Y-86135008D01*
X143064066Y-86070116D01*
X143061248Y-85989827D01*
X143061070Y-85886854D01*
X143061197Y-85878387D01*
X143203369Y-85878387D01*
X143218838Y-86095597D01*
X143264564Y-86299023D01*
X143339521Y-86487015D01*
X143442684Y-86657919D01*
X143573029Y-86810083D01*
X143729530Y-86941857D01*
X143911164Y-87051587D01*
X143939969Y-87065783D01*
X144030636Y-87107496D01*
X144108434Y-87137876D01*
X144181748Y-87158480D01*
X144258964Y-87170865D01*
X144348467Y-87176591D01*
X144458642Y-87177215D01*
X144532635Y-87175914D01*
X144643902Y-87172663D01*
X144728319Y-87168061D01*
X144792898Y-87161321D01*
X144844652Y-87151656D01*
X144890594Y-87138277D01*
X144901364Y-87134488D01*
X144993070Y-87097042D01*
X145087677Y-87051229D01*
X145173630Y-87003086D01*
X145239372Y-86958646D01*
X145241924Y-86956628D01*
X145290813Y-86917579D01*
X145228844Y-86924813D01*
X145158518Y-86923464D01*
X145098498Y-86898897D01*
X145042682Y-86847483D01*
X144999391Y-86788333D01*
X144932977Y-86704388D01*
X144841785Y-86615631D01*
X144792595Y-86574497D01*
X144729880Y-86522141D01*
X144673982Y-86471340D01*
X144632550Y-86429257D01*
X144617179Y-86410238D01*
X144581961Y-86357888D01*
X144375755Y-86486438D01*
X144253247Y-86564861D01*
X144157018Y-86631519D01*
X144083015Y-86689705D01*
X144027187Y-86742718D01*
X143985479Y-86793852D01*
X143971321Y-86815362D01*
X143930058Y-86875536D01*
X143893089Y-86910308D01*
X143852148Y-86925731D01*
X143817085Y-86928254D01*
X143773802Y-86925222D01*
X143738241Y-86912986D01*
X143705139Y-86886839D01*
X143669231Y-86842072D01*
X143625255Y-86773975D01*
X143602560Y-86736359D01*
X143545486Y-86630633D01*
X143514288Y-86545524D01*
X143509905Y-86478732D01*
X143533279Y-86427956D01*
X143585350Y-86390896D01*
X143667058Y-86365251D01*
X143760215Y-86350744D01*
X143856662Y-86333893D01*
X143951111Y-86303156D01*
X144028140Y-86269063D01*
X144089638Y-86237988D01*
X144137453Y-86210846D01*
X144164749Y-86191667D01*
X144168569Y-86186268D01*
X144154105Y-86172043D01*
X144117124Y-86152566D01*
X144088135Y-86140632D01*
X144040455Y-86120804D01*
X143972202Y-86089969D01*
X143892953Y-86052548D01*
X143821696Y-86017664D01*
X143729475Y-85973497D01*
X143656286Y-85943469D01*
X143592203Y-85924160D01*
X143527301Y-85912149D01*
X143508429Y-85909724D01*
X143439162Y-85899706D01*
X143377243Y-85887719D01*
X143335485Y-85876263D01*
X143333955Y-85875669D01*
X143281250Y-85839788D01*
X143256660Y-85787087D01*
X143260510Y-85720101D01*
X143293126Y-85641364D01*
X143302003Y-85626260D01*
X143334168Y-85568811D01*
X143361309Y-85511956D01*
X143370077Y-85489649D01*
X143409162Y-85414550D01*
X143461879Y-85368561D01*
X143524377Y-85351784D01*
X143592807Y-85364323D01*
X143663321Y-85406281D01*
X143732068Y-85477760D01*
X143733726Y-85479921D01*
X143791417Y-85555476D01*
X143791869Y-85454220D01*
X144007966Y-85454220D01*
X144007968Y-85503050D01*
X144029923Y-85566260D01*
X144069203Y-85637245D01*
X144121181Y-85709398D01*
X144181231Y-85776113D01*
X144244723Y-85830784D01*
X144292301Y-85860149D01*
X144373869Y-85886020D01*
X144471837Y-85895133D01*
X144572984Y-85887140D01*
X144643919Y-85869386D01*
X144742331Y-85823159D01*
X144831166Y-85758637D01*
X144904164Y-85682142D01*
X144955062Y-85599997D01*
X144975677Y-85534367D01*
X144979992Y-85470789D01*
X144970576Y-85436075D01*
X144951826Y-85430482D01*
X144928136Y-85454267D01*
X144903903Y-85507688D01*
X144897116Y-85529776D01*
X144852778Y-85628289D01*
X144782285Y-85708765D01*
X144690081Y-85767677D01*
X144580608Y-85801499D01*
X144549171Y-85805821D01*
X144417482Y-85806863D01*
X144305212Y-85780973D01*
X144240925Y-85748403D01*
X144174579Y-85693029D01*
X144128307Y-85622673D01*
X144096802Y-85528961D01*
X144093900Y-85516373D01*
X144075631Y-85460678D01*
X144053025Y-85428442D01*
X144030112Y-85422582D01*
X144010924Y-85446013D01*
X144007966Y-85454220D01*
X143791869Y-85454220D01*
X143792114Y-85399431D01*
X143806129Y-85231212D01*
X143816360Y-85194181D01*
X144126213Y-85194181D01*
X144137526Y-85245324D01*
X144169712Y-85284258D01*
X144216360Y-85306587D01*
X144271059Y-85307914D01*
X144327399Y-85283844D01*
X144342135Y-85272355D01*
X144364261Y-85235394D01*
X144368130Y-85211980D01*
X144621745Y-85211980D01*
X144642491Y-85260075D01*
X144687207Y-85296328D01*
X144699841Y-85301685D01*
X144757989Y-85307981D01*
X144811703Y-85288289D01*
X144837923Y-85262952D01*
X144860773Y-85206438D01*
X144856784Y-85150020D01*
X144829963Y-85102317D01*
X144784316Y-85071948D01*
X144746178Y-85065587D01*
X144687183Y-85078847D01*
X144645704Y-85113146D01*
X144623353Y-85160263D01*
X144621745Y-85211980D01*
X144368130Y-85211980D01*
X144371769Y-85189963D01*
X144358388Y-85129539D01*
X144323739Y-85087699D01*
X144276067Y-85066406D01*
X144223611Y-85067626D01*
X144174616Y-85093325D01*
X144142183Y-85135226D01*
X144126213Y-85194181D01*
X143816360Y-85194181D01*
X143846965Y-85083408D01*
X143915200Y-84955029D01*
X144011411Y-84845081D01*
X144136179Y-84752573D01*
X144185502Y-84724762D01*
X144221171Y-84707702D01*
X144256545Y-84696261D01*
X144299500Y-84689341D01*
X144357913Y-84685847D01*
X144439659Y-84684681D01*
X144473725Y-84684620D01*
X144562874Y-84684989D01*
X144626878Y-84687135D01*
X144674459Y-84692570D01*
X144714338Y-84702806D01*
X144755235Y-84719354D01*
X144801056Y-84741354D01*
X144918065Y-84813818D01*
X145023388Y-84907461D01*
X145108363Y-85013829D01*
X145143853Y-85075845D01*
X145166485Y-85126578D01*
X145181699Y-85175073D01*
X145191528Y-85231443D01*
X145198002Y-85305800D01*
X145200972Y-85360137D01*
X145209969Y-85546069D01*
X145256503Y-85475573D01*
X145308846Y-85408638D01*
X145361715Y-85370324D01*
X145422730Y-85356137D01*
X145458121Y-85356646D01*
X145509131Y-85364642D01*
X145541547Y-85384905D01*
X145565337Y-85417515D01*
X145591382Y-85459375D01*
X145628185Y-85517791D01*
X145668216Y-85580814D01*
X145672068Y-85586848D01*
X145710868Y-85651438D01*
X145732351Y-85699243D01*
X145740201Y-85740046D01*
X145739801Y-85766628D01*
X145729850Y-85814955D01*
X145705028Y-85851453D01*
X145660585Y-85879071D01*
X145591777Y-85900757D01*
X145493854Y-85919459D01*
X145493710Y-85919482D01*
X145414400Y-85933688D01*
X145345059Y-85950605D01*
X145278300Y-85973186D01*
X145206736Y-86004382D01*
X145122979Y-86047143D01*
X145019642Y-86104423D01*
X144993287Y-86119414D01*
X144810471Y-86223725D01*
X144942487Y-86272783D01*
X145019866Y-86298031D01*
X145114886Y-86323963D01*
X145211674Y-86346394D01*
X145250976Y-86354121D01*
X145330786Y-86370822D01*
X145397809Y-86388815D01*
X145444047Y-86405776D01*
X145458410Y-86414419D01*
X145484520Y-86460119D01*
X145484995Y-86524511D01*
X145460070Y-86604427D01*
X145441535Y-86642901D01*
X145411347Y-86700275D01*
X145387873Y-86745569D01*
X145364037Y-86792608D01*
X145332760Y-86855217D01*
X145330119Y-86860520D01*
X145315990Y-86890013D01*
X145313851Y-86901245D01*
X145327124Y-86892718D01*
X145359231Y-86862930D01*
X145388038Y-86835120D01*
X145524056Y-86682105D01*
X145635503Y-86512244D01*
X145720769Y-86330036D01*
X145778246Y-86139980D01*
X145806326Y-85946576D01*
X145803398Y-85754322D01*
X145795806Y-85694774D01*
X145749358Y-85503741D01*
X145672710Y-85321800D01*
X145569026Y-85152229D01*
X145441468Y-84998308D01*
X145293202Y-84863314D01*
X145127390Y-84750525D01*
X144947197Y-84663221D01*
X144755786Y-84604679D01*
X144740747Y-84601473D01*
X144536588Y-84575851D01*
X144336315Y-84583427D01*
X144142025Y-84623576D01*
X143955814Y-84695677D01*
X143779778Y-84799107D01*
X143616013Y-84933244D01*
X143612567Y-84936532D01*
X143470051Y-85090105D01*
X143359737Y-85248577D01*
X143279978Y-85415737D01*
X143229129Y-85595374D01*
X143205542Y-85791280D01*
X143203369Y-85878387D01*
X143061197Y-85878387D01*
X143062618Y-85784067D01*
X143066420Y-85705373D01*
X143073658Y-85641017D01*
X143085511Y-85581243D01*
X143103161Y-85516294D01*
X143107791Y-85500832D01*
X143189657Y-85284183D01*
X143297065Y-85089596D01*
X143429243Y-84917844D01*
X143585417Y-84769699D01*
X143764815Y-84645935D01*
X143966663Y-84547325D01*
X144112886Y-84496070D01*
X144180334Y-84477115D01*
X144240671Y-84464190D01*
X144303670Y-84456119D01*
X144379104Y-84451728D01*
X144476744Y-84449842D01*
X144498769Y-84449668D01*
X144603398Y-84449894D01*
G37*
X147349438Y-84460259D02*
X147475955Y-84465860D01*
X147593373Y-84475522D01*
X147692353Y-84488893D01*
X147741502Y-84499179D01*
X147838978Y-84530224D01*
X147950655Y-84575392D01*
X148064729Y-84629127D01*
X148169394Y-84685872D01*
X148252146Y-84739553D01*
X148304363Y-84782247D01*
X148368680Y-84840812D01*
X148434821Y-84905697D01*
X148466976Y-84939246D01*
X148573171Y-85072691D01*
X148666327Y-85228580D01*
X148740826Y-85396313D01*
X148785150Y-85539720D01*
X148801737Y-85635310D01*
X148811983Y-85752318D01*
X148815744Y-85879037D01*
X148812871Y-86003756D01*
X148803220Y-86114766D01*
X148793090Y-86174720D01*
X148730489Y-86384301D01*
X148638618Y-86579368D01*
X148519844Y-86757493D01*
X148376534Y-86916244D01*
X148211057Y-87053191D01*
X148025780Y-87165904D01*
X147823071Y-87251953D01*
X147710996Y-87285499D01*
X147609730Y-87305143D01*
X147486451Y-87319034D01*
X147352611Y-87326610D01*
X147219664Y-87327306D01*
X147099062Y-87320559D01*
X147068060Y-87317133D01*
X146912814Y-87291640D01*
X146762019Y-87255732D01*
X146621683Y-87211531D01*
X146497818Y-87161160D01*
X146396434Y-87106741D01*
X146329722Y-87056383D01*
X146297485Y-87019974D01*
X146287118Y-86983801D01*
X146288798Y-86960201D01*
X146424266Y-86960201D01*
X146435620Y-86991730D01*
X146468545Y-87027092D01*
X146468585Y-87027129D01*
X146532430Y-87070996D01*
X146629528Y-87114294D01*
X146760112Y-87157118D01*
X146855891Y-87182941D01*
X147090134Y-87227289D01*
X147315108Y-87239489D01*
X147532126Y-87219566D01*
X147639902Y-87197110D01*
X147821096Y-87136186D01*
X148000073Y-87045706D01*
X148170249Y-86929696D01*
X148325044Y-86792184D01*
X148358014Y-86757685D01*
X148494793Y-86588827D01*
X148598960Y-86412308D01*
X148671272Y-86226241D01*
X148712486Y-86028740D01*
X148723635Y-85847546D01*
X148711700Y-85658780D01*
X148674569Y-85486561D01*
X148610254Y-85326261D01*
X148516766Y-85173252D01*
X148392119Y-85022905D01*
X148351102Y-84980393D01*
X148272319Y-84904593D01*
X148203008Y-84847227D01*
X148131990Y-84799888D01*
X148054769Y-84757574D01*
X147842693Y-84665005D01*
X147624291Y-84601921D01*
X147395071Y-84567426D01*
X147150542Y-84560624D01*
X147081102Y-84563430D01*
X146912607Y-84578710D01*
X146771840Y-84605640D01*
X146654261Y-84645587D01*
X146555330Y-84699918D01*
X146507630Y-84736083D01*
X146471418Y-84776254D01*
X146456394Y-84822080D01*
X146462523Y-84879708D01*
X146489772Y-84955286D01*
X146506233Y-84991200D01*
X146536163Y-85049367D01*
X146563712Y-85084122D01*
X146596773Y-85098000D01*
X146643238Y-85093538D01*
X146711000Y-85073270D01*
X146735551Y-85064871D01*
X146815826Y-85038744D01*
X146887477Y-85020088D01*
X146959281Y-85007711D01*
X147040019Y-85000421D01*
X147138468Y-84997027D01*
X147240650Y-84996314D01*
X147495568Y-84996314D01*
X147639702Y-85067638D01*
X147784447Y-85155471D01*
X147907856Y-85263641D01*
X148006741Y-85388300D01*
X148077913Y-85525596D01*
X148111914Y-85637921D01*
X148124735Y-85731641D01*
X148129608Y-85844854D01*
X148126832Y-85964327D01*
X148116707Y-86076827D01*
X148099925Y-86167629D01*
X148044466Y-86314708D01*
X147958668Y-86451995D01*
X147856188Y-86564694D01*
X147734398Y-86659384D01*
X147599686Y-86728105D01*
X147450139Y-86771138D01*
X147283841Y-86788766D01*
X147098879Y-86781269D01*
X146893339Y-86748929D01*
X146780122Y-86722998D01*
X146699177Y-86703894D01*
X146628909Y-86689479D01*
X146576456Y-86681069D01*
X146548958Y-86679976D01*
X146547977Y-86680272D01*
X146524611Y-86702162D01*
X146496051Y-86746679D01*
X146467199Y-86804123D01*
X146442954Y-86864793D01*
X146428684Y-86916415D01*
X146424266Y-86960201D01*
X146288798Y-86960201D01*
X146289875Y-86945079D01*
X146303714Y-86897191D01*
X146331953Y-86833985D01*
X146369795Y-86763415D01*
X146412443Y-86693434D01*
X146455101Y-86631996D01*
X146492972Y-86587054D01*
X146517285Y-86568001D01*
X146540776Y-86561144D01*
X146571157Y-86561684D01*
X146614995Y-86570890D01*
X146678855Y-86590036D01*
X146745128Y-86612121D01*
X146936133Y-86667829D01*
X147109188Y-86697828D01*
X147268369Y-86702133D01*
X147417756Y-86680759D01*
X147561427Y-86633720D01*
X147602792Y-86615191D01*
X147735755Y-86534839D01*
X147846939Y-86432942D01*
X147935611Y-86313745D01*
X148001036Y-86181492D01*
X148042482Y-86040427D01*
X148059215Y-85894795D01*
X148050502Y-85748841D01*
X148015609Y-85606809D01*
X147953802Y-85472943D01*
X147864348Y-85351488D01*
X147827657Y-85313918D01*
X147694101Y-85208812D01*
X147546214Y-85134019D01*
X147385083Y-85089699D01*
X147211795Y-85076013D01*
X147027440Y-85093121D01*
X146833103Y-85141184D01*
X146779324Y-85159395D01*
X146690469Y-85190065D01*
X146626742Y-85208402D01*
X146581917Y-85214878D01*
X146549770Y-85209966D01*
X146524077Y-85194140D01*
X146509437Y-85179887D01*
X146482815Y-85142557D01*
X146449438Y-85083468D01*
X146414118Y-85012691D01*
X146381664Y-84940296D01*
X146356889Y-84876355D01*
X146345618Y-84836987D01*
X146350034Y-84775345D01*
X146385542Y-84714845D01*
X146449368Y-84657016D01*
X146538739Y-84603387D01*
X146650882Y-84555487D01*
X146783023Y-84514847D01*
X146932390Y-84482994D01*
X147008656Y-84471373D01*
X147106451Y-84462662D01*
X147223157Y-84459075D01*
X147349438Y-84460259D01*
G36*
X147349438Y-84460259D02*
G01*
X147475955Y-84465860D01*
X147593373Y-84475522D01*
X147692353Y-84488893D01*
X147741502Y-84499179D01*
X147838978Y-84530224D01*
X147950655Y-84575392D01*
X148064729Y-84629127D01*
X148169394Y-84685872D01*
X148252146Y-84739553D01*
X148304363Y-84782247D01*
X148368680Y-84840812D01*
X148434821Y-84905697D01*
X148466976Y-84939246D01*
X148573171Y-85072691D01*
X148666327Y-85228580D01*
X148740826Y-85396313D01*
X148785150Y-85539720D01*
X148801737Y-85635310D01*
X148811983Y-85752318D01*
X148815744Y-85879037D01*
X148812871Y-86003756D01*
X148803220Y-86114766D01*
X148793090Y-86174720D01*
X148730489Y-86384301D01*
X148638618Y-86579368D01*
X148519844Y-86757493D01*
X148376534Y-86916244D01*
X148211057Y-87053191D01*
X148025780Y-87165904D01*
X147823071Y-87251953D01*
X147710996Y-87285499D01*
X147609730Y-87305143D01*
X147486451Y-87319034D01*
X147352611Y-87326610D01*
X147219664Y-87327306D01*
X147099062Y-87320559D01*
X147068060Y-87317133D01*
X146912814Y-87291640D01*
X146762019Y-87255732D01*
X146621683Y-87211531D01*
X146497818Y-87161160D01*
X146396434Y-87106741D01*
X146329722Y-87056383D01*
X146297485Y-87019974D01*
X146287118Y-86983801D01*
X146288798Y-86960201D01*
X146424266Y-86960201D01*
X146435620Y-86991730D01*
X146468545Y-87027092D01*
X146468585Y-87027129D01*
X146532430Y-87070996D01*
X146629528Y-87114294D01*
X146760112Y-87157118D01*
X146855891Y-87182941D01*
X147090134Y-87227289D01*
X147315108Y-87239489D01*
X147532126Y-87219566D01*
X147639902Y-87197110D01*
X147821096Y-87136186D01*
X148000073Y-87045706D01*
X148170249Y-86929696D01*
X148325044Y-86792184D01*
X148358014Y-86757685D01*
X148494793Y-86588827D01*
X148598960Y-86412308D01*
X148671272Y-86226241D01*
X148712486Y-86028740D01*
X148723635Y-85847546D01*
X148711700Y-85658780D01*
X148674569Y-85486561D01*
X148610254Y-85326261D01*
X148516766Y-85173252D01*
X148392119Y-85022905D01*
X148351102Y-84980393D01*
X148272319Y-84904593D01*
X148203008Y-84847227D01*
X148131990Y-84799888D01*
X148054769Y-84757574D01*
X147842693Y-84665005D01*
X147624291Y-84601921D01*
X147395071Y-84567426D01*
X147150542Y-84560624D01*
X147081102Y-84563430D01*
X146912607Y-84578710D01*
X146771840Y-84605640D01*
X146654261Y-84645587D01*
X146555330Y-84699918D01*
X146507630Y-84736083D01*
X146471418Y-84776254D01*
X146456394Y-84822080D01*
X146462523Y-84879708D01*
X146489772Y-84955286D01*
X146506233Y-84991200D01*
X146536163Y-85049367D01*
X146563712Y-85084122D01*
X146596773Y-85098000D01*
X146643238Y-85093538D01*
X146711000Y-85073270D01*
X146735551Y-85064871D01*
X146815826Y-85038744D01*
X146887477Y-85020088D01*
X146959281Y-85007711D01*
X147040019Y-85000421D01*
X147138468Y-84997027D01*
X147240650Y-84996314D01*
X147495568Y-84996314D01*
X147639702Y-85067638D01*
X147784447Y-85155471D01*
X147907856Y-85263641D01*
X148006741Y-85388300D01*
X148077913Y-85525596D01*
X148111914Y-85637921D01*
X148124735Y-85731641D01*
X148129608Y-85844854D01*
X148126832Y-85964327D01*
X148116707Y-86076827D01*
X148099925Y-86167629D01*
X148044466Y-86314708D01*
X147958668Y-86451995D01*
X147856188Y-86564694D01*
X147734398Y-86659384D01*
X147599686Y-86728105D01*
X147450139Y-86771138D01*
X147283841Y-86788766D01*
X147098879Y-86781269D01*
X146893339Y-86748929D01*
X146780122Y-86722998D01*
X146699177Y-86703894D01*
X146628909Y-86689479D01*
X146576456Y-86681069D01*
X146548958Y-86679976D01*
X146547977Y-86680272D01*
X146524611Y-86702162D01*
X146496051Y-86746679D01*
X146467199Y-86804123D01*
X146442954Y-86864793D01*
X146428684Y-86916415D01*
X146424266Y-86960201D01*
X146288798Y-86960201D01*
X146289875Y-86945079D01*
X146303714Y-86897191D01*
X146331953Y-86833985D01*
X146369795Y-86763415D01*
X146412443Y-86693434D01*
X146455101Y-86631996D01*
X146492972Y-86587054D01*
X146517285Y-86568001D01*
X146540776Y-86561144D01*
X146571157Y-86561684D01*
X146614995Y-86570890D01*
X146678855Y-86590036D01*
X146745128Y-86612121D01*
X146936133Y-86667829D01*
X147109188Y-86697828D01*
X147268369Y-86702133D01*
X147417756Y-86680759D01*
X147561427Y-86633720D01*
X147602792Y-86615191D01*
X147735755Y-86534839D01*
X147846939Y-86432942D01*
X147935611Y-86313745D01*
X148001036Y-86181492D01*
X148042482Y-86040427D01*
X148059215Y-85894795D01*
X148050502Y-85748841D01*
X148015609Y-85606809D01*
X147953802Y-85472943D01*
X147864348Y-85351488D01*
X147827657Y-85313918D01*
X147694101Y-85208812D01*
X147546214Y-85134019D01*
X147385083Y-85089699D01*
X147211795Y-85076013D01*
X147027440Y-85093121D01*
X146833103Y-85141184D01*
X146779324Y-85159395D01*
X146690469Y-85190065D01*
X146626742Y-85208402D01*
X146581917Y-85214878D01*
X146549770Y-85209966D01*
X146524077Y-85194140D01*
X146509437Y-85179887D01*
X146482815Y-85142557D01*
X146449438Y-85083468D01*
X146414118Y-85012691D01*
X146381664Y-84940296D01*
X146356889Y-84876355D01*
X146345618Y-84836987D01*
X146350034Y-84775345D01*
X146385542Y-84714845D01*
X146449368Y-84657016D01*
X146538739Y-84603387D01*
X146650882Y-84555487D01*
X146783023Y-84514847D01*
X146932390Y-84482994D01*
X147008656Y-84471373D01*
X147106451Y-84462662D01*
X147223157Y-84459075D01*
X147349438Y-84460259D01*
G37*
X150106012Y-84451263D02*
X150270487Y-84451711D01*
X150433581Y-84452511D01*
X150591381Y-84453651D01*
X150739970Y-84455121D01*
X150875431Y-84456907D01*
X150993850Y-84459000D01*
X151091310Y-84461386D01*
X151163895Y-84464056D01*
X151207690Y-84466996D01*
X151212835Y-84467643D01*
X151305969Y-84481387D01*
X151318511Y-84693054D01*
X151321799Y-84765330D01*
X151324723Y-84862875D01*
X151327282Y-84982475D01*
X151329479Y-85120917D01*
X151331313Y-85274986D01*
X151332785Y-85441468D01*
X151333896Y-85617148D01*
X151334647Y-85798813D01*
X151335038Y-85983248D01*
X151335070Y-86167239D01*
X151334743Y-86347573D01*
X151334059Y-86521034D01*
X151333018Y-86684409D01*
X151331621Y-86834483D01*
X151329868Y-86968043D01*
X151327760Y-87081874D01*
X151325298Y-87172762D01*
X151322482Y-87237492D01*
X151319314Y-87272852D01*
X151317955Y-87278039D01*
X151305306Y-87293852D01*
X151284199Y-87305907D01*
X151250695Y-87314570D01*
X151200855Y-87320206D01*
X151130741Y-87323181D01*
X151036413Y-87323862D01*
X150913933Y-87322613D01*
X150849574Y-87321537D01*
X150591616Y-87316888D01*
X150580492Y-87009789D01*
X150576721Y-86895326D01*
X150573498Y-86777715D01*
X150571057Y-86667150D01*
X150569635Y-86573827D01*
X150569369Y-86528605D01*
X150567612Y-86437338D01*
X150562159Y-86377302D01*
X150552729Y-86346032D01*
X150548202Y-86341275D01*
X150526278Y-86337291D01*
X150475085Y-86332722D01*
X150399209Y-86327828D01*
X150303238Y-86322871D01*
X150191758Y-86318111D01*
X150069356Y-86313811D01*
X150061369Y-86313560D01*
X149907561Y-86308065D01*
X149778419Y-86301958D01*
X149676066Y-86295382D01*
X149602626Y-86288482D01*
X149560223Y-86281403D01*
X149553369Y-86279036D01*
X149536482Y-86269932D01*
X149524684Y-86257544D01*
X149516905Y-86236136D01*
X149512081Y-86199974D01*
X149509144Y-86143325D01*
X149507028Y-86060453D01*
X149506323Y-86026134D01*
X149505186Y-85919313D01*
X149507596Y-85841052D01*
X149514825Y-85786123D01*
X149528145Y-85749295D01*
X149548829Y-85725340D01*
X149578147Y-85709027D01*
X149584031Y-85706657D01*
X149613701Y-85700883D01*
X149671732Y-85694468D01*
X149752636Y-85687834D01*
X149850925Y-85681407D01*
X149961110Y-85675609D01*
X150019035Y-85673075D01*
X150134527Y-85667739D01*
X150242188Y-85661589D01*
X150336196Y-85655050D01*
X150410734Y-85648546D01*
X150459980Y-85642504D01*
X150472745Y-85639942D01*
X150510755Y-85625827D01*
X150537444Y-85603630D01*
X150554725Y-85567862D01*
X150564513Y-85513031D01*
X150568719Y-85433647D01*
X150569369Y-85362694D01*
X150567812Y-85266971D01*
X150560383Y-85199481D01*
X150542947Y-85154638D01*
X150511367Y-85126853D01*
X150461507Y-85110538D01*
X150389230Y-85100106D01*
X150373772Y-85098448D01*
X150315183Y-85094101D01*
X150230311Y-85090206D01*
X150126741Y-85086990D01*
X150012056Y-85084681D01*
X149893839Y-85083506D01*
X149873395Y-85083434D01*
X149752399Y-85082287D01*
X149645336Y-85079628D01*
X149557119Y-85075680D01*
X149492659Y-85070665D01*
X149456869Y-85064808D01*
X149455795Y-85064454D01*
X149423927Y-85047759D01*
X149391329Y-85017729D01*
X149355355Y-84970571D01*
X149313356Y-84902494D01*
X149262684Y-84809705D01*
X149220080Y-84726920D01*
X149174930Y-84635607D01*
X149151983Y-84582987D01*
X149250008Y-84582987D01*
X149329721Y-84712428D01*
X149372731Y-84779749D01*
X149416269Y-84843757D01*
X149452541Y-84893093D01*
X149460235Y-84902613D01*
X149511035Y-84963356D01*
X150015983Y-84978181D01*
X150161161Y-84982586D01*
X150276382Y-84986552D01*
X150365546Y-84990421D01*
X150432554Y-84994537D01*
X150481306Y-84999245D01*
X150515702Y-85004888D01*
X150539643Y-85011809D01*
X150557030Y-85020352D01*
X150566316Y-85026680D01*
X150600121Y-85058183D01*
X150624469Y-85098374D01*
X150640352Y-85152291D01*
X150648766Y-85224968D01*
X150650703Y-85321442D01*
X150647516Y-85438120D01*
X150643259Y-85528615D01*
X150638410Y-85609238D01*
X150633474Y-85672841D01*
X150628961Y-85712274D01*
X150627561Y-85719097D01*
X150623028Y-85730540D01*
X150613874Y-85739395D01*
X150595889Y-85746163D01*
X150564867Y-85751345D01*
X150516599Y-85755442D01*
X150446878Y-85758955D01*
X150351496Y-85762386D01*
X150233655Y-85766014D01*
X150067016Y-85772095D01*
X149921573Y-85779649D01*
X149799855Y-85788458D01*
X149704392Y-85798305D01*
X149637715Y-85808973D01*
X149602354Y-85820243D01*
X149602215Y-85820328D01*
X149594431Y-85841322D01*
X149589593Y-85886421D01*
X149587645Y-85945995D01*
X149588530Y-86010414D01*
X149592195Y-86070050D01*
X149598581Y-86115273D01*
X149604028Y-86132124D01*
X149614371Y-86146990D01*
X149630469Y-86158756D01*
X149656665Y-86168153D01*
X149697306Y-86175909D01*
X149756735Y-86182753D01*
X149839298Y-86189415D01*
X149949339Y-86196622D01*
X150010569Y-86200332D01*
X150145981Y-86209027D01*
X150273049Y-86218328D01*
X150387527Y-86227831D01*
X150485171Y-86237130D01*
X150561738Y-86245823D01*
X150612983Y-86253504D01*
X150634662Y-86259770D01*
X150634672Y-86259780D01*
X150637276Y-86278145D01*
X150640588Y-86325914D01*
X150644398Y-86398640D01*
X150648493Y-86491871D01*
X150652664Y-86601159D01*
X150656698Y-86722055D01*
X150656869Y-86727576D01*
X150662008Y-86872588D01*
X150667698Y-86995038D01*
X150673771Y-87092407D01*
X150680055Y-87162180D01*
X150686381Y-87201837D01*
X150689442Y-87209510D01*
X150704547Y-87219225D01*
X150734498Y-87227046D01*
X150783098Y-87233333D01*
X150854151Y-87238449D01*
X150951460Y-87242757D01*
X151078827Y-87246619D01*
X151078977Y-87246623D01*
X151207585Y-87249987D01*
X151218677Y-87018710D01*
X151220610Y-86961148D01*
X151222437Y-86873313D01*
X151224127Y-86758801D01*
X151225651Y-86621205D01*
X151226980Y-86464120D01*
X151228085Y-86291140D01*
X151228935Y-86105860D01*
X151229502Y-85911873D01*
X151229757Y-85712774D01*
X151229769Y-85661411D01*
X151229769Y-84535389D01*
X150395802Y-84548241D01*
X150224737Y-84551052D01*
X150059004Y-84554108D01*
X149902689Y-84557310D01*
X149759878Y-84560561D01*
X149634655Y-84563761D01*
X149531108Y-84566813D01*
X149453322Y-84569618D01*
X149405921Y-84572040D01*
X149250008Y-84582987D01*
X149151983Y-84582987D01*
X149146056Y-84569397D01*
X149133295Y-84523785D01*
X149136485Y-84494264D01*
X149155461Y-84476330D01*
X149190060Y-84465476D01*
X149210469Y-84461736D01*
X149245006Y-84458953D01*
X149309490Y-84456613D01*
X149400007Y-84454707D01*
X149512640Y-84453222D01*
X149643473Y-84452146D01*
X149788589Y-84451469D01*
X149944075Y-84451178D01*
X150106012Y-84451263D01*
G36*
X150106012Y-84451263D02*
G01*
X150270487Y-84451711D01*
X150433581Y-84452511D01*
X150591381Y-84453651D01*
X150739970Y-84455121D01*
X150875431Y-84456907D01*
X150993850Y-84459000D01*
X151091310Y-84461386D01*
X151163895Y-84464056D01*
X151207690Y-84466996D01*
X151212835Y-84467643D01*
X151305969Y-84481387D01*
X151318511Y-84693054D01*
X151321799Y-84765330D01*
X151324723Y-84862875D01*
X151327282Y-84982475D01*
X151329479Y-85120917D01*
X151331313Y-85274986D01*
X151332785Y-85441468D01*
X151333896Y-85617148D01*
X151334647Y-85798813D01*
X151335038Y-85983248D01*
X151335070Y-86167239D01*
X151334743Y-86347573D01*
X151334059Y-86521034D01*
X151333018Y-86684409D01*
X151331621Y-86834483D01*
X151329868Y-86968043D01*
X151327760Y-87081874D01*
X151325298Y-87172762D01*
X151322482Y-87237492D01*
X151319314Y-87272852D01*
X151317955Y-87278039D01*
X151305306Y-87293852D01*
X151284199Y-87305907D01*
X151250695Y-87314570D01*
X151200855Y-87320206D01*
X151130741Y-87323181D01*
X151036413Y-87323862D01*
X150913933Y-87322613D01*
X150849574Y-87321537D01*
X150591616Y-87316888D01*
X150580492Y-87009789D01*
X150576721Y-86895326D01*
X150573498Y-86777715D01*
X150571057Y-86667150D01*
X150569635Y-86573827D01*
X150569369Y-86528605D01*
X150567612Y-86437338D01*
X150562159Y-86377302D01*
X150552729Y-86346032D01*
X150548202Y-86341275D01*
X150526278Y-86337291D01*
X150475085Y-86332722D01*
X150399209Y-86327828D01*
X150303238Y-86322871D01*
X150191758Y-86318111D01*
X150069356Y-86313811D01*
X150061369Y-86313560D01*
X149907561Y-86308065D01*
X149778419Y-86301958D01*
X149676066Y-86295382D01*
X149602626Y-86288482D01*
X149560223Y-86281403D01*
X149553369Y-86279036D01*
X149536482Y-86269932D01*
X149524684Y-86257544D01*
X149516905Y-86236136D01*
X149512081Y-86199974D01*
X149509144Y-86143325D01*
X149507028Y-86060453D01*
X149506323Y-86026134D01*
X149505186Y-85919313D01*
X149507596Y-85841052D01*
X149514825Y-85786123D01*
X149528145Y-85749295D01*
X149548829Y-85725340D01*
X149578147Y-85709027D01*
X149584031Y-85706657D01*
X149613701Y-85700883D01*
X149671732Y-85694468D01*
X149752636Y-85687834D01*
X149850925Y-85681407D01*
X149961110Y-85675609D01*
X150019035Y-85673075D01*
X150134527Y-85667739D01*
X150242188Y-85661589D01*
X150336196Y-85655050D01*
X150410734Y-85648546D01*
X150459980Y-85642504D01*
X150472745Y-85639942D01*
X150510755Y-85625827D01*
X150537444Y-85603630D01*
X150554725Y-85567862D01*
X150564513Y-85513031D01*
X150568719Y-85433647D01*
X150569369Y-85362694D01*
X150567812Y-85266971D01*
X150560383Y-85199481D01*
X150542947Y-85154638D01*
X150511367Y-85126853D01*
X150461507Y-85110538D01*
X150389230Y-85100106D01*
X150373772Y-85098448D01*
X150315183Y-85094101D01*
X150230311Y-85090206D01*
X150126741Y-85086990D01*
X150012056Y-85084681D01*
X149893839Y-85083506D01*
X149873395Y-85083434D01*
X149752399Y-85082287D01*
X149645336Y-85079628D01*
X149557119Y-85075680D01*
X149492659Y-85070665D01*
X149456869Y-85064808D01*
X149455795Y-85064454D01*
X149423927Y-85047759D01*
X149391329Y-85017729D01*
X149355355Y-84970571D01*
X149313356Y-84902494D01*
X149262684Y-84809705D01*
X149220080Y-84726920D01*
X149174930Y-84635607D01*
X149151983Y-84582987D01*
X149250008Y-84582987D01*
X149329721Y-84712428D01*
X149372731Y-84779749D01*
X149416269Y-84843757D01*
X149452541Y-84893093D01*
X149460235Y-84902613D01*
X149511035Y-84963356D01*
X150015983Y-84978181D01*
X150161161Y-84982586D01*
X150276382Y-84986552D01*
X150365546Y-84990421D01*
X150432554Y-84994537D01*
X150481306Y-84999245D01*
X150515702Y-85004888D01*
X150539643Y-85011809D01*
X150557030Y-85020352D01*
X150566316Y-85026680D01*
X150600121Y-85058183D01*
X150624469Y-85098374D01*
X150640352Y-85152291D01*
X150648766Y-85224968D01*
X150650703Y-85321442D01*
X150647516Y-85438120D01*
X150643259Y-85528615D01*
X150638410Y-85609238D01*
X150633474Y-85672841D01*
X150628961Y-85712274D01*
X150627561Y-85719097D01*
X150623028Y-85730540D01*
X150613874Y-85739395D01*
X150595889Y-85746163D01*
X150564867Y-85751345D01*
X150516599Y-85755442D01*
X150446878Y-85758955D01*
X150351496Y-85762386D01*
X150233655Y-85766014D01*
X150067016Y-85772095D01*
X149921573Y-85779649D01*
X149799855Y-85788458D01*
X149704392Y-85798305D01*
X149637715Y-85808973D01*
X149602354Y-85820243D01*
X149602215Y-85820328D01*
X149594431Y-85841322D01*
X149589593Y-85886421D01*
X149587645Y-85945995D01*
X149588530Y-86010414D01*
X149592195Y-86070050D01*
X149598581Y-86115273D01*
X149604028Y-86132124D01*
X149614371Y-86146990D01*
X149630469Y-86158756D01*
X149656665Y-86168153D01*
X149697306Y-86175909D01*
X149756735Y-86182753D01*
X149839298Y-86189415D01*
X149949339Y-86196622D01*
X150010569Y-86200332D01*
X150145981Y-86209027D01*
X150273049Y-86218328D01*
X150387527Y-86227831D01*
X150485171Y-86237130D01*
X150561738Y-86245823D01*
X150612983Y-86253504D01*
X150634662Y-86259770D01*
X150634672Y-86259780D01*
X150637276Y-86278145D01*
X150640588Y-86325914D01*
X150644398Y-86398640D01*
X150648493Y-86491871D01*
X150652664Y-86601159D01*
X150656698Y-86722055D01*
X150656869Y-86727576D01*
X150662008Y-86872588D01*
X150667698Y-86995038D01*
X150673771Y-87092407D01*
X150680055Y-87162180D01*
X150686381Y-87201837D01*
X150689442Y-87209510D01*
X150704547Y-87219225D01*
X150734498Y-87227046D01*
X150783098Y-87233333D01*
X150854151Y-87238449D01*
X150951460Y-87242757D01*
X151078827Y-87246619D01*
X151078977Y-87246623D01*
X151207585Y-87249987D01*
X151218677Y-87018710D01*
X151220610Y-86961148D01*
X151222437Y-86873313D01*
X151224127Y-86758801D01*
X151225651Y-86621205D01*
X151226980Y-86464120D01*
X151228085Y-86291140D01*
X151228935Y-86105860D01*
X151229502Y-85911873D01*
X151229757Y-85712774D01*
X151229769Y-85661411D01*
X151229769Y-84535389D01*
X150395802Y-84548241D01*
X150224737Y-84551052D01*
X150059004Y-84554108D01*
X149902689Y-84557310D01*
X149759878Y-84560561D01*
X149634655Y-84563761D01*
X149531108Y-84566813D01*
X149453322Y-84569618D01*
X149405921Y-84572040D01*
X149250008Y-84582987D01*
X149151983Y-84582987D01*
X149146056Y-84569397D01*
X149133295Y-84523785D01*
X149136485Y-84494264D01*
X149155461Y-84476330D01*
X149190060Y-84465476D01*
X149210469Y-84461736D01*
X149245006Y-84458953D01*
X149309490Y-84456613D01*
X149400007Y-84454707D01*
X149512640Y-84453222D01*
X149643473Y-84452146D01*
X149788589Y-84451469D01*
X149944075Y-84451178D01*
X150106012Y-84451263D01*
G37*
X153160169Y-84447853D02*
X153327672Y-84448180D01*
X153486567Y-84448989D01*
X153633299Y-84450227D01*
X153764315Y-84451841D01*
X153876058Y-84453778D01*
X153964975Y-84455986D01*
X154027511Y-84458411D01*
X154060111Y-84461001D01*
X154061663Y-84461282D01*
X154115750Y-84482434D01*
X154145262Y-84511749D01*
X154150772Y-84538752D01*
X154155719Y-84596314D01*
X154160105Y-84681251D01*
X154163930Y-84790378D01*
X154167197Y-84920513D01*
X154169908Y-85068472D01*
X154172065Y-85231069D01*
X154173668Y-85405122D01*
X154174721Y-85587446D01*
X154175225Y-85774858D01*
X154175181Y-85964173D01*
X154174592Y-86152207D01*
X154173460Y-86335778D01*
X154171785Y-86511700D01*
X154169570Y-86676790D01*
X154166817Y-86827863D01*
X154163528Y-86961736D01*
X154159704Y-87075226D01*
X154155347Y-87165147D01*
X154150459Y-87228316D01*
X154145041Y-87261550D01*
X154143702Y-87264655D01*
X154122153Y-87276208D01*
X154076249Y-87288918D01*
X154015303Y-87300287D01*
X154005797Y-87301672D01*
X153959450Y-87305813D01*
X153883720Y-87309731D01*
X153783094Y-87313380D01*
X153662053Y-87316715D01*
X153525084Y-87319689D01*
X153376670Y-87322256D01*
X153221295Y-87324369D01*
X153063444Y-87325983D01*
X152907601Y-87327052D01*
X152758250Y-87327528D01*
X152619876Y-87327367D01*
X152496963Y-87326522D01*
X152393994Y-87324946D01*
X152315455Y-87322594D01*
X152267286Y-87319571D01*
X152206080Y-87312170D01*
X152158989Y-87304270D01*
X152135360Y-87297469D01*
X152134645Y-87296908D01*
X152124369Y-87270888D01*
X152115028Y-87219504D01*
X152114647Y-87216120D01*
X152194323Y-87216120D01*
X154057635Y-87216120D01*
X154057635Y-84540654D01*
X152245769Y-84540654D01*
X152245769Y-84941702D01*
X152759097Y-84953387D01*
X152929821Y-84957761D01*
X153069873Y-84962651D01*
X153182444Y-84968493D01*
X153270728Y-84975719D01*
X153337920Y-84984765D01*
X153387211Y-84996063D01*
X153421796Y-85010049D01*
X153444867Y-85027156D01*
X153459618Y-85047817D01*
X153460045Y-85048654D01*
X153470687Y-85089326D01*
X153477882Y-85160605D01*
X153481362Y-85259380D01*
X153481652Y-85299261D01*
X153479877Y-85408194D01*
X153473132Y-85488627D01*
X153459735Y-85545766D01*
X153438006Y-85584817D01*
X153406263Y-85610988D01*
X153376583Y-85624659D01*
X153341706Y-85631577D01*
X153274851Y-85638544D01*
X153177908Y-85645465D01*
X153052766Y-85652243D01*
X152901315Y-85658784D01*
X152725443Y-85664991D01*
X152527040Y-85670770D01*
X152402402Y-85673887D01*
X152347369Y-85675187D01*
X152347369Y-86043897D01*
X152783402Y-86054885D01*
X152940467Y-86059046D01*
X153067383Y-86063054D01*
X153167861Y-86067310D01*
X153245614Y-86072211D01*
X153304356Y-86078158D01*
X153347797Y-86085548D01*
X153379651Y-86094781D01*
X153403631Y-86106256D01*
X153423448Y-86120371D01*
X153427943Y-86124150D01*
X153445592Y-86140341D01*
X153458097Y-86157507D01*
X153466505Y-86181562D01*
X153471865Y-86218421D01*
X153475223Y-86273995D01*
X153477627Y-86354201D01*
X153478948Y-86412150D01*
X153480354Y-86528692D01*
X153477839Y-86616450D01*
X153470122Y-86680401D01*
X153455916Y-86725525D01*
X153433938Y-86756800D01*
X153402904Y-86779206D01*
X153381618Y-86789506D01*
X153343779Y-86798559D01*
X153274080Y-86807124D01*
X153174525Y-86815101D01*
X153047119Y-86822389D01*
X152893866Y-86828887D01*
X152716771Y-86834494D01*
X152517839Y-86839109D01*
X152336189Y-86842134D01*
X152231875Y-86843587D01*
X152221055Y-86991754D01*
X152215216Y-87063810D01*
X152209091Y-87126627D01*
X152203738Y-87169715D01*
X152202279Y-87178020D01*
X152194323Y-87216120D01*
X152114647Y-87216120D01*
X152107340Y-87151259D01*
X152102021Y-87074655D01*
X152099788Y-86998195D01*
X152101358Y-86930381D01*
X152102465Y-86915367D01*
X152110005Y-86848221D01*
X152119891Y-86806879D01*
X152134748Y-86783280D01*
X152148663Y-86773449D01*
X152177028Y-86767353D01*
X152238074Y-86761553D01*
X152330614Y-86756108D01*
X152453463Y-86751077D01*
X152605436Y-86746519D01*
X152764966Y-86742892D01*
X152902051Y-86739815D01*
X153028320Y-86736324D01*
X153139792Y-86732580D01*
X153232486Y-86728745D01*
X153302421Y-86724978D01*
X153345617Y-86721442D01*
X153358215Y-86718918D01*
X153362833Y-86698566D01*
X153367562Y-86650379D01*
X153371991Y-86580382D01*
X153375711Y-86494604D01*
X153377473Y-86436394D01*
X153384348Y-86166254D01*
X152927436Y-86166254D01*
X152759480Y-86165539D01*
X152622039Y-86163169D01*
X152511788Y-86158805D01*
X152425399Y-86152109D01*
X152359547Y-86142741D01*
X152310907Y-86130364D01*
X152276152Y-86114637D01*
X152254366Y-86097713D01*
X152239701Y-86079619D01*
X152229939Y-86055752D01*
X152224111Y-86019424D01*
X152221249Y-85963948D01*
X152220386Y-85882634D01*
X152220369Y-85862779D01*
X152221935Y-85763316D01*
X152228291Y-85691910D01*
X152241921Y-85642830D01*
X152265311Y-85610344D01*
X152300945Y-85588722D01*
X152345674Y-85573777D01*
X152378694Y-85569273D01*
X152440825Y-85565239D01*
X152527313Y-85561822D01*
X152633403Y-85559170D01*
X152754340Y-85557431D01*
X152885371Y-85556752D01*
X152893469Y-85556748D01*
X153380302Y-85556654D01*
X153380302Y-85069302D01*
X152825735Y-85061495D01*
X152660346Y-85058898D01*
X152525479Y-85055926D01*
X152417789Y-85052132D01*
X152333931Y-85047071D01*
X152270562Y-85040296D01*
X152224336Y-85031360D01*
X152191909Y-85019817D01*
X152169936Y-85005219D01*
X152155073Y-84987121D01*
X152146503Y-84970814D01*
X152135893Y-84928909D01*
X152129290Y-84864833D01*
X152126554Y-84787699D01*
X152127545Y-84706618D01*
X152132126Y-84630703D01*
X152140156Y-84569066D01*
X152151498Y-84530820D01*
X152153255Y-84527974D01*
X152166999Y-84510689D01*
X152183890Y-84496065D01*
X152206690Y-84483882D01*
X152238163Y-84473921D01*
X152281069Y-84465963D01*
X152338171Y-84459786D01*
X152412230Y-84455172D01*
X152506009Y-84451900D01*
X152622270Y-84449751D01*
X152763775Y-84448506D01*
X152933285Y-84447943D01*
X153133563Y-84447844D01*
X153160169Y-84447853D01*
G36*
X153160169Y-84447853D02*
G01*
X153327672Y-84448180D01*
X153486567Y-84448989D01*
X153633299Y-84450227D01*
X153764315Y-84451841D01*
X153876058Y-84453778D01*
X153964975Y-84455986D01*
X154027511Y-84458411D01*
X154060111Y-84461001D01*
X154061663Y-84461282D01*
X154115750Y-84482434D01*
X154145262Y-84511749D01*
X154150772Y-84538752D01*
X154155719Y-84596314D01*
X154160105Y-84681251D01*
X154163930Y-84790378D01*
X154167197Y-84920513D01*
X154169908Y-85068472D01*
X154172065Y-85231069D01*
X154173668Y-85405122D01*
X154174721Y-85587446D01*
X154175225Y-85774858D01*
X154175181Y-85964173D01*
X154174592Y-86152207D01*
X154173460Y-86335778D01*
X154171785Y-86511700D01*
X154169570Y-86676790D01*
X154166817Y-86827863D01*
X154163528Y-86961736D01*
X154159704Y-87075226D01*
X154155347Y-87165147D01*
X154150459Y-87228316D01*
X154145041Y-87261550D01*
X154143702Y-87264655D01*
X154122153Y-87276208D01*
X154076249Y-87288918D01*
X154015303Y-87300287D01*
X154005797Y-87301672D01*
X153959450Y-87305813D01*
X153883720Y-87309731D01*
X153783094Y-87313380D01*
X153662053Y-87316715D01*
X153525084Y-87319689D01*
X153376670Y-87322256D01*
X153221295Y-87324369D01*
X153063444Y-87325983D01*
X152907601Y-87327052D01*
X152758250Y-87327528D01*
X152619876Y-87327367D01*
X152496963Y-87326522D01*
X152393994Y-87324946D01*
X152315455Y-87322594D01*
X152267286Y-87319571D01*
X152206080Y-87312170D01*
X152158989Y-87304270D01*
X152135360Y-87297469D01*
X152134645Y-87296908D01*
X152124369Y-87270888D01*
X152115028Y-87219504D01*
X152114647Y-87216120D01*
X152194323Y-87216120D01*
X154057635Y-87216120D01*
X154057635Y-84540654D01*
X152245769Y-84540654D01*
X152245769Y-84941702D01*
X152759097Y-84953387D01*
X152929821Y-84957761D01*
X153069873Y-84962651D01*
X153182444Y-84968493D01*
X153270728Y-84975719D01*
X153337920Y-84984765D01*
X153387211Y-84996063D01*
X153421796Y-85010049D01*
X153444867Y-85027156D01*
X153459618Y-85047817D01*
X153460045Y-85048654D01*
X153470687Y-85089326D01*
X153477882Y-85160605D01*
X153481362Y-85259380D01*
X153481652Y-85299261D01*
X153479877Y-85408194D01*
X153473132Y-85488627D01*
X153459735Y-85545766D01*
X153438006Y-85584817D01*
X153406263Y-85610988D01*
X153376583Y-85624659D01*
X153341706Y-85631577D01*
X153274851Y-85638544D01*
X153177908Y-85645465D01*
X153052766Y-85652243D01*
X152901315Y-85658784D01*
X152725443Y-85664991D01*
X152527040Y-85670770D01*
X152402402Y-85673887D01*
X152347369Y-85675187D01*
X152347369Y-86043897D01*
X152783402Y-86054885D01*
X152940467Y-86059046D01*
X153067383Y-86063054D01*
X153167861Y-86067310D01*
X153245614Y-86072211D01*
X153304356Y-86078158D01*
X153347797Y-86085548D01*
X153379651Y-86094781D01*
X153403631Y-86106256D01*
X153423448Y-86120371D01*
X153427943Y-86124150D01*
X153445592Y-86140341D01*
X153458097Y-86157507D01*
X153466505Y-86181562D01*
X153471865Y-86218421D01*
X153475223Y-86273995D01*
X153477627Y-86354201D01*
X153478948Y-86412150D01*
X153480354Y-86528692D01*
X153477839Y-86616450D01*
X153470122Y-86680401D01*
X153455916Y-86725525D01*
X153433938Y-86756800D01*
X153402904Y-86779206D01*
X153381618Y-86789506D01*
X153343779Y-86798559D01*
X153274080Y-86807124D01*
X153174525Y-86815101D01*
X153047119Y-86822389D01*
X152893866Y-86828887D01*
X152716771Y-86834494D01*
X152517839Y-86839109D01*
X152336189Y-86842134D01*
X152231875Y-86843587D01*
X152221055Y-86991754D01*
X152215216Y-87063810D01*
X152209091Y-87126627D01*
X152203738Y-87169715D01*
X152202279Y-87178020D01*
X152194323Y-87216120D01*
X152114647Y-87216120D01*
X152107340Y-87151259D01*
X152102021Y-87074655D01*
X152099788Y-86998195D01*
X152101358Y-86930381D01*
X152102465Y-86915367D01*
X152110005Y-86848221D01*
X152119891Y-86806879D01*
X152134748Y-86783280D01*
X152148663Y-86773449D01*
X152177028Y-86767353D01*
X152238074Y-86761553D01*
X152330614Y-86756108D01*
X152453463Y-86751077D01*
X152605436Y-86746519D01*
X152764966Y-86742892D01*
X152902051Y-86739815D01*
X153028320Y-86736324D01*
X153139792Y-86732580D01*
X153232486Y-86728745D01*
X153302421Y-86724978D01*
X153345617Y-86721442D01*
X153358215Y-86718918D01*
X153362833Y-86698566D01*
X153367562Y-86650379D01*
X153371991Y-86580382D01*
X153375711Y-86494604D01*
X153377473Y-86436394D01*
X153384348Y-86166254D01*
X152927436Y-86166254D01*
X152759480Y-86165539D01*
X152622039Y-86163169D01*
X152511788Y-86158805D01*
X152425399Y-86152109D01*
X152359547Y-86142741D01*
X152310907Y-86130364D01*
X152276152Y-86114637D01*
X152254366Y-86097713D01*
X152239701Y-86079619D01*
X152229939Y-86055752D01*
X152224111Y-86019424D01*
X152221249Y-85963948D01*
X152220386Y-85882634D01*
X152220369Y-85862779D01*
X152221935Y-85763316D01*
X152228291Y-85691910D01*
X152241921Y-85642830D01*
X152265311Y-85610344D01*
X152300945Y-85588722D01*
X152345674Y-85573777D01*
X152378694Y-85569273D01*
X152440825Y-85565239D01*
X152527313Y-85561822D01*
X152633403Y-85559170D01*
X152754340Y-85557431D01*
X152885371Y-85556752D01*
X152893469Y-85556748D01*
X153380302Y-85556654D01*
X153380302Y-85069302D01*
X152825735Y-85061495D01*
X152660346Y-85058898D01*
X152525479Y-85055926D01*
X152417789Y-85052132D01*
X152333931Y-85047071D01*
X152270562Y-85040296D01*
X152224336Y-85031360D01*
X152191909Y-85019817D01*
X152169936Y-85005219D01*
X152155073Y-84987121D01*
X152146503Y-84970814D01*
X152135893Y-84928909D01*
X152129290Y-84864833D01*
X152126554Y-84787699D01*
X152127545Y-84706618D01*
X152132126Y-84630703D01*
X152140156Y-84569066D01*
X152151498Y-84530820D01*
X152153255Y-84527974D01*
X152166999Y-84510689D01*
X152183890Y-84496065D01*
X152206690Y-84483882D01*
X152238163Y-84473921D01*
X152281069Y-84465963D01*
X152338171Y-84459786D01*
X152412230Y-84455172D01*
X152506009Y-84451900D01*
X152622270Y-84449751D01*
X152763775Y-84448506D01*
X152933285Y-84447943D01*
X153133563Y-84447844D01*
X153160169Y-84447853D01*
G37*
X157059276Y-84459601D02*
X157180704Y-84460815D01*
X157289075Y-84462747D01*
X157379986Y-84465384D01*
X157449032Y-84468713D01*
X157491811Y-84472722D01*
X157503895Y-84476043D01*
X157511958Y-84501280D01*
X157519337Y-84559707D01*
X157526012Y-84650654D01*
X157531963Y-84773452D01*
X157537171Y-84927430D01*
X157541616Y-85111918D01*
X157545279Y-85326247D01*
X157548141Y-85569746D01*
X157550181Y-85841745D01*
X157551290Y-86106987D01*
X157551634Y-86298139D01*
X157551591Y-86480116D01*
X157551188Y-86649952D01*
X157550447Y-86804682D01*
X157549394Y-86941340D01*
X157548052Y-87056959D01*
X157546448Y-87148575D01*
X157544604Y-87213221D01*
X157542546Y-87247932D01*
X157541834Y-87252274D01*
X157520774Y-87288458D01*
X157477836Y-87306595D01*
X157474101Y-87307333D01*
X157436036Y-87311301D01*
X157369075Y-87314871D01*
X157278186Y-87318006D01*
X157168337Y-87320666D01*
X157044497Y-87322814D01*
X156911634Y-87324408D01*
X156774716Y-87325412D01*
X156638711Y-87325787D01*
X156508589Y-87325493D01*
X156389317Y-87324491D01*
X156285864Y-87322743D01*
X156203198Y-87320211D01*
X156155858Y-87317630D01*
X156064359Y-87309048D01*
X155972810Y-87297372D01*
X155893718Y-87284347D01*
X155852038Y-87275250D01*
X155655855Y-87207266D01*
X155472910Y-87109694D01*
X155306207Y-86985231D01*
X155158748Y-86836572D01*
X155033536Y-86666413D01*
X154933573Y-86477449D01*
X154915701Y-86434705D01*
X154873339Y-86319166D01*
X154843911Y-86213033D01*
X154825516Y-86105411D01*
X154816251Y-85985403D01*
X154814830Y-85895320D01*
X154899158Y-85895320D01*
X154917710Y-86099674D01*
X154967716Y-86297068D01*
X155046940Y-86484010D01*
X155153147Y-86657008D01*
X155284101Y-86812568D01*
X155437568Y-86947198D01*
X155611312Y-87057405D01*
X155657835Y-87080818D01*
X155774576Y-87133656D01*
X155874002Y-87171041D01*
X155966939Y-87196368D01*
X156064212Y-87213030D01*
X156089393Y-87216115D01*
X156135778Y-87219469D01*
X156207574Y-87222151D01*
X156300301Y-87224184D01*
X156409482Y-87225590D01*
X156530639Y-87226392D01*
X156659294Y-87226613D01*
X156790967Y-87226277D01*
X156921181Y-87225405D01*
X157045459Y-87224020D01*
X157159320Y-87222147D01*
X157258288Y-87219806D01*
X157337884Y-87217022D01*
X157393630Y-87213818D01*
X157421047Y-87210215D01*
X157422900Y-87209308D01*
X157425004Y-87190733D01*
X157427144Y-87140882D01*
X157429283Y-87062347D01*
X157431385Y-86957719D01*
X157433414Y-86829589D01*
X157435336Y-86680547D01*
X157437113Y-86513186D01*
X157438710Y-86330095D01*
X157440091Y-86133867D01*
X157441220Y-85927092D01*
X157441493Y-85866192D01*
X157447150Y-84536004D01*
X157001226Y-84547364D01*
X156746002Y-84554801D01*
X156522165Y-84563423D01*
X156327248Y-84573462D01*
X156158784Y-84585151D01*
X156014306Y-84598722D01*
X155891348Y-84614406D01*
X155787442Y-84632438D01*
X155700123Y-84653049D01*
X155626923Y-84676471D01*
X155625581Y-84676971D01*
X155492889Y-84743616D01*
X155367001Y-84839387D01*
X155250590Y-84959798D01*
X155146334Y-85100361D01*
X155056908Y-85256589D01*
X154984986Y-85423994D01*
X154933245Y-85598090D01*
X154904360Y-85774388D01*
X154899158Y-85895320D01*
X154814830Y-85895320D01*
X154814162Y-85852987D01*
X154818839Y-85699114D01*
X154833278Y-85567503D01*
X154859947Y-85447345D01*
X154901312Y-85327833D01*
X154959838Y-85198157D01*
X154966776Y-85184120D01*
X155006184Y-85109000D01*
X155044836Y-85046654D01*
X155089619Y-84987870D01*
X155147421Y-84923435D01*
X155208391Y-84860894D01*
X155282145Y-84788591D01*
X155342449Y-84734955D01*
X155398276Y-84693275D01*
X155458600Y-84656837D01*
X155530835Y-84619693D01*
X155615352Y-84579968D01*
X155691464Y-84549004D01*
X155766005Y-84525327D01*
X155845813Y-84507459D01*
X155937722Y-84493926D01*
X156048570Y-84483252D01*
X156185191Y-84473960D01*
X156213614Y-84472288D01*
X156303133Y-84468116D01*
X156410421Y-84464752D01*
X156531075Y-84462183D01*
X156660692Y-84460397D01*
X156794866Y-84459379D01*
X156929196Y-84459118D01*
X157059276Y-84459601D01*
G36*
X157059276Y-84459601D02*
G01*
X157180704Y-84460815D01*
X157289075Y-84462747D01*
X157379986Y-84465384D01*
X157449032Y-84468713D01*
X157491811Y-84472722D01*
X157503895Y-84476043D01*
X157511958Y-84501280D01*
X157519337Y-84559707D01*
X157526012Y-84650654D01*
X157531963Y-84773452D01*
X157537171Y-84927430D01*
X157541616Y-85111918D01*
X157545279Y-85326247D01*
X157548141Y-85569746D01*
X157550181Y-85841745D01*
X157551290Y-86106987D01*
X157551634Y-86298139D01*
X157551591Y-86480116D01*
X157551188Y-86649952D01*
X157550447Y-86804682D01*
X157549394Y-86941340D01*
X157548052Y-87056959D01*
X157546448Y-87148575D01*
X157544604Y-87213221D01*
X157542546Y-87247932D01*
X157541834Y-87252274D01*
X157520774Y-87288458D01*
X157477836Y-87306595D01*
X157474101Y-87307333D01*
X157436036Y-87311301D01*
X157369075Y-87314871D01*
X157278186Y-87318006D01*
X157168337Y-87320666D01*
X157044497Y-87322814D01*
X156911634Y-87324408D01*
X156774716Y-87325412D01*
X156638711Y-87325787D01*
X156508589Y-87325493D01*
X156389317Y-87324491D01*
X156285864Y-87322743D01*
X156203198Y-87320211D01*
X156155858Y-87317630D01*
X156064359Y-87309048D01*
X155972810Y-87297372D01*
X155893718Y-87284347D01*
X155852038Y-87275250D01*
X155655855Y-87207266D01*
X155472910Y-87109694D01*
X155306207Y-86985231D01*
X155158748Y-86836572D01*
X155033536Y-86666413D01*
X154933573Y-86477449D01*
X154915701Y-86434705D01*
X154873339Y-86319166D01*
X154843911Y-86213033D01*
X154825516Y-86105411D01*
X154816251Y-85985403D01*
X154814830Y-85895320D01*
X154899158Y-85895320D01*
X154917710Y-86099674D01*
X154967716Y-86297068D01*
X155046940Y-86484010D01*
X155153147Y-86657008D01*
X155284101Y-86812568D01*
X155437568Y-86947198D01*
X155611312Y-87057405D01*
X155657835Y-87080818D01*
X155774576Y-87133656D01*
X155874002Y-87171041D01*
X155966939Y-87196368D01*
X156064212Y-87213030D01*
X156089393Y-87216115D01*
X156135778Y-87219469D01*
X156207574Y-87222151D01*
X156300301Y-87224184D01*
X156409482Y-87225590D01*
X156530639Y-87226392D01*
X156659294Y-87226613D01*
X156790967Y-87226277D01*
X156921181Y-87225405D01*
X157045459Y-87224020D01*
X157159320Y-87222147D01*
X157258288Y-87219806D01*
X157337884Y-87217022D01*
X157393630Y-87213818D01*
X157421047Y-87210215D01*
X157422900Y-87209308D01*
X157425004Y-87190733D01*
X157427144Y-87140882D01*
X157429283Y-87062347D01*
X157431385Y-86957719D01*
X157433414Y-86829589D01*
X157435336Y-86680547D01*
X157437113Y-86513186D01*
X157438710Y-86330095D01*
X157440091Y-86133867D01*
X157441220Y-85927092D01*
X157441493Y-85866192D01*
X157447150Y-84536004D01*
X157001226Y-84547364D01*
X156746002Y-84554801D01*
X156522165Y-84563423D01*
X156327248Y-84573462D01*
X156158784Y-84585151D01*
X156014306Y-84598722D01*
X155891348Y-84614406D01*
X155787442Y-84632438D01*
X155700123Y-84653049D01*
X155626923Y-84676471D01*
X155625581Y-84676971D01*
X155492889Y-84743616D01*
X155367001Y-84839387D01*
X155250590Y-84959798D01*
X155146334Y-85100361D01*
X155056908Y-85256589D01*
X154984986Y-85423994D01*
X154933245Y-85598090D01*
X154904360Y-85774388D01*
X154899158Y-85895320D01*
X154814830Y-85895320D01*
X154814162Y-85852987D01*
X154818839Y-85699114D01*
X154833278Y-85567503D01*
X154859947Y-85447345D01*
X154901312Y-85327833D01*
X154959838Y-85198157D01*
X154966776Y-85184120D01*
X155006184Y-85109000D01*
X155044836Y-85046654D01*
X155089619Y-84987870D01*
X155147421Y-84923435D01*
X155208391Y-84860894D01*
X155282145Y-84788591D01*
X155342449Y-84734955D01*
X155398276Y-84693275D01*
X155458600Y-84656837D01*
X155530835Y-84619693D01*
X155615352Y-84579968D01*
X155691464Y-84549004D01*
X155766005Y-84525327D01*
X155845813Y-84507459D01*
X155937722Y-84493926D01*
X156048570Y-84483252D01*
X156185191Y-84473960D01*
X156213614Y-84472288D01*
X156303133Y-84468116D01*
X156410421Y-84464752D01*
X156531075Y-84462183D01*
X156660692Y-84460397D01*
X156794866Y-84459379D01*
X156929196Y-84459118D01*
X157059276Y-84459601D01*
G37*
X146808914Y-72304086D02*
X146953191Y-72315011D01*
X147094963Y-72334261D01*
X147244566Y-72362980D01*
X147412334Y-72402315D01*
X147445169Y-72410589D01*
X147687460Y-72478284D01*
X147903908Y-72552931D01*
X148102400Y-72638428D01*
X148290821Y-72738669D01*
X148477057Y-72857550D01*
X148668994Y-72998967D01*
X148723635Y-73042174D01*
X148794003Y-73098014D01*
X148856065Y-73146266D01*
X148904550Y-73182907D01*
X148934189Y-73203917D01*
X148939716Y-73207097D01*
X148960483Y-73200029D01*
X148998771Y-73173723D01*
X149048159Y-73132896D01*
X149078799Y-73104950D01*
X149213515Y-72983280D01*
X149339346Y-72882415D01*
X149466459Y-72795159D01*
X149605018Y-72714316D01*
X149701829Y-72663908D01*
X149968948Y-72547708D01*
X150256536Y-72456356D01*
X150561717Y-72390164D01*
X150881614Y-72349446D01*
X151213349Y-72334515D01*
X151554046Y-72345685D01*
X151900828Y-72383269D01*
X152052331Y-72407850D01*
X152345763Y-72472903D01*
X152633966Y-72561380D01*
X152911853Y-72670981D01*
X153174339Y-72799407D01*
X153416339Y-72944357D01*
X153632766Y-73103533D01*
X153681305Y-73144433D01*
X153858368Y-73317670D01*
X154016652Y-73512477D01*
X154153022Y-73723540D01*
X154264342Y-73945546D01*
X154347476Y-74173184D01*
X154389372Y-74344043D01*
X154412517Y-74540637D01*
X154408035Y-74736935D01*
X154377708Y-74929309D01*
X154323319Y-75114131D01*
X154246649Y-75287775D01*
X154149479Y-75446612D01*
X154033592Y-75587016D01*
X153900768Y-75705359D01*
X153752790Y-75798012D01*
X153654144Y-75840992D01*
X153572879Y-75861330D01*
X153468099Y-75873696D01*
X153349201Y-75878101D01*
X153225582Y-75874560D01*
X153106639Y-75863083D01*
X153001769Y-75843685D01*
X152987864Y-75840101D01*
X152790130Y-75775262D01*
X152606173Y-75692158D01*
X152471775Y-75612879D01*
X152393951Y-75558334D01*
X152343283Y-75513169D01*
X152319097Y-75471232D01*
X152320716Y-75426372D01*
X152347463Y-75372438D01*
X152398664Y-75303278D01*
X152433122Y-75261187D01*
X152525216Y-75140481D01*
X152594849Y-75023869D01*
X152648791Y-74898343D01*
X152688672Y-74770121D01*
X152703524Y-74711180D01*
X152714152Y-74655774D01*
X152721240Y-74596275D01*
X152725471Y-74525056D01*
X152727526Y-74434490D01*
X152728080Y-74329854D01*
X152726633Y-74190939D01*
X152721151Y-74078254D01*
X152710376Y-73984275D01*
X152693050Y-73901478D01*
X152667914Y-73822341D01*
X152633711Y-73739340D01*
X152626747Y-73723958D01*
X152580603Y-73646106D01*
X152512608Y-73560646D01*
X152430676Y-73476130D01*
X152342719Y-73401106D01*
X152299000Y-73369856D01*
X152147519Y-73286960D01*
X151974848Y-73223203D01*
X151789173Y-73180877D01*
X151598682Y-73162269D01*
X151554246Y-73161586D01*
X151394760Y-73173103D01*
X151233540Y-73205544D01*
X151078108Y-73256167D01*
X150935985Y-73322231D01*
X150814696Y-73400992D01*
X150755555Y-73452703D01*
X150656763Y-73572755D01*
X150573743Y-73718450D01*
X150507931Y-73884746D01*
X150460764Y-74066602D01*
X150433679Y-74258979D01*
X150428112Y-74456835D01*
X150435629Y-74575387D01*
X150478643Y-74842191D01*
X150553940Y-75108299D01*
X150659975Y-75371422D01*
X150795203Y-75629273D01*
X150958078Y-75879563D01*
X151147054Y-76120004D01*
X151360585Y-76348307D01*
X151597126Y-76562185D01*
X151855131Y-76759349D01*
X151957902Y-76829034D01*
X152092493Y-76914136D01*
X152223067Y-76989498D01*
X152359613Y-77060403D01*
X152512123Y-77132137D01*
X152625291Y-77182032D01*
X152719196Y-77223344D01*
X152785967Y-77254847D01*
X152830000Y-77279089D01*
X152855692Y-77298620D01*
X152867441Y-77315990D01*
X152869314Y-77323523D01*
X152870326Y-77336495D01*
X152866941Y-77348334D01*
X152855602Y-77361068D01*
X152832757Y-77376725D01*
X152794849Y-77397331D01*
X152738325Y-77424915D01*
X152659629Y-77461503D01*
X152555206Y-77509123D01*
X152499769Y-77534287D01*
X152432630Y-77570546D01*
X152347216Y-77625408D01*
X152249772Y-77694117D01*
X152146543Y-77771916D01*
X152043773Y-77854048D01*
X151947709Y-77935756D01*
X151864594Y-78012283D01*
X151839369Y-78037320D01*
X151676033Y-78222752D01*
X151524855Y-78432168D01*
X151389516Y-78658616D01*
X151273694Y-78895141D01*
X151181070Y-79134788D01*
X151115324Y-79370605D01*
X151103595Y-79427743D01*
X151068244Y-79644898D01*
X151040273Y-79880541D01*
X151021308Y-80119786D01*
X151015896Y-80231121D01*
X151006298Y-80485121D01*
X151052923Y-80555297D01*
X151091175Y-80603314D01*
X151130673Y-80628073D01*
X151160425Y-80635544D01*
X151196444Y-80638527D01*
X151261832Y-80640925D01*
X151352096Y-80642752D01*
X151462742Y-80644025D01*
X151589278Y-80644761D01*
X151727211Y-80644976D01*
X151872048Y-80644684D01*
X152019296Y-80643904D01*
X152164463Y-80642650D01*
X152303056Y-80640940D01*
X152430581Y-80638788D01*
X152542545Y-80636211D01*
X152634457Y-80633226D01*
X152699104Y-80630026D01*
X152806807Y-80621724D01*
X152885947Y-80611356D01*
X152941829Y-80596785D01*
X152979759Y-80575872D01*
X153005039Y-80546481D01*
X153022976Y-80506474D01*
X153025691Y-80498420D01*
X153040078Y-80461618D01*
X153066373Y-80401132D01*
X153101546Y-80323671D01*
X153113150Y-80298854D01*
X153380302Y-80298854D01*
X153388769Y-80307321D01*
X153397235Y-80298854D01*
X153388769Y-80290387D01*
X153380302Y-80298854D01*
X153113150Y-80298854D01*
X153142568Y-80235946D01*
X153171135Y-80176184D01*
X153212419Y-80089160D01*
X153247916Y-80011609D01*
X153275170Y-79949121D01*
X153291722Y-79907291D01*
X153295635Y-79892941D01*
X153281372Y-79862993D01*
X153237528Y-79835481D01*
X153162521Y-79809629D01*
X153089569Y-79791876D01*
X153025073Y-79775445D01*
X152972577Y-79757558D01*
X152941834Y-79741637D01*
X152939294Y-79739161D01*
X152927921Y-79700900D01*
X152935726Y-79642866D01*
X152940928Y-79627463D01*
X153075929Y-79627463D01*
X153091827Y-79657256D01*
X153133488Y-79677373D01*
X153147469Y-79681336D01*
X153267386Y-79714063D01*
X153354110Y-79740966D01*
X153407565Y-79762023D01*
X153412097Y-79764345D01*
X153448002Y-79801618D01*
X153466504Y-79861160D01*
X153467383Y-79936057D01*
X153450417Y-80019392D01*
X153422541Y-80090183D01*
X153392143Y-80152446D01*
X153438703Y-80207780D01*
X153470040Y-80253589D01*
X153478646Y-80295489D01*
X153476482Y-80317225D01*
X153475291Y-80350065D01*
X153486201Y-80380313D01*
X153513467Y-80413237D01*
X153561342Y-80454105D01*
X153625835Y-80502230D01*
X153769587Y-80617572D01*
X153899674Y-80744051D01*
X154010593Y-80875530D01*
X154096841Y-81005873D01*
X154123700Y-81057365D01*
X154149677Y-81115656D01*
X154182592Y-81195112D01*
X154218090Y-81284972D01*
X154249605Y-81368451D01*
X154331557Y-81571972D01*
X154417532Y-81743892D01*
X154510495Y-81886461D01*
X154613416Y-82001928D01*
X154729260Y-82092544D01*
X154860995Y-82160557D01*
X155011587Y-82208218D01*
X155184005Y-82237776D01*
X155381215Y-82251480D01*
X155415433Y-82252355D01*
X155480916Y-82251145D01*
X155538391Y-82245700D01*
X155571374Y-82238403D01*
X155613729Y-82205111D01*
X155642044Y-82158045D01*
X155802677Y-82158045D01*
X155804961Y-82169987D01*
X155828203Y-82162842D01*
X155868737Y-82144884D01*
X155886556Y-82136059D01*
X155949462Y-82095416D01*
X156024215Y-82033840D01*
X156103548Y-81958357D01*
X156180197Y-81875992D01*
X156246896Y-81793771D01*
X156261653Y-81773367D01*
X156334231Y-81655297D01*
X156385374Y-81534949D01*
X156417468Y-81404032D01*
X156432900Y-81254261D01*
X156435106Y-81170921D01*
X156435187Y-81080670D01*
X156433176Y-81015479D01*
X156427752Y-80966545D01*
X156417593Y-80925071D01*
X156401380Y-80882256D01*
X156386810Y-80849187D01*
X156325631Y-80728089D01*
X156253624Y-80608930D01*
X156177082Y-80501137D01*
X156102295Y-80414137D01*
X156085251Y-80397346D01*
X156032865Y-80350605D01*
X155977012Y-80305246D01*
X155924089Y-80265902D01*
X155880495Y-80237208D01*
X155852628Y-80223797D01*
X155846469Y-80224409D01*
X155847261Y-80242570D01*
X155853070Y-80288050D01*
X155863024Y-80354817D01*
X155876252Y-80436838D01*
X155882960Y-80476654D01*
X155897121Y-80563862D01*
X155907761Y-80641946D01*
X155915370Y-80718356D01*
X155920438Y-80800541D01*
X155923454Y-80895953D01*
X155924909Y-81012041D01*
X155925273Y-81120121D01*
X155924399Y-81287542D01*
X155920916Y-81428239D01*
X155914100Y-81549298D01*
X155903230Y-81657811D01*
X155887581Y-81760864D01*
X155866432Y-81865546D01*
X155839060Y-81978947D01*
X155836788Y-81987800D01*
X155819321Y-82060525D01*
X155807570Y-82119454D01*
X155802677Y-82158045D01*
X155642044Y-82158045D01*
X155653534Y-82138946D01*
X155690478Y-82040831D01*
X155724254Y-81911683D01*
X155754551Y-81752424D01*
X155770622Y-81645054D01*
X155778835Y-81563509D01*
X155785122Y-81457342D01*
X155789486Y-81333336D01*
X155791929Y-81198273D01*
X155792456Y-81058933D01*
X155791069Y-80922099D01*
X155787772Y-80794553D01*
X155782566Y-80683077D01*
X155775457Y-80594452D01*
X155770127Y-80554155D01*
X155718258Y-80310074D01*
X155647546Y-80091641D01*
X155556267Y-79895279D01*
X155442692Y-79717411D01*
X155305095Y-79554462D01*
X155270530Y-79519371D01*
X155128318Y-79394017D01*
X154975151Y-79286429D01*
X154817193Y-79200011D01*
X154660607Y-79138165D01*
X154521142Y-79105614D01*
X154408955Y-79094717D01*
X154277110Y-79090440D01*
X154134688Y-79092326D01*
X153990766Y-79099921D01*
X153854424Y-79112768D01*
X153734740Y-79130411D01*
X153651235Y-79149305D01*
X153528696Y-79194302D01*
X153407752Y-79257003D01*
X153295955Y-79332180D01*
X153200858Y-79414605D01*
X153130012Y-79499052D01*
X153117721Y-79518588D01*
X153084869Y-79582929D01*
X153075929Y-79627463D01*
X152940928Y-79627463D01*
X152959966Y-79571097D01*
X152997896Y-79491635D01*
X153046772Y-79410518D01*
X153103850Y-79333787D01*
X153143515Y-79289670D01*
X153245180Y-79202527D01*
X153365969Y-79130566D01*
X153508514Y-79072907D01*
X153675448Y-79028669D01*
X153869404Y-78996971D01*
X154074569Y-78978088D01*
X154244196Y-78964551D01*
X154381355Y-78947941D01*
X154487325Y-78928063D01*
X154563382Y-78904719D01*
X154570974Y-78901493D01*
X154650876Y-78872164D01*
X154754280Y-78842953D01*
X154870891Y-78816134D01*
X154990412Y-78793983D01*
X155102548Y-78778774D01*
X155142550Y-78775180D01*
X155324305Y-78771288D01*
X155519787Y-78783787D01*
X155718384Y-78811080D01*
X155909485Y-78851572D01*
X156082478Y-78903667D01*
X156138095Y-78924879D01*
X156202385Y-78948678D01*
X156244994Y-78957695D01*
X156273937Y-78953424D01*
X156278792Y-78951107D01*
X156317637Y-78947795D01*
X156377676Y-78965518D01*
X156455135Y-79002430D01*
X156546238Y-79056689D01*
X156647210Y-79126451D01*
X156665369Y-79139932D01*
X156748076Y-79205822D01*
X156838208Y-79284289D01*
X156932387Y-79371721D01*
X157027236Y-79464508D01*
X157119378Y-79559042D01*
X157205435Y-79651712D01*
X157282030Y-79738909D01*
X157345787Y-79817021D01*
X157393326Y-79882440D01*
X157421273Y-79931556D01*
X157427369Y-79954418D01*
X157434796Y-79978465D01*
X157454598Y-80023975D01*
X157483056Y-80082613D01*
X157494874Y-80105662D01*
X157547857Y-80219891D01*
X157600849Y-80356344D01*
X157649924Y-80503604D01*
X157691152Y-80650257D01*
X157709946Y-80730654D01*
X157727190Y-80841424D01*
X157738181Y-80976244D01*
X157743007Y-81125899D01*
X157741755Y-81281171D01*
X157734512Y-81432843D01*
X157721366Y-81571699D01*
X157702403Y-81688521D01*
X157700812Y-81695854D01*
X157659415Y-81856172D01*
X157606862Y-82018586D01*
X157547383Y-82171233D01*
X157485208Y-82302247D01*
X157483488Y-82305454D01*
X157329560Y-82559678D01*
X157155964Y-82786445D01*
X156961944Y-82986396D01*
X156746740Y-83160169D01*
X156509596Y-83308404D01*
X156249755Y-83431740D01*
X156070191Y-83498239D01*
X155903898Y-83548117D01*
X155748060Y-83581813D01*
X155591051Y-83600921D01*
X155421247Y-83607033D01*
X155293769Y-83604623D01*
X155139754Y-83596531D01*
X155005603Y-83582972D01*
X154878483Y-83561830D01*
X154745559Y-83530989D01*
X154601188Y-83490474D01*
X154434223Y-83440873D01*
X154293182Y-83492347D01*
X154171934Y-83532272D01*
X154026813Y-83573023D01*
X153867656Y-83612155D01*
X153704298Y-83647224D01*
X153572112Y-83671571D01*
X153475084Y-83683852D01*
X153351315Y-83693296D01*
X153207810Y-83699897D01*
X153051576Y-83703652D01*
X152889619Y-83704554D01*
X152728945Y-83702600D01*
X152576562Y-83697783D01*
X152439474Y-83690099D01*
X152324689Y-83679544D01*
X152273440Y-83672486D01*
X151878472Y-83593213D01*
X151502460Y-83485957D01*
X151144864Y-83350428D01*
X150805143Y-83186334D01*
X150482755Y-82993386D01*
X150195901Y-82784912D01*
X150389066Y-82784912D01*
X150398965Y-82796700D01*
X150433442Y-82821904D01*
X150487488Y-82857459D01*
X150556093Y-82900303D01*
X150634248Y-82947374D01*
X150716944Y-82995608D01*
X150799170Y-83041943D01*
X150875918Y-83083316D01*
X150884238Y-83087654D01*
X151111574Y-83200357D01*
X151323008Y-83293153D01*
X151527385Y-83369251D01*
X151733548Y-83431863D01*
X151950345Y-83484200D01*
X152011832Y-83496982D01*
X152143028Y-83520981D01*
X152290987Y-83544009D01*
X152444897Y-83564680D01*
X152593944Y-83581608D01*
X152727315Y-83593407D01*
X152796102Y-83597483D01*
X152868181Y-83600641D01*
X152937310Y-83603661D01*
X152982369Y-83605620D01*
X153026414Y-83605458D01*
X153094459Y-83602789D01*
X153176765Y-83598081D01*
X153253302Y-83592618D01*
X153355497Y-83582607D01*
X153466779Y-83568502D01*
X153570864Y-83552501D01*
X153625835Y-83542350D01*
X153740106Y-83518448D01*
X153853335Y-83493443D01*
X153960729Y-83468528D01*
X154057494Y-83444899D01*
X154138835Y-83423748D01*
X154199959Y-83406271D01*
X154236072Y-83393661D01*
X154243902Y-83388375D01*
X154230268Y-83374142D01*
X154194589Y-83349415D01*
X154146535Y-83320672D01*
X154027092Y-83245511D01*
X153892875Y-83146880D01*
X153749023Y-83028700D01*
X153657541Y-82947596D01*
X153581250Y-82877841D01*
X153524506Y-82827686D01*
X153481045Y-82794806D01*
X153444603Y-82776875D01*
X153408918Y-82771564D01*
X153367727Y-82776549D01*
X153314766Y-82789502D01*
X153266405Y-82802306D01*
X153100075Y-82842486D01*
X152908367Y-82883576D01*
X152699678Y-82924027D01*
X152482408Y-82962287D01*
X152264955Y-82996808D01*
X152055717Y-83026038D01*
X152051035Y-83026640D01*
X151828073Y-83045153D01*
X151601922Y-83042904D01*
X151363369Y-83019592D01*
X151238235Y-83000231D01*
X151091019Y-82972812D01*
X150940370Y-82940856D01*
X150794613Y-82906376D01*
X150662071Y-82871392D01*
X150551071Y-82837917D01*
X150510723Y-82824013D01*
X150453481Y-82803848D01*
X150410450Y-82789890D01*
X150389755Y-82784749D01*
X150389066Y-82784912D01*
X150195901Y-82784912D01*
X150177160Y-82771292D01*
X149887818Y-82519761D01*
X149620454Y-82245469D01*
X149552210Y-82169122D01*
X149487980Y-82096137D01*
X149432962Y-82032504D01*
X149392351Y-81984208D01*
X149376720Y-81964635D01*
X149325411Y-81897453D01*
X151526102Y-81897453D01*
X151670035Y-82043571D01*
X151772811Y-82143055D01*
X151885305Y-82243646D01*
X152000293Y-82339426D01*
X152110550Y-82424477D01*
X152208852Y-82492879D01*
X152248198Y-82517202D01*
X152350763Y-82572904D01*
X152449660Y-82615884D01*
X152558103Y-82651251D01*
X152665824Y-82678718D01*
X152738994Y-82696018D01*
X152805342Y-82712114D01*
X152853650Y-82724272D01*
X152863835Y-82726984D01*
X152926707Y-82734761D01*
X153014015Y-82731978D01*
X153118155Y-82719047D01*
X153164640Y-82710773D01*
X153246463Y-82690751D01*
X153310512Y-82666736D01*
X153351235Y-82641267D01*
X153363369Y-82619913D01*
X153354680Y-82592899D01*
X153332020Y-82548102D01*
X153303681Y-82500671D01*
X153270079Y-82444858D01*
X153230835Y-82374576D01*
X153189198Y-82296291D01*
X153148418Y-82216469D01*
X153111745Y-82141576D01*
X153082428Y-82078078D01*
X153063718Y-82032441D01*
X153058569Y-82012981D01*
X153048504Y-81982099D01*
X153026213Y-81947496D01*
X152993857Y-81907521D01*
X152259980Y-81902487D01*
X151526102Y-81897453D01*
X149325411Y-81897453D01*
X149324769Y-81896613D01*
X148960702Y-81902676D01*
X148826255Y-81905576D01*
X148722155Y-81909425D01*
X148644889Y-81914478D01*
X148590944Y-81920989D01*
X148556807Y-81929216D01*
X148548769Y-81932606D01*
X148519236Y-81955621D01*
X148476298Y-81999472D01*
X148426198Y-82057414D01*
X148384837Y-82109797D01*
X148257842Y-82269738D01*
X148131858Y-82410761D01*
X147995691Y-82544747D01*
X147868502Y-82657767D01*
X147579114Y-82883736D01*
X147267253Y-83086130D01*
X146936076Y-83263508D01*
X146588743Y-83414427D01*
X146228411Y-83537448D01*
X145858239Y-83631129D01*
X145650235Y-83669847D01*
X145561502Y-83680807D01*
X145446299Y-83689850D01*
X145311508Y-83696890D01*
X145164010Y-83701841D01*
X145010687Y-83704615D01*
X144858420Y-83705127D01*
X144714091Y-83703289D01*
X144584580Y-83699016D01*
X144476769Y-83692221D01*
X144414102Y-83685390D01*
X144123810Y-83635276D01*
X143857201Y-83569670D01*
X143606817Y-83486398D01*
X143365204Y-83383286D01*
X143344758Y-83373501D01*
X143101183Y-83243581D01*
X142971511Y-83158049D01*
X143124063Y-83158049D01*
X143134361Y-83168746D01*
X143170622Y-83190436D01*
X143227711Y-83220697D01*
X143300495Y-83257107D01*
X143383837Y-83297245D01*
X143472606Y-83338689D01*
X143561665Y-83379018D01*
X143645881Y-83415810D01*
X143720120Y-83446644D01*
X143779246Y-83469097D01*
X143794369Y-83474192D01*
X143945607Y-83517373D01*
X144115778Y-83556899D01*
X144289954Y-83589573D01*
X144422569Y-83608682D01*
X144510984Y-83615855D01*
X144625818Y-83619880D01*
X144759787Y-83620955D01*
X144905608Y-83619279D01*
X145055999Y-83615051D01*
X145203677Y-83608468D01*
X145341358Y-83599730D01*
X145461761Y-83589034D01*
X145548635Y-83578005D01*
X145880919Y-83513527D01*
X146211792Y-83424187D01*
X146536156Y-83312131D01*
X146848911Y-83179507D01*
X147144956Y-83028461D01*
X147419192Y-82861139D01*
X147648369Y-82694255D01*
X147795086Y-82569937D01*
X147949548Y-82425633D01*
X148102334Y-82270552D01*
X148244023Y-82113901D01*
X148254018Y-82102254D01*
X148333396Y-82013386D01*
X148407005Y-81938605D01*
X148471209Y-81881166D01*
X148522372Y-81844320D01*
X148556850Y-81831321D01*
X148569987Y-81817756D01*
X148571235Y-81808472D01*
X148578288Y-81786164D01*
X148596497Y-81742205D01*
X148752722Y-81742205D01*
X148753178Y-81748956D01*
X148771394Y-81750591D01*
X148821436Y-81752274D01*
X148901265Y-81753988D01*
X149008841Y-81755713D01*
X149142124Y-81757430D01*
X149299074Y-81759121D01*
X149477651Y-81760767D01*
X149675815Y-81762349D01*
X149891526Y-81763848D01*
X150122744Y-81765246D01*
X150367429Y-81766524D01*
X150623542Y-81767663D01*
X150889042Y-81768644D01*
X150891102Y-81768650D01*
X151157385Y-81769633D01*
X151414763Y-81770776D01*
X151661152Y-81772060D01*
X151894470Y-81773467D01*
X152112634Y-81774977D01*
X152313561Y-81776572D01*
X152495169Y-81778231D01*
X152655375Y-81779938D01*
X152792096Y-81781671D01*
X152903250Y-81783413D01*
X152986754Y-81785144D01*
X153040525Y-81786846D01*
X153062397Y-81788474D01*
X153081857Y-81797500D01*
X153102018Y-81816371D01*
X153125668Y-81849418D01*
X153155600Y-81900968D01*
X153194603Y-81975349D01*
X153235893Y-82057584D01*
X153309265Y-82205295D01*
X153369935Y-82326524D01*
X153420456Y-82425022D01*
X153463384Y-82504543D01*
X153501273Y-82568840D01*
X153536678Y-82621664D01*
X153572152Y-82666768D01*
X153610251Y-82707905D01*
X153653528Y-82748827D01*
X153704539Y-82793288D01*
X153765838Y-82845040D01*
X153780119Y-82857069D01*
X153863055Y-82926098D01*
X153944583Y-82992376D01*
X154018185Y-83050717D01*
X154077341Y-83095932D01*
X154107472Y-83117545D01*
X154294150Y-83227034D01*
X154506741Y-83320777D01*
X154740279Y-83396938D01*
X154989797Y-83453681D01*
X155039769Y-83462306D01*
X155100604Y-83468370D01*
X155186770Y-83471816D01*
X155289846Y-83472817D01*
X155401412Y-83471549D01*
X155513046Y-83468188D01*
X155616327Y-83462908D01*
X155702836Y-83455884D01*
X155764151Y-83447291D01*
X155764382Y-83447244D01*
X156028924Y-83376300D01*
X156282117Y-83274601D01*
X156521455Y-83144084D01*
X156744430Y-82986684D01*
X156948537Y-82804339D01*
X157131269Y-82598984D01*
X157290120Y-82372558D01*
X157392419Y-82189392D01*
X157491590Y-81960094D01*
X157561540Y-81724008D01*
X157603400Y-81476164D01*
X157618302Y-81211586D01*
X157618362Y-81196321D01*
X157602798Y-80916195D01*
X157555625Y-80647406D01*
X157477267Y-80390988D01*
X157368147Y-80147976D01*
X157228690Y-79919407D01*
X157059317Y-79706315D01*
X156970701Y-79613002D01*
X156771863Y-79436476D01*
X156548643Y-79279546D01*
X156299092Y-79140957D01*
X156088600Y-79046295D01*
X155919556Y-78988301D01*
X155734755Y-78944771D01*
X155541429Y-78916138D01*
X155346811Y-78902834D01*
X155158133Y-78905292D01*
X154982628Y-78923943D01*
X154827527Y-78959221D01*
X154797351Y-78969085D01*
X154748371Y-78986859D01*
X154727580Y-78998133D01*
X154731017Y-79007050D01*
X154751902Y-79016626D01*
X154979007Y-79123598D01*
X155182105Y-79253068D01*
X155362838Y-79406570D01*
X155522847Y-79585636D01*
X155663773Y-79791800D01*
X155749545Y-79948262D01*
X155780201Y-80002708D01*
X155809648Y-80043941D01*
X155831631Y-80063231D01*
X155832037Y-80063358D01*
X155919381Y-80100266D01*
X156017787Y-80160739D01*
X156120804Y-80239351D01*
X156221985Y-80330680D01*
X156314880Y-80429300D01*
X156393041Y-80529787D01*
X156401615Y-80542451D01*
X156445818Y-80617675D01*
X156489617Y-80706464D01*
X156523606Y-80789736D01*
X156523895Y-80790566D01*
X156543102Y-80848719D01*
X156556271Y-80899331D01*
X156564533Y-80951304D01*
X156569021Y-81013538D01*
X156570865Y-81094935D01*
X156571183Y-81162454D01*
X156568754Y-81296804D01*
X156559618Y-81407740D01*
X156541617Y-81505410D01*
X156512594Y-81599960D01*
X156470390Y-81701536D01*
X156445130Y-81755121D01*
X156345080Y-81923953D01*
X156218316Y-82075386D01*
X156125261Y-82160317D01*
X156034875Y-82228259D01*
X155945744Y-82281118D01*
X155852210Y-82320328D01*
X155748612Y-82347323D01*
X155629293Y-82363536D01*
X155488593Y-82370403D01*
X155320853Y-82369356D01*
X155302235Y-82368867D01*
X155191612Y-82365291D01*
X155107325Y-82360929D01*
X155041845Y-82354827D01*
X154987640Y-82346029D01*
X154937182Y-82333581D01*
X154882939Y-82316526D01*
X154878902Y-82315168D01*
X154705267Y-82239299D01*
X154550793Y-82135636D01*
X154416377Y-82004905D01*
X154304534Y-81850502D01*
X154275094Y-81796123D01*
X154238504Y-81719750D01*
X154199260Y-81631190D01*
X154161856Y-81540249D01*
X154159041Y-81533071D01*
X154093465Y-81368714D01*
X154034852Y-81231691D01*
X153979868Y-81117071D01*
X153925180Y-81019925D01*
X153867456Y-80935322D01*
X153803360Y-80858333D01*
X153729561Y-80784028D01*
X153642725Y-80707477D01*
X153549635Y-80631764D01*
X153481461Y-80576985D01*
X153418282Y-80525021D01*
X153367594Y-80482106D01*
X153338987Y-80456506D01*
X153302414Y-80426273D01*
X153272965Y-80409887D01*
X153267631Y-80408921D01*
X153241596Y-80423884D01*
X153209260Y-80464231D01*
X153174819Y-80523146D01*
X153142467Y-80593813D01*
X153125552Y-80639773D01*
X153103306Y-80695835D01*
X153079793Y-80738349D01*
X153061910Y-80756822D01*
X153041515Y-80758523D01*
X152989415Y-80760369D01*
X152907772Y-80762333D01*
X152798750Y-80764387D01*
X152664510Y-80766506D01*
X152507213Y-80768660D01*
X152329023Y-80770825D01*
X152132101Y-80772971D01*
X151918608Y-80775072D01*
X151690708Y-80777101D01*
X151450562Y-80779030D01*
X151200332Y-80780833D01*
X151096643Y-80781521D01*
X150793031Y-80783538D01*
X150521585Y-80785468D01*
X150280603Y-80787341D01*
X150068384Y-80789190D01*
X149883228Y-80791045D01*
X149723433Y-80792938D01*
X149587298Y-80794899D01*
X149473122Y-80796961D01*
X149379204Y-80799154D01*
X149303843Y-80801510D01*
X149245339Y-80804060D01*
X149201989Y-80806835D01*
X149172093Y-80809866D01*
X149153949Y-80813185D01*
X149145858Y-80816823D01*
X149145416Y-80817383D01*
X149133759Y-80841106D01*
X149112204Y-80889613D01*
X149083607Y-80956317D01*
X149050825Y-81034629D01*
X149043490Y-81052387D01*
X149002039Y-81151015D01*
X148952260Y-81266466D01*
X148900186Y-81384897D01*
X148851851Y-81492461D01*
X148848326Y-81500183D01*
X148811846Y-81582500D01*
X148782326Y-81654003D01*
X148761905Y-81709102D01*
X148752722Y-81742205D01*
X148596497Y-81742205D01*
X148597795Y-81739074D01*
X148627276Y-81672817D01*
X148664255Y-81593007D01*
X148692686Y-81533305D01*
X148742877Y-81426156D01*
X148799654Y-81300290D01*
X148857342Y-81168557D01*
X148910270Y-81043810D01*
X148931127Y-80993121D01*
X148973403Y-80886737D01*
X149008036Y-80792309D01*
X149035793Y-80704735D01*
X149057444Y-80618915D01*
X149073757Y-80529750D01*
X149085502Y-80432140D01*
X149093447Y-80320986D01*
X149098361Y-80191186D01*
X149101012Y-80037642D01*
X149102159Y-79858587D01*
X149102170Y-79689584D01*
X149100642Y-79549525D01*
X149097141Y-79433504D01*
X149091230Y-79336617D01*
X149082477Y-79253958D01*
X149070446Y-79180623D01*
X149054703Y-79111707D01*
X149034812Y-79042304D01*
X149027885Y-79020387D01*
X148974364Y-78879233D01*
X148901628Y-78724095D01*
X148815006Y-78564324D01*
X148719826Y-78409275D01*
X148621418Y-78268298D01*
X148545499Y-78173721D01*
X148438261Y-78065623D01*
X148300043Y-77952392D01*
X148133073Y-77835541D01*
X147939578Y-77716587D01*
X147721787Y-77597042D01*
X147625090Y-77547763D01*
X147495029Y-77486068D01*
X147368581Y-77433452D01*
X147241718Y-77389220D01*
X147131096Y-77358431D01*
X147494274Y-77358431D01*
X147506564Y-77368380D01*
X147514446Y-77371361D01*
X147541345Y-77382746D01*
X147591888Y-77405733D01*
X147659240Y-77437160D01*
X147736564Y-77473866D01*
X147749969Y-77480288D01*
X148016347Y-77625149D01*
X148263634Y-77794284D01*
X148488871Y-77985225D01*
X148689100Y-78195505D01*
X148836786Y-78386690D01*
X148878740Y-78445816D01*
X148913605Y-78492929D01*
X148936916Y-78522110D01*
X148943943Y-78528697D01*
X148957284Y-78516399D01*
X148985789Y-78482929D01*
X149024437Y-78434312D01*
X149045543Y-78406802D01*
X149248243Y-78167145D01*
X149477711Y-77946238D01*
X149731134Y-77746339D01*
X150005701Y-77569703D01*
X150246543Y-77442902D01*
X150464610Y-77338840D01*
X150334956Y-77260862D01*
X150225251Y-77192262D01*
X150102284Y-77111005D01*
X149974187Y-77022817D01*
X149849091Y-76933423D01*
X149735126Y-76848550D01*
X149640425Y-76773924D01*
X149623175Y-76759612D01*
X149543068Y-76689125D01*
X149451665Y-76603419D01*
X149354964Y-76508617D01*
X149258961Y-76410843D01*
X149169655Y-76316218D01*
X149093042Y-76230867D01*
X149035120Y-76160913D01*
X149029249Y-76153234D01*
X148993359Y-76106113D01*
X148966644Y-76071824D01*
X148954417Y-76057176D01*
X148954202Y-76057054D01*
X148942050Y-76068498D01*
X148908856Y-76100869D01*
X148857603Y-76151228D01*
X148791276Y-76216634D01*
X148712859Y-76294149D01*
X148625336Y-76380832D01*
X148596403Y-76409521D01*
X148475858Y-76528022D01*
X148371943Y-76627406D01*
X148278191Y-76713327D01*
X148188137Y-76791440D01*
X148095317Y-76867399D01*
X147993265Y-76946857D01*
X147910835Y-77009115D01*
X147815741Y-77080894D01*
X147727184Y-77148882D01*
X147649644Y-77209550D01*
X147587600Y-77259369D01*
X147545530Y-77294810D01*
X147531380Y-77308080D01*
X147501820Y-77341041D01*
X147494274Y-77358431D01*
X147131096Y-77358431D01*
X147110415Y-77352675D01*
X146970644Y-77323124D01*
X146818378Y-77299872D01*
X146649592Y-77282222D01*
X146460258Y-77269480D01*
X146246350Y-77260951D01*
X146003841Y-77255939D01*
X145929635Y-77255065D01*
X145798896Y-77253904D01*
X145696611Y-77253636D01*
X145617371Y-77254616D01*
X145555769Y-77257195D01*
X145506395Y-77261729D01*
X145463842Y-77268569D01*
X145422701Y-77278070D01*
X145377564Y-77290585D01*
X145375069Y-77291307D01*
X145312077Y-77310941D01*
X145263844Y-77328629D01*
X145237857Y-77341510D01*
X145235369Y-77344652D01*
X145249203Y-77357429D01*
X145287104Y-77383395D01*
X145343663Y-77419056D01*
X145413475Y-77460916D01*
X145431587Y-77471488D01*
X145697796Y-77641287D01*
X145934969Y-77825549D01*
X146145930Y-78027258D01*
X146333505Y-78249400D01*
X146500521Y-78494961D01*
X146641116Y-78749454D01*
X146707627Y-78887278D01*
X146763721Y-79015939D01*
X146810388Y-79140245D01*
X146848616Y-79265004D01*
X146879395Y-79395023D01*
X146903716Y-79535111D01*
X146922566Y-79690074D01*
X146936936Y-79864721D01*
X146947815Y-80063860D01*
X146955762Y-80278287D01*
X146967756Y-80664120D01*
X146918595Y-80715777D01*
X146877708Y-80755307D01*
X146838818Y-80781750D01*
X146792992Y-80798321D01*
X146731291Y-80808235D01*
X146644780Y-80814707D01*
X146643407Y-80814785D01*
X146485112Y-80823787D01*
X146447192Y-80942321D01*
X146416844Y-81026953D01*
X146374229Y-81132011D01*
X146323506Y-81248304D01*
X146268836Y-81366641D01*
X146214379Y-81477832D01*
X146164295Y-81572686D01*
X146152136Y-81594175D01*
X146119783Y-81652044D01*
X146095332Y-81699121D01*
X146082843Y-81727468D01*
X146082035Y-81731208D01*
X146097384Y-81739521D01*
X146137134Y-81745166D01*
X146179402Y-81746748D01*
X146283409Y-81754286D01*
X146370579Y-81775342D01*
X146436604Y-81807907D01*
X146477176Y-81849968D01*
X146488435Y-81890998D01*
X146475612Y-81932552D01*
X146439757Y-81990550D01*
X146384787Y-82060927D01*
X146314623Y-82139621D01*
X146233182Y-82222567D01*
X146144385Y-82305702D01*
X146052149Y-82384962D01*
X145960395Y-82456283D01*
X145907523Y-82493361D01*
X145823474Y-82545761D01*
X145715972Y-82607045D01*
X145592877Y-82673210D01*
X145462055Y-82740248D01*
X145331368Y-82804155D01*
X145208679Y-82860924D01*
X145101851Y-82906552D01*
X145077718Y-82916067D01*
X144990600Y-82946357D01*
X144877696Y-82980633D01*
X144746563Y-83016974D01*
X144604763Y-83053457D01*
X144459854Y-83088161D01*
X144319397Y-83119163D01*
X144190951Y-83144542D01*
X144151635Y-83151502D01*
X143965597Y-83177640D01*
X143777978Y-83193592D01*
X143597286Y-83199086D01*
X143432028Y-83193847D01*
X143298329Y-83178889D01*
X143227228Y-83167908D01*
X143169679Y-83160407D01*
X143133111Y-83157275D01*
X143124063Y-83158049D01*
X142971511Y-83158049D01*
X142887279Y-83102490D01*
X142699945Y-82947615D01*
X142536086Y-82776343D01*
X142392603Y-82586061D01*
X142369599Y-82550987D01*
X142316288Y-82465652D01*
X142271865Y-82388013D01*
X142231167Y-82307960D01*
X142189029Y-82215387D01*
X142144653Y-82110721D01*
X142074359Y-81941387D01*
X141993636Y-81921101D01*
X141953136Y-81914781D01*
X141930651Y-81912652D01*
X143677434Y-81912652D01*
X143717835Y-81918859D01*
X143747405Y-81931779D01*
X143772568Y-81957696D01*
X143799752Y-82002889D01*
X143829163Y-82060987D01*
X143879236Y-82142610D01*
X143951743Y-82234236D01*
X144039827Y-82328865D01*
X144136635Y-82419496D01*
X144235311Y-82499129D01*
X144304035Y-82545953D01*
X144401062Y-82601969D01*
X144491076Y-82643472D01*
X144582887Y-82672912D01*
X144685308Y-82692739D01*
X144807148Y-82705403D01*
X144896702Y-82710751D01*
X145000222Y-82715510D01*
X145077882Y-82717840D01*
X145137640Y-82717114D01*
X145187455Y-82712700D01*
X145235286Y-82703971D01*
X145289092Y-82690295D01*
X145340953Y-82675609D01*
X145454405Y-82635410D01*
X145582417Y-82577438D01*
X145714796Y-82507030D01*
X145841347Y-82429522D01*
X145929635Y-82367433D01*
X145993774Y-82316005D01*
X146063911Y-82254858D01*
X146135441Y-82188603D01*
X146203759Y-82121851D01*
X146264259Y-82059212D01*
X146312337Y-82005298D01*
X146343386Y-81964718D01*
X146352969Y-81943596D01*
X146339346Y-81917239D01*
X146323335Y-81906124D01*
X146296278Y-81901525D01*
X146238431Y-81897426D01*
X146152870Y-81893848D01*
X146042668Y-81890812D01*
X145910900Y-81888340D01*
X145760639Y-81886455D01*
X145594961Y-81885177D01*
X145416938Y-81884528D01*
X145229647Y-81884529D01*
X145036160Y-81885203D01*
X144839551Y-81886571D01*
X144642896Y-81888654D01*
X144449269Y-81891474D01*
X144388702Y-81892531D01*
X144233357Y-81895508D01*
X144090993Y-81898528D01*
X143964634Y-81901506D01*
X143857304Y-81904356D01*
X143772029Y-81906994D01*
X143711831Y-81909332D01*
X143679736Y-81911287D01*
X143677434Y-81912652D01*
X141930651Y-81912652D01*
X141883220Y-81908161D01*
X141788334Y-81901423D01*
X141672924Y-81894751D01*
X141541437Y-81888327D01*
X141398319Y-81882335D01*
X141248017Y-81876959D01*
X141094978Y-81872380D01*
X140943647Y-81868782D01*
X140798472Y-81866348D01*
X140663900Y-81865262D01*
X140636440Y-81865222D01*
X140508780Y-81864469D01*
X140365320Y-81862422D01*
X140220670Y-81859361D01*
X140089438Y-81855564D01*
X140044041Y-81853905D01*
X139757970Y-81842623D01*
X139685392Y-81773472D01*
X139649275Y-81736927D01*
X139625552Y-81704059D01*
X139609511Y-81664584D01*
X139596439Y-81608213D01*
X139587781Y-81560387D01*
X139566787Y-81375305D01*
X139566223Y-81242027D01*
X139689156Y-81242027D01*
X139692191Y-81364881D01*
X139706957Y-81481755D01*
X139733145Y-81584713D01*
X139770443Y-81665821D01*
X139783549Y-81684448D01*
X139818735Y-81729180D01*
X140279152Y-81733967D01*
X140395641Y-81734991D01*
X140537672Y-81735923D01*
X140702971Y-81736763D01*
X140889265Y-81737512D01*
X141094280Y-81738172D01*
X141315744Y-81738742D01*
X141551384Y-81739225D01*
X141798925Y-81739622D01*
X142056096Y-81739932D01*
X142320622Y-81740157D01*
X142590231Y-81740298D01*
X142862649Y-81740356D01*
X143135603Y-81740331D01*
X143406820Y-81740225D01*
X143674027Y-81740039D01*
X143934950Y-81739774D01*
X144187317Y-81739430D01*
X144428854Y-81739008D01*
X144657288Y-81738510D01*
X144870346Y-81737936D01*
X145065754Y-81737287D01*
X145241240Y-81736564D01*
X145394530Y-81735769D01*
X145523351Y-81734901D01*
X145625430Y-81733963D01*
X145698494Y-81732954D01*
X145740269Y-81731876D01*
X145743369Y-81731726D01*
X145938102Y-81721254D01*
X146067232Y-81464242D01*
X146121188Y-81354800D01*
X146173517Y-81244887D01*
X146222318Y-81138880D01*
X146265694Y-81041156D01*
X146301743Y-80956092D01*
X146328566Y-80888063D01*
X146344263Y-80841447D01*
X146346935Y-80820620D01*
X146346723Y-80820363D01*
X146328858Y-80818916D01*
X146279462Y-80817238D01*
X146200866Y-80815364D01*
X146095406Y-80813326D01*
X145965414Y-80811160D01*
X145813224Y-80808900D01*
X145641169Y-80806578D01*
X145451583Y-80804231D01*
X145246799Y-80801890D01*
X145029151Y-80799591D01*
X144800972Y-80797367D01*
X144715464Y-80796581D01*
X144298753Y-80792487D01*
X143915869Y-80788059D01*
X143566775Y-80783295D01*
X143251432Y-80778194D01*
X142969802Y-80772755D01*
X142721849Y-80766977D01*
X142507533Y-80760860D01*
X142326818Y-80754403D01*
X142179665Y-80747603D01*
X142066036Y-80740462D01*
X141985894Y-80732977D01*
X141958768Y-80729172D01*
X141846052Y-80700957D01*
X141763385Y-80658645D01*
X141709799Y-80601731D01*
X141707968Y-80598667D01*
X141689705Y-80550159D01*
X141672496Y-80469830D01*
X141656756Y-80359721D01*
X141653549Y-80331861D01*
X141643100Y-80248690D01*
X141631768Y-80176790D01*
X141620857Y-80123418D01*
X141611673Y-80095830D01*
X141610949Y-80094827D01*
X141586522Y-80076237D01*
X141545330Y-80061140D01*
X141484653Y-80049264D01*
X141401769Y-80040340D01*
X141293958Y-80034097D01*
X141158498Y-80030264D01*
X140992669Y-80028573D01*
X140942768Y-80028448D01*
X140819309Y-80028778D01*
X140705008Y-80029976D01*
X140604839Y-80031920D01*
X140523772Y-80034488D01*
X140466780Y-80037555D01*
X140439216Y-80040889D01*
X140402281Y-80057597D01*
X140373874Y-80087623D01*
X140351700Y-80136049D01*
X140333469Y-80207952D01*
X140316888Y-80308413D01*
X140316166Y-80313528D01*
X140297127Y-80434578D01*
X140275327Y-80527692D01*
X140246058Y-80598745D01*
X140204613Y-80653613D01*
X140146282Y-80698171D01*
X140066359Y-80738294D01*
X139960134Y-80779857D01*
X139935235Y-80788890D01*
X139865861Y-80814766D01*
X139820646Y-80835562D01*
X139791616Y-80856896D01*
X139770798Y-80884389D01*
X139753541Y-80916921D01*
X139719521Y-81010112D01*
X139698163Y-81121126D01*
X139689156Y-81242027D01*
X139566223Y-81242027D01*
X139565990Y-81187252D01*
X139585378Y-81010658D01*
X139588142Y-80995670D01*
X139609675Y-80901267D01*
X139636681Y-80830325D01*
X139674844Y-80776845D01*
X139729848Y-80734823D01*
X139807378Y-80698260D01*
X139901368Y-80664975D01*
X139995556Y-80631154D01*
X140064343Y-80596508D01*
X140112708Y-80554681D01*
X140145633Y-80499315D01*
X140168096Y-80424054D01*
X140185080Y-80322541D01*
X140188216Y-80298854D01*
X140202912Y-80194580D01*
X140217316Y-80117808D01*
X140233374Y-80062248D01*
X140253030Y-80021609D01*
X140278229Y-79989601D01*
X140286332Y-79981531D01*
X140333238Y-79949243D01*
X140392492Y-79923873D01*
X140409368Y-79919252D01*
X140452652Y-79913538D01*
X140523968Y-79908955D01*
X140617498Y-79905501D01*
X140727426Y-79903179D01*
X140847937Y-79901989D01*
X140973213Y-79901931D01*
X141097438Y-79903007D01*
X141214795Y-79905218D01*
X141319469Y-79908565D01*
X141405642Y-79913047D01*
X141467498Y-79918667D01*
X141470710Y-79919095D01*
X141570194Y-79936843D01*
X141644679Y-79962223D01*
X141698291Y-80000102D01*
X141735159Y-80055346D01*
X141759407Y-80132823D01*
X141775162Y-80237398D01*
X141779618Y-80283398D01*
X141789887Y-80386147D01*
X141801033Y-80460376D01*
X141814842Y-80511417D01*
X141833098Y-80544606D01*
X141857585Y-80565277D01*
X141876911Y-80574233D01*
X141942135Y-80597552D01*
X141983293Y-80604951D01*
X142007690Y-80593263D01*
X142022633Y-80559324D01*
X142034243Y-80506068D01*
X142066110Y-80384048D01*
X142116354Y-80243950D01*
X142181331Y-80093427D01*
X142257394Y-79940131D01*
X142340899Y-79791714D01*
X142428202Y-79655827D01*
X142461340Y-79609440D01*
X142582989Y-79471371D01*
X142736974Y-79342975D01*
X142923351Y-79224209D01*
X143077899Y-79144511D01*
X143173216Y-79101964D01*
X143261051Y-79069573D01*
X143348582Y-79046036D01*
X143442986Y-79030055D01*
X143551438Y-79020329D01*
X143681116Y-79015559D01*
X143796035Y-79014453D01*
X143951410Y-79016025D01*
X144079195Y-79022156D01*
X144185479Y-79033860D01*
X144276354Y-79052153D01*
X144357910Y-79078048D01*
X144436236Y-79112561D01*
X144460921Y-79125226D01*
X144520795Y-79163323D01*
X144592440Y-79218739D01*
X144669106Y-79285124D01*
X144744039Y-79356130D01*
X144810490Y-79425409D01*
X144861706Y-79486611D01*
X144887739Y-79526587D01*
X144906810Y-79579474D01*
X144916040Y-79637010D01*
X144914454Y-79686842D01*
X144902628Y-79715242D01*
X144881765Y-79725938D01*
X144835557Y-79744645D01*
X144770812Y-79768737D01*
X144694339Y-79795591D01*
X144693502Y-79795877D01*
X144534957Y-79853644D01*
X144403786Y-79910204D01*
X144293817Y-79968994D01*
X144198878Y-80033456D01*
X144112796Y-80107029D01*
X144083172Y-80136019D01*
X143978490Y-80250469D01*
X143894700Y-80360469D01*
X143834703Y-80461790D01*
X143802853Y-80544332D01*
X143792202Y-80590547D01*
X143787660Y-80620739D01*
X143788267Y-80626311D01*
X143806201Y-80628294D01*
X143854925Y-80630800D01*
X143931368Y-80633760D01*
X144032458Y-80637105D01*
X144155124Y-80640766D01*
X144296294Y-80644676D01*
X144452897Y-80648765D01*
X144621861Y-80652965D01*
X144800115Y-80657208D01*
X144984587Y-80661424D01*
X145172206Y-80665545D01*
X145359901Y-80669502D01*
X145544600Y-80673227D01*
X145723231Y-80676652D01*
X145892723Y-80679707D01*
X146050005Y-80682324D01*
X146192006Y-80684435D01*
X146315652Y-80685970D01*
X146417875Y-80686862D01*
X146495601Y-80687041D01*
X146505369Y-80687000D01*
X146616782Y-80685324D01*
X146699408Y-80680794D01*
X146758287Y-80672103D01*
X146798462Y-80657943D01*
X146824977Y-80637004D01*
X146842874Y-80607980D01*
X146846962Y-80598391D01*
X146854581Y-80560600D01*
X146859946Y-80495017D01*
X146863129Y-80407635D01*
X146864204Y-80304450D01*
X146863243Y-80191455D01*
X146860318Y-80074645D01*
X146855503Y-79960013D01*
X146848869Y-79853554D01*
X146840489Y-79761263D01*
X146836415Y-79727780D01*
X146778654Y-79412806D01*
X146692240Y-79112939D01*
X146577956Y-78829656D01*
X146436588Y-78564433D01*
X146268918Y-78318744D01*
X146075733Y-78094066D01*
X145862749Y-77895969D01*
X145756433Y-77810681D01*
X145651128Y-77733502D01*
X145538652Y-77658991D01*
X145410822Y-77581712D01*
X145270767Y-77502466D01*
X145193460Y-77458423D01*
X145126263Y-77417677D01*
X145075146Y-77384031D01*
X145046081Y-77361290D01*
X145042454Y-77357005D01*
X145034536Y-77332981D01*
X145044459Y-77310135D01*
X145075563Y-77286218D01*
X145131185Y-77258983D01*
X145214663Y-77226179D01*
X145262179Y-77209012D01*
X145363636Y-77168950D01*
X145483406Y-77115287D01*
X145611513Y-77053045D01*
X145737980Y-76987240D01*
X145852831Y-76922892D01*
X145946091Y-76865021D01*
X145946569Y-76864701D01*
X146068353Y-76776644D01*
X146203862Y-76667585D01*
X146346510Y-76543624D01*
X146489716Y-76410860D01*
X146626893Y-76275393D01*
X146751459Y-76143324D01*
X146854858Y-76023187D01*
X147032298Y-75777499D01*
X147184127Y-75510151D01*
X147309798Y-75222261D01*
X147408767Y-74914942D01*
X147422288Y-74863254D01*
X147439975Y-74776760D01*
X147452930Y-74673060D01*
X147461831Y-74545773D01*
X147463387Y-74507654D01*
X148599152Y-74507654D01*
X148606200Y-74780844D01*
X148629308Y-75028130D01*
X148670271Y-75254321D01*
X148730881Y-75464229D01*
X148812932Y-75662663D01*
X148918219Y-75854434D01*
X149048536Y-76044353D01*
X149205675Y-76237230D01*
X149271657Y-76311054D01*
X149490760Y-76534171D01*
X149719421Y-76735196D01*
X149955016Y-76912617D01*
X150194926Y-77064923D01*
X150436527Y-77190602D01*
X150677197Y-77288142D01*
X150914315Y-77356032D01*
X151145259Y-77392759D01*
X151148427Y-77393044D01*
X151203869Y-77396507D01*
X151287776Y-77399801D01*
X151394744Y-77402807D01*
X151519371Y-77405405D01*
X151656255Y-77407476D01*
X151799992Y-77408900D01*
X151886688Y-77409392D01*
X152049518Y-77409813D01*
X152182428Y-77409545D01*
X152289360Y-77408442D01*
X152374256Y-77406360D01*
X152441059Y-77403153D01*
X152493710Y-77398677D01*
X152536153Y-77392787D01*
X152572328Y-77385338D01*
X152577765Y-77384000D01*
X152688122Y-77356279D01*
X152496579Y-77255633D01*
X152226058Y-77108680D01*
X151984527Y-76966630D01*
X151768072Y-76826364D01*
X151572779Y-76684762D01*
X151394735Y-76538705D01*
X151230026Y-76385073D01*
X151074739Y-76220748D01*
X150924961Y-76042610D01*
X150844197Y-75938521D01*
X150716653Y-75746995D01*
X150603135Y-75531091D01*
X150506143Y-75298277D01*
X150428181Y-75056021D01*
X150371748Y-74811791D01*
X150339347Y-74573055D01*
X150332302Y-74410332D01*
X150348799Y-74180145D01*
X150397239Y-73948799D01*
X150476042Y-73719959D01*
X150583630Y-73497288D01*
X150718423Y-73284452D01*
X150878842Y-73085115D01*
X150924466Y-73036043D01*
X151117281Y-72854522D01*
X151318026Y-72703991D01*
X151525294Y-72585411D01*
X151681085Y-72519146D01*
X151813324Y-72470934D01*
X151644313Y-72458223D01*
X151533589Y-72453112D01*
X151398877Y-72451916D01*
X151249787Y-72454289D01*
X151095929Y-72459885D01*
X150946913Y-72468357D01*
X150812347Y-72479359D01*
X150704835Y-72492101D01*
X150422778Y-72545711D01*
X150151597Y-72621585D01*
X149894970Y-72718037D01*
X149656577Y-72833381D01*
X149440095Y-72965931D01*
X149249204Y-73113998D01*
X149155435Y-73202475D01*
X149023216Y-73350269D01*
X148907882Y-73509480D01*
X148802524Y-73689947D01*
X148773857Y-73745654D01*
X148714086Y-73869904D01*
X148669392Y-73977623D01*
X148637698Y-74077869D01*
X148616928Y-74179699D01*
X148605004Y-74292170D01*
X148599851Y-74424340D01*
X148599152Y-74507654D01*
X147463387Y-74507654D01*
X147465462Y-74456854D01*
X147468406Y-74347779D01*
X147468756Y-74264126D01*
X147465981Y-74197511D01*
X147459553Y-74139551D01*
X147448942Y-74081864D01*
X147439051Y-74038444D01*
X147377637Y-73841506D01*
X147293548Y-73669721D01*
X147186766Y-73523067D01*
X147057269Y-73401522D01*
X146905037Y-73305063D01*
X146730050Y-73233670D01*
X146683169Y-73219851D01*
X146605784Y-73204451D01*
X146504668Y-73192622D01*
X146389804Y-73184747D01*
X146271178Y-73181210D01*
X146158773Y-73182397D01*
X146062575Y-73188690D01*
X146020797Y-73194362D01*
X145951444Y-73210071D01*
X145865508Y-73234788D01*
X145777534Y-73264185D01*
X145743369Y-73276928D01*
X145614973Y-73336700D01*
X145509079Y-73410046D01*
X145419794Y-73502605D01*
X145341221Y-73620017D01*
X145297241Y-73703765D01*
X145229957Y-73857334D01*
X145184726Y-74000251D01*
X145158643Y-74144761D01*
X145148805Y-74303107D01*
X145148544Y-74330892D01*
X145158636Y-74536239D01*
X145191825Y-74720813D01*
X145250375Y-74890542D01*
X145336550Y-75051357D01*
X145452618Y-75209186D01*
X145508716Y-75273688D01*
X145563770Y-75340558D01*
X145596842Y-75398513D01*
X145606437Y-75450553D01*
X145591060Y-75499678D01*
X145549218Y-75548891D01*
X145479416Y-75601190D01*
X145380158Y-75659578D01*
X145293985Y-75704846D01*
X145144379Y-75776665D01*
X145012093Y-75829481D01*
X144888336Y-75865861D01*
X144764318Y-75888369D01*
X144631247Y-75899570D01*
X144625769Y-75899813D01*
X144442294Y-75897346D01*
X144279780Y-75871716D01*
X144132655Y-75820805D01*
X143995347Y-75742494D01*
X143862283Y-75634667D01*
X143819493Y-75593387D01*
X143750160Y-75521104D01*
X143698624Y-75458592D01*
X143656486Y-75394159D01*
X143615345Y-75316113D01*
X143605163Y-75295054D01*
X143550101Y-75170643D01*
X143510984Y-75057157D01*
X143484924Y-74942718D01*
X143469036Y-74815446D01*
X143462148Y-74706435D01*
X143464840Y-74475440D01*
X143464898Y-74475021D01*
X143603035Y-74475021D01*
X143603251Y-74575387D01*
X143608625Y-74767543D01*
X143624165Y-74931953D01*
X143651538Y-75073658D01*
X143692409Y-75197694D01*
X143748444Y-75309101D01*
X143821311Y-75412916D01*
X143912675Y-75514177D01*
X143914262Y-75515769D01*
X144032852Y-75621253D01*
X144152070Y-75697836D01*
X144278730Y-75748142D01*
X144419643Y-75774794D01*
X144581623Y-75780412D01*
X144600369Y-75779881D01*
X144700046Y-75774604D01*
X144780467Y-75764770D01*
X144856177Y-75747884D01*
X144941724Y-75721450D01*
X144942471Y-75721199D01*
X145052429Y-75680815D01*
X145158656Y-75635598D01*
X145256525Y-75588140D01*
X145341410Y-75541028D01*
X145408683Y-75496854D01*
X145453717Y-75458207D01*
X145471886Y-75427676D01*
X145472043Y-75424782D01*
X145461351Y-75404158D01*
X145432975Y-75365052D01*
X145391924Y-75314122D01*
X145366210Y-75284005D01*
X145250241Y-75136327D01*
X145163002Y-74990202D01*
X145100747Y-74837567D01*
X145059732Y-74670362D01*
X145048863Y-74600787D01*
X145037954Y-74398627D01*
X145057608Y-74189938D01*
X145106252Y-73978866D01*
X145182309Y-73769559D01*
X145284204Y-73566163D01*
X145410361Y-73372823D01*
X145559205Y-73193687D01*
X145599386Y-73152001D01*
X145794203Y-72978931D01*
X146008849Y-72832450D01*
X146244736Y-72711686D01*
X146429169Y-72639949D01*
X146546363Y-72603100D01*
X146655938Y-72576887D01*
X146767638Y-72559921D01*
X146891207Y-72550815D01*
X147036390Y-72548182D01*
X147072635Y-72548337D01*
X147168395Y-72550174D01*
X147259960Y-72554689D01*
X147353514Y-72562620D01*
X147455242Y-72574705D01*
X147571328Y-72591682D01*
X147707959Y-72614289D01*
X147871318Y-72643263D01*
X147876969Y-72644287D01*
X147896432Y-72645482D01*
X147888837Y-72637844D01*
X147859200Y-72623409D01*
X147812536Y-72604216D01*
X147753864Y-72582300D01*
X147688198Y-72559699D01*
X147620555Y-72538448D01*
X147605271Y-72533973D01*
X147348714Y-72466040D01*
X147112482Y-72416749D01*
X146889320Y-72385089D01*
X146671973Y-72370048D01*
X146453186Y-72370615D01*
X146437635Y-72371213D01*
X146098738Y-72401378D01*
X145765323Y-72463431D01*
X145440314Y-72556287D01*
X145126634Y-72678858D01*
X144827206Y-72830056D01*
X144544952Y-73008794D01*
X144371570Y-73139642D01*
X144162814Y-73327142D01*
X143984850Y-73527887D01*
X143836819Y-73743066D01*
X143717865Y-73973866D01*
X143656327Y-74131106D01*
X143636473Y-74189564D01*
X143622195Y-74237629D01*
X143612603Y-74282756D01*
X143606805Y-74332395D01*
X143603913Y-74393999D01*
X143603035Y-74475021D01*
X143464898Y-74475021D01*
X143495527Y-74256341D01*
X143555727Y-74041693D01*
X143637946Y-73842870D01*
X143739851Y-73658307D01*
X143869316Y-73473436D01*
X144020729Y-73294759D01*
X144188475Y-73128777D01*
X144366938Y-72981992D01*
X144405635Y-72953943D01*
X144562954Y-72852532D01*
X144744538Y-72752377D01*
X144940951Y-72658071D01*
X145142755Y-72574207D01*
X145302025Y-72517628D01*
X145485015Y-72459528D01*
X145644051Y-72413020D01*
X145786476Y-72376753D01*
X145919633Y-72349378D01*
X146050863Y-72329546D01*
X146187510Y-72315905D01*
X146336916Y-72307107D01*
X146471502Y-72302624D01*
X146651796Y-72300339D01*
X146808914Y-72304086D01*
G36*
X146808914Y-72304086D02*
G01*
X146953191Y-72315011D01*
X147094963Y-72334261D01*
X147244566Y-72362980D01*
X147412334Y-72402315D01*
X147445169Y-72410589D01*
X147687460Y-72478284D01*
X147903908Y-72552931D01*
X148102400Y-72638428D01*
X148290821Y-72738669D01*
X148477057Y-72857550D01*
X148668994Y-72998967D01*
X148723635Y-73042174D01*
X148794003Y-73098014D01*
X148856065Y-73146266D01*
X148904550Y-73182907D01*
X148934189Y-73203917D01*
X148939716Y-73207097D01*
X148960483Y-73200029D01*
X148998771Y-73173723D01*
X149048159Y-73132896D01*
X149078799Y-73104950D01*
X149213515Y-72983280D01*
X149339346Y-72882415D01*
X149466459Y-72795159D01*
X149605018Y-72714316D01*
X149701829Y-72663908D01*
X149968948Y-72547708D01*
X150256536Y-72456356D01*
X150561717Y-72390164D01*
X150881614Y-72349446D01*
X151213349Y-72334515D01*
X151554046Y-72345685D01*
X151900828Y-72383269D01*
X152052331Y-72407850D01*
X152345763Y-72472903D01*
X152633966Y-72561380D01*
X152911853Y-72670981D01*
X153174339Y-72799407D01*
X153416339Y-72944357D01*
X153632766Y-73103533D01*
X153681305Y-73144433D01*
X153858368Y-73317670D01*
X154016652Y-73512477D01*
X154153022Y-73723540D01*
X154264342Y-73945546D01*
X154347476Y-74173184D01*
X154389372Y-74344043D01*
X154412517Y-74540637D01*
X154408035Y-74736935D01*
X154377708Y-74929309D01*
X154323319Y-75114131D01*
X154246649Y-75287775D01*
X154149479Y-75446612D01*
X154033592Y-75587016D01*
X153900768Y-75705359D01*
X153752790Y-75798012D01*
X153654144Y-75840992D01*
X153572879Y-75861330D01*
X153468099Y-75873696D01*
X153349201Y-75878101D01*
X153225582Y-75874560D01*
X153106639Y-75863083D01*
X153001769Y-75843685D01*
X152987864Y-75840101D01*
X152790130Y-75775262D01*
X152606173Y-75692158D01*
X152471775Y-75612879D01*
X152393951Y-75558334D01*
X152343283Y-75513169D01*
X152319097Y-75471232D01*
X152320716Y-75426372D01*
X152347463Y-75372438D01*
X152398664Y-75303278D01*
X152433122Y-75261187D01*
X152525216Y-75140481D01*
X152594849Y-75023869D01*
X152648791Y-74898343D01*
X152688672Y-74770121D01*
X152703524Y-74711180D01*
X152714152Y-74655774D01*
X152721240Y-74596275D01*
X152725471Y-74525056D01*
X152727526Y-74434490D01*
X152728080Y-74329854D01*
X152726633Y-74190939D01*
X152721151Y-74078254D01*
X152710376Y-73984275D01*
X152693050Y-73901478D01*
X152667914Y-73822341D01*
X152633711Y-73739340D01*
X152626747Y-73723958D01*
X152580603Y-73646106D01*
X152512608Y-73560646D01*
X152430676Y-73476130D01*
X152342719Y-73401106D01*
X152299000Y-73369856D01*
X152147519Y-73286960D01*
X151974848Y-73223203D01*
X151789173Y-73180877D01*
X151598682Y-73162269D01*
X151554246Y-73161586D01*
X151394760Y-73173103D01*
X151233540Y-73205544D01*
X151078108Y-73256167D01*
X150935985Y-73322231D01*
X150814696Y-73400992D01*
X150755555Y-73452703D01*
X150656763Y-73572755D01*
X150573743Y-73718450D01*
X150507931Y-73884746D01*
X150460764Y-74066602D01*
X150433679Y-74258979D01*
X150428112Y-74456835D01*
X150435629Y-74575387D01*
X150478643Y-74842191D01*
X150553940Y-75108299D01*
X150659975Y-75371422D01*
X150795203Y-75629273D01*
X150958078Y-75879563D01*
X151147054Y-76120004D01*
X151360585Y-76348307D01*
X151597126Y-76562185D01*
X151855131Y-76759349D01*
X151957902Y-76829034D01*
X152092493Y-76914136D01*
X152223067Y-76989498D01*
X152359613Y-77060403D01*
X152512123Y-77132137D01*
X152625291Y-77182032D01*
X152719196Y-77223344D01*
X152785967Y-77254847D01*
X152830000Y-77279089D01*
X152855692Y-77298620D01*
X152867441Y-77315990D01*
X152869314Y-77323523D01*
X152870326Y-77336495D01*
X152866941Y-77348334D01*
X152855602Y-77361068D01*
X152832757Y-77376725D01*
X152794849Y-77397331D01*
X152738325Y-77424915D01*
X152659629Y-77461503D01*
X152555206Y-77509123D01*
X152499769Y-77534287D01*
X152432630Y-77570546D01*
X152347216Y-77625408D01*
X152249772Y-77694117D01*
X152146543Y-77771916D01*
X152043773Y-77854048D01*
X151947709Y-77935756D01*
X151864594Y-78012283D01*
X151839369Y-78037320D01*
X151676033Y-78222752D01*
X151524855Y-78432168D01*
X151389516Y-78658616D01*
X151273694Y-78895141D01*
X151181070Y-79134788D01*
X151115324Y-79370605D01*
X151103595Y-79427743D01*
X151068244Y-79644898D01*
X151040273Y-79880541D01*
X151021308Y-80119786D01*
X151015896Y-80231121D01*
X151006298Y-80485121D01*
X151052923Y-80555297D01*
X151091175Y-80603314D01*
X151130673Y-80628073D01*
X151160425Y-80635544D01*
X151196444Y-80638527D01*
X151261832Y-80640925D01*
X151352096Y-80642752D01*
X151462742Y-80644025D01*
X151589278Y-80644761D01*
X151727211Y-80644976D01*
X151872048Y-80644684D01*
X152019296Y-80643904D01*
X152164463Y-80642650D01*
X152303056Y-80640940D01*
X152430581Y-80638788D01*
X152542545Y-80636211D01*
X152634457Y-80633226D01*
X152699104Y-80630026D01*
X152806807Y-80621724D01*
X152885947Y-80611356D01*
X152941829Y-80596785D01*
X152979759Y-80575872D01*
X153005039Y-80546481D01*
X153022976Y-80506474D01*
X153025691Y-80498420D01*
X153040078Y-80461618D01*
X153066373Y-80401132D01*
X153101546Y-80323671D01*
X153113150Y-80298854D01*
X153380302Y-80298854D01*
X153388769Y-80307321D01*
X153397235Y-80298854D01*
X153388769Y-80290387D01*
X153380302Y-80298854D01*
X153113150Y-80298854D01*
X153142568Y-80235946D01*
X153171135Y-80176184D01*
X153212419Y-80089160D01*
X153247916Y-80011609D01*
X153275170Y-79949121D01*
X153291722Y-79907291D01*
X153295635Y-79892941D01*
X153281372Y-79862993D01*
X153237528Y-79835481D01*
X153162521Y-79809629D01*
X153089569Y-79791876D01*
X153025073Y-79775445D01*
X152972577Y-79757558D01*
X152941834Y-79741637D01*
X152939294Y-79739161D01*
X152927921Y-79700900D01*
X152935726Y-79642866D01*
X152940928Y-79627463D01*
X153075929Y-79627463D01*
X153091827Y-79657256D01*
X153133488Y-79677373D01*
X153147469Y-79681336D01*
X153267386Y-79714063D01*
X153354110Y-79740966D01*
X153407565Y-79762023D01*
X153412097Y-79764345D01*
X153448002Y-79801618D01*
X153466504Y-79861160D01*
X153467383Y-79936057D01*
X153450417Y-80019392D01*
X153422541Y-80090183D01*
X153392143Y-80152446D01*
X153438703Y-80207780D01*
X153470040Y-80253589D01*
X153478646Y-80295489D01*
X153476482Y-80317225D01*
X153475291Y-80350065D01*
X153486201Y-80380313D01*
X153513467Y-80413237D01*
X153561342Y-80454105D01*
X153625835Y-80502230D01*
X153769587Y-80617572D01*
X153899674Y-80744051D01*
X154010593Y-80875530D01*
X154096841Y-81005873D01*
X154123700Y-81057365D01*
X154149677Y-81115656D01*
X154182592Y-81195112D01*
X154218090Y-81284972D01*
X154249605Y-81368451D01*
X154331557Y-81571972D01*
X154417532Y-81743892D01*
X154510495Y-81886461D01*
X154613416Y-82001928D01*
X154729260Y-82092544D01*
X154860995Y-82160557D01*
X155011587Y-82208218D01*
X155184005Y-82237776D01*
X155381215Y-82251480D01*
X155415433Y-82252355D01*
X155480916Y-82251145D01*
X155538391Y-82245700D01*
X155571374Y-82238403D01*
X155613729Y-82205111D01*
X155642044Y-82158045D01*
X155802677Y-82158045D01*
X155804961Y-82169987D01*
X155828203Y-82162842D01*
X155868737Y-82144884D01*
X155886556Y-82136059D01*
X155949462Y-82095416D01*
X156024215Y-82033840D01*
X156103548Y-81958357D01*
X156180197Y-81875992D01*
X156246896Y-81793771D01*
X156261653Y-81773367D01*
X156334231Y-81655297D01*
X156385374Y-81534949D01*
X156417468Y-81404032D01*
X156432900Y-81254261D01*
X156435106Y-81170921D01*
X156435187Y-81080670D01*
X156433176Y-81015479D01*
X156427752Y-80966545D01*
X156417593Y-80925071D01*
X156401380Y-80882256D01*
X156386810Y-80849187D01*
X156325631Y-80728089D01*
X156253624Y-80608930D01*
X156177082Y-80501137D01*
X156102295Y-80414137D01*
X156085251Y-80397346D01*
X156032865Y-80350605D01*
X155977012Y-80305246D01*
X155924089Y-80265902D01*
X155880495Y-80237208D01*
X155852628Y-80223797D01*
X155846469Y-80224409D01*
X155847261Y-80242570D01*
X155853070Y-80288050D01*
X155863024Y-80354817D01*
X155876252Y-80436838D01*
X155882960Y-80476654D01*
X155897121Y-80563862D01*
X155907761Y-80641946D01*
X155915370Y-80718356D01*
X155920438Y-80800541D01*
X155923454Y-80895953D01*
X155924909Y-81012041D01*
X155925273Y-81120121D01*
X155924399Y-81287542D01*
X155920916Y-81428239D01*
X155914100Y-81549298D01*
X155903230Y-81657811D01*
X155887581Y-81760864D01*
X155866432Y-81865546D01*
X155839060Y-81978947D01*
X155836788Y-81987800D01*
X155819321Y-82060525D01*
X155807570Y-82119454D01*
X155802677Y-82158045D01*
X155642044Y-82158045D01*
X155653534Y-82138946D01*
X155690478Y-82040831D01*
X155724254Y-81911683D01*
X155754551Y-81752424D01*
X155770622Y-81645054D01*
X155778835Y-81563509D01*
X155785122Y-81457342D01*
X155789486Y-81333336D01*
X155791929Y-81198273D01*
X155792456Y-81058933D01*
X155791069Y-80922099D01*
X155787772Y-80794553D01*
X155782566Y-80683077D01*
X155775457Y-80594452D01*
X155770127Y-80554155D01*
X155718258Y-80310074D01*
X155647546Y-80091641D01*
X155556267Y-79895279D01*
X155442692Y-79717411D01*
X155305095Y-79554462D01*
X155270530Y-79519371D01*
X155128318Y-79394017D01*
X154975151Y-79286429D01*
X154817193Y-79200011D01*
X154660607Y-79138165D01*
X154521142Y-79105614D01*
X154408955Y-79094717D01*
X154277110Y-79090440D01*
X154134688Y-79092326D01*
X153990766Y-79099921D01*
X153854424Y-79112768D01*
X153734740Y-79130411D01*
X153651235Y-79149305D01*
X153528696Y-79194302D01*
X153407752Y-79257003D01*
X153295955Y-79332180D01*
X153200858Y-79414605D01*
X153130012Y-79499052D01*
X153117721Y-79518588D01*
X153084869Y-79582929D01*
X153075929Y-79627463D01*
X152940928Y-79627463D01*
X152959966Y-79571097D01*
X152997896Y-79491635D01*
X153046772Y-79410518D01*
X153103850Y-79333787D01*
X153143515Y-79289670D01*
X153245180Y-79202527D01*
X153365969Y-79130566D01*
X153508514Y-79072907D01*
X153675448Y-79028669D01*
X153869404Y-78996971D01*
X154074569Y-78978088D01*
X154244196Y-78964551D01*
X154381355Y-78947941D01*
X154487325Y-78928063D01*
X154563382Y-78904719D01*
X154570974Y-78901493D01*
X154650876Y-78872164D01*
X154754280Y-78842953D01*
X154870891Y-78816134D01*
X154990412Y-78793983D01*
X155102548Y-78778774D01*
X155142550Y-78775180D01*
X155324305Y-78771288D01*
X155519787Y-78783787D01*
X155718384Y-78811080D01*
X155909485Y-78851572D01*
X156082478Y-78903667D01*
X156138095Y-78924879D01*
X156202385Y-78948678D01*
X156244994Y-78957695D01*
X156273937Y-78953424D01*
X156278792Y-78951107D01*
X156317637Y-78947795D01*
X156377676Y-78965518D01*
X156455135Y-79002430D01*
X156546238Y-79056689D01*
X156647210Y-79126451D01*
X156665369Y-79139932D01*
X156748076Y-79205822D01*
X156838208Y-79284289D01*
X156932387Y-79371721D01*
X157027236Y-79464508D01*
X157119378Y-79559042D01*
X157205435Y-79651712D01*
X157282030Y-79738909D01*
X157345787Y-79817021D01*
X157393326Y-79882440D01*
X157421273Y-79931556D01*
X157427369Y-79954418D01*
X157434796Y-79978465D01*
X157454598Y-80023975D01*
X157483056Y-80082613D01*
X157494874Y-80105662D01*
X157547857Y-80219891D01*
X157600849Y-80356344D01*
X157649924Y-80503604D01*
X157691152Y-80650257D01*
X157709946Y-80730654D01*
X157727190Y-80841424D01*
X157738181Y-80976244D01*
X157743007Y-81125899D01*
X157741755Y-81281171D01*
X157734512Y-81432843D01*
X157721366Y-81571699D01*
X157702403Y-81688521D01*
X157700812Y-81695854D01*
X157659415Y-81856172D01*
X157606862Y-82018586D01*
X157547383Y-82171233D01*
X157485208Y-82302247D01*
X157483488Y-82305454D01*
X157329560Y-82559678D01*
X157155964Y-82786445D01*
X156961944Y-82986396D01*
X156746740Y-83160169D01*
X156509596Y-83308404D01*
X156249755Y-83431740D01*
X156070191Y-83498239D01*
X155903898Y-83548117D01*
X155748060Y-83581813D01*
X155591051Y-83600921D01*
X155421247Y-83607033D01*
X155293769Y-83604623D01*
X155139754Y-83596531D01*
X155005603Y-83582972D01*
X154878483Y-83561830D01*
X154745559Y-83530989D01*
X154601188Y-83490474D01*
X154434223Y-83440873D01*
X154293182Y-83492347D01*
X154171934Y-83532272D01*
X154026813Y-83573023D01*
X153867656Y-83612155D01*
X153704298Y-83647224D01*
X153572112Y-83671571D01*
X153475084Y-83683852D01*
X153351315Y-83693296D01*
X153207810Y-83699897D01*
X153051576Y-83703652D01*
X152889619Y-83704554D01*
X152728945Y-83702600D01*
X152576562Y-83697783D01*
X152439474Y-83690099D01*
X152324689Y-83679544D01*
X152273440Y-83672486D01*
X151878472Y-83593213D01*
X151502460Y-83485957D01*
X151144864Y-83350428D01*
X150805143Y-83186334D01*
X150482755Y-82993386D01*
X150195901Y-82784912D01*
X150389066Y-82784912D01*
X150398965Y-82796700D01*
X150433442Y-82821904D01*
X150487488Y-82857459D01*
X150556093Y-82900303D01*
X150634248Y-82947374D01*
X150716944Y-82995608D01*
X150799170Y-83041943D01*
X150875918Y-83083316D01*
X150884238Y-83087654D01*
X151111574Y-83200357D01*
X151323008Y-83293153D01*
X151527385Y-83369251D01*
X151733548Y-83431863D01*
X151950345Y-83484200D01*
X152011832Y-83496982D01*
X152143028Y-83520981D01*
X152290987Y-83544009D01*
X152444897Y-83564680D01*
X152593944Y-83581608D01*
X152727315Y-83593407D01*
X152796102Y-83597483D01*
X152868181Y-83600641D01*
X152937310Y-83603661D01*
X152982369Y-83605620D01*
X153026414Y-83605458D01*
X153094459Y-83602789D01*
X153176765Y-83598081D01*
X153253302Y-83592618D01*
X153355497Y-83582607D01*
X153466779Y-83568502D01*
X153570864Y-83552501D01*
X153625835Y-83542350D01*
X153740106Y-83518448D01*
X153853335Y-83493443D01*
X153960729Y-83468528D01*
X154057494Y-83444899D01*
X154138835Y-83423748D01*
X154199959Y-83406271D01*
X154236072Y-83393661D01*
X154243902Y-83388375D01*
X154230268Y-83374142D01*
X154194589Y-83349415D01*
X154146535Y-83320672D01*
X154027092Y-83245511D01*
X153892875Y-83146880D01*
X153749023Y-83028700D01*
X153657541Y-82947596D01*
X153581250Y-82877841D01*
X153524506Y-82827686D01*
X153481045Y-82794806D01*
X153444603Y-82776875D01*
X153408918Y-82771564D01*
X153367727Y-82776549D01*
X153314766Y-82789502D01*
X153266405Y-82802306D01*
X153100075Y-82842486D01*
X152908367Y-82883576D01*
X152699678Y-82924027D01*
X152482408Y-82962287D01*
X152264955Y-82996808D01*
X152055717Y-83026038D01*
X152051035Y-83026640D01*
X151828073Y-83045153D01*
X151601922Y-83042904D01*
X151363369Y-83019592D01*
X151238235Y-83000231D01*
X151091019Y-82972812D01*
X150940370Y-82940856D01*
X150794613Y-82906376D01*
X150662071Y-82871392D01*
X150551071Y-82837917D01*
X150510723Y-82824013D01*
X150453481Y-82803848D01*
X150410450Y-82789890D01*
X150389755Y-82784749D01*
X150389066Y-82784912D01*
X150195901Y-82784912D01*
X150177160Y-82771292D01*
X149887818Y-82519761D01*
X149620454Y-82245469D01*
X149552210Y-82169122D01*
X149487980Y-82096137D01*
X149432962Y-82032504D01*
X149392351Y-81984208D01*
X149376720Y-81964635D01*
X149325411Y-81897453D01*
X151526102Y-81897453D01*
X151670035Y-82043571D01*
X151772811Y-82143055D01*
X151885305Y-82243646D01*
X152000293Y-82339426D01*
X152110550Y-82424477D01*
X152208852Y-82492879D01*
X152248198Y-82517202D01*
X152350763Y-82572904D01*
X152449660Y-82615884D01*
X152558103Y-82651251D01*
X152665824Y-82678718D01*
X152738994Y-82696018D01*
X152805342Y-82712114D01*
X152853650Y-82724272D01*
X152863835Y-82726984D01*
X152926707Y-82734761D01*
X153014015Y-82731978D01*
X153118155Y-82719047D01*
X153164640Y-82710773D01*
X153246463Y-82690751D01*
X153310512Y-82666736D01*
X153351235Y-82641267D01*
X153363369Y-82619913D01*
X153354680Y-82592899D01*
X153332020Y-82548102D01*
X153303681Y-82500671D01*
X153270079Y-82444858D01*
X153230835Y-82374576D01*
X153189198Y-82296291D01*
X153148418Y-82216469D01*
X153111745Y-82141576D01*
X153082428Y-82078078D01*
X153063718Y-82032441D01*
X153058569Y-82012981D01*
X153048504Y-81982099D01*
X153026213Y-81947496D01*
X152993857Y-81907521D01*
X152259980Y-81902487D01*
X151526102Y-81897453D01*
X149325411Y-81897453D01*
X149324769Y-81896613D01*
X148960702Y-81902676D01*
X148826255Y-81905576D01*
X148722155Y-81909425D01*
X148644889Y-81914478D01*
X148590944Y-81920989D01*
X148556807Y-81929216D01*
X148548769Y-81932606D01*
X148519236Y-81955621D01*
X148476298Y-81999472D01*
X148426198Y-82057414D01*
X148384837Y-82109797D01*
X148257842Y-82269738D01*
X148131858Y-82410761D01*
X147995691Y-82544747D01*
X147868502Y-82657767D01*
X147579114Y-82883736D01*
X147267253Y-83086130D01*
X146936076Y-83263508D01*
X146588743Y-83414427D01*
X146228411Y-83537448D01*
X145858239Y-83631129D01*
X145650235Y-83669847D01*
X145561502Y-83680807D01*
X145446299Y-83689850D01*
X145311508Y-83696890D01*
X145164010Y-83701841D01*
X145010687Y-83704615D01*
X144858420Y-83705127D01*
X144714091Y-83703289D01*
X144584580Y-83699016D01*
X144476769Y-83692221D01*
X144414102Y-83685390D01*
X144123810Y-83635276D01*
X143857201Y-83569670D01*
X143606817Y-83486398D01*
X143365204Y-83383286D01*
X143344758Y-83373501D01*
X143101183Y-83243581D01*
X142971511Y-83158049D01*
X143124063Y-83158049D01*
X143134361Y-83168746D01*
X143170622Y-83190436D01*
X143227711Y-83220697D01*
X143300495Y-83257107D01*
X143383837Y-83297245D01*
X143472606Y-83338689D01*
X143561665Y-83379018D01*
X143645881Y-83415810D01*
X143720120Y-83446644D01*
X143779246Y-83469097D01*
X143794369Y-83474192D01*
X143945607Y-83517373D01*
X144115778Y-83556899D01*
X144289954Y-83589573D01*
X144422569Y-83608682D01*
X144510984Y-83615855D01*
X144625818Y-83619880D01*
X144759787Y-83620955D01*
X144905608Y-83619279D01*
X145055999Y-83615051D01*
X145203677Y-83608468D01*
X145341358Y-83599730D01*
X145461761Y-83589034D01*
X145548635Y-83578005D01*
X145880919Y-83513527D01*
X146211792Y-83424187D01*
X146536156Y-83312131D01*
X146848911Y-83179507D01*
X147144956Y-83028461D01*
X147419192Y-82861139D01*
X147648369Y-82694255D01*
X147795086Y-82569937D01*
X147949548Y-82425633D01*
X148102334Y-82270552D01*
X148244023Y-82113901D01*
X148254018Y-82102254D01*
X148333396Y-82013386D01*
X148407005Y-81938605D01*
X148471209Y-81881166D01*
X148522372Y-81844320D01*
X148556850Y-81831321D01*
X148569987Y-81817756D01*
X148571235Y-81808472D01*
X148578288Y-81786164D01*
X148596497Y-81742205D01*
X148752722Y-81742205D01*
X148753178Y-81748956D01*
X148771394Y-81750591D01*
X148821436Y-81752274D01*
X148901265Y-81753988D01*
X149008841Y-81755713D01*
X149142124Y-81757430D01*
X149299074Y-81759121D01*
X149477651Y-81760767D01*
X149675815Y-81762349D01*
X149891526Y-81763848D01*
X150122744Y-81765246D01*
X150367429Y-81766524D01*
X150623542Y-81767663D01*
X150889042Y-81768644D01*
X150891102Y-81768650D01*
X151157385Y-81769633D01*
X151414763Y-81770776D01*
X151661152Y-81772060D01*
X151894470Y-81773467D01*
X152112634Y-81774977D01*
X152313561Y-81776572D01*
X152495169Y-81778231D01*
X152655375Y-81779938D01*
X152792096Y-81781671D01*
X152903250Y-81783413D01*
X152986754Y-81785144D01*
X153040525Y-81786846D01*
X153062397Y-81788474D01*
X153081857Y-81797500D01*
X153102018Y-81816371D01*
X153125668Y-81849418D01*
X153155600Y-81900968D01*
X153194603Y-81975349D01*
X153235893Y-82057584D01*
X153309265Y-82205295D01*
X153369935Y-82326524D01*
X153420456Y-82425022D01*
X153463384Y-82504543D01*
X153501273Y-82568840D01*
X153536678Y-82621664D01*
X153572152Y-82666768D01*
X153610251Y-82707905D01*
X153653528Y-82748827D01*
X153704539Y-82793288D01*
X153765838Y-82845040D01*
X153780119Y-82857069D01*
X153863055Y-82926098D01*
X153944583Y-82992376D01*
X154018185Y-83050717D01*
X154077341Y-83095932D01*
X154107472Y-83117545D01*
X154294150Y-83227034D01*
X154506741Y-83320777D01*
X154740279Y-83396938D01*
X154989797Y-83453681D01*
X155039769Y-83462306D01*
X155100604Y-83468370D01*
X155186770Y-83471816D01*
X155289846Y-83472817D01*
X155401412Y-83471549D01*
X155513046Y-83468188D01*
X155616327Y-83462908D01*
X155702836Y-83455884D01*
X155764151Y-83447291D01*
X155764382Y-83447244D01*
X156028924Y-83376300D01*
X156282117Y-83274601D01*
X156521455Y-83144084D01*
X156744430Y-82986684D01*
X156948537Y-82804339D01*
X157131269Y-82598984D01*
X157290120Y-82372558D01*
X157392419Y-82189392D01*
X157491590Y-81960094D01*
X157561540Y-81724008D01*
X157603400Y-81476164D01*
X157618302Y-81211586D01*
X157618362Y-81196321D01*
X157602798Y-80916195D01*
X157555625Y-80647406D01*
X157477267Y-80390988D01*
X157368147Y-80147976D01*
X157228690Y-79919407D01*
X157059317Y-79706315D01*
X156970701Y-79613002D01*
X156771863Y-79436476D01*
X156548643Y-79279546D01*
X156299092Y-79140957D01*
X156088600Y-79046295D01*
X155919556Y-78988301D01*
X155734755Y-78944771D01*
X155541429Y-78916138D01*
X155346811Y-78902834D01*
X155158133Y-78905292D01*
X154982628Y-78923943D01*
X154827527Y-78959221D01*
X154797351Y-78969085D01*
X154748371Y-78986859D01*
X154727580Y-78998133D01*
X154731017Y-79007050D01*
X154751902Y-79016626D01*
X154979007Y-79123598D01*
X155182105Y-79253068D01*
X155362838Y-79406570D01*
X155522847Y-79585636D01*
X155663773Y-79791800D01*
X155749545Y-79948262D01*
X155780201Y-80002708D01*
X155809648Y-80043941D01*
X155831631Y-80063231D01*
X155832037Y-80063358D01*
X155919381Y-80100266D01*
X156017787Y-80160739D01*
X156120804Y-80239351D01*
X156221985Y-80330680D01*
X156314880Y-80429300D01*
X156393041Y-80529787D01*
X156401615Y-80542451D01*
X156445818Y-80617675D01*
X156489617Y-80706464D01*
X156523606Y-80789736D01*
X156523895Y-80790566D01*
X156543102Y-80848719D01*
X156556271Y-80899331D01*
X156564533Y-80951304D01*
X156569021Y-81013538D01*
X156570865Y-81094935D01*
X156571183Y-81162454D01*
X156568754Y-81296804D01*
X156559618Y-81407740D01*
X156541617Y-81505410D01*
X156512594Y-81599960D01*
X156470390Y-81701536D01*
X156445130Y-81755121D01*
X156345080Y-81923953D01*
X156218316Y-82075386D01*
X156125261Y-82160317D01*
X156034875Y-82228259D01*
X155945744Y-82281118D01*
X155852210Y-82320328D01*
X155748612Y-82347323D01*
X155629293Y-82363536D01*
X155488593Y-82370403D01*
X155320853Y-82369356D01*
X155302235Y-82368867D01*
X155191612Y-82365291D01*
X155107325Y-82360929D01*
X155041845Y-82354827D01*
X154987640Y-82346029D01*
X154937182Y-82333581D01*
X154882939Y-82316526D01*
X154878902Y-82315168D01*
X154705267Y-82239299D01*
X154550793Y-82135636D01*
X154416377Y-82004905D01*
X154304534Y-81850502D01*
X154275094Y-81796123D01*
X154238504Y-81719750D01*
X154199260Y-81631190D01*
X154161856Y-81540249D01*
X154159041Y-81533071D01*
X154093465Y-81368714D01*
X154034852Y-81231691D01*
X153979868Y-81117071D01*
X153925180Y-81019925D01*
X153867456Y-80935322D01*
X153803360Y-80858333D01*
X153729561Y-80784028D01*
X153642725Y-80707477D01*
X153549635Y-80631764D01*
X153481461Y-80576985D01*
X153418282Y-80525021D01*
X153367594Y-80482106D01*
X153338987Y-80456506D01*
X153302414Y-80426273D01*
X153272965Y-80409887D01*
X153267631Y-80408921D01*
X153241596Y-80423884D01*
X153209260Y-80464231D01*
X153174819Y-80523146D01*
X153142467Y-80593813D01*
X153125552Y-80639773D01*
X153103306Y-80695835D01*
X153079793Y-80738349D01*
X153061910Y-80756822D01*
X153041515Y-80758523D01*
X152989415Y-80760369D01*
X152907772Y-80762333D01*
X152798750Y-80764387D01*
X152664510Y-80766506D01*
X152507213Y-80768660D01*
X152329023Y-80770825D01*
X152132101Y-80772971D01*
X151918608Y-80775072D01*
X151690708Y-80777101D01*
X151450562Y-80779030D01*
X151200332Y-80780833D01*
X151096643Y-80781521D01*
X150793031Y-80783538D01*
X150521585Y-80785468D01*
X150280603Y-80787341D01*
X150068384Y-80789190D01*
X149883228Y-80791045D01*
X149723433Y-80792938D01*
X149587298Y-80794899D01*
X149473122Y-80796961D01*
X149379204Y-80799154D01*
X149303843Y-80801510D01*
X149245339Y-80804060D01*
X149201989Y-80806835D01*
X149172093Y-80809866D01*
X149153949Y-80813185D01*
X149145858Y-80816823D01*
X149145416Y-80817383D01*
X149133759Y-80841106D01*
X149112204Y-80889613D01*
X149083607Y-80956317D01*
X149050825Y-81034629D01*
X149043490Y-81052387D01*
X149002039Y-81151015D01*
X148952260Y-81266466D01*
X148900186Y-81384897D01*
X148851851Y-81492461D01*
X148848326Y-81500183D01*
X148811846Y-81582500D01*
X148782326Y-81654003D01*
X148761905Y-81709102D01*
X148752722Y-81742205D01*
X148596497Y-81742205D01*
X148597795Y-81739074D01*
X148627276Y-81672817D01*
X148664255Y-81593007D01*
X148692686Y-81533305D01*
X148742877Y-81426156D01*
X148799654Y-81300290D01*
X148857342Y-81168557D01*
X148910270Y-81043810D01*
X148931127Y-80993121D01*
X148973403Y-80886737D01*
X149008036Y-80792309D01*
X149035793Y-80704735D01*
X149057444Y-80618915D01*
X149073757Y-80529750D01*
X149085502Y-80432140D01*
X149093447Y-80320986D01*
X149098361Y-80191186D01*
X149101012Y-80037642D01*
X149102159Y-79858587D01*
X149102170Y-79689584D01*
X149100642Y-79549525D01*
X149097141Y-79433504D01*
X149091230Y-79336617D01*
X149082477Y-79253958D01*
X149070446Y-79180623D01*
X149054703Y-79111707D01*
X149034812Y-79042304D01*
X149027885Y-79020387D01*
X148974364Y-78879233D01*
X148901628Y-78724095D01*
X148815006Y-78564324D01*
X148719826Y-78409275D01*
X148621418Y-78268298D01*
X148545499Y-78173721D01*
X148438261Y-78065623D01*
X148300043Y-77952392D01*
X148133073Y-77835541D01*
X147939578Y-77716587D01*
X147721787Y-77597042D01*
X147625090Y-77547763D01*
X147495029Y-77486068D01*
X147368581Y-77433452D01*
X147241718Y-77389220D01*
X147131096Y-77358431D01*
X147494274Y-77358431D01*
X147506564Y-77368380D01*
X147514446Y-77371361D01*
X147541345Y-77382746D01*
X147591888Y-77405733D01*
X147659240Y-77437160D01*
X147736564Y-77473866D01*
X147749969Y-77480288D01*
X148016347Y-77625149D01*
X148263634Y-77794284D01*
X148488871Y-77985225D01*
X148689100Y-78195505D01*
X148836786Y-78386690D01*
X148878740Y-78445816D01*
X148913605Y-78492929D01*
X148936916Y-78522110D01*
X148943943Y-78528697D01*
X148957284Y-78516399D01*
X148985789Y-78482929D01*
X149024437Y-78434312D01*
X149045543Y-78406802D01*
X149248243Y-78167145D01*
X149477711Y-77946238D01*
X149731134Y-77746339D01*
X150005701Y-77569703D01*
X150246543Y-77442902D01*
X150464610Y-77338840D01*
X150334956Y-77260862D01*
X150225251Y-77192262D01*
X150102284Y-77111005D01*
X149974187Y-77022817D01*
X149849091Y-76933423D01*
X149735126Y-76848550D01*
X149640425Y-76773924D01*
X149623175Y-76759612D01*
X149543068Y-76689125D01*
X149451665Y-76603419D01*
X149354964Y-76508617D01*
X149258961Y-76410843D01*
X149169655Y-76316218D01*
X149093042Y-76230867D01*
X149035120Y-76160913D01*
X149029249Y-76153234D01*
X148993359Y-76106113D01*
X148966644Y-76071824D01*
X148954417Y-76057176D01*
X148954202Y-76057054D01*
X148942050Y-76068498D01*
X148908856Y-76100869D01*
X148857603Y-76151228D01*
X148791276Y-76216634D01*
X148712859Y-76294149D01*
X148625336Y-76380832D01*
X148596403Y-76409521D01*
X148475858Y-76528022D01*
X148371943Y-76627406D01*
X148278191Y-76713327D01*
X148188137Y-76791440D01*
X148095317Y-76867399D01*
X147993265Y-76946857D01*
X147910835Y-77009115D01*
X147815741Y-77080894D01*
X147727184Y-77148882D01*
X147649644Y-77209550D01*
X147587600Y-77259369D01*
X147545530Y-77294810D01*
X147531380Y-77308080D01*
X147501820Y-77341041D01*
X147494274Y-77358431D01*
X147131096Y-77358431D01*
X147110415Y-77352675D01*
X146970644Y-77323124D01*
X146818378Y-77299872D01*
X146649592Y-77282222D01*
X146460258Y-77269480D01*
X146246350Y-77260951D01*
X146003841Y-77255939D01*
X145929635Y-77255065D01*
X145798896Y-77253904D01*
X145696611Y-77253636D01*
X145617371Y-77254616D01*
X145555769Y-77257195D01*
X145506395Y-77261729D01*
X145463842Y-77268569D01*
X145422701Y-77278070D01*
X145377564Y-77290585D01*
X145375069Y-77291307D01*
X145312077Y-77310941D01*
X145263844Y-77328629D01*
X145237857Y-77341510D01*
X145235369Y-77344652D01*
X145249203Y-77357429D01*
X145287104Y-77383395D01*
X145343663Y-77419056D01*
X145413475Y-77460916D01*
X145431587Y-77471488D01*
X145697796Y-77641287D01*
X145934969Y-77825549D01*
X146145930Y-78027258D01*
X146333505Y-78249400D01*
X146500521Y-78494961D01*
X146641116Y-78749454D01*
X146707627Y-78887278D01*
X146763721Y-79015939D01*
X146810388Y-79140245D01*
X146848616Y-79265004D01*
X146879395Y-79395023D01*
X146903716Y-79535111D01*
X146922566Y-79690074D01*
X146936936Y-79864721D01*
X146947815Y-80063860D01*
X146955762Y-80278287D01*
X146967756Y-80664120D01*
X146918595Y-80715777D01*
X146877708Y-80755307D01*
X146838818Y-80781750D01*
X146792992Y-80798321D01*
X146731291Y-80808235D01*
X146644780Y-80814707D01*
X146643407Y-80814785D01*
X146485112Y-80823787D01*
X146447192Y-80942321D01*
X146416844Y-81026953D01*
X146374229Y-81132011D01*
X146323506Y-81248304D01*
X146268836Y-81366641D01*
X146214379Y-81477832D01*
X146164295Y-81572686D01*
X146152136Y-81594175D01*
X146119783Y-81652044D01*
X146095332Y-81699121D01*
X146082843Y-81727468D01*
X146082035Y-81731208D01*
X146097384Y-81739521D01*
X146137134Y-81745166D01*
X146179402Y-81746748D01*
X146283409Y-81754286D01*
X146370579Y-81775342D01*
X146436604Y-81807907D01*
X146477176Y-81849968D01*
X146488435Y-81890998D01*
X146475612Y-81932552D01*
X146439757Y-81990550D01*
X146384787Y-82060927D01*
X146314623Y-82139621D01*
X146233182Y-82222567D01*
X146144385Y-82305702D01*
X146052149Y-82384962D01*
X145960395Y-82456283D01*
X145907523Y-82493361D01*
X145823474Y-82545761D01*
X145715972Y-82607045D01*
X145592877Y-82673210D01*
X145462055Y-82740248D01*
X145331368Y-82804155D01*
X145208679Y-82860924D01*
X145101851Y-82906552D01*
X145077718Y-82916067D01*
X144990600Y-82946357D01*
X144877696Y-82980633D01*
X144746563Y-83016974D01*
X144604763Y-83053457D01*
X144459854Y-83088161D01*
X144319397Y-83119163D01*
X144190951Y-83144542D01*
X144151635Y-83151502D01*
X143965597Y-83177640D01*
X143777978Y-83193592D01*
X143597286Y-83199086D01*
X143432028Y-83193847D01*
X143298329Y-83178889D01*
X143227228Y-83167908D01*
X143169679Y-83160407D01*
X143133111Y-83157275D01*
X143124063Y-83158049D01*
X142971511Y-83158049D01*
X142887279Y-83102490D01*
X142699945Y-82947615D01*
X142536086Y-82776343D01*
X142392603Y-82586061D01*
X142369599Y-82550987D01*
X142316288Y-82465652D01*
X142271865Y-82388013D01*
X142231167Y-82307960D01*
X142189029Y-82215387D01*
X142144653Y-82110721D01*
X142074359Y-81941387D01*
X141993636Y-81921101D01*
X141953136Y-81914781D01*
X141930651Y-81912652D01*
X143677434Y-81912652D01*
X143717835Y-81918859D01*
X143747405Y-81931779D01*
X143772568Y-81957696D01*
X143799752Y-82002889D01*
X143829163Y-82060987D01*
X143879236Y-82142610D01*
X143951743Y-82234236D01*
X144039827Y-82328865D01*
X144136635Y-82419496D01*
X144235311Y-82499129D01*
X144304035Y-82545953D01*
X144401062Y-82601969D01*
X144491076Y-82643472D01*
X144582887Y-82672912D01*
X144685308Y-82692739D01*
X144807148Y-82705403D01*
X144896702Y-82710751D01*
X145000222Y-82715510D01*
X145077882Y-82717840D01*
X145137640Y-82717114D01*
X145187455Y-82712700D01*
X145235286Y-82703971D01*
X145289092Y-82690295D01*
X145340953Y-82675609D01*
X145454405Y-82635410D01*
X145582417Y-82577438D01*
X145714796Y-82507030D01*
X145841347Y-82429522D01*
X145929635Y-82367433D01*
X145993774Y-82316005D01*
X146063911Y-82254858D01*
X146135441Y-82188603D01*
X146203759Y-82121851D01*
X146264259Y-82059212D01*
X146312337Y-82005298D01*
X146343386Y-81964718D01*
X146352969Y-81943596D01*
X146339346Y-81917239D01*
X146323335Y-81906124D01*
X146296278Y-81901525D01*
X146238431Y-81897426D01*
X146152870Y-81893848D01*
X146042668Y-81890812D01*
X145910900Y-81888340D01*
X145760639Y-81886455D01*
X145594961Y-81885177D01*
X145416938Y-81884528D01*
X145229647Y-81884529D01*
X145036160Y-81885203D01*
X144839551Y-81886571D01*
X144642896Y-81888654D01*
X144449269Y-81891474D01*
X144388702Y-81892531D01*
X144233357Y-81895508D01*
X144090993Y-81898528D01*
X143964634Y-81901506D01*
X143857304Y-81904356D01*
X143772029Y-81906994D01*
X143711831Y-81909332D01*
X143679736Y-81911287D01*
X143677434Y-81912652D01*
X141930651Y-81912652D01*
X141883220Y-81908161D01*
X141788334Y-81901423D01*
X141672924Y-81894751D01*
X141541437Y-81888327D01*
X141398319Y-81882335D01*
X141248017Y-81876959D01*
X141094978Y-81872380D01*
X140943647Y-81868782D01*
X140798472Y-81866348D01*
X140663900Y-81865262D01*
X140636440Y-81865222D01*
X140508780Y-81864469D01*
X140365320Y-81862422D01*
X140220670Y-81859361D01*
X140089438Y-81855564D01*
X140044041Y-81853905D01*
X139757970Y-81842623D01*
X139685392Y-81773472D01*
X139649275Y-81736927D01*
X139625552Y-81704059D01*
X139609511Y-81664584D01*
X139596439Y-81608213D01*
X139587781Y-81560387D01*
X139566787Y-81375305D01*
X139566223Y-81242027D01*
X139689156Y-81242027D01*
X139692191Y-81364881D01*
X139706957Y-81481755D01*
X139733145Y-81584713D01*
X139770443Y-81665821D01*
X139783549Y-81684448D01*
X139818735Y-81729180D01*
X140279152Y-81733967D01*
X140395641Y-81734991D01*
X140537672Y-81735923D01*
X140702971Y-81736763D01*
X140889265Y-81737512D01*
X141094280Y-81738172D01*
X141315744Y-81738742D01*
X141551384Y-81739225D01*
X141798925Y-81739622D01*
X142056096Y-81739932D01*
X142320622Y-81740157D01*
X142590231Y-81740298D01*
X142862649Y-81740356D01*
X143135603Y-81740331D01*
X143406820Y-81740225D01*
X143674027Y-81740039D01*
X143934950Y-81739774D01*
X144187317Y-81739430D01*
X144428854Y-81739008D01*
X144657288Y-81738510D01*
X144870346Y-81737936D01*
X145065754Y-81737287D01*
X145241240Y-81736564D01*
X145394530Y-81735769D01*
X145523351Y-81734901D01*
X145625430Y-81733963D01*
X145698494Y-81732954D01*
X145740269Y-81731876D01*
X145743369Y-81731726D01*
X145938102Y-81721254D01*
X146067232Y-81464242D01*
X146121188Y-81354800D01*
X146173517Y-81244887D01*
X146222318Y-81138880D01*
X146265694Y-81041156D01*
X146301743Y-80956092D01*
X146328566Y-80888063D01*
X146344263Y-80841447D01*
X146346935Y-80820620D01*
X146346723Y-80820363D01*
X146328858Y-80818916D01*
X146279462Y-80817238D01*
X146200866Y-80815364D01*
X146095406Y-80813326D01*
X145965414Y-80811160D01*
X145813224Y-80808900D01*
X145641169Y-80806578D01*
X145451583Y-80804231D01*
X145246799Y-80801890D01*
X145029151Y-80799591D01*
X144800972Y-80797367D01*
X144715464Y-80796581D01*
X144298753Y-80792487D01*
X143915869Y-80788059D01*
X143566775Y-80783295D01*
X143251432Y-80778194D01*
X142969802Y-80772755D01*
X142721849Y-80766977D01*
X142507533Y-80760860D01*
X142326818Y-80754403D01*
X142179665Y-80747603D01*
X142066036Y-80740462D01*
X141985894Y-80732977D01*
X141958768Y-80729172D01*
X141846052Y-80700957D01*
X141763385Y-80658645D01*
X141709799Y-80601731D01*
X141707968Y-80598667D01*
X141689705Y-80550159D01*
X141672496Y-80469830D01*
X141656756Y-80359721D01*
X141653549Y-80331861D01*
X141643100Y-80248690D01*
X141631768Y-80176790D01*
X141620857Y-80123418D01*
X141611673Y-80095830D01*
X141610949Y-80094827D01*
X141586522Y-80076237D01*
X141545330Y-80061140D01*
X141484653Y-80049264D01*
X141401769Y-80040340D01*
X141293958Y-80034097D01*
X141158498Y-80030264D01*
X140992669Y-80028573D01*
X140942768Y-80028448D01*
X140819309Y-80028778D01*
X140705008Y-80029976D01*
X140604839Y-80031920D01*
X140523772Y-80034488D01*
X140466780Y-80037555D01*
X140439216Y-80040889D01*
X140402281Y-80057597D01*
X140373874Y-80087623D01*
X140351700Y-80136049D01*
X140333469Y-80207952D01*
X140316888Y-80308413D01*
X140316166Y-80313528D01*
X140297127Y-80434578D01*
X140275327Y-80527692D01*
X140246058Y-80598745D01*
X140204613Y-80653613D01*
X140146282Y-80698171D01*
X140066359Y-80738294D01*
X139960134Y-80779857D01*
X139935235Y-80788890D01*
X139865861Y-80814766D01*
X139820646Y-80835562D01*
X139791616Y-80856896D01*
X139770798Y-80884389D01*
X139753541Y-80916921D01*
X139719521Y-81010112D01*
X139698163Y-81121126D01*
X139689156Y-81242027D01*
X139566223Y-81242027D01*
X139565990Y-81187252D01*
X139585378Y-81010658D01*
X139588142Y-80995670D01*
X139609675Y-80901267D01*
X139636681Y-80830325D01*
X139674844Y-80776845D01*
X139729848Y-80734823D01*
X139807378Y-80698260D01*
X139901368Y-80664975D01*
X139995556Y-80631154D01*
X140064343Y-80596508D01*
X140112708Y-80554681D01*
X140145633Y-80499315D01*
X140168096Y-80424054D01*
X140185080Y-80322541D01*
X140188216Y-80298854D01*
X140202912Y-80194580D01*
X140217316Y-80117808D01*
X140233374Y-80062248D01*
X140253030Y-80021609D01*
X140278229Y-79989601D01*
X140286332Y-79981531D01*
X140333238Y-79949243D01*
X140392492Y-79923873D01*
X140409368Y-79919252D01*
X140452652Y-79913538D01*
X140523968Y-79908955D01*
X140617498Y-79905501D01*
X140727426Y-79903179D01*
X140847937Y-79901989D01*
X140973213Y-79901931D01*
X141097438Y-79903007D01*
X141214795Y-79905218D01*
X141319469Y-79908565D01*
X141405642Y-79913047D01*
X141467498Y-79918667D01*
X141470710Y-79919095D01*
X141570194Y-79936843D01*
X141644679Y-79962223D01*
X141698291Y-80000102D01*
X141735159Y-80055346D01*
X141759407Y-80132823D01*
X141775162Y-80237398D01*
X141779618Y-80283398D01*
X141789887Y-80386147D01*
X141801033Y-80460376D01*
X141814842Y-80511417D01*
X141833098Y-80544606D01*
X141857585Y-80565277D01*
X141876911Y-80574233D01*
X141942135Y-80597552D01*
X141983293Y-80604951D01*
X142007690Y-80593263D01*
X142022633Y-80559324D01*
X142034243Y-80506068D01*
X142066110Y-80384048D01*
X142116354Y-80243950D01*
X142181331Y-80093427D01*
X142257394Y-79940131D01*
X142340899Y-79791714D01*
X142428202Y-79655827D01*
X142461340Y-79609440D01*
X142582989Y-79471371D01*
X142736974Y-79342975D01*
X142923351Y-79224209D01*
X143077899Y-79144511D01*
X143173216Y-79101964D01*
X143261051Y-79069573D01*
X143348582Y-79046036D01*
X143442986Y-79030055D01*
X143551438Y-79020329D01*
X143681116Y-79015559D01*
X143796035Y-79014453D01*
X143951410Y-79016025D01*
X144079195Y-79022156D01*
X144185479Y-79033860D01*
X144276354Y-79052153D01*
X144357910Y-79078048D01*
X144436236Y-79112561D01*
X144460921Y-79125226D01*
X144520795Y-79163323D01*
X144592440Y-79218739D01*
X144669106Y-79285124D01*
X144744039Y-79356130D01*
X144810490Y-79425409D01*
X144861706Y-79486611D01*
X144887739Y-79526587D01*
X144906810Y-79579474D01*
X144916040Y-79637010D01*
X144914454Y-79686842D01*
X144902628Y-79715242D01*
X144881765Y-79725938D01*
X144835557Y-79744645D01*
X144770812Y-79768737D01*
X144694339Y-79795591D01*
X144693502Y-79795877D01*
X144534957Y-79853644D01*
X144403786Y-79910204D01*
X144293817Y-79968994D01*
X144198878Y-80033456D01*
X144112796Y-80107029D01*
X144083172Y-80136019D01*
X143978490Y-80250469D01*
X143894700Y-80360469D01*
X143834703Y-80461790D01*
X143802853Y-80544332D01*
X143792202Y-80590547D01*
X143787660Y-80620739D01*
X143788267Y-80626311D01*
X143806201Y-80628294D01*
X143854925Y-80630800D01*
X143931368Y-80633760D01*
X144032458Y-80637105D01*
X144155124Y-80640766D01*
X144296294Y-80644676D01*
X144452897Y-80648765D01*
X144621861Y-80652965D01*
X144800115Y-80657208D01*
X144984587Y-80661424D01*
X145172206Y-80665545D01*
X145359901Y-80669502D01*
X145544600Y-80673227D01*
X145723231Y-80676652D01*
X145892723Y-80679707D01*
X146050005Y-80682324D01*
X146192006Y-80684435D01*
X146315652Y-80685970D01*
X146417875Y-80686862D01*
X146495601Y-80687041D01*
X146505369Y-80687000D01*
X146616782Y-80685324D01*
X146699408Y-80680794D01*
X146758287Y-80672103D01*
X146798462Y-80657943D01*
X146824977Y-80637004D01*
X146842874Y-80607980D01*
X146846962Y-80598391D01*
X146854581Y-80560600D01*
X146859946Y-80495017D01*
X146863129Y-80407635D01*
X146864204Y-80304450D01*
X146863243Y-80191455D01*
X146860318Y-80074645D01*
X146855503Y-79960013D01*
X146848869Y-79853554D01*
X146840489Y-79761263D01*
X146836415Y-79727780D01*
X146778654Y-79412806D01*
X146692240Y-79112939D01*
X146577956Y-78829656D01*
X146436588Y-78564433D01*
X146268918Y-78318744D01*
X146075733Y-78094066D01*
X145862749Y-77895969D01*
X145756433Y-77810681D01*
X145651128Y-77733502D01*
X145538652Y-77658991D01*
X145410822Y-77581712D01*
X145270767Y-77502466D01*
X145193460Y-77458423D01*
X145126263Y-77417677D01*
X145075146Y-77384031D01*
X145046081Y-77361290D01*
X145042454Y-77357005D01*
X145034536Y-77332981D01*
X145044459Y-77310135D01*
X145075563Y-77286218D01*
X145131185Y-77258983D01*
X145214663Y-77226179D01*
X145262179Y-77209012D01*
X145363636Y-77168950D01*
X145483406Y-77115287D01*
X145611513Y-77053045D01*
X145737980Y-76987240D01*
X145852831Y-76922892D01*
X145946091Y-76865021D01*
X145946569Y-76864701D01*
X146068353Y-76776644D01*
X146203862Y-76667585D01*
X146346510Y-76543624D01*
X146489716Y-76410860D01*
X146626893Y-76275393D01*
X146751459Y-76143324D01*
X146854858Y-76023187D01*
X147032298Y-75777499D01*
X147184127Y-75510151D01*
X147309798Y-75222261D01*
X147408767Y-74914942D01*
X147422288Y-74863254D01*
X147439975Y-74776760D01*
X147452930Y-74673060D01*
X147461831Y-74545773D01*
X147463387Y-74507654D01*
X148599152Y-74507654D01*
X148606200Y-74780844D01*
X148629308Y-75028130D01*
X148670271Y-75254321D01*
X148730881Y-75464229D01*
X148812932Y-75662663D01*
X148918219Y-75854434D01*
X149048536Y-76044353D01*
X149205675Y-76237230D01*
X149271657Y-76311054D01*
X149490760Y-76534171D01*
X149719421Y-76735196D01*
X149955016Y-76912617D01*
X150194926Y-77064923D01*
X150436527Y-77190602D01*
X150677197Y-77288142D01*
X150914315Y-77356032D01*
X151145259Y-77392759D01*
X151148427Y-77393044D01*
X151203869Y-77396507D01*
X151287776Y-77399801D01*
X151394744Y-77402807D01*
X151519371Y-77405405D01*
X151656255Y-77407476D01*
X151799992Y-77408900D01*
X151886688Y-77409392D01*
X152049518Y-77409813D01*
X152182428Y-77409545D01*
X152289360Y-77408442D01*
X152374256Y-77406360D01*
X152441059Y-77403153D01*
X152493710Y-77398677D01*
X152536153Y-77392787D01*
X152572328Y-77385338D01*
X152577765Y-77384000D01*
X152688122Y-77356279D01*
X152496579Y-77255633D01*
X152226058Y-77108680D01*
X151984527Y-76966630D01*
X151768072Y-76826364D01*
X151572779Y-76684762D01*
X151394735Y-76538705D01*
X151230026Y-76385073D01*
X151074739Y-76220748D01*
X150924961Y-76042610D01*
X150844197Y-75938521D01*
X150716653Y-75746995D01*
X150603135Y-75531091D01*
X150506143Y-75298277D01*
X150428181Y-75056021D01*
X150371748Y-74811791D01*
X150339347Y-74573055D01*
X150332302Y-74410332D01*
X150348799Y-74180145D01*
X150397239Y-73948799D01*
X150476042Y-73719959D01*
X150583630Y-73497288D01*
X150718423Y-73284452D01*
X150878842Y-73085115D01*
X150924466Y-73036043D01*
X151117281Y-72854522D01*
X151318026Y-72703991D01*
X151525294Y-72585411D01*
X151681085Y-72519146D01*
X151813324Y-72470934D01*
X151644313Y-72458223D01*
X151533589Y-72453112D01*
X151398877Y-72451916D01*
X151249787Y-72454289D01*
X151095929Y-72459885D01*
X150946913Y-72468357D01*
X150812347Y-72479359D01*
X150704835Y-72492101D01*
X150422778Y-72545711D01*
X150151597Y-72621585D01*
X149894970Y-72718037D01*
X149656577Y-72833381D01*
X149440095Y-72965931D01*
X149249204Y-73113998D01*
X149155435Y-73202475D01*
X149023216Y-73350269D01*
X148907882Y-73509480D01*
X148802524Y-73689947D01*
X148773857Y-73745654D01*
X148714086Y-73869904D01*
X148669392Y-73977623D01*
X148637698Y-74077869D01*
X148616928Y-74179699D01*
X148605004Y-74292170D01*
X148599851Y-74424340D01*
X148599152Y-74507654D01*
X147463387Y-74507654D01*
X147465462Y-74456854D01*
X147468406Y-74347779D01*
X147468756Y-74264126D01*
X147465981Y-74197511D01*
X147459553Y-74139551D01*
X147448942Y-74081864D01*
X147439051Y-74038444D01*
X147377637Y-73841506D01*
X147293548Y-73669721D01*
X147186766Y-73523067D01*
X147057269Y-73401522D01*
X146905037Y-73305063D01*
X146730050Y-73233670D01*
X146683169Y-73219851D01*
X146605784Y-73204451D01*
X146504668Y-73192622D01*
X146389804Y-73184747D01*
X146271178Y-73181210D01*
X146158773Y-73182397D01*
X146062575Y-73188690D01*
X146020797Y-73194362D01*
X145951444Y-73210071D01*
X145865508Y-73234788D01*
X145777534Y-73264185D01*
X145743369Y-73276928D01*
X145614973Y-73336700D01*
X145509079Y-73410046D01*
X145419794Y-73502605D01*
X145341221Y-73620017D01*
X145297241Y-73703765D01*
X145229957Y-73857334D01*
X145184726Y-74000251D01*
X145158643Y-74144761D01*
X145148805Y-74303107D01*
X145148544Y-74330892D01*
X145158636Y-74536239D01*
X145191825Y-74720813D01*
X145250375Y-74890542D01*
X145336550Y-75051357D01*
X145452618Y-75209186D01*
X145508716Y-75273688D01*
X145563770Y-75340558D01*
X145596842Y-75398513D01*
X145606437Y-75450553D01*
X145591060Y-75499678D01*
X145549218Y-75548891D01*
X145479416Y-75601190D01*
X145380158Y-75659578D01*
X145293985Y-75704846D01*
X145144379Y-75776665D01*
X145012093Y-75829481D01*
X144888336Y-75865861D01*
X144764318Y-75888369D01*
X144631247Y-75899570D01*
X144625769Y-75899813D01*
X144442294Y-75897346D01*
X144279780Y-75871716D01*
X144132655Y-75820805D01*
X143995347Y-75742494D01*
X143862283Y-75634667D01*
X143819493Y-75593387D01*
X143750160Y-75521104D01*
X143698624Y-75458592D01*
X143656486Y-75394159D01*
X143615345Y-75316113D01*
X143605163Y-75295054D01*
X143550101Y-75170643D01*
X143510984Y-75057157D01*
X143484924Y-74942718D01*
X143469036Y-74815446D01*
X143462148Y-74706435D01*
X143464840Y-74475440D01*
X143464898Y-74475021D01*
X143603035Y-74475021D01*
X143603251Y-74575387D01*
X143608625Y-74767543D01*
X143624165Y-74931953D01*
X143651538Y-75073658D01*
X143692409Y-75197694D01*
X143748444Y-75309101D01*
X143821311Y-75412916D01*
X143912675Y-75514177D01*
X143914262Y-75515769D01*
X144032852Y-75621253D01*
X144152070Y-75697836D01*
X144278730Y-75748142D01*
X144419643Y-75774794D01*
X144581623Y-75780412D01*
X144600369Y-75779881D01*
X144700046Y-75774604D01*
X144780467Y-75764770D01*
X144856177Y-75747884D01*
X144941724Y-75721450D01*
X144942471Y-75721199D01*
X145052429Y-75680815D01*
X145158656Y-75635598D01*
X145256525Y-75588140D01*
X145341410Y-75541028D01*
X145408683Y-75496854D01*
X145453717Y-75458207D01*
X145471886Y-75427676D01*
X145472043Y-75424782D01*
X145461351Y-75404158D01*
X145432975Y-75365052D01*
X145391924Y-75314122D01*
X145366210Y-75284005D01*
X145250241Y-75136327D01*
X145163002Y-74990202D01*
X145100747Y-74837567D01*
X145059732Y-74670362D01*
X145048863Y-74600787D01*
X145037954Y-74398627D01*
X145057608Y-74189938D01*
X145106252Y-73978866D01*
X145182309Y-73769559D01*
X145284204Y-73566163D01*
X145410361Y-73372823D01*
X145559205Y-73193687D01*
X145599386Y-73152001D01*
X145794203Y-72978931D01*
X146008849Y-72832450D01*
X146244736Y-72711686D01*
X146429169Y-72639949D01*
X146546363Y-72603100D01*
X146655938Y-72576887D01*
X146767638Y-72559921D01*
X146891207Y-72550815D01*
X147036390Y-72548182D01*
X147072635Y-72548337D01*
X147168395Y-72550174D01*
X147259960Y-72554689D01*
X147353514Y-72562620D01*
X147455242Y-72574705D01*
X147571328Y-72591682D01*
X147707959Y-72614289D01*
X147871318Y-72643263D01*
X147876969Y-72644287D01*
X147896432Y-72645482D01*
X147888837Y-72637844D01*
X147859200Y-72623409D01*
X147812536Y-72604216D01*
X147753864Y-72582300D01*
X147688198Y-72559699D01*
X147620555Y-72538448D01*
X147605271Y-72533973D01*
X147348714Y-72466040D01*
X147112482Y-72416749D01*
X146889320Y-72385089D01*
X146671973Y-72370048D01*
X146453186Y-72370615D01*
X146437635Y-72371213D01*
X146098738Y-72401378D01*
X145765323Y-72463431D01*
X145440314Y-72556287D01*
X145126634Y-72678858D01*
X144827206Y-72830056D01*
X144544952Y-73008794D01*
X144371570Y-73139642D01*
X144162814Y-73327142D01*
X143984850Y-73527887D01*
X143836819Y-73743066D01*
X143717865Y-73973866D01*
X143656327Y-74131106D01*
X143636473Y-74189564D01*
X143622195Y-74237629D01*
X143612603Y-74282756D01*
X143606805Y-74332395D01*
X143603913Y-74393999D01*
X143603035Y-74475021D01*
X143464898Y-74475021D01*
X143495527Y-74256341D01*
X143555727Y-74041693D01*
X143637946Y-73842870D01*
X143739851Y-73658307D01*
X143869316Y-73473436D01*
X144020729Y-73294759D01*
X144188475Y-73128777D01*
X144366938Y-72981992D01*
X144405635Y-72953943D01*
X144562954Y-72852532D01*
X144744538Y-72752377D01*
X144940951Y-72658071D01*
X145142755Y-72574207D01*
X145302025Y-72517628D01*
X145485015Y-72459528D01*
X145644051Y-72413020D01*
X145786476Y-72376753D01*
X145919633Y-72349378D01*
X146050863Y-72329546D01*
X146187510Y-72315905D01*
X146336916Y-72307107D01*
X146471502Y-72302624D01*
X146651796Y-72300339D01*
X146808914Y-72304086D01*
G37*
X156613755Y-84989932D02*
X156649635Y-84994573D01*
X156730435Y-85010402D01*
X156783998Y-85033361D01*
X156816940Y-85069612D01*
X156835874Y-85125320D01*
X156843891Y-85175570D01*
X156846929Y-85216539D01*
X156849607Y-85285066D01*
X156851917Y-85376780D01*
X156853847Y-85487308D01*
X156855389Y-85612278D01*
X156856533Y-85747318D01*
X156857269Y-85888054D01*
X156857589Y-86030115D01*
X156857482Y-86169128D01*
X156856939Y-86300722D01*
X156855951Y-86420523D01*
X156854507Y-86524160D01*
X156852599Y-86607259D01*
X156850217Y-86665449D01*
X156847351Y-86694358D01*
X156847202Y-86694932D01*
X156825533Y-86736036D01*
X156799564Y-86759601D01*
X156759551Y-86770979D01*
X156692064Y-86779088D01*
X156603358Y-86783732D01*
X156499686Y-86784713D01*
X156387302Y-86781835D01*
X156284369Y-86775819D01*
X156153607Y-86762509D01*
X156048694Y-86742255D01*
X155961790Y-86711617D01*
X155885060Y-86667157D01*
X155810665Y-86605435D01*
X155745879Y-86539500D01*
X155660441Y-86435363D01*
X155599308Y-86330421D01*
X155558604Y-86215451D01*
X155534448Y-86081233D01*
X155528817Y-86023473D01*
X155522183Y-85869920D01*
X155612676Y-85869920D01*
X155624853Y-86042960D01*
X155662501Y-86202170D01*
X155724003Y-86344332D01*
X155807737Y-86466233D01*
X155912084Y-86564654D01*
X155986725Y-86612640D01*
X156072331Y-86647375D01*
X156185876Y-86674941D01*
X156322019Y-86694436D01*
X156475416Y-86704959D01*
X156543021Y-86706480D01*
X156621278Y-86706909D01*
X156672359Y-86705442D01*
X156702953Y-86700613D01*
X156719750Y-86690954D01*
X156729437Y-86674998D01*
X156733521Y-86664685D01*
X156737385Y-86637536D01*
X156740836Y-86579172D01*
X156743821Y-86492242D01*
X156746284Y-86379395D01*
X156748172Y-86243282D01*
X156749430Y-86086550D01*
X156750004Y-85911851D01*
X156750035Y-85858793D01*
X156750035Y-85096337D01*
X156423652Y-85102129D01*
X156097269Y-85107920D01*
X155984096Y-85163665D01*
X155865213Y-85240486D01*
X155768105Y-85342266D01*
X155693672Y-85467299D01*
X155642809Y-85613877D01*
X155616414Y-85780294D01*
X155612676Y-85869920D01*
X155522183Y-85869920D01*
X155520947Y-85841322D01*
X155529612Y-85684367D01*
X155556129Y-85547547D01*
X155601818Y-85425802D01*
X155667999Y-85314071D01*
X155735786Y-85229390D01*
X155798150Y-85164511D01*
X155859392Y-85114015D01*
X155925619Y-85075456D01*
X156002936Y-85046390D01*
X156097450Y-85024373D01*
X156215267Y-85006962D01*
X156319435Y-84995760D01*
X156436396Y-84986605D01*
X156530947Y-84984675D01*
X156613755Y-84989932D01*
G36*
X156613755Y-84989932D02*
G01*
X156649635Y-84994573D01*
X156730435Y-85010402D01*
X156783998Y-85033361D01*
X156816940Y-85069612D01*
X156835874Y-85125320D01*
X156843891Y-85175570D01*
X156846929Y-85216539D01*
X156849607Y-85285066D01*
X156851917Y-85376780D01*
X156853847Y-85487308D01*
X156855389Y-85612278D01*
X156856533Y-85747318D01*
X156857269Y-85888054D01*
X156857589Y-86030115D01*
X156857482Y-86169128D01*
X156856939Y-86300722D01*
X156855951Y-86420523D01*
X156854507Y-86524160D01*
X156852599Y-86607259D01*
X156850217Y-86665449D01*
X156847351Y-86694358D01*
X156847202Y-86694932D01*
X156825533Y-86736036D01*
X156799564Y-86759601D01*
X156759551Y-86770979D01*
X156692064Y-86779088D01*
X156603358Y-86783732D01*
X156499686Y-86784713D01*
X156387302Y-86781835D01*
X156284369Y-86775819D01*
X156153607Y-86762509D01*
X156048694Y-86742255D01*
X155961790Y-86711617D01*
X155885060Y-86667157D01*
X155810665Y-86605435D01*
X155745879Y-86539500D01*
X155660441Y-86435363D01*
X155599308Y-86330421D01*
X155558604Y-86215451D01*
X155534448Y-86081233D01*
X155528817Y-86023473D01*
X155522183Y-85869920D01*
X155612676Y-85869920D01*
X155624853Y-86042960D01*
X155662501Y-86202170D01*
X155724003Y-86344332D01*
X155807737Y-86466233D01*
X155912084Y-86564654D01*
X155986725Y-86612640D01*
X156072331Y-86647375D01*
X156185876Y-86674941D01*
X156322019Y-86694436D01*
X156475416Y-86704959D01*
X156543021Y-86706480D01*
X156621278Y-86706909D01*
X156672359Y-86705442D01*
X156702953Y-86700613D01*
X156719750Y-86690954D01*
X156729437Y-86674998D01*
X156733521Y-86664685D01*
X156737385Y-86637536D01*
X156740836Y-86579172D01*
X156743821Y-86492242D01*
X156746284Y-86379395D01*
X156748172Y-86243282D01*
X156749430Y-86086550D01*
X156750004Y-85911851D01*
X156750035Y-85858793D01*
X156750035Y-85096337D01*
X156423652Y-85102129D01*
X156097269Y-85107920D01*
X155984096Y-85163665D01*
X155865213Y-85240486D01*
X155768105Y-85342266D01*
X155693672Y-85467299D01*
X155642809Y-85613877D01*
X155616414Y-85780294D01*
X155612676Y-85869920D01*
X155522183Y-85869920D01*
X155520947Y-85841322D01*
X155529612Y-85684367D01*
X155556129Y-85547547D01*
X155601818Y-85425802D01*
X155667999Y-85314071D01*
X155735786Y-85229390D01*
X155798150Y-85164511D01*
X155859392Y-85114015D01*
X155925619Y-85075456D01*
X156002936Y-85046390D01*
X156097450Y-85024373D01*
X156215267Y-85006962D01*
X156319435Y-84995760D01*
X156436396Y-84986605D01*
X156530947Y-84984675D01*
X156613755Y-84989932D01*
G37*
%TD*%
D11*
%TO.C,BT1*%
X134296207Y-75854429D03*
X163656207Y-75854429D03*
%TD*%
D12*
%TO.C,X1*%
X146685695Y-91138950D03*
D13*
X146685695Y-93678950D03*
D12*
X149225695Y-91138950D03*
X149225695Y-93678950D03*
D14*
X151765695Y-91138950D03*
X151765695Y-93678950D03*
%TD*%
D15*
%TO.C,R6*%
X168727397Y-66286945D03*
X170505483Y-68826317D03*
%TD*%
D16*
%TO.C,C1*%
X144947389Y-113307035D03*
X148072389Y-113307035D03*
%TD*%
D17*
%TO.C,R18*%
X166600837Y-107277690D03*
X169362957Y-105870320D03*
%TD*%
D18*
%TO.C,SCL*%
X134854375Y-121697598D03*
%TD*%
D19*
%TO.C,R14*%
X152461884Y-125131507D03*
X151350944Y-122237407D03*
%TD*%
D20*
%TO.C,R11*%
X144199493Y-125191618D03*
X145259755Y-122278570D03*
%TD*%
D21*
%TO.C,U2*%
X157259672Y-110683490D03*
X155989672Y-110683490D03*
X154719672Y-110683490D03*
X153449672Y-110683490D03*
X152179672Y-110683490D03*
X150909672Y-110683490D03*
X149639672Y-110683490D03*
X148369672Y-110683490D03*
X147099672Y-110683490D03*
X145829672Y-110683490D03*
X144559672Y-110683490D03*
X143289672Y-110683490D03*
X142019672Y-110683490D03*
X140749672Y-110683490D03*
X140749672Y-101383490D03*
X142019672Y-101383490D03*
X143289672Y-101383490D03*
X144559672Y-101383490D03*
X145829672Y-101383490D03*
X147099672Y-101383490D03*
X148369672Y-101383490D03*
X149639672Y-101383490D03*
X150909672Y-101383490D03*
X152179672Y-101383490D03*
X153449672Y-101383490D03*
X154719672Y-101383490D03*
X155989672Y-101383490D03*
X157259672Y-101383490D03*
%TD*%
D22*
%TO.C,R12*%
X144944061Y-98456153D03*
X148044061Y-98456153D03*
%TD*%
D23*
%TO.C,SW1*%
X162147661Y-47891654D03*
X162147661Y-54691654D03*
D24*
X159397661Y-48791654D03*
X159397661Y-51291654D03*
X159397661Y-53791654D03*
%TD*%
D18*
%TO.C,MOSI*%
X138565424Y-121697598D03*
%TD*%
D25*
%TO.C,R2*%
X138042321Y-101011409D03*
X138042321Y-104111409D03*
%TD*%
D26*
%TO.C,R7*%
X129808718Y-89774425D03*
X132378734Y-91507923D03*
%TD*%
D18*
%TO.C,MISO*%
X142325022Y-121680907D03*
%TD*%
D27*
%TO.C,R17*%
X128693977Y-65778858D03*
X127383861Y-68588412D03*
%TD*%
D28*
%TO.C,R16*%
X162669135Y-117145668D03*
X162669135Y-114045668D03*
%TD*%
D29*
%TO.C,R13*%
X140310596Y-39430238D03*
X137210596Y-39430238D03*
%TD*%
D25*
%TO.C,R4*%
X172681189Y-76768095D03*
X172681189Y-79868095D03*
%TD*%
D29*
%TO.C,R10*%
X160080267Y-39425868D03*
X156980267Y-39425868D03*
%TD*%
D28*
%TO.C,R3*%
X159625929Y-118708388D03*
X159625929Y-115608388D03*
%TD*%
D18*
%TO.C,RST*%
X155055968Y-121680907D03*
%TD*%
D25*
%TO.C,R15*%
X131340600Y-56522849D03*
X131340600Y-59622849D03*
%TD*%
D30*
%TO.C,R5*%
X127979255Y-105883160D03*
X130765517Y-107242110D03*
%TD*%
D18*
%TO.C,3V3*%
X158417484Y-121680907D03*
%TD*%
D31*
%TO.C,U1*%
X151876969Y-115631617D03*
X151876969Y-116901617D03*
X151876969Y-118171617D03*
X151876969Y-119441617D03*
X144701969Y-119441617D03*
X144701969Y-118171617D03*
X144701969Y-116901617D03*
X144701969Y-115631617D03*
%TD*%
D18*
%TO.C,GND*%
X161685870Y-121680907D03*
%TD*%
D32*
%TO.C,R20*%
X168502018Y-89343436D03*
X165962646Y-91121522D03*
%TD*%
D25*
%TO.C,R1*%
X138834119Y-115616210D03*
X138834119Y-118716210D03*
%TD*%
D28*
%TO.C,R9*%
X133909812Y-117104247D03*
X133909812Y-114004247D03*
%TD*%
D25*
%TO.C,R8*%
X165541833Y-56514305D03*
X165541833Y-59614305D03*
%TD*%
%TO.C,R19*%
X125099509Y-77527288D03*
X125099509Y-80627288D03*
%TD*%
M02*
